ISO-10303-21;
HEADER;
/* Generated by software containing ST-Developer
 * from STEP Tools, Inc. (www.steptools.com) 
 */
/* OPTION: using custom renumber hook */

FILE_DESCRIPTION(
/* description */ ('STEP AP242',
'CAx-IF Rec.Pracs.---Representation and Presentation of Product Manufa
cturing Information (PMI)---4.0---2014-10-13',
'CAx-IF Rec.Pracs.---3D Tessellated Geometry---0.4---2014-09-14','2;1'),

/* implementation_level */ '2;1');

FILE_NAME(
/* name */ '67cbd9acccb1667d968ae9ed',
/* time_stamp */ '2025-03-08T05:46:20Z',
/* author */ (''),
/* organization */ (''),
/* preprocessor_version */ 'ST-DEVELOPER v20',
/* originating_system */ 'ONSHAPE BY PTC INC, 1.194',
/* authorisation */ '  ');

FILE_SCHEMA (('AP242_MANAGED_MODEL_BASED_3D_ENGINEERING_MIM_LF { 1 0 10303 442 1 1 4 }'));
ENDSEC;

DATA;
#10=SHAPE_REPRESENTATION_RELATIONSHIP('','',#410,#11);
#11=ADVANCED_BREP_SHAPE_REPRESENTATION('',(#408),#616);
#12=ORIENTED_EDGE('',*,*,#108,.F.);
#13=ORIENTED_EDGE('',*,*,#109,.T.);
#14=ORIENTED_EDGE('',*,*,#110,.T.);
#15=ORIENTED_EDGE('',*,*,#111,.T.);
#16=ORIENTED_EDGE('',*,*,#112,.F.);
#17=ORIENTED_EDGE('',*,*,#113,.F.);
#18=ORIENTED_EDGE('',*,*,#114,.T.);
#19=ORIENTED_EDGE('',*,*,#115,.T.);
#20=ORIENTED_EDGE('',*,*,#116,.F.);
#21=ORIENTED_EDGE('',*,*,#117,.F.);
#22=ORIENTED_EDGE('',*,*,#118,.T.);
#23=ORIENTED_EDGE('',*,*,#119,.F.);
#24=ORIENTED_EDGE('',*,*,#120,.F.);
#25=ORIENTED_EDGE('',*,*,#121,.T.);
#26=ORIENTED_EDGE('',*,*,#122,.T.);
#27=ORIENTED_EDGE('',*,*,#123,.F.);
#28=ORIENTED_EDGE('',*,*,#124,.F.);
#29=ORIENTED_EDGE('',*,*,#125,.T.);
#30=ORIENTED_EDGE('',*,*,#126,.T.);
#31=ORIENTED_EDGE('',*,*,#127,.F.);
#32=ORIENTED_EDGE('',*,*,#128,.F.);
#33=ORIENTED_EDGE('',*,*,#129,.F.);
#34=ORIENTED_EDGE('',*,*,#130,.T.);
#35=ORIENTED_EDGE('',*,*,#131,.T.);
#36=ORIENTED_EDGE('',*,*,#132,.F.);
#37=ORIENTED_EDGE('',*,*,#114,.F.);
#38=ORIENTED_EDGE('',*,*,#133,.T.);
#39=ORIENTED_EDGE('',*,*,#120,.T.);
#40=ORIENTED_EDGE('',*,*,#112,.T.);
#41=ORIENTED_EDGE('',*,*,#134,.T.);
#42=ORIENTED_EDGE('',*,*,#122,.F.);
#43=ORIENTED_EDGE('',*,*,#135,.F.);
#44=ORIENTED_EDGE('',*,*,#133,.F.);
#45=ORIENTED_EDGE('',*,*,#113,.T.);
#46=ORIENTED_EDGE('',*,*,#135,.T.);
#47=ORIENTED_EDGE('',*,*,#121,.F.);
#48=ORIENTED_EDGE('',*,*,#124,.T.);
#49=ORIENTED_EDGE('',*,*,#136,.F.);
#50=ORIENTED_EDGE('',*,*,#137,.F.);
#51=ORIENTED_EDGE('',*,*,#110,.F.);
#52=ORIENTED_EDGE('',*,*,#138,.F.);
#53=ORIENTED_EDGE('',*,*,#139,.T.);
#54=ORIENTED_EDGE('',*,*,#127,.T.);
#55=ORIENTED_EDGE('',*,*,#140,.F.);
#56=ORIENTED_EDGE('',*,*,#141,.F.);
#57=ORIENTED_EDGE('',*,*,#136,.T.);
#58=ORIENTED_EDGE('',*,*,#126,.F.);
#59=ORIENTED_EDGE('',*,*,#142,.F.);
#60=ORIENTED_EDGE('',*,*,#143,.T.);
#61=ORIENTED_EDGE('',*,*,#108,.T.);
#62=ORIENTED_EDGE('',*,*,#144,.T.);
#63=ORIENTED_EDGE('',*,*,#140,.T.);
#64=ORIENTED_EDGE('',*,*,#128,.T.);
#65=ORIENTED_EDGE('',*,*,#145,.F.);
#66=ORIENTED_EDGE('',*,*,#146,.F.);
#67=ORIENTED_EDGE('',*,*,#118,.F.);
#68=ORIENTED_EDGE('',*,*,#147,.F.);
#69=ORIENTED_EDGE('',*,*,#148,.T.);
#70=ORIENTED_EDGE('',*,*,#131,.F.);
#71=ORIENTED_EDGE('',*,*,#149,.F.);
#72=ORIENTED_EDGE('',*,*,#150,.T.);
#73=ORIENTED_EDGE('',*,*,#145,.T.);
#74=ORIENTED_EDGE('',*,*,#130,.F.);
#75=ORIENTED_EDGE('',*,*,#151,.F.);
#76=ORIENTED_EDGE('',*,*,#152,.T.);
#77=ORIENTED_EDGE('',*,*,#116,.T.);
#78=ORIENTED_EDGE('',*,*,#153,.T.);
#79=ORIENTED_EDGE('',*,*,#149,.T.);
#80=ORIENTED_EDGE('',*,*,#111,.F.);
#81=ORIENTED_EDGE('',*,*,#137,.T.);
#82=ORIENTED_EDGE('',*,*,#141,.T.);
#83=ORIENTED_EDGE('',*,*,#144,.F.);
#84=ORIENTED_EDGE('',*,*,#115,.F.);
#85=ORIENTED_EDGE('',*,*,#132,.T.);
#86=ORIENTED_EDGE('',*,*,#119,.T.);
#87=ORIENTED_EDGE('',*,*,#146,.T.);
#88=ORIENTED_EDGE('',*,*,#150,.F.);
#89=ORIENTED_EDGE('',*,*,#153,.F.);
#90=ORIENTED_EDGE('',*,*,#123,.T.);
#91=ORIENTED_EDGE('',*,*,#134,.F.);
#92=ORIENTED_EDGE('',*,*,#125,.F.);
#93=ORIENTED_EDGE('',*,*,#139,.F.);
#94=ORIENTED_EDGE('',*,*,#154,.T.);
#95=ORIENTED_EDGE('',*,*,#142,.T.);
#96=ORIENTED_EDGE('',*,*,#138,.T.);
#97=ORIENTED_EDGE('',*,*,#109,.F.);
#98=ORIENTED_EDGE('',*,*,#143,.F.);
#99=ORIENTED_EDGE('',*,*,#154,.F.);
#100=ORIENTED_EDGE('',*,*,#129,.T.);
#101=ORIENTED_EDGE('',*,*,#148,.F.);
#102=ORIENTED_EDGE('',*,*,#155,.F.);
#103=ORIENTED_EDGE('',*,*,#151,.T.);
#104=ORIENTED_EDGE('',*,*,#155,.T.);
#105=ORIENTED_EDGE('',*,*,#147,.T.);
#106=ORIENTED_EDGE('',*,*,#117,.T.);
#107=ORIENTED_EDGE('',*,*,#152,.F.);
#108=EDGE_CURVE('',#156,#157,#188,.T.);
#109=EDGE_CURVE('',#156,#158,#189,.T.);
#110=EDGE_CURVE('',#158,#159,#190,.T.);
#111=EDGE_CURVE('',#159,#160,#191,.T.);
#112=EDGE_CURVE('',#161,#160,#192,.T.);
#113=EDGE_CURVE('',#162,#161,#193,.T.);
#114=EDGE_CURVE('',#162,#163,#194,.T.);
#115=EDGE_CURVE('',#163,#157,#195,.T.);
#116=EDGE_CURVE('',#164,#165,#196,.T.);
#117=EDGE_CURVE('',#166,#164,#197,.T.);
#118=EDGE_CURVE('',#166,#167,#198,.T.);
#119=EDGE_CURVE('',#168,#167,#199,.T.);
#120=EDGE_CURVE('',#169,#168,#200,.T.);
#121=EDGE_CURVE('',#169,#170,#201,.T.);
#122=EDGE_CURVE('',#170,#171,#202,.T.);
#123=EDGE_CURVE('',#165,#171,#203,.T.);
#124=EDGE_CURVE('',#172,#173,#204,.T.);
#125=EDGE_CURVE('',#172,#174,#205,.T.);
#126=EDGE_CURVE('',#174,#175,#206,.T.);
#127=EDGE_CURVE('',#173,#175,#207,.T.);
#128=EDGE_CURVE('',#176,#177,#208,.T.);
#129=EDGE_CURVE('',#178,#176,#209,.T.);
#130=EDGE_CURVE('',#178,#179,#210,.T.);
#131=EDGE_CURVE('',#179,#177,#211,.T.);
#132=EDGE_CURVE('',#163,#168,#212,.T.);
#133=EDGE_CURVE('',#162,#169,#213,.T.);
#134=EDGE_CURVE('',#160,#171,#214,.T.);
#135=EDGE_CURVE('',#161,#170,#215,.T.);
#136=EDGE_CURVE('',#180,#173,#216,.T.);
#137=EDGE_CURVE('',#159,#180,#217,.T.);
#138=EDGE_CURVE('',#181,#158,#218,.T.);
#139=EDGE_CURVE('',#181,#172,#219,.T.);
#140=EDGE_CURVE('',#182,#175,#220,.T.);
#141=EDGE_CURVE('',#180,#182,#221,.T.);
#142=EDGE_CURVE('',#183,#174,#222,.T.);
#143=EDGE_CURVE('',#183,#156,#223,.T.);
#144=EDGE_CURVE('',#157,#182,#224,.T.);
#145=EDGE_CURVE('',#184,#177,#225,.T.);
#146=EDGE_CURVE('',#167,#184,#226,.T.);
#147=EDGE_CURVE('',#185,#166,#227,.T.);
#148=EDGE_CURVE('',#185,#176,#228,.T.);
#149=EDGE_CURVE('',#186,#179,#229,.T.);
#150=EDGE_CURVE('',#186,#184,#230,.T.);
#151=EDGE_CURVE('',#187,#178,#231,.T.);
#152=EDGE_CURVE('',#187,#164,#232,.T.);
#153=EDGE_CURVE('',#165,#186,#233,.T.);
#154=EDGE_CURVE('',#181,#183,#234,.T.);
#155=EDGE_CURVE('',#187,#185,#235,.T.);
#156=VERTEX_POINT('',#519);
#157=VERTEX_POINT('',#520);
#158=VERTEX_POINT('',#522);
#159=VERTEX_POINT('',#524);
#160=VERTEX_POINT('',#526);
#161=VERTEX_POINT('',#528);
#162=VERTEX_POINT('',#530);
#163=VERTEX_POINT('',#532);
#164=VERTEX_POINT('',#536);
#165=VERTEX_POINT('',#537);
#166=VERTEX_POINT('',#539);
#167=VERTEX_POINT('',#541);
#168=VERTEX_POINT('',#543);
#169=VERTEX_POINT('',#545);
#170=VERTEX_POINT('',#547);
#171=VERTEX_POINT('',#549);
#172=VERTEX_POINT('',#553);
#173=VERTEX_POINT('',#554);
#174=VERTEX_POINT('',#556);
#175=VERTEX_POINT('',#558);
#176=VERTEX_POINT('',#562);
#177=VERTEX_POINT('',#563);
#178=VERTEX_POINT('',#565);
#179=VERTEX_POINT('',#567);
#180=VERTEX_POINT('',#578);
#181=VERTEX_POINT('',#581);
#182=VERTEX_POINT('',#585);
#183=VERTEX_POINT('',#589);
#184=VERTEX_POINT('',#594);
#185=VERTEX_POINT('',#597);
#186=VERTEX_POINT('',#601);
#187=VERTEX_POINT('',#605);
#188=LINE('',#518,#236);
#189=LINE('',#521,#237);
#190=LINE('',#523,#238);
#191=LINE('',#525,#239);
#192=LINE('',#527,#240);
#193=LINE('',#529,#241);
#194=LINE('',#531,#242);
#195=LINE('',#533,#243);
#196=LINE('',#535,#244);
#197=LINE('',#538,#245);
#198=LINE('',#540,#246);
#199=LINE('',#542,#247);
#200=LINE('',#544,#248);
#201=LINE('',#546,#249);
#202=LINE('',#548,#250);
#203=LINE('',#550,#251);
#204=LINE('',#552,#252);
#205=LINE('',#555,#253);
#206=LINE('',#557,#254);
#207=LINE('',#559,#255);
#208=LINE('',#561,#256);
#209=LINE('',#564,#257);
#210=LINE('',#566,#258);
#211=LINE('',#568,#259);
#212=LINE('',#570,#260);
#213=LINE('',#571,#261);
#214=LINE('',#573,#262);
#215=LINE('',#574,#263);
#216=LINE('',#577,#264);
#217=LINE('',#579,#265);
#218=LINE('',#580,#266);
#219=LINE('',#582,#267);
#220=LINE('',#584,#268);
#221=LINE('',#586,#269);
#222=LINE('',#588,#270);
#223=LINE('',#590,#271);
#224=LINE('',#591,#272);
#225=LINE('',#593,#273);
#226=LINE('',#595,#274);
#227=LINE('',#596,#275);
#228=LINE('',#598,#276);
#229=LINE('',#600,#277);
#230=LINE('',#602,#278);
#231=LINE('',#604,#279);
#232=LINE('',#606,#280);
#233=LINE('',#607,#281);
#234=LINE('',#610,#282);
#235=LINE('',#613,#283);
#236=VECTOR('',#434,1.);
#237=VECTOR('',#435,1.);
#238=VECTOR('',#436,1.);
#239=VECTOR('',#437,1.);
#240=VECTOR('',#438,1.);
#241=VECTOR('',#439,1.);
#242=VECTOR('',#440,1.);
#243=VECTOR('',#441,1.);
#244=VECTOR('',#444,1.);
#245=VECTOR('',#445,1.);
#246=VECTOR('',#446,1.);
#247=VECTOR('',#447,1.);
#248=VECTOR('',#448,1.);
#249=VECTOR('',#449,1.);
#250=VECTOR('',#450,1.);
#251=VECTOR('',#451,1.);
#252=VECTOR('',#454,1.);
#253=VECTOR('',#455,1.);
#254=VECTOR('',#456,1.);
#255=VECTOR('',#457,1.);
#256=VECTOR('',#460,1.);
#257=VECTOR('',#461,1.);
#258=VECTOR('',#462,1.);
#259=VECTOR('',#463,1.);
#260=VECTOR('',#466,1.);
#261=VECTOR('',#467,1.);
#262=VECTOR('',#470,1.);
#263=VECTOR('',#471,1.);
#264=VECTOR('',#476,1.);
#265=VECTOR('',#477,1.);
#266=VECTOR('',#478,1.);
#267=VECTOR('',#479,1.);
#268=VECTOR('',#482,1.);
#269=VECTOR('',#483,1.);
#270=VECTOR('',#486,1.);
#271=VECTOR('',#487,1.);
#272=VECTOR('',#488,1.);
#273=VECTOR('',#491,1.);
#274=VECTOR('',#492,1.);
#275=VECTOR('',#493,1.);
#276=VECTOR('',#494,1.);
#277=VECTOR('',#497,1.);
#278=VECTOR('',#498,1.);
#279=VECTOR('',#501,1.);
#280=VECTOR('',#502,1.);
#281=VECTOR('',#503,1.);
#282=VECTOR('',#508,1.);
#283=VECTOR('',#513,1.);
#284=EDGE_LOOP('',(#12,#13,#14,#15,#16,#17,#18,#19));
#285=EDGE_LOOP('',(#20,#21,#22,#23,#24,#25,#26,#27));
#286=EDGE_LOOP('',(#28,#29,#30,#31));
#287=EDGE_LOOP('',(#32,#33,#34,#35));
#288=EDGE_LOOP('',(#36,#37,#38,#39));
#289=EDGE_LOOP('',(#40,#41,#42,#43));
#290=EDGE_LOOP('',(#44,#45,#46,#47));
#291=EDGE_LOOP('',(#48,#49,#50,#51,#52,#53));
#292=EDGE_LOOP('',(#54,#55,#56,#57));
#293=EDGE_LOOP('',(#58,#59,#60,#61,#62,#63));
#294=EDGE_LOOP('',(#64,#65,#66,#67,#68,#69));
#295=EDGE_LOOP('',(#70,#71,#72,#73));
#296=EDGE_LOOP('',(#74,#75,#76,#77,#78,#79));
#297=EDGE_LOOP('',(#80,#81,#82,#83,#84,#85,#86,#87,#88,#89,#90,#91));
#298=EDGE_LOOP('',(#92,#93,#94,#95));
#299=EDGE_LOOP('',(#96,#97,#98,#99));
#300=EDGE_LOOP('',(#100,#101,#102,#103));
#301=EDGE_LOOP('',(#104,#105,#106,#107));
#302=FACE_BOUND('',#284,.T.);
#303=FACE_BOUND('',#285,.T.);
#304=FACE_BOUND('',#286,.T.);
#305=FACE_BOUND('',#287,.T.);
#306=FACE_BOUND('',#288,.T.);
#307=FACE_BOUND('',#289,.T.);
#308=FACE_BOUND('',#290,.T.);
#309=FACE_BOUND('',#291,.T.);
#310=FACE_BOUND('',#292,.T.);
#311=FACE_BOUND('',#293,.T.);
#312=FACE_BOUND('',#294,.T.);
#313=FACE_BOUND('',#295,.T.);
#314=FACE_BOUND('',#296,.T.);
#315=FACE_BOUND('',#297,.T.);
#316=FACE_BOUND('',#298,.T.);
#317=FACE_BOUND('',#299,.T.);
#318=FACE_BOUND('',#300,.T.);
#319=FACE_BOUND('',#301,.T.);
#320=PLANE('',#412);
#321=PLANE('',#413);
#322=PLANE('',#414);
#323=PLANE('',#415);
#324=PLANE('',#416);
#325=PLANE('',#417);
#326=PLANE('',#418);
#327=PLANE('',#419);
#328=PLANE('',#420);
#329=PLANE('',#421);
#330=PLANE('',#422);
#331=PLANE('',#423);
#332=PLANE('',#424);
#333=PLANE('',#425);
#334=PLANE('',#426);
#335=PLANE('',#427);
#336=PLANE('',#428);
#337=PLANE('',#429);
#338=OVER_RIDING_STYLED_ITEM('',(#365),#344,#363);
#339=OVER_RIDING_STYLED_ITEM('',(#366),#345,#363);
#340=OVER_RIDING_STYLED_ITEM('',(#367),#348,#363);
#341=OVER_RIDING_STYLED_ITEM('',(#368),#349,#363);
#342=OVER_RIDING_STYLED_ITEM('',(#369),#350,#363);
#343=OVER_RIDING_STYLED_ITEM('',(#370),#357,#363);
#344=ADVANCED_FACE('',(#302),#320,.F.);
#345=ADVANCED_FACE('',(#303),#321,.T.);
#346=ADVANCED_FACE('',(#304),#322,.F.);
#347=ADVANCED_FACE('',(#305),#323,.F.);
#348=ADVANCED_FACE('',(#306),#324,.T.);
#349=ADVANCED_FACE('',(#307),#325,.F.);
#350=ADVANCED_FACE('',(#308),#326,.T.);
#351=ADVANCED_FACE('',(#309),#327,.F.);
#352=ADVANCED_FACE('',(#310),#328,.F.);
#353=ADVANCED_FACE('',(#311),#329,.T.);
#354=ADVANCED_FACE('',(#312),#330,.F.);
#355=ADVANCED_FACE('',(#313),#331,.T.);
#356=ADVANCED_FACE('',(#314),#332,.T.);
#357=ADVANCED_FACE('',(#315),#333,.T.);
#358=ADVANCED_FACE('',(#316),#334,.T.);
#359=ADVANCED_FACE('',(#317),#335,.F.);
#360=ADVANCED_FACE('',(#318),#336,.F.);
#361=ADVANCED_FACE('',(#319),#337,.F.);
#362=CLOSED_SHELL('',(#344,#345,#346,#347,#348,#349,#350,#351,#352,#353,
#354,#355,#356,#357,#358,#359,#360,#361));
#363=STYLED_ITEM('',(#364),#408);
#364=PRESENTATION_STYLE_ASSIGNMENT((#371));
#365=PRESENTATION_STYLE_ASSIGNMENT((#372));
#366=PRESENTATION_STYLE_ASSIGNMENT((#373));
#367=PRESENTATION_STYLE_ASSIGNMENT((#374));
#368=PRESENTATION_STYLE_ASSIGNMENT((#375));
#369=PRESENTATION_STYLE_ASSIGNMENT((#376));
#370=PRESENTATION_STYLE_ASSIGNMENT((#377));
#371=SURFACE_STYLE_USAGE(.BOTH.,#378);
#372=SURFACE_STYLE_USAGE(.BOTH.,#379);
#373=SURFACE_STYLE_USAGE(.BOTH.,#380);
#374=SURFACE_STYLE_USAGE(.BOTH.,#381);
#375=SURFACE_STYLE_USAGE(.BOTH.,#382);
#376=SURFACE_STYLE_USAGE(.BOTH.,#383);
#377=SURFACE_STYLE_USAGE(.BOTH.,#384);
#378=SURFACE_SIDE_STYLE('',(#385));
#379=SURFACE_SIDE_STYLE('',(#386));
#380=SURFACE_SIDE_STYLE('',(#387));
#381=SURFACE_SIDE_STYLE('',(#388));
#382=SURFACE_SIDE_STYLE('',(#389));
#383=SURFACE_SIDE_STYLE('',(#390));
#384=SURFACE_SIDE_STYLE('',(#391));
#385=SURFACE_STYLE_FILL_AREA(#392);
#386=SURFACE_STYLE_FILL_AREA(#393);
#387=SURFACE_STYLE_FILL_AREA(#394);
#388=SURFACE_STYLE_FILL_AREA(#395);
#389=SURFACE_STYLE_FILL_AREA(#396);
#390=SURFACE_STYLE_FILL_AREA(#397);
#391=SURFACE_STYLE_FILL_AREA(#398);
#392=FILL_AREA_STYLE('',(#399));
#393=FILL_AREA_STYLE('',(#400));
#394=FILL_AREA_STYLE('',(#401));
#395=FILL_AREA_STYLE('',(#402));
#396=FILL_AREA_STYLE('',(#403));
#397=FILL_AREA_STYLE('',(#404));
#398=FILL_AREA_STYLE('',(#405));
#399=FILL_AREA_STYLE_COLOUR('',#406);
#400=FILL_AREA_STYLE_COLOUR('',#407);
#401=FILL_AREA_STYLE_COLOUR('',#407);
#402=FILL_AREA_STYLE_COLOUR('',#407);
#403=FILL_AREA_STYLE_COLOUR('',#407);
#404=FILL_AREA_STYLE_COLOUR('',#407);
#405=FILL_AREA_STYLE_COLOUR('',#407);
#406=COLOUR_RGB('',0.764705882352941,0.764705882352941,0.764705882352941);
#407=COLOUR_RGB('',0.470588235294118,0.466666666666667,0.466666666666667);
#408=MANIFOLD_SOLID_BREP('0630CDMCCDS',#362);
#409=SHAPE_DEFINITION_REPRESENTATION(#621,#410);
#410=SHAPE_REPRESENTATION('0630CDMCCDS',(#411),#616);
#411=AXIS2_PLACEMENT_3D('',#516,#430,#431);
#412=AXIS2_PLACEMENT_3D('',#517,#432,#433);
#413=AXIS2_PLACEMENT_3D('',#534,#442,#443);
#414=AXIS2_PLACEMENT_3D('',#551,#452,#453);
#415=AXIS2_PLACEMENT_3D('',#560,#458,#459);
#416=AXIS2_PLACEMENT_3D('',#569,#464,#465);
#417=AXIS2_PLACEMENT_3D('',#572,#468,#469);
#418=AXIS2_PLACEMENT_3D('',#575,#472,#473);
#419=AXIS2_PLACEMENT_3D('',#576,#474,#475);
#420=AXIS2_PLACEMENT_3D('',#583,#480,#481);
#421=AXIS2_PLACEMENT_3D('',#587,#484,#485);
#422=AXIS2_PLACEMENT_3D('',#592,#489,#490);
#423=AXIS2_PLACEMENT_3D('',#599,#495,#496);
#424=AXIS2_PLACEMENT_3D('',#603,#499,#500);
#425=AXIS2_PLACEMENT_3D('',#608,#504,#505);
#426=AXIS2_PLACEMENT_3D('',#609,#506,#507);
#427=AXIS2_PLACEMENT_3D('',#611,#509,#510);
#428=AXIS2_PLACEMENT_3D('',#612,#511,#512);
#429=AXIS2_PLACEMENT_3D('',#614,#514,#515);
#430=DIRECTION('',(0.,0.,1.));
#431=DIRECTION('',(1.,0.,0.));
#432=DIRECTION('',(1.,-1.97127667724637E-16,0.));
#433=DIRECTION('',(1.97127667724637E-16,1.,0.));
#434=DIRECTION('',(0.,0.,-1.));
#435=DIRECTION('',(-1.97127667724637E-16,-1.,0.));
#436=DIRECTION('',(0.,0.,-1.));
#437=DIRECTION('',(-1.97127667724637E-16,-1.,0.));
#438=DIRECTION('',(0.,0.,-1.));
#439=DIRECTION('',(-1.97127667724637E-16,-1.,0.));
#440=DIRECTION('',(0.,0.,-1.));
#441=DIRECTION('',(-1.97127667724637E-16,-1.,0.));
#442=DIRECTION('',(1.,-1.97127667724637E-16,0.));
#443=DIRECTION('',(1.97127667724637E-16,1.,0.));
#444=DIRECTION('',(0.,0.,-1.));
#445=DIRECTION('',(-1.97127667724637E-16,-1.,0.));
#446=DIRECTION('',(0.,0.,-1.));
#447=DIRECTION('',(-1.97127667724637E-16,-1.,0.));
#448=DIRECTION('',(0.,0.,-1.));
#449=DIRECTION('',(-1.97127667724637E-16,-1.,0.));
#450=DIRECTION('',(0.,0.,-1.));
#451=DIRECTION('',(-1.97127667724637E-16,-1.,0.));
#452=DIRECTION('',(0.,0.,1.));
#453=DIRECTION('',(1.,0.,0.));
#454=DIRECTION('',(1.,0.,0.));
#455=DIRECTION('',(0.,1.,0.));
#456=DIRECTION('',(1.,0.,0.));
#457=DIRECTION('',(0.,1.,0.));
#458=DIRECTION('',(0.,0.,1.));
#459=DIRECTION('',(1.,0.,0.));
#460=DIRECTION('',(-1.,0.,0.));
#461=DIRECTION('',(0.,1.,0.));
#462=DIRECTION('',(-1.,0.,0.));
#463=DIRECTION('',(0.,1.,0.));
#464=DIRECTION('',(0.,1.,0.));
#465=DIRECTION('',(0.,0.,1.));
#466=DIRECTION('',(1.,0.,0.));
#467=DIRECTION('',(1.,0.,0.));
#468=DIRECTION('',(0.,1.,0.));
#469=DIRECTION('',(0.,0.,1.));
#470=DIRECTION('',(1.,0.,0.));
#471=DIRECTION('',(1.,0.,0.));
#472=DIRECTION('',(0.,0.,1.));
#473=DIRECTION('',(1.,0.,0.));
#474=DIRECTION('',(0.,1.,0.));
#475=DIRECTION('',(0.,0.,1.));
#476=DIRECTION('',(0.,0.,-1.));
#477=DIRECTION('',(1.,0.,0.));
#478=DIRECTION('',(1.,0.,0.));
#479=DIRECTION('',(0.,0.,-1.));
#480=DIRECTION('',(-1.,0.,0.));
#481=DIRECTION('',(0.,0.,1.));
#482=DIRECTION('',(0.,0.,-1.));
#483=DIRECTION('',(0.,1.,0.));
#484=DIRECTION('',(0.,1.,0.));
#485=DIRECTION('',(0.,0.,1.));
#486=DIRECTION('',(0.,0.,-1.));
#487=DIRECTION('',(1.,0.,0.));
#488=DIRECTION('',(1.,0.,0.));
#489=DIRECTION('',(0.,-1.,0.));
#490=DIRECTION('',(0.,0.,-1.));
#491=DIRECTION('',(0.,0.,-1.));
#492=DIRECTION('',(-1.,0.,0.));
#493=DIRECTION('',(-1.,0.,0.));
#494=DIRECTION('',(0.,0.,-1.));
#495=DIRECTION('',(-1.,0.,0.));
#496=DIRECTION('',(0.,0.,1.));
#497=DIRECTION('',(0.,0.,-1.));
#498=DIRECTION('',(0.,1.,0.));
#499=DIRECTION('',(0.,-1.,0.));
#500=DIRECTION('',(0.,0.,-1.));
#501=DIRECTION('',(0.,0.,-1.));
#502=DIRECTION('',(-1.,0.,0.));
#503=DIRECTION('',(-1.,0.,0.));
#504=DIRECTION('',(0.,0.,-1.));
#505=DIRECTION('',(1.,0.,0.));
#506=DIRECTION('',(-1.,0.,0.));
#507=DIRECTION('',(0.,0.,1.));
#508=DIRECTION('',(0.,1.,0.));
#509=DIRECTION('',(0.,0.,-1.));
#510=DIRECTION('',(1.,0.,0.));
#511=DIRECTION('',(-1.,0.,0.));
#512=DIRECTION('',(0.,0.,1.));
#513=DIRECTION('',(0.,1.,0.));
#514=DIRECTION('',(0.,0.,-1.));
#515=DIRECTION('',(1.,0.,0.));
#516=CARTESIAN_POINT('',(0.,0.,0.));
#517=CARTESIAN_POINT('',(-0.0033,0.,0.0028));
#518=CARTESIAN_POINT('',(-0.0033,0.00145,0.001));
#519=CARTESIAN_POINT('',(-0.0033,0.00145,0.001));
#520=CARTESIAN_POINT('',(-0.0033,0.00145,0.00015));
#521=CARTESIAN_POINT('',(-0.0033,0.,0.001));
#522=CARTESIAN_POINT('',(-0.0033,-0.00145,0.001));
#523=CARTESIAN_POINT('',(-0.0033,-0.00145,0.001));
#524=CARTESIAN_POINT('',(-0.0033,-0.00145,0.00015));
#525=CARTESIAN_POINT('',(-0.0033,0.,0.00015));
#526=CARTESIAN_POINT('',(-0.0033,-0.0033,0.00015));
#527=CARTESIAN_POINT('',(-0.0033,-0.0033,0.0028));
#528=CARTESIAN_POINT('',(-0.0033,-0.0033,0.0028));
#529=CARTESIAN_POINT('',(-0.0033,0.,0.0028));
#530=CARTESIAN_POINT('',(-0.0033,0.0033,0.0028));
#531=CARTESIAN_POINT('',(-0.0033,0.0033,0.0028));
#532=CARTESIAN_POINT('',(-0.0033,0.0033,0.00015));
#533=CARTESIAN_POINT('',(-0.0033,0.,0.00015));
#534=CARTESIAN_POINT('',(0.0033,0.,0.0028));
#535=CARTESIAN_POINT('',(0.0033,-0.00145,0.001));
#536=CARTESIAN_POINT('',(0.0033,-0.00145,0.001));
#537=CARTESIAN_POINT('',(0.0033,-0.00145,0.00015));
#538=CARTESIAN_POINT('',(0.0033,0.,0.001));
#539=CARTESIAN_POINT('',(0.0033,0.00145,0.001));
#540=CARTESIAN_POINT('',(0.0033,0.00145,0.001));
#541=CARTESIAN_POINT('',(0.0033,0.00145,0.00015));
#542=CARTESIAN_POINT('',(0.0033,0.,0.00015));
#543=CARTESIAN_POINT('',(0.0033,0.0033,0.00015));
#544=CARTESIAN_POINT('',(0.0033,0.0033,0.0028));
#545=CARTESIAN_POINT('',(0.0033,0.0033,0.0028));
#546=CARTESIAN_POINT('',(0.0033,0.,0.0028));
#547=CARTESIAN_POINT('',(0.0033,-0.0033,0.0028));
#548=CARTESIAN_POINT('',(0.0033,-0.0033,0.0028));
#549=CARTESIAN_POINT('',(0.0033,-0.0033,0.00015));
#550=CARTESIAN_POINT('',(0.0033,0.,0.00015));
#551=CARTESIAN_POINT('',(0.,0.,0.));
#552=CARTESIAN_POINT('',(-0.0027,-0.00145,0.));
#553=CARTESIAN_POINT('',(-0.0035,-0.00145,0.));
#554=CARTESIAN_POINT('',(-0.0019,-0.00145,0.));
#555=CARTESIAN_POINT('',(-0.0035,2.16840434497101E-19,0.));
#556=CARTESIAN_POINT('',(-0.0035,0.00145,0.));
#557=CARTESIAN_POINT('',(-0.0027,0.00145,0.));
#558=CARTESIAN_POINT('',(-0.0019,0.00145,0.));
#559=CARTESIAN_POINT('',(-0.0019,0.,0.));
#560=CARTESIAN_POINT('',(0.,0.,0.));
#561=CARTESIAN_POINT('',(0.0027,0.00145,0.));
#562=CARTESIAN_POINT('',(0.0035,0.00145,0.));
#563=CARTESIAN_POINT('',(0.0019,0.00145,0.));
#564=CARTESIAN_POINT('',(0.0035,1.0842021724855E-18,0.));
#565=CARTESIAN_POINT('',(0.0035,-0.00145,0.));
#566=CARTESIAN_POINT('',(0.0027,-0.00145,0.));
#567=CARTESIAN_POINT('',(0.0019,-0.00145,0.));
#568=CARTESIAN_POINT('',(0.0019,1.0842021724855E-18,0.));
#569=CARTESIAN_POINT('',(4.33680868994202E-19,0.0033,0.0028));
#570=CARTESIAN_POINT('',(4.33680868994202E-19,0.0033,0.00015));
#571=CARTESIAN_POINT('',(4.33680868994202E-19,0.0033,0.0028));
#572=CARTESIAN_POINT('',(-4.33680868994202E-19,-0.0033,0.0028));
#573=CARTESIAN_POINT('',(-4.33680868994202E-19,-0.0033,0.00015));
#574=CARTESIAN_POINT('',(-4.33680868994202E-19,-0.0033,0.0028));
#575=CARTESIAN_POINT('',(0.,0.,0.0028));
#576=CARTESIAN_POINT('',(-0.0027,-0.00145,0.00015));
#577=CARTESIAN_POINT('',(-0.0019,-0.00145,0.00015));
#578=CARTESIAN_POINT('',(-0.0019,-0.00145,0.00015));
#579=CARTESIAN_POINT('',(-0.0027,-0.00145,0.00015));
#580=CARTESIAN_POINT('',(-0.0027,-0.00145,0.001));
#581=CARTESIAN_POINT('',(-0.0035,-0.00145,0.001));
#582=CARTESIAN_POINT('',(-0.0035,-0.00145,0.001));
#583=CARTESIAN_POINT('',(-0.0019,0.,0.00015));
#584=CARTESIAN_POINT('',(-0.0019,0.00145,0.00015));
#585=CARTESIAN_POINT('',(-0.0019,0.00145,0.00015));
#586=CARTESIAN_POINT('',(-0.0019,0.,0.00015));
#587=CARTESIAN_POINT('',(-0.0027,0.00145,0.00015));
#588=CARTESIAN_POINT('',(-0.0035,0.00145,0.001));
#589=CARTESIAN_POINT('',(-0.0035,0.00145,0.001));
#590=CARTESIAN_POINT('',(-0.0027,0.00145,0.001));
#591=CARTESIAN_POINT('',(-0.0027,0.00145,0.00015));
#592=CARTESIAN_POINT('',(0.0027,0.00145,0.00015));
#593=CARTESIAN_POINT('',(0.0019,0.00145,0.00015));
#594=CARTESIAN_POINT('',(0.0019,0.00145,0.00015));
#595=CARTESIAN_POINT('',(0.0027,0.00145,0.00015));
#596=CARTESIAN_POINT('',(0.0027,0.00145,0.001));
#597=CARTESIAN_POINT('',(0.0035,0.00145,0.001));
#598=CARTESIAN_POINT('',(0.0035,0.00145,0.001));
#599=CARTESIAN_POINT('',(0.0019,1.0842021724855E-18,0.00015));
#600=CARTESIAN_POINT('',(0.0019,-0.00145,0.00015));
#601=CARTESIAN_POINT('',(0.0019,-0.00145,0.00015));
#602=CARTESIAN_POINT('',(0.0019,1.0842021724855E-18,0.00015));
#603=CARTESIAN_POINT('',(0.0027,-0.00145,0.00015));
#604=CARTESIAN_POINT('',(0.0035,-0.00145,0.001));
#605=CARTESIAN_POINT('',(0.0035,-0.00145,0.001));
#606=CARTESIAN_POINT('',(0.0027,-0.00145,0.001));
#607=CARTESIAN_POINT('',(0.0027,-0.00145,0.00015));
#608=CARTESIAN_POINT('',(0.,0.,0.00015));
#609=CARTESIAN_POINT('',(-0.0035,2.16840434497101E-19,0.001));
#610=CARTESIAN_POINT('',(-0.0035,2.16840434497101E-19,0.001));
#611=CARTESIAN_POINT('',(0.,0.,0.001));
#612=CARTESIAN_POINT('',(0.0035,1.0842021724855E-18,0.001));
#613=CARTESIAN_POINT('',(0.0035,1.0842021724855E-18,0.001));
#614=CARTESIAN_POINT('',(0.,0.,0.001));
#615=MECHANICAL_DESIGN_GEOMETRIC_PRESENTATION_REPRESENTATION('',(#363,#338,
#339,#340,#341,#342,#343),#616);
#616=(
GEOMETRIC_REPRESENTATION_CONTEXT(3)
GLOBAL_UNCERTAINTY_ASSIGNED_CONTEXT((#617))
GLOBAL_UNIT_ASSIGNED_CONTEXT((#620,#619,#618))
REPRESENTATION_CONTEXT('0630CDMCCDS','TOP_LEVEL_ASSEMBLY_PART')
);
#617=UNCERTAINTY_MEASURE_WITH_UNIT(LENGTH_MEASURE(1.E-8),#620,
'DISTANCE_ACCURACY_VALUE','Maximum Tolerance applied to model');
#618=(
NAMED_UNIT(*)
SI_UNIT($,.STERADIAN.)
SOLID_ANGLE_UNIT()
);
#619=(
NAMED_UNIT(*)
PLANE_ANGLE_UNIT()
SI_UNIT($,.RADIAN.)
);
#620=(
LENGTH_UNIT()
NAMED_UNIT(*)
SI_UNIT($,.METRE.)
);
#621=PRODUCT_DEFINITION_SHAPE('','',#622);
#622=PRODUCT_DEFINITION('','',#624,#623);
#623=PRODUCT_DEFINITION_CONTEXT('',#630,'design');
#624=PRODUCT_DEFINITION_FORMATION_WITH_SPECIFIED_SOURCE('','',#626,
 .NOT_KNOWN.);
#625=PRODUCT_RELATED_PRODUCT_CATEGORY('','',(#626));
#626=PRODUCT('0630CDMCCDS','0630CDMCCDS','0630CDMCCDS',(#628));
#627=PRODUCT_CATEGORY('','');
#628=PRODUCT_CONTEXT('',#630,'mechanical');
#629=APPLICATION_PROTOCOL_DEFINITION('international standard',
'ap242_managed_model_based_3d_engineering',2011,#630);
#630=APPLICATION_CONTEXT('managed model based 3d engineering');
ENDSEC;
END-ISO-10303-21;
