ISO-10303-21;
HEADER;
/* Generated by software containing ST-Developer
 * from STEP Tools, Inc. (www.steptools.com) 
 */
/* OPTION: using custom renumber hook */

FILE_DESCRIPTION(
/* description */ ('STEP AP242',
'CAx-IF Rec.Pracs.---Representation and Presentation of Product Manufa
cturing Information (PMI)---4.0---2014-10-13',
'CAx-IF Rec.Pracs.---3D Tessellated Geometry---0.4---2014-09-14','2;1'),

/* implementation_level */ '2;1');

FILE_NAME(
/* name */ '67cbdfa5b802a80cb7446888',
/* time_stamp */ '2025-03-08T06:11:49Z',
/* author */ (''),
/* organization */ (''),
/* preprocessor_version */ 'ST-DEVELOPER v20',
/* originating_system */ 'ONSHAPE BY PTC INC, 1.194',
/* authorisation */ '  ');

FILE_SCHEMA (('AP242_MANAGED_MODEL_BASED_3D_ENGINEERING_MIM_LF { 1 0 10303 442 1 1 4 }'));
ENDSEC;

DATA;
#10=SHAPE_REPRESENTATION_RELATIONSHIP('','',#386,#11);
#11=ADVANCED_BREP_SHAPE_REPRESENTATION('',(#384),#580);
#12=ORIENTED_EDGE('',*,*,#100,.F.);
#13=ORIENTED_EDGE('',*,*,#101,.T.);
#14=ORIENTED_EDGE('',*,*,#102,.F.);
#15=ORIENTED_EDGE('',*,*,#103,.F.);
#16=ORIENTED_EDGE('',*,*,#104,.T.);
#17=ORIENTED_EDGE('',*,*,#105,.T.);
#18=ORIENTED_EDGE('',*,*,#106,.F.);
#19=ORIENTED_EDGE('',*,*,#107,.F.);
#20=ORIENTED_EDGE('',*,*,#108,.F.);
#21=ORIENTED_EDGE('',*,*,#109,.T.);
#22=ORIENTED_EDGE('',*,*,#110,.T.);
#23=ORIENTED_EDGE('',*,*,#111,.F.);
#24=ORIENTED_EDGE('',*,*,#112,.F.);
#25=ORIENTED_EDGE('',*,*,#113,.F.);
#26=ORIENTED_EDGE('',*,*,#114,.T.);
#27=ORIENTED_EDGE('',*,*,#115,.F.);
#28=ORIENTED_EDGE('',*,*,#116,.F.);
#29=ORIENTED_EDGE('',*,*,#117,.T.);
#30=ORIENTED_EDGE('',*,*,#118,.T.);
#31=ORIENTED_EDGE('',*,*,#119,.T.);
#32=ORIENTED_EDGE('',*,*,#120,.F.);
#33=ORIENTED_EDGE('',*,*,#104,.F.);
#34=ORIENTED_EDGE('',*,*,#121,.T.);
#35=ORIENTED_EDGE('',*,*,#108,.T.);
#36=ORIENTED_EDGE('',*,*,#102,.T.);
#37=ORIENTED_EDGE('',*,*,#122,.T.);
#38=ORIENTED_EDGE('',*,*,#110,.F.);
#39=ORIENTED_EDGE('',*,*,#123,.F.);
#40=ORIENTED_EDGE('',*,*,#121,.F.);
#41=ORIENTED_EDGE('',*,*,#103,.T.);
#42=ORIENTED_EDGE('',*,*,#123,.T.);
#43=ORIENTED_EDGE('',*,*,#109,.F.);
#44=ORIENTED_EDGE('',*,*,#112,.T.);
#45=ORIENTED_EDGE('',*,*,#124,.F.);
#46=ORIENTED_EDGE('',*,*,#125,.F.);
#47=ORIENTED_EDGE('',*,*,#126,.F.);
#48=ORIENTED_EDGE('',*,*,#127,.T.);
#49=ORIENTED_EDGE('',*,*,#115,.T.);
#50=ORIENTED_EDGE('',*,*,#128,.F.);
#51=ORIENTED_EDGE('',*,*,#129,.F.);
#52=ORIENTED_EDGE('',*,*,#124,.T.);
#53=ORIENTED_EDGE('',*,*,#114,.F.);
#54=ORIENTED_EDGE('',*,*,#130,.F.);
#55=ORIENTED_EDGE('',*,*,#131,.T.);
#56=ORIENTED_EDGE('',*,*,#132,.T.);
#57=ORIENTED_EDGE('',*,*,#128,.T.);
#58=ORIENTED_EDGE('',*,*,#116,.T.);
#59=ORIENTED_EDGE('',*,*,#133,.F.);
#60=ORIENTED_EDGE('',*,*,#134,.F.);
#61=ORIENTED_EDGE('',*,*,#135,.F.);
#62=ORIENTED_EDGE('',*,*,#136,.T.);
#63=ORIENTED_EDGE('',*,*,#119,.F.);
#64=ORIENTED_EDGE('',*,*,#137,.F.);
#65=ORIENTED_EDGE('',*,*,#138,.T.);
#66=ORIENTED_EDGE('',*,*,#133,.T.);
#67=ORIENTED_EDGE('',*,*,#118,.F.);
#68=ORIENTED_EDGE('',*,*,#139,.F.);
#69=ORIENTED_EDGE('',*,*,#140,.T.);
#70=ORIENTED_EDGE('',*,*,#141,.T.);
#71=ORIENTED_EDGE('',*,*,#137,.T.);
#72=ORIENTED_EDGE('',*,*,#101,.F.);
#73=ORIENTED_EDGE('',*,*,#125,.T.);
#74=ORIENTED_EDGE('',*,*,#129,.T.);
#75=ORIENTED_EDGE('',*,*,#132,.F.);
#76=ORIENTED_EDGE('',*,*,#105,.F.);
#77=ORIENTED_EDGE('',*,*,#120,.T.);
#78=ORIENTED_EDGE('',*,*,#107,.T.);
#79=ORIENTED_EDGE('',*,*,#134,.T.);
#80=ORIENTED_EDGE('',*,*,#138,.F.);
#81=ORIENTED_EDGE('',*,*,#141,.F.);
#82=ORIENTED_EDGE('',*,*,#111,.T.);
#83=ORIENTED_EDGE('',*,*,#122,.F.);
#84=ORIENTED_EDGE('',*,*,#100,.T.);
#85=ORIENTED_EDGE('',*,*,#131,.F.);
#86=ORIENTED_EDGE('',*,*,#142,.F.);
#87=ORIENTED_EDGE('',*,*,#126,.T.);
#88=ORIENTED_EDGE('',*,*,#127,.F.);
#89=ORIENTED_EDGE('',*,*,#142,.T.);
#90=ORIENTED_EDGE('',*,*,#130,.T.);
#91=ORIENTED_EDGE('',*,*,#113,.T.);
#92=ORIENTED_EDGE('',*,*,#106,.T.);
#93=ORIENTED_EDGE('',*,*,#140,.F.);
#94=ORIENTED_EDGE('',*,*,#143,.F.);
#95=ORIENTED_EDGE('',*,*,#135,.T.);
#96=ORIENTED_EDGE('',*,*,#136,.F.);
#97=ORIENTED_EDGE('',*,*,#143,.T.);
#98=ORIENTED_EDGE('',*,*,#139,.T.);
#99=ORIENTED_EDGE('',*,*,#117,.F.);
#100=EDGE_CURVE('',#144,#145,#172,.T.);
#101=EDGE_CURVE('',#144,#146,#173,.T.);
#102=EDGE_CURVE('',#147,#146,#174,.T.);
#103=EDGE_CURVE('',#148,#147,#175,.T.);
#104=EDGE_CURVE('',#148,#149,#176,.T.);
#105=EDGE_CURVE('',#149,#145,#177,.T.);
#106=EDGE_CURVE('',#150,#151,#178,.T.);
#107=EDGE_CURVE('',#152,#150,#179,.T.);
#108=EDGE_CURVE('',#153,#152,#180,.T.);
#109=EDGE_CURVE('',#153,#154,#181,.T.);
#110=EDGE_CURVE('',#154,#155,#182,.T.);
#111=EDGE_CURVE('',#151,#155,#183,.T.);
#112=EDGE_CURVE('',#156,#157,#184,.T.);
#113=EDGE_CURVE('',#158,#156,#185,.T.);
#114=EDGE_CURVE('',#158,#159,#186,.T.);
#115=EDGE_CURVE('',#157,#159,#187,.T.);
#116=EDGE_CURVE('',#160,#161,#188,.T.);
#117=EDGE_CURVE('',#160,#162,#189,.T.);
#118=EDGE_CURVE('',#162,#163,#190,.T.);
#119=EDGE_CURVE('',#163,#161,#191,.T.);
#120=EDGE_CURVE('',#149,#152,#192,.T.);
#121=EDGE_CURVE('',#148,#153,#193,.T.);
#122=EDGE_CURVE('',#146,#155,#194,.T.);
#123=EDGE_CURVE('',#147,#154,#195,.T.);
#124=EDGE_CURVE('',#164,#157,#196,.T.);
#125=EDGE_CURVE('',#144,#164,#197,.T.);
#126=EDGE_CURVE('',#165,#144,#198,.T.);
#127=EDGE_CURVE('',#165,#156,#199,.T.);
#128=EDGE_CURVE('',#166,#159,#200,.T.);
#129=EDGE_CURVE('',#164,#166,#201,.T.);
#130=EDGE_CURVE('',#167,#158,#202,.T.);
#131=EDGE_CURVE('',#167,#145,#203,.T.);
#132=EDGE_CURVE('',#145,#166,#204,.T.);
#133=EDGE_CURVE('',#168,#161,#205,.T.);
#134=EDGE_CURVE('',#150,#168,#206,.T.);
#135=EDGE_CURVE('',#169,#150,#207,.T.);
#136=EDGE_CURVE('',#169,#160,#208,.T.);
#137=EDGE_CURVE('',#170,#163,#209,.T.);
#138=EDGE_CURVE('',#170,#168,#210,.T.);
#139=EDGE_CURVE('',#171,#162,#211,.T.);
#140=EDGE_CURVE('',#171,#151,#212,.T.);
#141=EDGE_CURVE('',#151,#170,#213,.T.);
#142=EDGE_CURVE('',#165,#167,#214,.T.);
#143=EDGE_CURVE('',#169,#171,#215,.T.);
#144=VERTEX_POINT('',#491);
#145=VERTEX_POINT('',#492);
#146=VERTEX_POINT('',#494);
#147=VERTEX_POINT('',#496);
#148=VERTEX_POINT('',#498);
#149=VERTEX_POINT('',#500);
#150=VERTEX_POINT('',#504);
#151=VERTEX_POINT('',#505);
#152=VERTEX_POINT('',#507);
#153=VERTEX_POINT('',#509);
#154=VERTEX_POINT('',#511);
#155=VERTEX_POINT('',#513);
#156=VERTEX_POINT('',#517);
#157=VERTEX_POINT('',#518);
#158=VERTEX_POINT('',#520);
#159=VERTEX_POINT('',#522);
#160=VERTEX_POINT('',#526);
#161=VERTEX_POINT('',#527);
#162=VERTEX_POINT('',#529);
#163=VERTEX_POINT('',#531);
#164=VERTEX_POINT('',#542);
#165=VERTEX_POINT('',#545);
#166=VERTEX_POINT('',#549);
#167=VERTEX_POINT('',#553);
#168=VERTEX_POINT('',#558);
#169=VERTEX_POINT('',#561);
#170=VERTEX_POINT('',#565);
#171=VERTEX_POINT('',#569);
#172=LINE('',#490,#216);
#173=LINE('',#493,#217);
#174=LINE('',#495,#218);
#175=LINE('',#497,#219);
#176=LINE('',#499,#220);
#177=LINE('',#501,#221);
#178=LINE('',#503,#222);
#179=LINE('',#506,#223);
#180=LINE('',#508,#224);
#181=LINE('',#510,#225);
#182=LINE('',#512,#226);
#183=LINE('',#514,#227);
#184=LINE('',#516,#228);
#185=LINE('',#519,#229);
#186=LINE('',#521,#230);
#187=LINE('',#523,#231);
#188=LINE('',#525,#232);
#189=LINE('',#528,#233);
#190=LINE('',#530,#234);
#191=LINE('',#532,#235);
#192=LINE('',#534,#236);
#193=LINE('',#535,#237);
#194=LINE('',#537,#238);
#195=LINE('',#538,#239);
#196=LINE('',#541,#240);
#197=LINE('',#543,#241);
#198=LINE('',#544,#242);
#199=LINE('',#546,#243);
#200=LINE('',#548,#244);
#201=LINE('',#550,#245);
#202=LINE('',#552,#246);
#203=LINE('',#554,#247);
#204=LINE('',#555,#248);
#205=LINE('',#557,#249);
#206=LINE('',#559,#250);
#207=LINE('',#560,#251);
#208=LINE('',#562,#252);
#209=LINE('',#564,#253);
#210=LINE('',#566,#254);
#211=LINE('',#568,#255);
#212=LINE('',#570,#256);
#213=LINE('',#571,#257);
#214=LINE('',#574,#258);
#215=LINE('',#577,#259);
#216=VECTOR('',#410,1.);
#217=VECTOR('',#411,1.);
#218=VECTOR('',#412,1.);
#219=VECTOR('',#413,1.);
#220=VECTOR('',#414,1.);
#221=VECTOR('',#415,1.);
#222=VECTOR('',#418,1.);
#223=VECTOR('',#419,1.);
#224=VECTOR('',#420,1.);
#225=VECTOR('',#421,1.);
#226=VECTOR('',#422,1.);
#227=VECTOR('',#423,1.);
#228=VECTOR('',#426,1.);
#229=VECTOR('',#427,1.);
#230=VECTOR('',#428,1.);
#231=VECTOR('',#429,1.);
#232=VECTOR('',#432,1.);
#233=VECTOR('',#433,1.);
#234=VECTOR('',#434,1.);
#235=VECTOR('',#435,1.);
#236=VECTOR('',#438,1.);
#237=VECTOR('',#439,1.);
#238=VECTOR('',#442,1.);
#239=VECTOR('',#443,1.);
#240=VECTOR('',#448,1.);
#241=VECTOR('',#449,1.);
#242=VECTOR('',#450,1.);
#243=VECTOR('',#451,1.);
#244=VECTOR('',#454,1.);
#245=VECTOR('',#455,1.);
#246=VECTOR('',#458,1.);
#247=VECTOR('',#459,1.);
#248=VECTOR('',#460,1.);
#249=VECTOR('',#463,1.);
#250=VECTOR('',#464,1.);
#251=VECTOR('',#465,1.);
#252=VECTOR('',#466,1.);
#253=VECTOR('',#469,1.);
#254=VECTOR('',#470,1.);
#255=VECTOR('',#473,1.);
#256=VECTOR('',#474,1.);
#257=VECTOR('',#475,1.);
#258=VECTOR('',#480,1.);
#259=VECTOR('',#485,1.);
#260=EDGE_LOOP('',(#12,#13,#14,#15,#16,#17));
#261=EDGE_LOOP('',(#18,#19,#20,#21,#22,#23));
#262=EDGE_LOOP('',(#24,#25,#26,#27));
#263=EDGE_LOOP('',(#28,#29,#30,#31));
#264=EDGE_LOOP('',(#32,#33,#34,#35));
#265=EDGE_LOOP('',(#36,#37,#38,#39));
#266=EDGE_LOOP('',(#40,#41,#42,#43));
#267=EDGE_LOOP('',(#44,#45,#46,#47,#48));
#268=EDGE_LOOP('',(#49,#50,#51,#52));
#269=EDGE_LOOP('',(#53,#54,#55,#56,#57));
#270=EDGE_LOOP('',(#58,#59,#60,#61,#62));
#271=EDGE_LOOP('',(#63,#64,#65,#66));
#272=EDGE_LOOP('',(#67,#68,#69,#70,#71));
#273=EDGE_LOOP('',(#72,#73,#74,#75,#76,#77,#78,#79,#80,#81,#82,#83));
#274=EDGE_LOOP('',(#84,#85,#86,#87));
#275=EDGE_LOOP('',(#88,#89,#90,#91));
#276=EDGE_LOOP('',(#92,#93,#94,#95));
#277=EDGE_LOOP('',(#96,#97,#98,#99));
#278=FACE_BOUND('',#260,.T.);
#279=FACE_BOUND('',#261,.T.);
#280=FACE_BOUND('',#262,.T.);
#281=FACE_BOUND('',#263,.T.);
#282=FACE_BOUND('',#264,.T.);
#283=FACE_BOUND('',#265,.T.);
#284=FACE_BOUND('',#266,.T.);
#285=FACE_BOUND('',#267,.T.);
#286=FACE_BOUND('',#268,.T.);
#287=FACE_BOUND('',#269,.T.);
#288=FACE_BOUND('',#270,.T.);
#289=FACE_BOUND('',#271,.T.);
#290=FACE_BOUND('',#272,.T.);
#291=FACE_BOUND('',#273,.T.);
#292=FACE_BOUND('',#274,.T.);
#293=FACE_BOUND('',#275,.T.);
#294=FACE_BOUND('',#276,.T.);
#295=FACE_BOUND('',#277,.T.);
#296=PLANE('',#388);
#297=PLANE('',#389);
#298=PLANE('',#390);
#299=PLANE('',#391);
#300=PLANE('',#392);
#301=PLANE('',#393);
#302=PLANE('',#394);
#303=PLANE('',#395);
#304=PLANE('',#396);
#305=PLANE('',#397);
#306=PLANE('',#398);
#307=PLANE('',#399);
#308=PLANE('',#400);
#309=PLANE('',#401);
#310=PLANE('',#402);
#311=PLANE('',#403);
#312=PLANE('',#404);
#313=PLANE('',#405);
#314=OVER_RIDING_STYLED_ITEM('',(#341),#320,#339);
#315=OVER_RIDING_STYLED_ITEM('',(#342),#321,#339);
#316=OVER_RIDING_STYLED_ITEM('',(#343),#324,#339);
#317=OVER_RIDING_STYLED_ITEM('',(#344),#325,#339);
#318=OVER_RIDING_STYLED_ITEM('',(#345),#326,#339);
#319=OVER_RIDING_STYLED_ITEM('',(#346),#333,#339);
#320=ADVANCED_FACE('',(#278),#296,.F.);
#321=ADVANCED_FACE('',(#279),#297,.T.);
#322=ADVANCED_FACE('',(#280),#298,.F.);
#323=ADVANCED_FACE('',(#281),#299,.F.);
#324=ADVANCED_FACE('',(#282),#300,.T.);
#325=ADVANCED_FACE('',(#283),#301,.F.);
#326=ADVANCED_FACE('',(#284),#302,.T.);
#327=ADVANCED_FACE('',(#285),#303,.F.);
#328=ADVANCED_FACE('',(#286),#304,.F.);
#329=ADVANCED_FACE('',(#287),#305,.T.);
#330=ADVANCED_FACE('',(#288),#306,.F.);
#331=ADVANCED_FACE('',(#289),#307,.T.);
#332=ADVANCED_FACE('',(#290),#308,.T.);
#333=ADVANCED_FACE('',(#291),#309,.T.);
#334=ADVANCED_FACE('',(#292),#310,.F.);
#335=ADVANCED_FACE('',(#293),#311,.T.);
#336=ADVANCED_FACE('',(#294),#312,.F.);
#337=ADVANCED_FACE('',(#295),#313,.T.);
#338=CLOSED_SHELL('',(#320,#321,#322,#323,#324,#325,#326,#327,#328,#329,
#330,#331,#332,#333,#334,#335,#336,#337));
#339=STYLED_ITEM('',(#340),#384);
#340=PRESENTATION_STYLE_ASSIGNMENT((#347));
#341=PRESENTATION_STYLE_ASSIGNMENT((#348));
#342=PRESENTATION_STYLE_ASSIGNMENT((#349));
#343=PRESENTATION_STYLE_ASSIGNMENT((#350));
#344=PRESENTATION_STYLE_ASSIGNMENT((#351));
#345=PRESENTATION_STYLE_ASSIGNMENT((#352));
#346=PRESENTATION_STYLE_ASSIGNMENT((#353));
#347=SURFACE_STYLE_USAGE(.BOTH.,#354);
#348=SURFACE_STYLE_USAGE(.BOTH.,#355);
#349=SURFACE_STYLE_USAGE(.BOTH.,#356);
#350=SURFACE_STYLE_USAGE(.BOTH.,#357);
#351=SURFACE_STYLE_USAGE(.BOTH.,#358);
#352=SURFACE_STYLE_USAGE(.BOTH.,#359);
#353=SURFACE_STYLE_USAGE(.BOTH.,#360);
#354=SURFACE_SIDE_STYLE('',(#361));
#355=SURFACE_SIDE_STYLE('',(#362));
#356=SURFACE_SIDE_STYLE('',(#363));
#357=SURFACE_SIDE_STYLE('',(#364));
#358=SURFACE_SIDE_STYLE('',(#365));
#359=SURFACE_SIDE_STYLE('',(#366));
#360=SURFACE_SIDE_STYLE('',(#367));
#361=SURFACE_STYLE_FILL_AREA(#368);
#362=SURFACE_STYLE_FILL_AREA(#369);
#363=SURFACE_STYLE_FILL_AREA(#370);
#364=SURFACE_STYLE_FILL_AREA(#371);
#365=SURFACE_STYLE_FILL_AREA(#372);
#366=SURFACE_STYLE_FILL_AREA(#373);
#367=SURFACE_STYLE_FILL_AREA(#374);
#368=FILL_AREA_STYLE('',(#375));
#369=FILL_AREA_STYLE('',(#376));
#370=FILL_AREA_STYLE('',(#377));
#371=FILL_AREA_STYLE('',(#378));
#372=FILL_AREA_STYLE('',(#379));
#373=FILL_AREA_STYLE('',(#380));
#374=FILL_AREA_STYLE('',(#381));
#375=FILL_AREA_STYLE_COLOUR('',#382);
#376=FILL_AREA_STYLE_COLOUR('',#383);
#377=FILL_AREA_STYLE_COLOUR('',#383);
#378=FILL_AREA_STYLE_COLOUR('',#383);
#379=FILL_AREA_STYLE_COLOUR('',#383);
#380=FILL_AREA_STYLE_COLOUR('',#383);
#381=FILL_AREA_STYLE_COLOUR('',#383);
#382=COLOUR_RGB('',0.764705882352941,0.764705882352941,0.764705882352941);
#383=COLOUR_RGB('',0.549019607843137,0.549019607843137,0.549019607843137);
#384=MANIFOLD_SOLID_BREP('PA4990',#338);
#385=SHAPE_DEFINITION_REPRESENTATION(#585,#386);
#386=SHAPE_REPRESENTATION('PA4990',(#387),#580);
#387=AXIS2_PLACEMENT_3D('',#488,#406,#407);
#388=AXIS2_PLACEMENT_3D('',#489,#408,#409);
#389=AXIS2_PLACEMENT_3D('',#502,#416,#417);
#390=AXIS2_PLACEMENT_3D('',#515,#424,#425);
#391=AXIS2_PLACEMENT_3D('',#524,#430,#431);
#392=AXIS2_PLACEMENT_3D('',#533,#436,#437);
#393=AXIS2_PLACEMENT_3D('',#536,#440,#441);
#394=AXIS2_PLACEMENT_3D('',#539,#444,#445);
#395=AXIS2_PLACEMENT_3D('',#540,#446,#447);
#396=AXIS2_PLACEMENT_3D('',#547,#452,#453);
#397=AXIS2_PLACEMENT_3D('',#551,#456,#457);
#398=AXIS2_PLACEMENT_3D('',#556,#461,#462);
#399=AXIS2_PLACEMENT_3D('',#563,#467,#468);
#400=AXIS2_PLACEMENT_3D('',#567,#471,#472);
#401=AXIS2_PLACEMENT_3D('',#572,#476,#477);
#402=AXIS2_PLACEMENT_3D('',#573,#478,#479);
#403=AXIS2_PLACEMENT_3D('',#575,#481,#482);
#404=AXIS2_PLACEMENT_3D('',#576,#483,#484);
#405=AXIS2_PLACEMENT_3D('',#578,#486,#487);
#406=DIRECTION('',(0.,0.,1.));
#407=DIRECTION('',(1.,0.,0.));
#408=DIRECTION('',(1.,-2.89120579329468E-16,0.));
#409=DIRECTION('',(2.89120579329468E-16,1.,0.));
#410=DIRECTION('',(2.89120579329468E-16,1.,0.));
#411=DIRECTION('',(-2.89120579329468E-16,-1.,0.));
#412=DIRECTION('',(0.,0.,-1.));
#413=DIRECTION('',(-2.89120579329468E-16,-1.,0.));
#414=DIRECTION('',(0.,0.,-1.));
#415=DIRECTION('',(-2.89120579329468E-16,-1.,0.));
#416=DIRECTION('',(1.,-2.89120579329468E-16,0.));
#417=DIRECTION('',(2.89120579329468E-16,1.,0.));
#418=DIRECTION('',(-2.89120579329468E-16,-1.,0.));
#419=DIRECTION('',(-2.89120579329468E-16,-1.,0.));
#420=DIRECTION('',(0.,0.,-1.));
#421=DIRECTION('',(-2.89120579329468E-16,-1.,0.));
#422=DIRECTION('',(0.,0.,-1.));
#423=DIRECTION('',(-2.89120579329468E-16,-1.,0.));
#424=DIRECTION('',(0.,0.,1.));
#425=DIRECTION('',(1.,0.,0.));
#426=DIRECTION('',(1.,-1.4954512723938E-16,0.));
#427=DIRECTION('',(-2.89120579329468E-16,-1.,0.));
#428=DIRECTION('',(1.,-1.4954512723938E-16,0.));
#429=DIRECTION('',(3.77113799125393E-16,1.,0.));
#430=DIRECTION('',(0.,0.,1.));
#431=DIRECTION('',(1.,0.,0.));
#432=DIRECTION('',(-1.,-1.4954512723938E-16,0.));
#433=DIRECTION('',(-2.89120579329468E-16,-1.,0.));
#434=DIRECTION('',(-1.,-1.4954512723938E-16,0.));
#435=DIRECTION('',(-1.88556899562696E-16,1.,0.));
#436=DIRECTION('',(0.,1.,0.));
#437=DIRECTION('',(0.,0.,1.));
#438=DIRECTION('',(1.,0.,0.));
#439=DIRECTION('',(1.,0.,0.));
#440=DIRECTION('',(0.,1.,0.));
#441=DIRECTION('',(0.,0.,1.));
#442=DIRECTION('',(1.,0.,0.));
#443=DIRECTION('',(1.,0.,0.));
#444=DIRECTION('',(0.,0.,1.));
#445=DIRECTION('',(1.,0.,0.));
#446=DIRECTION('',(1.4954512723938E-16,1.,0.));
#447=DIRECTION('',(-1.,1.4954512723938E-16,0.));
#448=DIRECTION('',(0.,0.,-1.));
#449=DIRECTION('',(1.,-1.4954512723938E-16,0.));
#450=DIRECTION('',(1.,-2.89120579329468E-16,0.));
#451=DIRECTION('',(0.,0.,-1.));
#452=DIRECTION('',(-1.,3.77113799125393E-16,0.));
#453=DIRECTION('',(-3.77113799125393E-16,-1.,0.));
#454=DIRECTION('',(0.,0.,-1.));
#455=DIRECTION('',(3.77113799125393E-16,1.,0.));
#456=DIRECTION('',(1.4954512723938E-16,1.,0.));
#457=DIRECTION('',(-1.,1.4954512723938E-16,0.));
#458=DIRECTION('',(0.,0.,-1.));
#459=DIRECTION('',(1.,-2.89120579329468E-16,0.));
#460=DIRECTION('',(1.,-1.4954512723938E-16,0.));
#461=DIRECTION('',(1.4954512723938E-16,-1.,0.));
#462=DIRECTION('',(1.,1.4954512723938E-16,0.));
#463=DIRECTION('',(0.,0.,-1.));
#464=DIRECTION('',(-1.,-1.4954512723938E-16,0.));
#465=DIRECTION('',(-1.,2.89120579329468E-16,0.));
#466=DIRECTION('',(0.,0.,-1.));
#467=DIRECTION('',(-1.,-1.88556899562696E-16,0.));
#468=DIRECTION('',(1.88556899562696E-16,-1.,0.));
#469=DIRECTION('',(0.,0.,-1.));
#470=DIRECTION('',(-1.88556899562696E-16,1.,0.));
#471=DIRECTION('',(1.4954512723938E-16,-1.,0.));
#472=DIRECTION('',(1.,1.4954512723938E-16,0.));
#473=DIRECTION('',(0.,0.,-1.));
#474=DIRECTION('',(-1.,2.89120579329468E-16,0.));
#475=DIRECTION('',(-1.,-1.4954512723938E-16,0.));
#476=DIRECTION('',(0.,0.,-1.));
#477=DIRECTION('',(1.,0.,0.));
#478=DIRECTION('',(0.,0.,-1.));
#479=DIRECTION('',(-1.,0.,0.));
#480=DIRECTION('',(2.89120579329468E-16,1.,0.));
#481=DIRECTION('',(-1.,2.89120579329468E-16,0.));
#482=DIRECTION('',(-2.89120579329468E-16,-1.,0.));
#483=DIRECTION('',(0.,0.,-1.));
#484=DIRECTION('',(-1.,0.,0.));
#485=DIRECTION('',(-2.89120579329468E-16,-1.,0.));
#486=DIRECTION('',(1.,-2.89120579329468E-16,0.));
#487=DIRECTION('',(2.89120579329468E-16,1.,0.));
#488=CARTESIAN_POINT('',(0.,0.,0.));
#489=CARTESIAN_POINT('',(-0.005,4.33680868994202E-19,0.012));
#490=CARTESIAN_POINT('',(-0.005,4.83355886518409E-50,0.00015));
#491=CARTESIAN_POINT('',(-0.005,-0.00115,0.00015));
#492=CARTESIAN_POINT('',(-0.005,0.00115,0.00015));
#493=CARTESIAN_POINT('',(-0.005,4.33680868994202E-19,0.00015));
#494=CARTESIAN_POINT('',(-0.005,-0.003,0.00015));
#495=CARTESIAN_POINT('',(-0.005,-0.003,0.012));
#496=CARTESIAN_POINT('',(-0.005,-0.003,0.012));
#497=CARTESIAN_POINT('',(-0.005,4.33680868994202E-19,0.012));
#498=CARTESIAN_POINT('',(-0.005,0.003,0.012));
#499=CARTESIAN_POINT('',(-0.005,0.003,0.012));
#500=CARTESIAN_POINT('',(-0.005,0.003,0.00015));
#501=CARTESIAN_POINT('',(-0.005,4.33680868994202E-19,0.00015));
#502=CARTESIAN_POINT('',(0.005,4.33680868994202E-19,0.012));
#503=CARTESIAN_POINT('',(0.005,-2.16840434497101E-19,0.00015));
#504=CARTESIAN_POINT('',(0.005,0.00115,0.00015));
#505=CARTESIAN_POINT('',(0.005,-0.00115,0.00015));
#506=CARTESIAN_POINT('',(0.005,4.33680868994202E-19,0.00015));
#507=CARTESIAN_POINT('',(0.005,0.003,0.00015));
#508=CARTESIAN_POINT('',(0.005,0.003,0.012));
#509=CARTESIAN_POINT('',(0.005,0.003,0.012));
#510=CARTESIAN_POINT('',(0.005,4.33680868994202E-19,0.012));
#511=CARTESIAN_POINT('',(0.005,-0.003,0.012));
#512=CARTESIAN_POINT('',(0.005,-0.003,0.012));
#513=CARTESIAN_POINT('',(0.005,-0.003,0.00015));
#514=CARTESIAN_POINT('',(0.005,4.33680868994202E-19,0.00015));
#515=CARTESIAN_POINT('',(0.,8.67361737988404E-19,0.));
#516=CARTESIAN_POINT('',(-0.00355,-0.00115,0.));
#517=CARTESIAN_POINT('',(-0.00501,-0.00115,0.));
#518=CARTESIAN_POINT('',(-0.0021,-0.00115,0.));
#519=CARTESIAN_POINT('',(-0.00501,4.36572074787497E-19,0.));
#520=CARTESIAN_POINT('',(-0.00501,0.00115,0.));
#521=CARTESIAN_POINT('',(-0.00355,0.00115,0.));
#522=CARTESIAN_POINT('',(-0.0021,0.00115,0.));
#523=CARTESIAN_POINT('',(-0.0021,-8.67361737988404E-19,0.));
#524=CARTESIAN_POINT('',(0.,8.67361737988404E-19,0.));
#525=CARTESIAN_POINT('',(0.00355,0.00115,0.));
#526=CARTESIAN_POINT('',(0.00501,0.00115,0.));
#527=CARTESIAN_POINT('',(0.0021,0.00115,0.));
#528=CARTESIAN_POINT('',(0.00501,4.30789663200907E-19,0.));
#529=CARTESIAN_POINT('',(0.00501,-0.00115,0.));
#530=CARTESIAN_POINT('',(0.00355,-0.00115,0.));
#531=CARTESIAN_POINT('',(0.0021,-0.00115,0.));
#532=CARTESIAN_POINT('',(0.0021,-1.3010426069826E-18,0.));
#533=CARTESIAN_POINT('',(8.67361737988404E-19,0.003,0.012));
#534=CARTESIAN_POINT('',(8.67361737988404E-19,0.003,0.00015));
#535=CARTESIAN_POINT('',(8.67361737988404E-19,0.003,0.012));
#536=CARTESIAN_POINT('',(-8.67361737988404E-19,-0.003,0.012));
#537=CARTESIAN_POINT('',(-8.67361737988404E-19,-0.003,0.00015));
#538=CARTESIAN_POINT('',(-8.67361737988404E-19,-0.003,0.012));
#539=CARTESIAN_POINT('',(0.,8.67361737988404E-19,0.012));
#540=CARTESIAN_POINT('',(-0.00355,-0.00115,0.00015));
#541=CARTESIAN_POINT('',(-0.0021,-0.00115,0.00015));
#542=CARTESIAN_POINT('',(-0.0021,-0.00115,0.00015));
#543=CARTESIAN_POINT('',(-0.00355,-0.00115,0.00015));
#544=CARTESIAN_POINT('',(-0.00501,-0.00115,0.00015));
#545=CARTESIAN_POINT('',(-0.00501,-0.00115,0.00015));
#546=CARTESIAN_POINT('',(-0.00501,-0.00115,0.00015));
#547=CARTESIAN_POINT('',(-0.0021,-8.67361737988404E-19,0.00015));
#548=CARTESIAN_POINT('',(-0.0021,0.00115,0.00015));
#549=CARTESIAN_POINT('',(-0.0021,0.00115,0.00015));
#550=CARTESIAN_POINT('',(-0.0021,-8.67361737988404E-19,0.00015));
#551=CARTESIAN_POINT('',(-0.00355,0.00115,0.00015));
#552=CARTESIAN_POINT('',(-0.00501,0.00115,0.00015));
#553=CARTESIAN_POINT('',(-0.00501,0.00115,0.00015));
#554=CARTESIAN_POINT('',(-0.00501,0.00115,0.00015));
#555=CARTESIAN_POINT('',(-0.00355,0.00115,0.00015));
#556=CARTESIAN_POINT('',(0.00355,0.00115,0.00015));
#557=CARTESIAN_POINT('',(0.0021,0.00115,0.00015));
#558=CARTESIAN_POINT('',(0.0021,0.00115,0.00015));
#559=CARTESIAN_POINT('',(0.00355,0.00115,0.00015));
#560=CARTESIAN_POINT('',(0.00501,0.00115,0.00015));
#561=CARTESIAN_POINT('',(0.00501,0.00115,0.00015));
#562=CARTESIAN_POINT('',(0.00501,0.00115,0.00015));
#563=CARTESIAN_POINT('',(0.0021,-1.3010426069826E-18,0.00015));
#564=CARTESIAN_POINT('',(0.0021,-0.00115,0.00015));
#565=CARTESIAN_POINT('',(0.0021,-0.00115,0.00015));
#566=CARTESIAN_POINT('',(0.0021,-1.3010426069826E-18,0.00015));
#567=CARTESIAN_POINT('',(0.00355,-0.00115,0.00015));
#568=CARTESIAN_POINT('',(0.00501,-0.00115,0.00015));
#569=CARTESIAN_POINT('',(0.00501,-0.00115,0.00015));
#570=CARTESIAN_POINT('',(0.00501,-0.00115,0.00015));
#571=CARTESIAN_POINT('',(0.00355,-0.00115,0.00015));
#572=CARTESIAN_POINT('',(0.,8.67361737988404E-19,0.00015));
#573=CARTESIAN_POINT('',(-0.00501,2.89120579329468E-21,0.00015));
#574=CARTESIAN_POINT('',(-0.00501,2.89120579329468E-21,0.00015));
#575=CARTESIAN_POINT('',(-0.00501,5.81132364452231E-19,0.006));
#576=CARTESIAN_POINT('',(0.00501,-2.19731640290396E-19,0.00015));
#577=CARTESIAN_POINT('',(0.00501,-2.19731640290396E-19,0.00015));
#578=CARTESIAN_POINT('',(0.00501,2.86229373536174E-19,0.006));
#579=MECHANICAL_DESIGN_GEOMETRIC_PRESENTATION_REPRESENTATION('',(#339,#314,
#315,#316,#317,#318,#319),#580);
#580=(
GEOMETRIC_REPRESENTATION_CONTEXT(3)
GLOBAL_UNCERTAINTY_ASSIGNED_CONTEXT((#581))
GLOBAL_UNIT_ASSIGNED_CONTEXT((#584,#583,#582))
REPRESENTATION_CONTEXT('PA4990','TOP_LEVEL_ASSEMBLY_PART')
);
#581=UNCERTAINTY_MEASURE_WITH_UNIT(LENGTH_MEASURE(1.E-8),#584,
'DISTANCE_ACCURACY_VALUE','Maximum Tolerance applied to model');
#582=(
NAMED_UNIT(*)
SI_UNIT($,.STERADIAN.)
SOLID_ANGLE_UNIT()
);
#583=(
NAMED_UNIT(*)
PLANE_ANGLE_UNIT()
SI_UNIT($,.RADIAN.)
);
#584=(
LENGTH_UNIT()
NAMED_UNIT(*)
SI_UNIT($,.METRE.)
);
#585=PRODUCT_DEFINITION_SHAPE('','',#586);
#586=PRODUCT_DEFINITION('','',#588,#587);
#587=PRODUCT_DEFINITION_CONTEXT('',#594,'design');
#588=PRODUCT_DEFINITION_FORMATION_WITH_SPECIFIED_SOURCE('','',#590,
 .NOT_KNOWN.);
#589=PRODUCT_RELATED_PRODUCT_CATEGORY('','',(#590));
#590=PRODUCT('PA4990','PA4990','PA4990',(#592));
#591=PRODUCT_CATEGORY('','');
#592=PRODUCT_CONTEXT('',#594,'mechanical');
#593=APPLICATION_PROTOCOL_DEFINITION('international standard',
'ap242_managed_model_based_3d_engineering',2011,#594);
#594=APPLICATION_CONTEXT('managed model based 3d engineering');
ENDSEC;
END-ISO-10303-21;
