ISO-10303-21;
HEADER;
/* Generated by software containing ST-Developer
 * from STEP Tools, Inc. (www.steptools.com) 
 */
/* OPTION: using custom renumber hook */

FILE_DESCRIPTION(
/* description */ ('STEP AP242',
'CAx-IF Rec.Pracs.---Representation and Presentation of Product Manufa
cturing Information (PMI)---4.0---2014-10-13',
'CAx-IF Rec.Pracs.---3D Tessellated Geometry---0.4---2014-09-14','2;1'),

/* implementation_level */ '2;1');

FILE_NAME(
/* name */ '67cbe66877d8920e73422801',
/* time_stamp */ '2025-03-08T06:40:40Z',
/* author */ (''),
/* organization */ (''),
/* preprocessor_version */ 'ST-DEVELOPER v20',
/* originating_system */ 'ONSHAPE BY PTC INC, 1.194',
/* authorisation */ '  ');

FILE_SCHEMA (('AP242_MANAGED_MODEL_BASED_3D_ENGINEERING_MIM_LF { 1 0 10303 442 1 1 4 }'));
ENDSEC;

DATA;
#10=SHAPE_REPRESENTATION_RELATIONSHIP('','',#514,#11);
#11=ADVANCED_BREP_SHAPE_REPRESENTATION('',(#512),#784);
#12=CYLINDRICAL_SURFACE('',#542,0.0012);
#13=CYLINDRICAL_SURFACE('',#543,0.0012);
#14=CYLINDRICAL_SURFACE('',#544,0.0012);
#15=CYLINDRICAL_SURFACE('',#545,0.0012);
#16=CIRCLE('',#523,0.0012);
#17=CIRCLE('',#524,0.0012);
#18=CIRCLE('',#525,0.0012);
#19=CIRCLE('',#526,0.0012);
#20=CIRCLE('',#534,0.0012);
#21=CIRCLE('',#535,0.0012);
#22=CIRCLE('',#536,0.0012);
#23=CIRCLE('',#537,0.0012);
#24=ORIENTED_EDGE('',*,*,#144,.F.);
#25=ORIENTED_EDGE('',*,*,#145,.T.);
#26=ORIENTED_EDGE('',*,*,#146,.T.);
#27=ORIENTED_EDGE('',*,*,#147,.F.);
#28=ORIENTED_EDGE('',*,*,#148,.T.);
#29=ORIENTED_EDGE('',*,*,#149,.T.);
#30=ORIENTED_EDGE('',*,*,#150,.T.);
#31=ORIENTED_EDGE('',*,*,#151,.T.);
#32=ORIENTED_EDGE('',*,*,#152,.F.);
#33=ORIENTED_EDGE('',*,*,#153,.T.);
#34=ORIENTED_EDGE('',*,*,#154,.T.);
#35=ORIENTED_EDGE('',*,*,#155,.T.);
#36=ORIENTED_EDGE('',*,*,#156,.F.);
#37=ORIENTED_EDGE('',*,*,#157,.F.);
#38=ORIENTED_EDGE('',*,*,#158,.F.);
#39=ORIENTED_EDGE('',*,*,#159,.T.);
#40=ORIENTED_EDGE('',*,*,#160,.F.);
#41=ORIENTED_EDGE('',*,*,#161,.T.);
#42=ORIENTED_EDGE('',*,*,#162,.T.);
#43=ORIENTED_EDGE('',*,*,#163,.F.);
#44=ORIENTED_EDGE('',*,*,#164,.F.);
#45=ORIENTED_EDGE('',*,*,#165,.F.);
#46=ORIENTED_EDGE('',*,*,#166,.T.);
#47=ORIENTED_EDGE('',*,*,#167,.T.);
#48=ORIENTED_EDGE('',*,*,#168,.F.);
#49=ORIENTED_EDGE('',*,*,#169,.T.);
#50=ORIENTED_EDGE('',*,*,#170,.T.);
#51=ORIENTED_EDGE('',*,*,#171,.T.);
#52=ORIENTED_EDGE('',*,*,#172,.T.);
#53=ORIENTED_EDGE('',*,*,#173,.T.);
#54=ORIENTED_EDGE('',*,*,#174,.F.);
#55=ORIENTED_EDGE('',*,*,#175,.T.);
#56=ORIENTED_EDGE('',*,*,#170,.F.);
#57=ORIENTED_EDGE('',*,*,#176,.T.);
#58=ORIENTED_EDGE('',*,*,#144,.T.);
#59=ORIENTED_EDGE('',*,*,#177,.T.);
#60=ORIENTED_EDGE('',*,*,#174,.T.);
#61=ORIENTED_EDGE('',*,*,#178,.T.);
#62=ORIENTED_EDGE('',*,*,#154,.F.);
#63=ORIENTED_EDGE('',*,*,#179,.T.);
#64=ORIENTED_EDGE('',*,*,#160,.T.);
#65=ORIENTED_EDGE('',*,*,#180,.F.);
#66=ORIENTED_EDGE('',*,*,#181,.F.);
#67=ORIENTED_EDGE('',*,*,#149,.F.);
#68=ORIENTED_EDGE('',*,*,#182,.F.);
#69=ORIENTED_EDGE('',*,*,#183,.T.);
#70=ORIENTED_EDGE('',*,*,#163,.T.);
#71=ORIENTED_EDGE('',*,*,#184,.F.);
#72=ORIENTED_EDGE('',*,*,#185,.F.);
#73=ORIENTED_EDGE('',*,*,#180,.T.);
#74=ORIENTED_EDGE('',*,*,#162,.F.);
#75=ORIENTED_EDGE('',*,*,#186,.F.);
#76=ORIENTED_EDGE('',*,*,#187,.T.);
#77=ORIENTED_EDGE('',*,*,#147,.T.);
#78=ORIENTED_EDGE('',*,*,#188,.T.);
#79=ORIENTED_EDGE('',*,*,#184,.T.);
#80=ORIENTED_EDGE('',*,*,#164,.T.);
#81=ORIENTED_EDGE('',*,*,#189,.F.);
#82=ORIENTED_EDGE('',*,*,#190,.F.);
#83=ORIENTED_EDGE('',*,*,#159,.F.);
#84=ORIENTED_EDGE('',*,*,#191,.F.);
#85=ORIENTED_EDGE('',*,*,#192,.T.);
#86=ORIENTED_EDGE('',*,*,#167,.F.);
#87=ORIENTED_EDGE('',*,*,#193,.F.);
#88=ORIENTED_EDGE('',*,*,#194,.T.);
#89=ORIENTED_EDGE('',*,*,#189,.T.);
#90=ORIENTED_EDGE('',*,*,#166,.F.);
#91=ORIENTED_EDGE('',*,*,#195,.F.);
#92=ORIENTED_EDGE('',*,*,#196,.T.);
#93=ORIENTED_EDGE('',*,*,#157,.T.);
#94=ORIENTED_EDGE('',*,*,#197,.T.);
#95=ORIENTED_EDGE('',*,*,#193,.T.);
#96=ORIENTED_EDGE('',*,*,#146,.F.);
#97=ORIENTED_EDGE('',*,*,#198,.T.);
#98=ORIENTED_EDGE('',*,*,#168,.T.);
#99=ORIENTED_EDGE('',*,*,#199,.T.);
#100=ORIENTED_EDGE('',*,*,#152,.T.);
#101=ORIENTED_EDGE('',*,*,#190,.T.);
#102=ORIENTED_EDGE('',*,*,#194,.F.);
#103=ORIENTED_EDGE('',*,*,#197,.F.);
#104=ORIENTED_EDGE('',*,*,#156,.T.);
#105=ORIENTED_EDGE('',*,*,#200,.T.);
#106=ORIENTED_EDGE('',*,*,#172,.F.);
#107=ORIENTED_EDGE('',*,*,#201,.T.);
#108=ORIENTED_EDGE('',*,*,#150,.F.);
#109=ORIENTED_EDGE('',*,*,#181,.T.);
#110=ORIENTED_EDGE('',*,*,#185,.T.);
#111=ORIENTED_EDGE('',*,*,#188,.F.);
#112=ORIENTED_EDGE('',*,*,#161,.F.);
#113=ORIENTED_EDGE('',*,*,#183,.F.);
#114=ORIENTED_EDGE('',*,*,#202,.T.);
#115=ORIENTED_EDGE('',*,*,#186,.T.);
#116=ORIENTED_EDGE('',*,*,#182,.T.);
#117=ORIENTED_EDGE('',*,*,#148,.F.);
#118=ORIENTED_EDGE('',*,*,#187,.F.);
#119=ORIENTED_EDGE('',*,*,#202,.F.);
#120=ORIENTED_EDGE('',*,*,#165,.T.);
#121=ORIENTED_EDGE('',*,*,#192,.F.);
#122=ORIENTED_EDGE('',*,*,#203,.F.);
#123=ORIENTED_EDGE('',*,*,#195,.T.);
#124=ORIENTED_EDGE('',*,*,#203,.T.);
#125=ORIENTED_EDGE('',*,*,#191,.T.);
#126=ORIENTED_EDGE('',*,*,#158,.T.);
#127=ORIENTED_EDGE('',*,*,#196,.F.);
#128=ORIENTED_EDGE('',*,*,#176,.F.);
#129=ORIENTED_EDGE('',*,*,#169,.F.);
#130=ORIENTED_EDGE('',*,*,#198,.F.);
#131=ORIENTED_EDGE('',*,*,#145,.F.);
#132=ORIENTED_EDGE('',*,*,#179,.F.);
#133=ORIENTED_EDGE('',*,*,#153,.F.);
#134=ORIENTED_EDGE('',*,*,#199,.F.);
#135=ORIENTED_EDGE('',*,*,#171,.F.);
#136=ORIENTED_EDGE('',*,*,#178,.F.);
#137=ORIENTED_EDGE('',*,*,#173,.F.);
#138=ORIENTED_EDGE('',*,*,#200,.F.);
#139=ORIENTED_EDGE('',*,*,#155,.F.);
#140=ORIENTED_EDGE('',*,*,#177,.F.);
#141=ORIENTED_EDGE('',*,*,#151,.F.);
#142=ORIENTED_EDGE('',*,*,#201,.F.);
#143=ORIENTED_EDGE('',*,*,#175,.F.);
#144=EDGE_CURVE('',#204,#205,#244,.T.);
#145=EDGE_CURVE('',#204,#206,#245,.T.);
#146=EDGE_CURVE('',#206,#207,#246,.T.);
#147=EDGE_CURVE('',#208,#207,#247,.T.);
#148=EDGE_CURVE('',#208,#209,#248,.T.);
#149=EDGE_CURVE('',#209,#210,#249,.T.);
#150=EDGE_CURVE('',#210,#211,#250,.T.);
#151=EDGE_CURVE('',#211,#205,#251,.F.);
#152=EDGE_CURVE('',#212,#213,#252,.T.);
#153=EDGE_CURVE('',#212,#214,#253,.F.);
#154=EDGE_CURVE('',#214,#215,#254,.T.);
#155=EDGE_CURVE('',#215,#216,#255,.T.);
#156=EDGE_CURVE('',#217,#216,#256,.T.);
#157=EDGE_CURVE('',#218,#217,#257,.T.);
#158=EDGE_CURVE('',#219,#218,#258,.T.);
#159=EDGE_CURVE('',#219,#213,#259,.T.);
#160=EDGE_CURVE('',#220,#221,#260,.T.);
#161=EDGE_CURVE('',#220,#222,#261,.T.);
#162=EDGE_CURVE('',#222,#223,#262,.T.);
#163=EDGE_CURVE('',#221,#223,#263,.T.);
#164=EDGE_CURVE('',#224,#225,#264,.T.);
#165=EDGE_CURVE('',#226,#224,#265,.T.);
#166=EDGE_CURVE('',#226,#227,#266,.T.);
#167=EDGE_CURVE('',#227,#225,#267,.T.);
#168=EDGE_CURVE('',#228,#229,#268,.T.);
#169=EDGE_CURVE('',#228,#230,#269,.F.);
#170=EDGE_CURVE('',#230,#231,#270,.T.);
#171=EDGE_CURVE('',#231,#229,#271,.T.);
#172=EDGE_CURVE('',#232,#233,#272,.T.);
#173=EDGE_CURVE('',#233,#234,#273,.F.);
#174=EDGE_CURVE('',#235,#234,#274,.T.);
#175=EDGE_CURVE('',#235,#232,#275,.T.);
#176=EDGE_CURVE('',#230,#204,#16,.T.);
#177=EDGE_CURVE('',#205,#235,#17,.T.);
#178=EDGE_CURVE('',#234,#215,#18,.T.);
#179=EDGE_CURVE('',#214,#231,#19,.T.);
#180=EDGE_CURVE('',#236,#221,#276,.T.);
#181=EDGE_CURVE('',#210,#236,#277,.T.);
#182=EDGE_CURVE('',#237,#209,#278,.T.);
#183=EDGE_CURVE('',#237,#220,#279,.T.);
#184=EDGE_CURVE('',#238,#223,#280,.T.);
#185=EDGE_CURVE('',#236,#238,#281,.T.);
#186=EDGE_CURVE('',#239,#222,#282,.T.);
#187=EDGE_CURVE('',#239,#208,#283,.T.);
#188=EDGE_CURVE('',#207,#238,#284,.T.);
#189=EDGE_CURVE('',#240,#225,#285,.T.);
#190=EDGE_CURVE('',#213,#240,#286,.T.);
#191=EDGE_CURVE('',#241,#219,#287,.T.);
#192=EDGE_CURVE('',#241,#224,#288,.T.);
#193=EDGE_CURVE('',#242,#227,#289,.T.);
#194=EDGE_CURVE('',#242,#240,#290,.T.);
#195=EDGE_CURVE('',#243,#226,#291,.T.);
#196=EDGE_CURVE('',#243,#218,#292,.T.);
#197=EDGE_CURVE('',#217,#242,#293,.T.);
#198=EDGE_CURVE('',#206,#228,#20,.T.);
#199=EDGE_CURVE('',#229,#212,#21,.T.);
#200=EDGE_CURVE('',#216,#233,#22,.T.);
#201=EDGE_CURVE('',#232,#211,#23,.T.);
#202=EDGE_CURVE('',#237,#239,#294,.T.);
#203=EDGE_CURVE('',#243,#241,#295,.T.);
#204=VERTEX_POINT('',#663);
#205=VERTEX_POINT('',#664);
#206=VERTEX_POINT('',#666);
#207=VERTEX_POINT('',#668);
#208=VERTEX_POINT('',#670);
#209=VERTEX_POINT('',#672);
#210=VERTEX_POINT('',#674);
#211=VERTEX_POINT('',#676);
#212=VERTEX_POINT('',#680);
#213=VERTEX_POINT('',#681);
#214=VERTEX_POINT('',#683);
#215=VERTEX_POINT('',#685);
#216=VERTEX_POINT('',#687);
#217=VERTEX_POINT('',#689);
#218=VERTEX_POINT('',#691);
#219=VERTEX_POINT('',#693);
#220=VERTEX_POINT('',#697);
#221=VERTEX_POINT('',#698);
#222=VERTEX_POINT('',#700);
#223=VERTEX_POINT('',#702);
#224=VERTEX_POINT('',#706);
#225=VERTEX_POINT('',#707);
#226=VERTEX_POINT('',#709);
#227=VERTEX_POINT('',#711);
#228=VERTEX_POINT('',#715);
#229=VERTEX_POINT('',#716);
#230=VERTEX_POINT('',#718);
#231=VERTEX_POINT('',#720);
#232=VERTEX_POINT('',#724);
#233=VERTEX_POINT('',#725);
#234=VERTEX_POINT('',#727);
#235=VERTEX_POINT('',#729);
#236=VERTEX_POINT('',#738);
#237=VERTEX_POINT('',#741);
#238=VERTEX_POINT('',#745);
#239=VERTEX_POINT('',#749);
#240=VERTEX_POINT('',#754);
#241=VERTEX_POINT('',#757);
#242=VERTEX_POINT('',#761);
#243=VERTEX_POINT('',#765);
#244=LINE('',#662,#296);
#245=LINE('',#665,#297);
#246=LINE('',#667,#298);
#247=LINE('',#669,#299);
#248=LINE('',#671,#300);
#249=LINE('',#673,#301);
#250=LINE('',#675,#302);
#251=LINE('',#677,#303);
#252=LINE('',#679,#304);
#253=LINE('',#682,#305);
#254=LINE('',#684,#306);
#255=LINE('',#686,#307);
#256=LINE('',#688,#308);
#257=LINE('',#690,#309);
#258=LINE('',#692,#310);
#259=LINE('',#694,#311);
#260=LINE('',#696,#312);
#261=LINE('',#699,#313);
#262=LINE('',#701,#314);
#263=LINE('',#703,#315);
#264=LINE('',#705,#316);
#265=LINE('',#708,#317);
#266=LINE('',#710,#318);
#267=LINE('',#712,#319);
#268=LINE('',#714,#320);
#269=LINE('',#717,#321);
#270=LINE('',#719,#322);
#271=LINE('',#721,#323);
#272=LINE('',#723,#324);
#273=LINE('',#726,#325);
#274=LINE('',#728,#326);
#275=LINE('',#730,#327);
#276=LINE('',#737,#328);
#277=LINE('',#739,#329);
#278=LINE('',#740,#330);
#279=LINE('',#742,#331);
#280=LINE('',#744,#332);
#281=LINE('',#746,#333);
#282=LINE('',#748,#334);
#283=LINE('',#750,#335);
#284=LINE('',#751,#336);
#285=LINE('',#753,#337);
#286=LINE('',#755,#338);
#287=LINE('',#756,#339);
#288=LINE('',#758,#340);
#289=LINE('',#760,#341);
#290=LINE('',#762,#342);
#291=LINE('',#764,#343);
#292=LINE('',#766,#344);
#293=LINE('',#767,#345);
#294=LINE('',#774,#346);
#295=LINE('',#777,#347);
#296=VECTOR('',#550,1.);
#297=VECTOR('',#551,1.);
#298=VECTOR('',#552,1.);
#299=VECTOR('',#553,1.);
#300=VECTOR('',#554,1.);
#301=VECTOR('',#555,1.);
#302=VECTOR('',#556,1.);
#303=VECTOR('',#557,1.);
#304=VECTOR('',#560,1.);
#305=VECTOR('',#561,1.);
#306=VECTOR('',#562,1.);
#307=VECTOR('',#563,1.);
#308=VECTOR('',#564,1.);
#309=VECTOR('',#565,1.);
#310=VECTOR('',#566,1.);
#311=VECTOR('',#567,1.);
#312=VECTOR('',#570,1.);
#313=VECTOR('',#571,1.);
#314=VECTOR('',#572,1.);
#315=VECTOR('',#573,1.);
#316=VECTOR('',#576,1.);
#317=VECTOR('',#577,1.);
#318=VECTOR('',#578,1.);
#319=VECTOR('',#579,1.);
#320=VECTOR('',#582,1.);
#321=VECTOR('',#583,1.);
#322=VECTOR('',#584,1.);
#323=VECTOR('',#585,1.);
#324=VECTOR('',#588,1.);
#325=VECTOR('',#589,1.);
#326=VECTOR('',#590,1.);
#327=VECTOR('',#591,1.);
#328=VECTOR('',#604,1.);
#329=VECTOR('',#605,1.);
#330=VECTOR('',#606,1.);
#331=VECTOR('',#607,1.);
#332=VECTOR('',#610,1.);
#333=VECTOR('',#611,1.);
#334=VECTOR('',#614,1.);
#335=VECTOR('',#615,1.);
#336=VECTOR('',#616,1.);
#337=VECTOR('',#619,1.);
#338=VECTOR('',#620,1.);
#339=VECTOR('',#621,1.);
#340=VECTOR('',#622,1.);
#341=VECTOR('',#625,1.);
#342=VECTOR('',#626,1.);
#343=VECTOR('',#629,1.);
#344=VECTOR('',#630,1.);
#345=VECTOR('',#631,1.);
#346=VECTOR('',#644,1.);
#347=VECTOR('',#649,1.);
#348=EDGE_LOOP('',(#24,#25,#26,#27,#28,#29,#30,#31));
#349=EDGE_LOOP('',(#32,#33,#34,#35,#36,#37,#38,#39));
#350=EDGE_LOOP('',(#40,#41,#42,#43));
#351=EDGE_LOOP('',(#44,#45,#46,#47));
#352=EDGE_LOOP('',(#48,#49,#50,#51));
#353=EDGE_LOOP('',(#52,#53,#54,#55));
#354=EDGE_LOOP('',(#56,#57,#58,#59,#60,#61,#62,#63));
#355=EDGE_LOOP('',(#64,#65,#66,#67,#68,#69));
#356=EDGE_LOOP('',(#70,#71,#72,#73));
#357=EDGE_LOOP('',(#74,#75,#76,#77,#78,#79));
#358=EDGE_LOOP('',(#80,#81,#82,#83,#84,#85));
#359=EDGE_LOOP('',(#86,#87,#88,#89));
#360=EDGE_LOOP('',(#90,#91,#92,#93,#94,#95));
#361=EDGE_LOOP('',(#96,#97,#98,#99,#100,#101,#102,#103,#104,#105,#106,#107,
#108,#109,#110,#111));
#362=EDGE_LOOP('',(#112,#113,#114,#115));
#363=EDGE_LOOP('',(#116,#117,#118,#119));
#364=EDGE_LOOP('',(#120,#121,#122,#123));
#365=EDGE_LOOP('',(#124,#125,#126,#127));
#366=EDGE_LOOP('',(#128,#129,#130,#131));
#367=EDGE_LOOP('',(#132,#133,#134,#135));
#368=EDGE_LOOP('',(#136,#137,#138,#139));
#369=EDGE_LOOP('',(#140,#141,#142,#143));
#370=FACE_BOUND('',#348,.T.);
#371=FACE_BOUND('',#349,.T.);
#372=FACE_BOUND('',#350,.T.);
#373=FACE_BOUND('',#351,.T.);
#374=FACE_BOUND('',#352,.T.);
#375=FACE_BOUND('',#353,.T.);
#376=FACE_BOUND('',#354,.T.);
#377=FACE_BOUND('',#355,.T.);
#378=FACE_BOUND('',#356,.T.);
#379=FACE_BOUND('',#357,.T.);
#380=FACE_BOUND('',#358,.T.);
#381=FACE_BOUND('',#359,.T.);
#382=FACE_BOUND('',#360,.T.);
#383=FACE_BOUND('',#361,.T.);
#384=FACE_BOUND('',#362,.T.);
#385=FACE_BOUND('',#363,.T.);
#386=FACE_BOUND('',#364,.T.);
#387=FACE_BOUND('',#365,.T.);
#388=FACE_BOUND('',#366,.T.);
#389=FACE_BOUND('',#367,.T.);
#390=FACE_BOUND('',#368,.T.);
#391=FACE_BOUND('',#369,.T.);
#392=PLANE('',#516);
#393=PLANE('',#517);
#394=PLANE('',#518);
#395=PLANE('',#519);
#396=PLANE('',#520);
#397=PLANE('',#521);
#398=PLANE('',#522);
#399=PLANE('',#527);
#400=PLANE('',#528);
#401=PLANE('',#529);
#402=PLANE('',#530);
#403=PLANE('',#531);
#404=PLANE('',#532);
#405=PLANE('',#533);
#406=PLANE('',#538);
#407=PLANE('',#539);
#408=PLANE('',#540);
#409=PLANE('',#541);
#410=OVER_RIDING_STYLED_ITEM('',(#445),#420,#443);
#411=OVER_RIDING_STYLED_ITEM('',(#446),#421,#443);
#412=OVER_RIDING_STYLED_ITEM('',(#447),#424,#443);
#413=OVER_RIDING_STYLED_ITEM('',(#448),#425,#443);
#414=OVER_RIDING_STYLED_ITEM('',(#449),#426,#443);
#415=OVER_RIDING_STYLED_ITEM('',(#450),#433,#443);
#416=OVER_RIDING_STYLED_ITEM('',(#451),#438,#443);
#417=OVER_RIDING_STYLED_ITEM('',(#452),#439,#443);
#418=OVER_RIDING_STYLED_ITEM('',(#453),#440,#443);
#419=OVER_RIDING_STYLED_ITEM('',(#454),#441,#443);
#420=ADVANCED_FACE('',(#370),#392,.F.);
#421=ADVANCED_FACE('',(#371),#393,.T.);
#422=ADVANCED_FACE('',(#372),#394,.F.);
#423=ADVANCED_FACE('',(#373),#395,.F.);
#424=ADVANCED_FACE('',(#374),#396,.T.);
#425=ADVANCED_FACE('',(#375),#397,.F.);
#426=ADVANCED_FACE('',(#376),#398,.T.);
#427=ADVANCED_FACE('',(#377),#399,.F.);
#428=ADVANCED_FACE('',(#378),#400,.F.);
#429=ADVANCED_FACE('',(#379),#401,.T.);
#430=ADVANCED_FACE('',(#380),#402,.F.);
#431=ADVANCED_FACE('',(#381),#403,.T.);
#432=ADVANCED_FACE('',(#382),#404,.T.);
#433=ADVANCED_FACE('',(#383),#405,.T.);
#434=ADVANCED_FACE('',(#384),#406,.T.);
#435=ADVANCED_FACE('',(#385),#407,.F.);
#436=ADVANCED_FACE('',(#386),#408,.F.);
#437=ADVANCED_FACE('',(#387),#409,.F.);
#438=ADVANCED_FACE('',(#388),#12,.T.);
#439=ADVANCED_FACE('',(#389),#13,.T.);
#440=ADVANCED_FACE('',(#390),#14,.T.);
#441=ADVANCED_FACE('',(#391),#15,.T.);
#442=CLOSED_SHELL('',(#420,#421,#422,#423,#424,#425,#426,#427,#428,#429,
#430,#431,#432,#433,#434,#435,#436,#437,#438,#439,#440,#441));
#443=STYLED_ITEM('',(#444),#512);
#444=PRESENTATION_STYLE_ASSIGNMENT((#455));
#445=PRESENTATION_STYLE_ASSIGNMENT((#456));
#446=PRESENTATION_STYLE_ASSIGNMENT((#457));
#447=PRESENTATION_STYLE_ASSIGNMENT((#458));
#448=PRESENTATION_STYLE_ASSIGNMENT((#459));
#449=PRESENTATION_STYLE_ASSIGNMENT((#460));
#450=PRESENTATION_STYLE_ASSIGNMENT((#461));
#451=PRESENTATION_STYLE_ASSIGNMENT((#462));
#452=PRESENTATION_STYLE_ASSIGNMENT((#463));
#453=PRESENTATION_STYLE_ASSIGNMENT((#464));
#454=PRESENTATION_STYLE_ASSIGNMENT((#465));
#455=SURFACE_STYLE_USAGE(.BOTH.,#466);
#456=SURFACE_STYLE_USAGE(.BOTH.,#467);
#457=SURFACE_STYLE_USAGE(.BOTH.,#468);
#458=SURFACE_STYLE_USAGE(.BOTH.,#469);
#459=SURFACE_STYLE_USAGE(.BOTH.,#470);
#460=SURFACE_STYLE_USAGE(.BOTH.,#471);
#461=SURFACE_STYLE_USAGE(.BOTH.,#472);
#462=SURFACE_STYLE_USAGE(.BOTH.,#473);
#463=SURFACE_STYLE_USAGE(.BOTH.,#474);
#464=SURFACE_STYLE_USAGE(.BOTH.,#475);
#465=SURFACE_STYLE_USAGE(.BOTH.,#476);
#466=SURFACE_SIDE_STYLE('',(#477));
#467=SURFACE_SIDE_STYLE('',(#478));
#468=SURFACE_SIDE_STYLE('',(#479));
#469=SURFACE_SIDE_STYLE('',(#480));
#470=SURFACE_SIDE_STYLE('',(#481));
#471=SURFACE_SIDE_STYLE('',(#482));
#472=SURFACE_SIDE_STYLE('',(#483));
#473=SURFACE_SIDE_STYLE('',(#484));
#474=SURFACE_SIDE_STYLE('',(#485));
#475=SURFACE_SIDE_STYLE('',(#486));
#476=SURFACE_SIDE_STYLE('',(#487));
#477=SURFACE_STYLE_FILL_AREA(#488);
#478=SURFACE_STYLE_FILL_AREA(#489);
#479=SURFACE_STYLE_FILL_AREA(#490);
#480=SURFACE_STYLE_FILL_AREA(#491);
#481=SURFACE_STYLE_FILL_AREA(#492);
#482=SURFACE_STYLE_FILL_AREA(#493);
#483=SURFACE_STYLE_FILL_AREA(#494);
#484=SURFACE_STYLE_FILL_AREA(#495);
#485=SURFACE_STYLE_FILL_AREA(#496);
#486=SURFACE_STYLE_FILL_AREA(#497);
#487=SURFACE_STYLE_FILL_AREA(#498);
#488=FILL_AREA_STYLE('',(#499));
#489=FILL_AREA_STYLE('',(#500));
#490=FILL_AREA_STYLE('',(#501));
#491=FILL_AREA_STYLE('',(#502));
#492=FILL_AREA_STYLE('',(#503));
#493=FILL_AREA_STYLE('',(#504));
#494=FILL_AREA_STYLE('',(#505));
#495=FILL_AREA_STYLE('',(#506));
#496=FILL_AREA_STYLE('',(#507));
#497=FILL_AREA_STYLE('',(#508));
#498=FILL_AREA_STYLE('',(#509));
#499=FILL_AREA_STYLE_COLOUR('',#510);
#500=FILL_AREA_STYLE_COLOUR('',#511);
#501=FILL_AREA_STYLE_COLOUR('',#511);
#502=FILL_AREA_STYLE_COLOUR('',#511);
#503=FILL_AREA_STYLE_COLOUR('',#511);
#504=FILL_AREA_STYLE_COLOUR('',#511);
#505=FILL_AREA_STYLE_COLOUR('',#511);
#506=FILL_AREA_STYLE_COLOUR('',#511);
#507=FILL_AREA_STYLE_COLOUR('',#511);
#508=FILL_AREA_STYLE_COLOUR('',#511);
#509=FILL_AREA_STYLE_COLOUR('',#511);
#510=COLOUR_RGB('',0.764705882352941,0.764705882352941,0.764705882352941);
#511=COLOUR_RGB('',0.549019607843137,0.549019607843137,0.549019607843137);
#512=MANIFOLD_SOLID_BREP('SRP1038WA',#442);
#513=SHAPE_DEFINITION_REPRESENTATION(#789,#514);
#514=SHAPE_REPRESENTATION('SRP1038WA',(#515),#784);
#515=AXIS2_PLACEMENT_3D('',#660,#546,#547);
#516=AXIS2_PLACEMENT_3D('',#661,#548,#549);
#517=AXIS2_PLACEMENT_3D('',#678,#558,#559);
#518=AXIS2_PLACEMENT_3D('',#695,#568,#569);
#519=AXIS2_PLACEMENT_3D('',#704,#574,#575);
#520=AXIS2_PLACEMENT_3D('',#713,#580,#581);
#521=AXIS2_PLACEMENT_3D('',#722,#586,#587);
#522=AXIS2_PLACEMENT_3D('',#731,#592,#593);
#523=AXIS2_PLACEMENT_3D('',#732,#594,#595);
#524=AXIS2_PLACEMENT_3D('',#733,#596,#597);
#525=AXIS2_PLACEMENT_3D('',#734,#598,#599);
#526=AXIS2_PLACEMENT_3D('',#735,#600,#601);
#527=AXIS2_PLACEMENT_3D('',#736,#602,#603);
#528=AXIS2_PLACEMENT_3D('',#743,#608,#609);
#529=AXIS2_PLACEMENT_3D('',#747,#612,#613);
#530=AXIS2_PLACEMENT_3D('',#752,#617,#618);
#531=AXIS2_PLACEMENT_3D('',#759,#623,#624);
#532=AXIS2_PLACEMENT_3D('',#763,#627,#628);
#533=AXIS2_PLACEMENT_3D('',#768,#632,#633);
#534=AXIS2_PLACEMENT_3D('',#769,#634,#635);
#535=AXIS2_PLACEMENT_3D('',#770,#636,#637);
#536=AXIS2_PLACEMENT_3D('',#771,#638,#639);
#537=AXIS2_PLACEMENT_3D('',#772,#640,#641);
#538=AXIS2_PLACEMENT_3D('',#773,#642,#643);
#539=AXIS2_PLACEMENT_3D('',#775,#645,#646);
#540=AXIS2_PLACEMENT_3D('',#776,#647,#648);
#541=AXIS2_PLACEMENT_3D('',#778,#650,#651);
#542=AXIS2_PLACEMENT_3D('',#779,#652,#653);
#543=AXIS2_PLACEMENT_3D('',#780,#654,#655);
#544=AXIS2_PLACEMENT_3D('',#781,#656,#657);
#545=AXIS2_PLACEMENT_3D('',#782,#658,#659);
#546=DIRECTION('',(0.,0.,1.));
#547=DIRECTION('',(1.,0.,0.));
#548=DIRECTION('',(1.,0.,0.));
#549=DIRECTION('',(0.,0.,-1.));
#550=DIRECTION('',(0.,-1.,0.));
#551=DIRECTION('',(0.,0.,-1.));
#552=DIRECTION('',(0.,-1.,0.));
#553=DIRECTION('',(0.,0.,-1.));
#554=DIRECTION('',(0.,-1.,0.));
#555=DIRECTION('',(0.,0.,-1.));
#556=DIRECTION('',(0.,-1.,0.));
#557=DIRECTION('',(0.,0.,-1.));
#558=DIRECTION('',(1.,0.,0.));
#559=DIRECTION('',(0.,0.,-1.));
#560=DIRECTION('',(0.,-1.,0.));
#561=DIRECTION('',(0.,0.,-1.));
#562=DIRECTION('',(0.,-1.,0.));
#563=DIRECTION('',(0.,0.,-1.));
#564=DIRECTION('',(0.,-1.,0.));
#565=DIRECTION('',(0.,0.,-1.));
#566=DIRECTION('',(0.,-1.,0.));
#567=DIRECTION('',(0.,0.,-1.));
#568=DIRECTION('',(0.,0.,1.));
#569=DIRECTION('',(1.,0.,0.));
#570=DIRECTION('',(1.,0.,0.));
#571=DIRECTION('',(-1.92747052886312E-16,1.,0.));
#572=DIRECTION('',(1.,0.,0.));
#573=DIRECTION('',(-1.92747052886312E-16,1.,0.));
#574=DIRECTION('',(0.,0.,1.));
#575=DIRECTION('',(1.,0.,0.));
#576=DIRECTION('',(-1.,-1.88556899562696E-16,0.));
#577=DIRECTION('',(-1.92747052886312E-16,1.,0.));
#578=DIRECTION('',(-1.,-1.88556899562696E-16,0.));
#579=DIRECTION('',(-1.92747052886312E-16,1.,0.));
#580=DIRECTION('',(0.,1.,0.));
#581=DIRECTION('',(0.,0.,1.));
#582=DIRECTION('',(1.,0.,0.));
#583=DIRECTION('',(0.,0.,-1.));
#584=DIRECTION('',(1.,0.,0.));
#585=DIRECTION('',(0.,0.,-1.));
#586=DIRECTION('',(0.,1.,0.));
#587=DIRECTION('',(0.,0.,1.));
#588=DIRECTION('',(1.,0.,0.));
#589=DIRECTION('',(0.,0.,-1.));
#590=DIRECTION('',(1.,0.,0.));
#591=DIRECTION('',(0.,0.,-1.));
#592=DIRECTION('',(0.,0.,1.));
#593=DIRECTION('',(1.,0.,0.));
#594=DIRECTION('',(0.,0.,1.));
#595=DIRECTION('',(1.,0.,0.));
#596=DIRECTION('',(0.,0.,1.));
#597=DIRECTION('',(1.,0.,0.));
#598=DIRECTION('',(0.,0.,1.));
#599=DIRECTION('',(1.,0.,0.));
#600=DIRECTION('',(0.,0.,1.));
#601=DIRECTION('',(1.,0.,0.));
#602=DIRECTION('',(0.,1.,0.));
#603=DIRECTION('',(0.,0.,1.));
#604=DIRECTION('',(0.,0.,-1.));
#605=DIRECTION('',(1.,0.,0.));
#606=DIRECTION('',(1.,0.,0.));
#607=DIRECTION('',(0.,0.,-1.));
#608=DIRECTION('',(-1.,-1.92747052886312E-16,0.));
#609=DIRECTION('',(1.92747052886312E-16,-1.,0.));
#610=DIRECTION('',(0.,0.,-1.));
#611=DIRECTION('',(-1.92747052886312E-16,1.,0.));
#612=DIRECTION('',(0.,1.,0.));
#613=DIRECTION('',(0.,0.,1.));
#614=DIRECTION('',(0.,0.,-1.));
#615=DIRECTION('',(1.,0.,0.));
#616=DIRECTION('',(1.,0.,0.));
#617=DIRECTION('',(1.88556899562696E-16,-1.,0.));
#618=DIRECTION('',(1.,1.88556899562696E-16,0.));
#619=DIRECTION('',(0.,0.,-1.));
#620=DIRECTION('',(-1.,-1.88556899562696E-16,0.));
#621=DIRECTION('',(-1.,-1.88556899562696E-16,0.));
#622=DIRECTION('',(0.,0.,-1.));
#623=DIRECTION('',(-1.,-1.92747052886312E-16,0.));
#624=DIRECTION('',(1.92747052886312E-16,-1.,0.));
#625=DIRECTION('',(0.,0.,-1.));
#626=DIRECTION('',(-1.92747052886312E-16,1.,0.));
#627=DIRECTION('',(1.88556899562696E-16,-1.,0.));
#628=DIRECTION('',(1.,1.88556899562696E-16,0.));
#629=DIRECTION('',(0.,0.,-1.));
#630=DIRECTION('',(-1.,-1.88556899562696E-16,0.));
#631=DIRECTION('',(-1.,-1.88556899562696E-16,0.));
#632=DIRECTION('',(0.,0.,-1.));
#633=DIRECTION('',(1.,0.,0.));
#634=DIRECTION('',(0.,0.,-1.));
#635=DIRECTION('',(-1.,0.,0.));
#636=DIRECTION('',(0.,0.,-1.));
#637=DIRECTION('',(-1.,0.,0.));
#638=DIRECTION('',(0.,0.,-1.));
#639=DIRECTION('',(-1.,0.,0.));
#640=DIRECTION('',(0.,0.,-1.));
#641=DIRECTION('',(-1.,0.,0.));
#642=DIRECTION('',(-1.,-1.92747052886312E-16,0.));
#643=DIRECTION('',(1.92747052886312E-16,-1.,0.));
#644=DIRECTION('',(-1.92747052886312E-16,1.,0.));
#645=DIRECTION('',(0.,0.,-1.));
#646=DIRECTION('',(1.,0.,0.));
#647=DIRECTION('',(-1.,-1.92747052886312E-16,0.));
#648=DIRECTION('',(1.92747052886312E-16,-1.,0.));
#649=DIRECTION('',(-1.92747052886312E-16,1.,0.));
#650=DIRECTION('',(0.,0.,-1.));
#651=DIRECTION('',(1.,0.,0.));
#652=DIRECTION('',(0.,0.,1.));
#653=DIRECTION('',(1.,0.,0.));
#654=DIRECTION('',(0.,0.,-1.));
#655=DIRECTION('',(-1.,0.,0.));
#656=DIRECTION('',(0.,0.,1.));
#657=DIRECTION('',(1.,0.,0.));
#658=DIRECTION('',(0.,0.,-1.));
#659=DIRECTION('',(-1.,0.,0.));
#660=CARTESIAN_POINT('',(0.,0.,0.));
#661=CARTESIAN_POINT('',(-0.00505,0.,0.0038));
#662=CARTESIAN_POINT('',(-0.00505,0.,0.0038));
#663=CARTESIAN_POINT('',(-0.00505,0.00385,0.0038));
#664=CARTESIAN_POINT('',(-0.00505,-0.00385,0.0038));
#665=CARTESIAN_POINT('',(-0.00505,0.00385,0.0001));
#666=CARTESIAN_POINT('',(-0.00505,0.00385,0.0001));
#667=CARTESIAN_POINT('',(-0.00505,0.,0.0001));
#668=CARTESIAN_POINT('',(-0.00505,0.00225,0.0001));
#669=CARTESIAN_POINT('',(-0.00505,0.00225,0.002));
#670=CARTESIAN_POINT('',(-0.00505,0.00225,0.002));
#671=CARTESIAN_POINT('',(-0.00505,0.,0.002));
#672=CARTESIAN_POINT('',(-0.00505,-0.00225,0.002));
#673=CARTESIAN_POINT('',(-0.00505,-0.00225,0.002));
#674=CARTESIAN_POINT('',(-0.00505,-0.00225,0.0001));
#675=CARTESIAN_POINT('',(-0.00505,0.,0.0001));
#676=CARTESIAN_POINT('',(-0.00505,-0.00385,0.0001));
#677=CARTESIAN_POINT('',(-0.00505,-0.00385,0.0038));
#678=CARTESIAN_POINT('',(0.00505,0.,0.0038));
#679=CARTESIAN_POINT('',(0.00505,0.,0.0001));
#680=CARTESIAN_POINT('',(0.00505,0.00385,0.0001));
#681=CARTESIAN_POINT('',(0.00505,0.00225,0.0001));
#682=CARTESIAN_POINT('',(0.00505,0.00385,0.0038));
#683=CARTESIAN_POINT('',(0.00505,0.00385,0.0038));
#684=CARTESIAN_POINT('',(0.00505,0.,0.0038));
#685=CARTESIAN_POINT('',(0.00505,-0.00385,0.0038));
#686=CARTESIAN_POINT('',(0.00505,-0.00385,0.0001));
#687=CARTESIAN_POINT('',(0.00505,-0.00385,0.0001));
#688=CARTESIAN_POINT('',(0.00505,0.,0.0001));
#689=CARTESIAN_POINT('',(0.00505,-0.00225,0.0001));
#690=CARTESIAN_POINT('',(0.00505,-0.00225,0.002));
#691=CARTESIAN_POINT('',(0.00505,-0.00225,0.002));
#692=CARTESIAN_POINT('',(0.00505,0.,0.002));
#693=CARTESIAN_POINT('',(0.00505,0.00225,0.002));
#694=CARTESIAN_POINT('',(0.00505,0.00225,0.002));
#695=CARTESIAN_POINT('',(8.67361737988404E-19,0.,0.));
#696=CARTESIAN_POINT('',(-0.00435,-0.00225,0.));
#697=CARTESIAN_POINT('',(-0.0055,-0.00225,0.));
#698=CARTESIAN_POINT('',(-0.0032,-0.00225,0.));
#699=CARTESIAN_POINT('',(-0.0055,-8.67361737988404E-19,0.));
#700=CARTESIAN_POINT('',(-0.0055,0.00225,0.));
#701=CARTESIAN_POINT('',(-0.00435,0.00225,0.));
#702=CARTESIAN_POINT('',(-0.0032,0.00225,0.));
#703=CARTESIAN_POINT('',(-0.0032,-8.67361737988404E-19,0.));
#704=CARTESIAN_POINT('',(8.67361737988404E-19,0.,0.));
#705=CARTESIAN_POINT('',(0.00435,0.00225,0.));
#706=CARTESIAN_POINT('',(0.0055,0.00225,0.));
#707=CARTESIAN_POINT('',(0.0032,0.00225,0.));
#708=CARTESIAN_POINT('',(0.0055,-4.33680868994202E-19,0.));
#709=CARTESIAN_POINT('',(0.0055,-0.00225,0.));
#710=CARTESIAN_POINT('',(0.00435,-0.00225,0.));
#711=CARTESIAN_POINT('',(0.0032,-0.00225,0.));
#712=CARTESIAN_POINT('',(0.0032,-8.67361737988404E-19,0.));
#713=CARTESIAN_POINT('',(0.,0.00505,0.0038));
#714=CARTESIAN_POINT('',(0.,0.00505,0.0001));
#715=CARTESIAN_POINT('',(-0.00385,0.00505,0.0001));
#716=CARTESIAN_POINT('',(0.00385,0.00505,0.0001));
#717=CARTESIAN_POINT('',(-0.00385,0.00505,0.0038));
#718=CARTESIAN_POINT('',(-0.00385,0.00505,0.0038));
#719=CARTESIAN_POINT('',(0.,0.00505,0.0038));
#720=CARTESIAN_POINT('',(0.00385,0.00505,0.0038));
#721=CARTESIAN_POINT('',(0.00385,0.00505,0.0038));
#722=CARTESIAN_POINT('',(8.67361737988404E-19,-0.00505,0.0038));
#723=CARTESIAN_POINT('',(8.67361737988404E-19,-0.00505,0.0001));
#724=CARTESIAN_POINT('',(-0.00385,-0.00505,0.0001));
#725=CARTESIAN_POINT('',(0.00385,-0.00505,0.0001));
#726=CARTESIAN_POINT('',(0.00385,-0.00505,0.0038));
#727=CARTESIAN_POINT('',(0.00385,-0.00505,0.0038));
#728=CARTESIAN_POINT('',(8.67361737988404E-19,-0.00505,0.0038));
#729=CARTESIAN_POINT('',(-0.00385,-0.00505,0.0038));
#730=CARTESIAN_POINT('',(-0.00385,-0.00505,0.0038));
#731=CARTESIAN_POINT('',(8.67361737988404E-19,0.,0.0038));
#732=CARTESIAN_POINT('',(-0.00385,0.00385,0.0038));
#733=CARTESIAN_POINT('',(-0.00385,-0.00385,0.0038));
#734=CARTESIAN_POINT('',(0.00385,-0.00385,0.0038));
#735=CARTESIAN_POINT('',(0.00385,0.00385,0.0038));
#736=CARTESIAN_POINT('',(-0.00435,-0.00225,0.0001));
#737=CARTESIAN_POINT('',(-0.0032,-0.00225,0.0001));
#738=CARTESIAN_POINT('',(-0.0032,-0.00225,0.0001));
#739=CARTESIAN_POINT('',(-0.00435,-0.00225,0.0001));
#740=CARTESIAN_POINT('',(-0.00435,-0.00225,0.002));
#741=CARTESIAN_POINT('',(-0.0055,-0.00225,0.002));
#742=CARTESIAN_POINT('',(-0.0055,-0.00225,0.002));
#743=CARTESIAN_POINT('',(-0.0032,-8.67361737988404E-19,0.0001));
#744=CARTESIAN_POINT('',(-0.0032,0.00225,0.0001));
#745=CARTESIAN_POINT('',(-0.0032,0.00225,0.0001));
#746=CARTESIAN_POINT('',(-0.0032,-8.67361737988404E-19,0.0001));
#747=CARTESIAN_POINT('',(-0.00435,0.00225,0.0001));
#748=CARTESIAN_POINT('',(-0.0055,0.00225,0.002));
#749=CARTESIAN_POINT('',(-0.0055,0.00225,0.002));
#750=CARTESIAN_POINT('',(-0.00435,0.00225,0.002));
#751=CARTESIAN_POINT('',(-0.00435,0.00225,0.0001));
#752=CARTESIAN_POINT('',(0.00435,0.00225,0.0001));
#753=CARTESIAN_POINT('',(0.0032,0.00225,0.0001));
#754=CARTESIAN_POINT('',(0.0032,0.00225,0.0001));
#755=CARTESIAN_POINT('',(0.00435,0.00225,0.0001));
#756=CARTESIAN_POINT('',(0.00435,0.00225,0.002));
#757=CARTESIAN_POINT('',(0.0055,0.00225,0.002));
#758=CARTESIAN_POINT('',(0.0055,0.00225,0.002));
#759=CARTESIAN_POINT('',(0.0032,-8.67361737988404E-19,0.0001));
#760=CARTESIAN_POINT('',(0.0032,-0.00225,0.0001));
#761=CARTESIAN_POINT('',(0.0032,-0.00225,0.0001));
#762=CARTESIAN_POINT('',(0.0032,-8.67361737988404E-19,0.0001));
#763=CARTESIAN_POINT('',(0.00435,-0.00225,0.0001));
#764=CARTESIAN_POINT('',(0.0055,-0.00225,0.002));
#765=CARTESIAN_POINT('',(0.0055,-0.00225,0.002));
#766=CARTESIAN_POINT('',(0.00435,-0.00225,0.002));
#767=CARTESIAN_POINT('',(0.00435,-0.00225,0.0001));
#768=CARTESIAN_POINT('',(1.7347234759768E-18,0.,0.0001));
#769=CARTESIAN_POINT('',(-0.00385,0.00385,0.0001));
#770=CARTESIAN_POINT('',(0.00385,0.00385,0.0001));
#771=CARTESIAN_POINT('',(0.00385,-0.00385,0.0001));
#772=CARTESIAN_POINT('',(-0.00385,-0.00385,0.0001));
#773=CARTESIAN_POINT('',(-0.0055,-8.67361737988404E-19,0.002));
#774=CARTESIAN_POINT('',(-0.0055,-8.67361737988404E-19,0.002));
#775=CARTESIAN_POINT('',(1.7347234759768E-18,0.,0.002));
#776=CARTESIAN_POINT('',(0.0055,-4.33680868994202E-19,0.002));
#777=CARTESIAN_POINT('',(0.0055,-4.33680868994202E-19,0.002));
#778=CARTESIAN_POINT('',(1.7347234759768E-18,0.,0.002));
#779=CARTESIAN_POINT('',(-0.00385,0.00385,0.0038));
#780=CARTESIAN_POINT('',(0.00385,0.00385,0.0038));
#781=CARTESIAN_POINT('',(0.00385,-0.00385,0.0038));
#782=CARTESIAN_POINT('',(-0.00385,-0.00385,0.0038));
#783=MECHANICAL_DESIGN_GEOMETRIC_PRESENTATION_REPRESENTATION('',(#443,#410,
#411,#412,#413,#414,#415,#416,#417,#418,#419),#784);
#784=(
GEOMETRIC_REPRESENTATION_CONTEXT(3)
GLOBAL_UNCERTAINTY_ASSIGNED_CONTEXT((#785))
GLOBAL_UNIT_ASSIGNED_CONTEXT((#788,#787,#786))
REPRESENTATION_CONTEXT('SRP1038WA','TOP_LEVEL_ASSEMBLY_PART')
);
#785=UNCERTAINTY_MEASURE_WITH_UNIT(LENGTH_MEASURE(1.E-8),#788,
'DISTANCE_ACCURACY_VALUE','Maximum Tolerance applied to model');
#786=(
NAMED_UNIT(*)
SI_UNIT($,.STERADIAN.)
SOLID_ANGLE_UNIT()
);
#787=(
NAMED_UNIT(*)
PLANE_ANGLE_UNIT()
SI_UNIT($,.RADIAN.)
);
#788=(
LENGTH_UNIT()
NAMED_UNIT(*)
SI_UNIT($,.METRE.)
);
#789=PRODUCT_DEFINITION_SHAPE('','',#790);
#790=PRODUCT_DEFINITION('','',#792,#791);
#791=PRODUCT_DEFINITION_CONTEXT('',#798,'design');
#792=PRODUCT_DEFINITION_FORMATION_WITH_SPECIFIED_SOURCE('','',#794,
 .NOT_KNOWN.);
#793=PRODUCT_RELATED_PRODUCT_CATEGORY('','',(#794));
#794=PRODUCT('SRP1038WA','SRP1038WA','SRP1038WA',(#796));
#795=PRODUCT_CATEGORY('','');
#796=PRODUCT_CONTEXT('',#798,'mechanical');
#797=APPLICATION_PROTOCOL_DEFINITION('international standard',
'ap242_managed_model_based_3d_engineering',2011,#798);
#798=APPLICATION_CONTEXT('managed model based 3d engineering');
ENDSEC;
END-ISO-10303-21;
