ISO-10303-21;
HEADER;
/* Generated by software containing ST-Developer
 * from STEP Tools, Inc. (www.steptools.com) 
 */
/* OPTION: using custom renumber hook */

FILE_DESCRIPTION(
/* description */ ('STEP AP242',
'CAx-IF Rec.Pracs.---Representation and Presentation of Product Manufa
cturing Information (PMI)---4.0---2014-10-13',
'CAx-IF Rec.Pracs.---3D Tessellated Geometry---0.4---2014-09-14','2;1'),

/* implementation_level */ '2;1');

FILE_NAME(
/* name */ '67e2017c8fa9fb5e503fc204',
/* time_stamp */ '2025-03-25T01:06:05Z',
/* author */ (''),
/* organization */ (''),
/* preprocessor_version */ 'ST-DEVELOPER v20',
/* originating_system */ 'ONSHAPE BY PTC INC, 1.195',
/* authorisation */ '  ');

FILE_SCHEMA (('AP242_MANAGED_MODEL_BASED_3D_ENGINEERING_MIM_LF { 1 0 10303 442 1 1 4 }'));
ENDSEC;

DATA;
#10=SHAPE_REPRESENTATION_RELATIONSHIP('','',#1376,#11);
#11=ADVANCED_BREP_SHAPE_REPRESENTATION('',(#1374),#2148);
#12=SPHERICAL_SURFACE('',#1445,0.0015);
#13=SPHERICAL_SURFACE('',#1447,0.0015);
#14=SPHERICAL_SURFACE('',#1457,0.0015);
#15=SPHERICAL_SURFACE('',#1459,0.0015);
#16=CYLINDRICAL_SURFACE('',#1431,0.00085);
#17=CYLINDRICAL_SURFACE('',#1434,0.00085);
#18=CYLINDRICAL_SURFACE('',#1435,0.00085);
#19=CYLINDRICAL_SURFACE('',#1436,0.00085);
#20=CYLINDRICAL_SURFACE('',#1437,0.00085);
#21=CYLINDRICAL_SURFACE('',#1438,0.0015);
#22=CYLINDRICAL_SURFACE('',#1440,0.0015);
#23=CYLINDRICAL_SURFACE('',#1443,0.0015);
#24=CYLINDRICAL_SURFACE('',#1449,0.0015);
#25=CYLINDRICAL_SURFACE('',#1451,0.0015);
#26=CYLINDRICAL_SURFACE('',#1453,0.0015);
#27=CYLINDRICAL_SURFACE('',#1455,0.0015);
#28=CYLINDRICAL_SURFACE('',#1461,0.0015);
#29=OVER_RIDING_STYLED_ITEM('',(#1259),#1203,#1257);
#30=OVER_RIDING_STYLED_ITEM('',(#1260),#1204,#1257);
#31=OVER_RIDING_STYLED_ITEM('',(#1261),#1205,#1257);
#32=OVER_RIDING_STYLED_ITEM('',(#1262),#1206,#1257);
#33=OVER_RIDING_STYLED_ITEM('',(#1263),#1207,#1257);
#34=OVER_RIDING_STYLED_ITEM('',(#1264),#1208,#1257);
#35=OVER_RIDING_STYLED_ITEM('',(#1265),#1234,#1257);
#36=OVER_RIDING_STYLED_ITEM('',(#1266),#1235,#1257);
#37=OVER_RIDING_STYLED_ITEM('',(#1267),#1236,#1257);
#38=OVER_RIDING_STYLED_ITEM('',(#1268),#1237,#1257);
#39=OVER_RIDING_STYLED_ITEM('',(#1269),#1238,#1257);
#40=OVER_RIDING_STYLED_ITEM('',(#1270),#1239,#1257);
#41=OVER_RIDING_STYLED_ITEM('',(#1271),#1240,#1257);
#42=OVER_RIDING_STYLED_ITEM('',(#1272),#1241,#1257);
#43=OVER_RIDING_STYLED_ITEM('',(#1273),#1242,#1257);
#44=OVER_RIDING_STYLED_ITEM('',(#1274),#1243,#1257);
#45=OVER_RIDING_STYLED_ITEM('',(#1275),#1244,#1257);
#46=OVER_RIDING_STYLED_ITEM('',(#1276),#1245,#1257);
#47=CIRCLE('',#1380,0.00085);
#48=CIRCLE('',#1382,0.00085);
#49=CIRCLE('',#1384,0.00085);
#50=CIRCLE('',#1388,0.00085);
#51=CIRCLE('',#1390,0.00085);
#52=CIRCLE('',#1392,0.00085);
#53=CIRCLE('',#1395,0.00085);
#54=CIRCLE('',#1398,0.00085);
#55=CIRCLE('',#1400,0.00085);
#56=CIRCLE('',#1402,0.00085);
#57=CIRCLE('',#1409,0.0015);
#58=CIRCLE('',#1410,0.0015);
#59=CIRCLE('',#1411,0.0015);
#60=CIRCLE('',#1412,0.0015);
#61=CIRCLE('',#1439,0.0015);
#62=CIRCLE('',#1441,0.0015);
#63=CIRCLE('',#1442,0.0015);
#64=CIRCLE('',#1444,0.0015);
#65=CIRCLE('',#1446,0.0015);
#66=CIRCLE('',#1448,0.0015);
#67=CIRCLE('',#1450,0.0015);
#68=CIRCLE('',#1452,0.0015);
#69=CIRCLE('',#1454,0.0015);
#70=CIRCLE('',#1456,0.0015);
#71=CIRCLE('',#1458,0.0015);
#72=CIRCLE('',#1460,0.0015);
#73=ORIENTED_EDGE('',*,*,#405,.F.);
#74=ORIENTED_EDGE('',*,*,#406,.T.);
#75=ORIENTED_EDGE('',*,*,#407,.T.);
#76=ORIENTED_EDGE('',*,*,#408,.T.);
#77=ORIENTED_EDGE('',*,*,#409,.F.);
#78=ORIENTED_EDGE('',*,*,#410,.F.);
#79=ORIENTED_EDGE('',*,*,#411,.T.);
#80=ORIENTED_EDGE('',*,*,#412,.T.);
#81=ORIENTED_EDGE('',*,*,#413,.T.);
#82=ORIENTED_EDGE('',*,*,#414,.F.);
#83=ORIENTED_EDGE('',*,*,#415,.F.);
#84=ORIENTED_EDGE('',*,*,#416,.T.);
#85=ORIENTED_EDGE('',*,*,#417,.T.);
#86=ORIENTED_EDGE('',*,*,#418,.F.);
#87=ORIENTED_EDGE('',*,*,#419,.F.);
#88=ORIENTED_EDGE('',*,*,#420,.F.);
#89=ORIENTED_EDGE('',*,*,#421,.T.);
#90=ORIENTED_EDGE('',*,*,#422,.T.);
#91=ORIENTED_EDGE('',*,*,#423,.F.);
#92=ORIENTED_EDGE('',*,*,#424,.T.);
#93=ORIENTED_EDGE('',*,*,#425,.T.);
#94=ORIENTED_EDGE('',*,*,#426,.F.);
#95=ORIENTED_EDGE('',*,*,#427,.T.);
#96=ORIENTED_EDGE('',*,*,#428,.T.);
#97=ORIENTED_EDGE('',*,*,#429,.T.);
#98=ORIENTED_EDGE('',*,*,#430,.F.);
#99=ORIENTED_EDGE('',*,*,#431,.T.);
#100=ORIENTED_EDGE('',*,*,#432,.F.);
#101=ORIENTED_EDGE('',*,*,#433,.F.);
#102=ORIENTED_EDGE('',*,*,#434,.T.);
#103=ORIENTED_EDGE('',*,*,#435,.T.);
#104=ORIENTED_EDGE('',*,*,#436,.T.);
#105=ORIENTED_EDGE('',*,*,#437,.T.);
#106=ORIENTED_EDGE('',*,*,#438,.F.);
#107=ORIENTED_EDGE('',*,*,#439,.T.);
#108=ORIENTED_EDGE('',*,*,#440,.T.);
#109=ORIENTED_EDGE('',*,*,#441,.F.);
#110=ORIENTED_EDGE('',*,*,#442,.F.);
#111=ORIENTED_EDGE('',*,*,#443,.F.);
#112=ORIENTED_EDGE('',*,*,#444,.T.);
#113=ORIENTED_EDGE('',*,*,#445,.T.);
#114=ORIENTED_EDGE('',*,*,#446,.T.);
#115=ORIENTED_EDGE('',*,*,#447,.F.);
#116=ORIENTED_EDGE('',*,*,#448,.T.);
#117=ORIENTED_EDGE('',*,*,#449,.T.);
#118=ORIENTED_EDGE('',*,*,#450,.T.);
#119=ORIENTED_EDGE('',*,*,#451,.F.);
#120=ORIENTED_EDGE('',*,*,#452,.F.);
#121=ORIENTED_EDGE('',*,*,#453,.T.);
#122=ORIENTED_EDGE('',*,*,#454,.T.);
#123=ORIENTED_EDGE('',*,*,#455,.T.);
#124=ORIENTED_EDGE('',*,*,#456,.F.);
#125=ORIENTED_EDGE('',*,*,#457,.T.);
#126=ORIENTED_EDGE('',*,*,#458,.T.);
#127=ORIENTED_EDGE('',*,*,#459,.T.);
#128=ORIENTED_EDGE('',*,*,#460,.F.);
#129=ORIENTED_EDGE('',*,*,#461,.F.);
#130=ORIENTED_EDGE('',*,*,#462,.T.);
#131=ORIENTED_EDGE('',*,*,#463,.T.);
#132=ORIENTED_EDGE('',*,*,#464,.F.);
#133=ORIENTED_EDGE('',*,*,#465,.F.);
#134=ORIENTED_EDGE('',*,*,#466,.F.);
#135=ORIENTED_EDGE('',*,*,#467,.T.);
#136=ORIENTED_EDGE('',*,*,#468,.T.);
#137=ORIENTED_EDGE('',*,*,#469,.T.);
#138=ORIENTED_EDGE('',*,*,#470,.F.);
#139=ORIENTED_EDGE('',*,*,#471,.F.);
#140=ORIENTED_EDGE('',*,*,#472,.T.);
#141=ORIENTED_EDGE('',*,*,#473,.T.);
#142=ORIENTED_EDGE('',*,*,#474,.F.);
#143=ORIENTED_EDGE('',*,*,#475,.F.);
#144=ORIENTED_EDGE('',*,*,#476,.T.);
#145=ORIENTED_EDGE('',*,*,#477,.T.);
#146=ORIENTED_EDGE('',*,*,#478,.T.);
#147=ORIENTED_EDGE('',*,*,#479,.T.);
#148=ORIENTED_EDGE('',*,*,#480,.T.);
#149=ORIENTED_EDGE('',*,*,#481,.T.);
#150=ORIENTED_EDGE('',*,*,#482,.T.);
#151=ORIENTED_EDGE('',*,*,#483,.T.);
#152=ORIENTED_EDGE('',*,*,#484,.T.);
#153=ORIENTED_EDGE('',*,*,#485,.T.);
#154=ORIENTED_EDGE('',*,*,#486,.T.);
#155=ORIENTED_EDGE('',*,*,#487,.F.);
#156=ORIENTED_EDGE('',*,*,#488,.T.);
#157=ORIENTED_EDGE('',*,*,#489,.T.);
#158=ORIENTED_EDGE('',*,*,#490,.T.);
#159=ORIENTED_EDGE('',*,*,#491,.T.);
#160=ORIENTED_EDGE('',*,*,#492,.T.);
#161=ORIENTED_EDGE('',*,*,#493,.T.);
#162=ORIENTED_EDGE('',*,*,#494,.T.);
#163=ORIENTED_EDGE('',*,*,#495,.F.);
#164=ORIENTED_EDGE('',*,*,#441,.T.);
#165=ORIENTED_EDGE('',*,*,#496,.T.);
#166=ORIENTED_EDGE('',*,*,#446,.F.);
#167=ORIENTED_EDGE('',*,*,#413,.F.);
#168=ORIENTED_EDGE('',*,*,#497,.T.);
#169=ORIENTED_EDGE('',*,*,#418,.T.);
#170=ORIENTED_EDGE('',*,*,#498,.F.);
#171=ORIENTED_EDGE('',*,*,#455,.F.);
#172=ORIENTED_EDGE('',*,*,#499,.T.);
#173=ORIENTED_EDGE('',*,*,#474,.T.);
#174=ORIENTED_EDGE('',*,*,#500,.F.);
#175=ORIENTED_EDGE('',*,*,#501,.F.);
#176=ORIENTED_EDGE('',*,*,#423,.T.);
#177=ORIENTED_EDGE('',*,*,#502,.T.);
#178=ORIENTED_EDGE('',*,*,#436,.F.);
#179=ORIENTED_EDGE('',*,*,#503,.F.);
#180=ORIENTED_EDGE('',*,*,#464,.T.);
#181=ORIENTED_EDGE('',*,*,#504,.T.);
#182=ORIENTED_EDGE('',*,*,#469,.F.);
#183=ORIENTED_EDGE('',*,*,#481,.F.);
#184=ORIENTED_EDGE('',*,*,#505,.T.);
#185=ORIENTED_EDGE('',*,*,#475,.T.);
#186=ORIENTED_EDGE('',*,*,#506,.T.);
#187=ORIENTED_EDGE('',*,*,#487,.T.);
#188=ORIENTED_EDGE('',*,*,#507,.T.);
#189=ORIENTED_EDGE('',*,*,#485,.F.);
#190=ORIENTED_EDGE('',*,*,#508,.T.);
#191=ORIENTED_EDGE('',*,*,#468,.F.);
#192=ORIENTED_EDGE('',*,*,#509,.T.);
#193=ORIENTED_EDGE('',*,*,#510,.T.);
#194=ORIENTED_EDGE('',*,*,#511,.T.);
#195=ORIENTED_EDGE('',*,*,#461,.T.);
#196=ORIENTED_EDGE('',*,*,#503,.T.);
#197=ORIENTED_EDGE('',*,*,#512,.F.);
#198=ORIENTED_EDGE('',*,*,#513,.T.);
#199=ORIENTED_EDGE('',*,*,#466,.T.);
#200=ORIENTED_EDGE('',*,*,#504,.F.);
#201=ORIENTED_EDGE('',*,*,#463,.F.);
#202=ORIENTED_EDGE('',*,*,#514,.T.);
#203=ORIENTED_EDGE('',*,*,#515,.T.);
#204=ORIENTED_EDGE('',*,*,#516,.T.);
#205=ORIENTED_EDGE('',*,*,#420,.T.);
#206=ORIENTED_EDGE('',*,*,#501,.T.);
#207=ORIENTED_EDGE('',*,*,#435,.F.);
#208=ORIENTED_EDGE('',*,*,#517,.T.);
#209=ORIENTED_EDGE('',*,*,#422,.F.);
#210=ORIENTED_EDGE('',*,*,#518,.T.);
#211=ORIENTED_EDGE('',*,*,#519,.F.);
#212=ORIENTED_EDGE('',*,*,#520,.T.);
#213=ORIENTED_EDGE('',*,*,#433,.T.);
#214=ORIENTED_EDGE('',*,*,#502,.F.);
#215=ORIENTED_EDGE('',*,*,#521,.F.);
#216=ORIENTED_EDGE('',*,*,#522,.T.);
#217=ORIENTED_EDGE('',*,*,#471,.T.);
#218=ORIENTED_EDGE('',*,*,#499,.F.);
#219=ORIENTED_EDGE('',*,*,#454,.F.);
#220=ORIENTED_EDGE('',*,*,#523,.T.);
#221=ORIENTED_EDGE('',*,*,#473,.F.);
#222=ORIENTED_EDGE('',*,*,#524,.T.);
#223=ORIENTED_EDGE('',*,*,#525,.T.);
#224=ORIENTED_EDGE('',*,*,#526,.T.);
#225=ORIENTED_EDGE('',*,*,#452,.T.);
#226=ORIENTED_EDGE('',*,*,#500,.T.);
#227=ORIENTED_EDGE('',*,*,#527,.F.);
#228=ORIENTED_EDGE('',*,*,#528,.T.);
#229=ORIENTED_EDGE('',*,*,#415,.T.);
#230=ORIENTED_EDGE('',*,*,#497,.F.);
#231=ORIENTED_EDGE('',*,*,#412,.F.);
#232=ORIENTED_EDGE('',*,*,#529,.T.);
#233=ORIENTED_EDGE('',*,*,#417,.F.);
#234=ORIENTED_EDGE('',*,*,#530,.T.);
#235=ORIENTED_EDGE('',*,*,#531,.T.);
#236=ORIENTED_EDGE('',*,*,#532,.T.);
#237=ORIENTED_EDGE('',*,*,#410,.T.);
#238=ORIENTED_EDGE('',*,*,#498,.T.);
#239=ORIENTED_EDGE('',*,*,#533,.T.);
#240=ORIENTED_EDGE('',*,*,#534,.T.);
#241=ORIENTED_EDGE('',*,*,#438,.T.);
#242=ORIENTED_EDGE('',*,*,#495,.T.);
#243=ORIENTED_EDGE('',*,*,#445,.F.);
#244=ORIENTED_EDGE('',*,*,#535,.T.);
#245=ORIENTED_EDGE('',*,*,#440,.F.);
#246=ORIENTED_EDGE('',*,*,#536,.T.);
#247=ORIENTED_EDGE('',*,*,#537,.F.);
#248=ORIENTED_EDGE('',*,*,#538,.T.);
#249=ORIENTED_EDGE('',*,*,#443,.T.);
#250=ORIENTED_EDGE('',*,*,#496,.F.);
#251=ORIENTED_EDGE('',*,*,#458,.F.);
#252=ORIENTED_EDGE('',*,*,#539,.T.);
#253=ORIENTED_EDGE('',*,*,#521,.T.);
#254=ORIENTED_EDGE('',*,*,#540,.T.);
#255=ORIENTED_EDGE('',*,*,#525,.F.);
#256=ORIENTED_EDGE('',*,*,#541,.T.);
#257=ORIENTED_EDGE('',*,*,#456,.T.);
#258=ORIENTED_EDGE('',*,*,#542,.T.);
#259=ORIENTED_EDGE('',*,*,#449,.F.);
#260=ORIENTED_EDGE('',*,*,#543,.T.);
#261=ORIENTED_EDGE('',*,*,#512,.T.);
#262=ORIENTED_EDGE('',*,*,#544,.T.);
#263=ORIENTED_EDGE('',*,*,#510,.F.);
#264=ORIENTED_EDGE('',*,*,#545,.T.);
#265=ORIENTED_EDGE('',*,*,#447,.T.);
#266=ORIENTED_EDGE('',*,*,#546,.T.);
#267=ORIENTED_EDGE('',*,*,#537,.T.);
#268=ORIENTED_EDGE('',*,*,#547,.T.);
#269=ORIENTED_EDGE('',*,*,#428,.F.);
#270=ORIENTED_EDGE('',*,*,#548,.T.);
#271=ORIENTED_EDGE('',*,*,#430,.T.);
#272=ORIENTED_EDGE('',*,*,#549,.T.);
#273=ORIENTED_EDGE('',*,*,#533,.F.);
#274=ORIENTED_EDGE('',*,*,#550,.T.);
#275=ORIENTED_EDGE('',*,*,#519,.T.);
#276=ORIENTED_EDGE('',*,*,#551,.T.);
#277=ORIENTED_EDGE('',*,*,#424,.F.);
#278=ORIENTED_EDGE('',*,*,#552,.T.);
#279=ORIENTED_EDGE('',*,*,#426,.T.);
#280=ORIENTED_EDGE('',*,*,#553,.T.);
#281=ORIENTED_EDGE('',*,*,#515,.F.);
#282=ORIENTED_EDGE('',*,*,#554,.T.);
#283=ORIENTED_EDGE('',*,*,#414,.T.);
#284=ORIENTED_EDGE('',*,*,#409,.T.);
#285=ORIENTED_EDGE('',*,*,#407,.F.);
#286=ORIENTED_EDGE('',*,*,#555,.T.);
#287=ORIENTED_EDGE('',*,*,#527,.T.);
#288=ORIENTED_EDGE('',*,*,#556,.T.);
#289=ORIENTED_EDGE('',*,*,#531,.F.);
#290=ORIENTED_EDGE('',*,*,#557,.T.);
#291=ORIENTED_EDGE('',*,*,#405,.T.);
#292=ORIENTED_EDGE('',*,*,#558,.T.);
#293=ORIENTED_EDGE('',*,*,#470,.T.);
#294=ORIENTED_EDGE('',*,*,#451,.T.);
#295=ORIENTED_EDGE('',*,*,#460,.T.);
#296=ORIENTED_EDGE('',*,*,#465,.T.);
#297=ORIENTED_EDGE('',*,*,#432,.T.);
#298=ORIENTED_EDGE('',*,*,#419,.T.);
#299=ORIENTED_EDGE('',*,*,#442,.T.);
#300=ORIENTED_EDGE('',*,*,#437,.F.);
#301=ORIENTED_EDGE('',*,*,#505,.F.);
#302=ORIENTED_EDGE('',*,*,#480,.F.);
#303=ORIENTED_EDGE('',*,*,#559,.F.);
#304=ORIENTED_EDGE('',*,*,#476,.F.);
#305=ORIENTED_EDGE('',*,*,#560,.F.);
#306=ORIENTED_EDGE('',*,*,#477,.F.);
#307=ORIENTED_EDGE('',*,*,#561,.F.);
#308=ORIENTED_EDGE('',*,*,#493,.F.);
#309=ORIENTED_EDGE('',*,*,#506,.F.);
#310=ORIENTED_EDGE('',*,*,#478,.F.);
#311=ORIENTED_EDGE('',*,*,#562,.F.);
#312=ORIENTED_EDGE('',*,*,#488,.F.);
#313=ORIENTED_EDGE('',*,*,#561,.T.);
#314=ORIENTED_EDGE('',*,*,#559,.T.);
#315=ORIENTED_EDGE('',*,*,#563,.F.);
#316=ORIENTED_EDGE('',*,*,#562,.T.);
#317=ORIENTED_EDGE('',*,*,#560,.T.);
#318=ORIENTED_EDGE('',*,*,#564,.F.);
#319=ORIENTED_EDGE('',*,*,#508,.F.);
#320=ORIENTED_EDGE('',*,*,#484,.F.);
#321=ORIENTED_EDGE('',*,*,#565,.F.);
#322=ORIENTED_EDGE('',*,*,#482,.F.);
#323=ORIENTED_EDGE('',*,*,#563,.T.);
#324=ORIENTED_EDGE('',*,*,#479,.F.);
#325=ORIENTED_EDGE('',*,*,#566,.F.);
#326=ORIENTED_EDGE('',*,*,#494,.F.);
#327=ORIENTED_EDGE('',*,*,#564,.T.);
#328=ORIENTED_EDGE('',*,*,#492,.F.);
#329=ORIENTED_EDGE('',*,*,#567,.F.);
#330=ORIENTED_EDGE('',*,*,#489,.F.);
#331=ORIENTED_EDGE('',*,*,#507,.F.);
#332=ORIENTED_EDGE('',*,*,#490,.F.);
#333=ORIENTED_EDGE('',*,*,#568,.F.);
#334=ORIENTED_EDGE('',*,*,#486,.F.);
#335=ORIENTED_EDGE('',*,*,#566,.T.);
#336=ORIENTED_EDGE('',*,*,#565,.T.);
#337=ORIENTED_EDGE('',*,*,#569,.F.);
#338=ORIENTED_EDGE('',*,*,#568,.T.);
#339=ORIENTED_EDGE('',*,*,#567,.T.);
#340=ORIENTED_EDGE('',*,*,#570,.F.);
#341=ORIENTED_EDGE('',*,*,#569,.T.);
#342=ORIENTED_EDGE('',*,*,#483,.F.);
#343=ORIENTED_EDGE('',*,*,#570,.T.);
#344=ORIENTED_EDGE('',*,*,#491,.F.);
#345=ORIENTED_EDGE('',*,*,#517,.F.);
#346=ORIENTED_EDGE('',*,*,#434,.F.);
#347=ORIENTED_EDGE('',*,*,#520,.F.);
#348=ORIENTED_EDGE('',*,*,#552,.F.);
#349=ORIENTED_EDGE('',*,*,#427,.F.);
#350=ORIENTED_EDGE('',*,*,#554,.F.);
#351=ORIENTED_EDGE('',*,*,#535,.F.);
#352=ORIENTED_EDGE('',*,*,#444,.F.);
#353=ORIENTED_EDGE('',*,*,#538,.F.);
#354=ORIENTED_EDGE('',*,*,#548,.F.);
#355=ORIENTED_EDGE('',*,*,#431,.F.);
#356=ORIENTED_EDGE('',*,*,#550,.F.);
#357=ORIENTED_EDGE('',*,*,#539,.F.);
#358=ORIENTED_EDGE('',*,*,#457,.F.);
#359=ORIENTED_EDGE('',*,*,#541,.F.);
#360=ORIENTED_EDGE('',*,*,#524,.F.);
#361=ORIENTED_EDGE('',*,*,#472,.F.);
#362=ORIENTED_EDGE('',*,*,#522,.F.);
#363=ORIENTED_EDGE('',*,*,#523,.F.);
#364=ORIENTED_EDGE('',*,*,#453,.F.);
#365=ORIENTED_EDGE('',*,*,#526,.F.);
#366=ORIENTED_EDGE('',*,*,#542,.F.);
#367=ORIENTED_EDGE('',*,*,#459,.F.);
#368=ORIENTED_EDGE('',*,*,#540,.F.);
#369=ORIENTED_EDGE('',*,*,#509,.F.);
#370=ORIENTED_EDGE('',*,*,#467,.F.);
#371=ORIENTED_EDGE('',*,*,#513,.F.);
#372=ORIENTED_EDGE('',*,*,#543,.F.);
#373=ORIENTED_EDGE('',*,*,#448,.F.);
#374=ORIENTED_EDGE('',*,*,#545,.F.);
#375=ORIENTED_EDGE('',*,*,#546,.F.);
#376=ORIENTED_EDGE('',*,*,#450,.F.);
#377=ORIENTED_EDGE('',*,*,#544,.F.);
#378=ORIENTED_EDGE('',*,*,#514,.F.);
#379=ORIENTED_EDGE('',*,*,#462,.F.);
#380=ORIENTED_EDGE('',*,*,#511,.F.);
#381=ORIENTED_EDGE('',*,*,#555,.F.);
#382=ORIENTED_EDGE('',*,*,#406,.F.);
#383=ORIENTED_EDGE('',*,*,#557,.F.);
#384=ORIENTED_EDGE('',*,*,#530,.F.);
#385=ORIENTED_EDGE('',*,*,#416,.F.);
#386=ORIENTED_EDGE('',*,*,#528,.F.);
#387=ORIENTED_EDGE('',*,*,#529,.F.);
#388=ORIENTED_EDGE('',*,*,#411,.F.);
#389=ORIENTED_EDGE('',*,*,#532,.F.);
#390=ORIENTED_EDGE('',*,*,#558,.F.);
#391=ORIENTED_EDGE('',*,*,#408,.F.);
#392=ORIENTED_EDGE('',*,*,#556,.F.);
#393=ORIENTED_EDGE('',*,*,#553,.F.);
#394=ORIENTED_EDGE('',*,*,#425,.F.);
#395=ORIENTED_EDGE('',*,*,#551,.F.);
#396=ORIENTED_EDGE('',*,*,#518,.F.);
#397=ORIENTED_EDGE('',*,*,#421,.F.);
#398=ORIENTED_EDGE('',*,*,#516,.F.);
#399=ORIENTED_EDGE('',*,*,#549,.F.);
#400=ORIENTED_EDGE('',*,*,#429,.F.);
#401=ORIENTED_EDGE('',*,*,#547,.F.);
#402=ORIENTED_EDGE('',*,*,#536,.F.);
#403=ORIENTED_EDGE('',*,*,#439,.F.);
#404=ORIENTED_EDGE('',*,*,#534,.F.);
#405=EDGE_CURVE('',#571,#572,#681,.T.);
#406=EDGE_CURVE('',#571,#573,#682,.T.);
#407=EDGE_CURVE('',#573,#574,#683,.T.);
#408=EDGE_CURVE('',#574,#572,#684,.T.);
#409=EDGE_CURVE('',#575,#575,#47,.T.);
#410=EDGE_CURVE('',#576,#577,#685,.T.);
#411=EDGE_CURVE('',#576,#578,#686,.T.);
#412=EDGE_CURVE('',#578,#579,#687,.T.);
#413=EDGE_CURVE('',#579,#577,#688,.T.);
#414=EDGE_CURVE('',#580,#580,#48,.T.);
#415=EDGE_CURVE('',#581,#582,#689,.T.);
#416=EDGE_CURVE('',#581,#583,#690,.T.);
#417=EDGE_CURVE('',#583,#584,#691,.T.);
#418=EDGE_CURVE('',#582,#584,#692,.T.);
#419=EDGE_CURVE('',#585,#585,#49,.T.);
#420=EDGE_CURVE('',#586,#587,#693,.T.);
#421=EDGE_CURVE('',#586,#588,#694,.T.);
#422=EDGE_CURVE('',#588,#589,#695,.T.);
#423=EDGE_CURVE('',#587,#589,#696,.T.);
#424=EDGE_CURVE('',#590,#591,#697,.T.);
#425=EDGE_CURVE('',#591,#592,#698,.T.);
#426=EDGE_CURVE('',#593,#592,#699,.T.);
#427=EDGE_CURVE('',#593,#590,#700,.T.);
#428=EDGE_CURVE('',#594,#595,#701,.T.);
#429=EDGE_CURVE('',#595,#596,#702,.T.);
#430=EDGE_CURVE('',#597,#596,#703,.T.);
#431=EDGE_CURVE('',#597,#594,#704,.T.);
#432=EDGE_CURVE('',#598,#598,#50,.F.);
#433=EDGE_CURVE('',#599,#600,#705,.T.);
#434=EDGE_CURVE('',#599,#601,#706,.T.);
#435=EDGE_CURVE('',#601,#602,#707,.T.);
#436=EDGE_CURVE('',#602,#600,#708,.T.);
#437=EDGE_CURVE('',#603,#603,#51,.F.);
#438=EDGE_CURVE('',#604,#605,#709,.T.);
#439=EDGE_CURVE('',#604,#606,#710,.T.);
#440=EDGE_CURVE('',#606,#607,#711,.T.);
#441=EDGE_CURVE('',#605,#607,#712,.T.);
#442=EDGE_CURVE('',#608,#608,#52,.T.);
#443=EDGE_CURVE('',#609,#610,#713,.T.);
#444=EDGE_CURVE('',#609,#611,#714,.T.);
#445=EDGE_CURVE('',#611,#612,#715,.T.);
#446=EDGE_CURVE('',#612,#610,#716,.T.);
#447=EDGE_CURVE('',#613,#614,#717,.T.);
#448=EDGE_CURVE('',#613,#615,#718,.T.);
#449=EDGE_CURVE('',#615,#616,#719,.T.);
#450=EDGE_CURVE('',#616,#614,#720,.T.);
#451=EDGE_CURVE('',#617,#617,#53,.T.);
#452=EDGE_CURVE('',#618,#619,#721,.T.);
#453=EDGE_CURVE('',#618,#620,#722,.T.);
#454=EDGE_CURVE('',#620,#621,#723,.T.);
#455=EDGE_CURVE('',#621,#619,#724,.T.);
#456=EDGE_CURVE('',#622,#623,#725,.T.);
#457=EDGE_CURVE('',#622,#624,#726,.T.);
#458=EDGE_CURVE('',#624,#625,#727,.T.);
#459=EDGE_CURVE('',#625,#623,#728,.T.);
#460=EDGE_CURVE('',#626,#626,#54,.T.);
#461=EDGE_CURVE('',#627,#628,#729,.T.);
#462=EDGE_CURVE('',#627,#629,#730,.T.);
#463=EDGE_CURVE('',#629,#630,#731,.T.);
#464=EDGE_CURVE('',#628,#630,#732,.T.);
#465=EDGE_CURVE('',#631,#631,#55,.F.);
#466=EDGE_CURVE('',#632,#633,#733,.T.);
#467=EDGE_CURVE('',#632,#634,#734,.T.);
#468=EDGE_CURVE('',#634,#635,#735,.T.);
#469=EDGE_CURVE('',#635,#633,#736,.T.);
#470=EDGE_CURVE('',#636,#636,#56,.T.);
#471=EDGE_CURVE('',#637,#638,#737,.T.);
#472=EDGE_CURVE('',#637,#639,#738,.T.);
#473=EDGE_CURVE('',#639,#640,#739,.T.);
#474=EDGE_CURVE('',#638,#640,#740,.T.);
#475=EDGE_CURVE('',#641,#642,#741,.T.);
#476=EDGE_CURVE('',#641,#643,#742,.F.);
#477=EDGE_CURVE('',#643,#644,#743,.T.);
#478=EDGE_CURVE('',#644,#642,#744,.T.);
#479=EDGE_CURVE('',#645,#646,#745,.F.);
#480=EDGE_CURVE('',#646,#647,#746,.T.);
#481=EDGE_CURVE('',#647,#648,#747,.T.);
#482=EDGE_CURVE('',#648,#645,#748,.F.);
#483=EDGE_CURVE('',#649,#650,#749,.F.);
#484=EDGE_CURVE('',#650,#651,#750,.T.);
#485=EDGE_CURVE('',#651,#652,#751,.T.);
#486=EDGE_CURVE('',#652,#649,#752,.F.);
#487=EDGE_CURVE('',#653,#654,#753,.T.);
#488=EDGE_CURVE('',#653,#655,#754,.F.);
#489=EDGE_CURVE('',#655,#656,#755,.T.);
#490=EDGE_CURVE('',#656,#654,#756,.T.);
#491=EDGE_CURVE('',#657,#658,#757,.T.);
#492=EDGE_CURVE('',#658,#659,#758,.F.);
#493=EDGE_CURVE('',#659,#660,#759,.F.);
#494=EDGE_CURVE('',#660,#657,#760,.T.);
#495=EDGE_CURVE('',#605,#612,#761,.T.);
#496=EDGE_CURVE('',#607,#610,#762,.T.);
#497=EDGE_CURVE('',#579,#582,#763,.T.);
#498=EDGE_CURVE('',#577,#584,#764,.T.);
#499=EDGE_CURVE('',#621,#638,#765,.T.);
#500=EDGE_CURVE('',#619,#640,#766,.T.);
#501=EDGE_CURVE('',#587,#602,#767,.T.);
#502=EDGE_CURVE('',#589,#600,#768,.T.);
#503=EDGE_CURVE('',#628,#635,#769,.T.);
#504=EDGE_CURVE('',#630,#633,#770,.T.);
#505=EDGE_CURVE('',#647,#641,#57,.F.);
#506=EDGE_CURVE('',#642,#653,#58,.F.);
#507=EDGE_CURVE('',#654,#652,#59,.F.);
#508=EDGE_CURVE('',#651,#648,#60,.F.);
#509=EDGE_CURVE('',#634,#661,#771,.T.);
#510=EDGE_CURVE('',#661,#662,#772,.T.);
#511=EDGE_CURVE('',#662,#627,#773,.F.);
#512=EDGE_CURVE('',#663,#664,#774,.T.);
#513=EDGE_CURVE('',#663,#632,#775,.T.);
#514=EDGE_CURVE('',#629,#664,#776,.F.);
#515=EDGE_CURVE('',#665,#666,#777,.T.);
#516=EDGE_CURVE('',#666,#586,#778,.F.);
#517=EDGE_CURVE('',#601,#665,#779,.T.);
#518=EDGE_CURVE('',#588,#667,#780,.F.);
#519=EDGE_CURVE('',#668,#667,#781,.T.);
#520=EDGE_CURVE('',#668,#599,#782,.T.);
#521=EDGE_CURVE('',#669,#670,#783,.T.);
#522=EDGE_CURVE('',#669,#637,#784,.F.);
#523=EDGE_CURVE('',#620,#670,#785,.T.);
#524=EDGE_CURVE('',#639,#671,#786,.F.);
#525=EDGE_CURVE('',#671,#672,#787,.T.);
#526=EDGE_CURVE('',#672,#618,#788,.T.);
#527=EDGE_CURVE('',#673,#674,#789,.T.);
#528=EDGE_CURVE('',#673,#581,#790,.F.);
#529=EDGE_CURVE('',#578,#674,#791,.T.);
#530=EDGE_CURVE('',#583,#675,#792,.F.);
#531=EDGE_CURVE('',#675,#676,#793,.T.);
#532=EDGE_CURVE('',#676,#576,#794,.T.);
#533=EDGE_CURVE('',#677,#678,#795,.T.);
#534=EDGE_CURVE('',#678,#604,#796,.F.);
#535=EDGE_CURVE('',#611,#677,#797,.T.);
#536=EDGE_CURVE('',#606,#679,#798,.F.);
#537=EDGE_CURVE('',#680,#679,#799,.T.);
#538=EDGE_CURVE('',#680,#609,#800,.T.);
#539=EDGE_CURVE('',#624,#669,#801,.F.);
#540=EDGE_CURVE('',#670,#625,#802,.T.);
#541=EDGE_CURVE('',#671,#622,#803,.F.);
#542=EDGE_CURVE('',#623,#672,#804,.T.);
#543=EDGE_CURVE('',#615,#663,#805,.T.);
#544=EDGE_CURVE('',#664,#616,#806,.F.);
#545=EDGE_CURVE('',#661,#613,#807,.T.);
#546=EDGE_CURVE('',#614,#662,#808,.F.);
#547=EDGE_CURVE('',#679,#595,#809,.F.);
#548=EDGE_CURVE('',#594,#680,#810,.T.);
#549=EDGE_CURVE('',#596,#678,#811,.F.);
#550=EDGE_CURVE('',#677,#597,#812,.T.);
#551=EDGE_CURVE('',#667,#591,#813,.F.);
#552=EDGE_CURVE('',#590,#668,#814,.T.);
#553=EDGE_CURVE('',#592,#666,#815,.F.);
#554=EDGE_CURVE('',#665,#593,#816,.T.);
#555=EDGE_CURVE('',#573,#673,#817,.F.);
#556=EDGE_CURVE('',#674,#574,#818,.T.);
#557=EDGE_CURVE('',#675,#571,#819,.F.);
#558=EDGE_CURVE('',#572,#676,#820,.T.);
#559=EDGE_CURVE('',#643,#646,#61,.T.);
#560=EDGE_CURVE('',#644,#659,#62,.T.);
#561=EDGE_CURVE('',#660,#643,#63,.T.);
#562=EDGE_CURVE('',#655,#644,#64,.T.);
#563=EDGE_CURVE('',#660,#646,#65,.F.);
#564=EDGE_CURVE('',#655,#659,#66,.F.);
#565=EDGE_CURVE('',#645,#650,#67,.T.);
#566=EDGE_CURVE('',#657,#645,#68,.T.);
#567=EDGE_CURVE('',#656,#658,#69,.T.);
#568=EDGE_CURVE('',#649,#656,#70,.T.);
#569=EDGE_CURVE('',#657,#650,#71,.F.);
#570=EDGE_CURVE('',#649,#658,#72,.F.);
#571=VERTEX_POINT('',#1805);
#572=VERTEX_POINT('',#1806);
#573=VERTEX_POINT('',#1808);
#574=VERTEX_POINT('',#1810);
#575=VERTEX_POINT('',#1814);
#576=VERTEX_POINT('',#1816);
#577=VERTEX_POINT('',#1817);
#578=VERTEX_POINT('',#1819);
#579=VERTEX_POINT('',#1821);
#580=VERTEX_POINT('',#1825);
#581=VERTEX_POINT('',#1827);
#582=VERTEX_POINT('',#1828);
#583=VERTEX_POINT('',#1830);
#584=VERTEX_POINT('',#1832);
#585=VERTEX_POINT('',#1836);
#586=VERTEX_POINT('',#1838);
#587=VERTEX_POINT('',#1839);
#588=VERTEX_POINT('',#1841);
#589=VERTEX_POINT('',#1843);
#590=VERTEX_POINT('',#1847);
#591=VERTEX_POINT('',#1848);
#592=VERTEX_POINT('',#1850);
#593=VERTEX_POINT('',#1852);
#594=VERTEX_POINT('',#1856);
#595=VERTEX_POINT('',#1857);
#596=VERTEX_POINT('',#1859);
#597=VERTEX_POINT('',#1861);
#598=VERTEX_POINT('',#1865);
#599=VERTEX_POINT('',#1867);
#600=VERTEX_POINT('',#1868);
#601=VERTEX_POINT('',#1870);
#602=VERTEX_POINT('',#1872);
#603=VERTEX_POINT('',#1876);
#604=VERTEX_POINT('',#1878);
#605=VERTEX_POINT('',#1879);
#606=VERTEX_POINT('',#1881);
#607=VERTEX_POINT('',#1883);
#608=VERTEX_POINT('',#1887);
#609=VERTEX_POINT('',#1889);
#610=VERTEX_POINT('',#1890);
#611=VERTEX_POINT('',#1892);
#612=VERTEX_POINT('',#1894);
#613=VERTEX_POINT('',#1898);
#614=VERTEX_POINT('',#1899);
#615=VERTEX_POINT('',#1901);
#616=VERTEX_POINT('',#1903);
#617=VERTEX_POINT('',#1907);
#618=VERTEX_POINT('',#1909);
#619=VERTEX_POINT('',#1910);
#620=VERTEX_POINT('',#1912);
#621=VERTEX_POINT('',#1914);
#622=VERTEX_POINT('',#1918);
#623=VERTEX_POINT('',#1919);
#624=VERTEX_POINT('',#1921);
#625=VERTEX_POINT('',#1923);
#626=VERTEX_POINT('',#1927);
#627=VERTEX_POINT('',#1929);
#628=VERTEX_POINT('',#1930);
#629=VERTEX_POINT('',#1932);
#630=VERTEX_POINT('',#1934);
#631=VERTEX_POINT('',#1938);
#632=VERTEX_POINT('',#1940);
#633=VERTEX_POINT('',#1941);
#634=VERTEX_POINT('',#1943);
#635=VERTEX_POINT('',#1945);
#636=VERTEX_POINT('',#1949);
#637=VERTEX_POINT('',#1951);
#638=VERTEX_POINT('',#1952);
#639=VERTEX_POINT('',#1954);
#640=VERTEX_POINT('',#1956);
#641=VERTEX_POINT('',#1960);
#642=VERTEX_POINT('',#1961);
#643=VERTEX_POINT('',#1963);
#644=VERTEX_POINT('',#1965);
#645=VERTEX_POINT('',#1969);
#646=VERTEX_POINT('',#1970);
#647=VERTEX_POINT('',#1972);
#648=VERTEX_POINT('',#1974);
#649=VERTEX_POINT('',#1978);
#650=VERTEX_POINT('',#1979);
#651=VERTEX_POINT('',#1981);
#652=VERTEX_POINT('',#1983);
#653=VERTEX_POINT('',#1987);
#654=VERTEX_POINT('',#1988);
#655=VERTEX_POINT('',#1990);
#656=VERTEX_POINT('',#1992);
#657=VERTEX_POINT('',#1996);
#658=VERTEX_POINT('',#1997);
#659=VERTEX_POINT('',#1999);
#660=VERTEX_POINT('',#2001);
#661=VERTEX_POINT('',#2020);
#662=VERTEX_POINT('',#2022);
#663=VERTEX_POINT('',#2026);
#664=VERTEX_POINT('',#2027);
#665=VERTEX_POINT('',#2032);
#666=VERTEX_POINT('',#2033);
#667=VERTEX_POINT('',#2038);
#668=VERTEX_POINT('',#2040);
#669=VERTEX_POINT('',#2044);
#670=VERTEX_POINT('',#2045);
#671=VERTEX_POINT('',#2050);
#672=VERTEX_POINT('',#2052);
#673=VERTEX_POINT('',#2056);
#674=VERTEX_POINT('',#2057);
#675=VERTEX_POINT('',#2062);
#676=VERTEX_POINT('',#2064);
#677=VERTEX_POINT('',#2068);
#678=VERTEX_POINT('',#2069);
#679=VERTEX_POINT('',#2074);
#680=VERTEX_POINT('',#2076);
#681=LINE('',#1804,#821);
#682=LINE('',#1807,#822);
#683=LINE('',#1809,#823);
#684=LINE('',#1811,#824);
#685=LINE('',#1815,#825);
#686=LINE('',#1818,#826);
#687=LINE('',#1820,#827);
#688=LINE('',#1822,#828);
#689=LINE('',#1826,#829);
#690=LINE('',#1829,#830);
#691=LINE('',#1831,#831);
#692=LINE('',#1833,#832);
#693=LINE('',#1837,#833);
#694=LINE('',#1840,#834);
#695=LINE('',#1842,#835);
#696=LINE('',#1844,#836);
#697=LINE('',#1846,#837);
#698=LINE('',#1849,#838);
#699=LINE('',#1851,#839);
#700=LINE('',#1853,#840);
#701=LINE('',#1855,#841);
#702=LINE('',#1858,#842);
#703=LINE('',#1860,#843);
#704=LINE('',#1862,#844);
#705=LINE('',#1866,#845);
#706=LINE('',#1869,#846);
#707=LINE('',#1871,#847);
#708=LINE('',#1873,#848);
#709=LINE('',#1877,#849);
#710=LINE('',#1880,#850);
#711=LINE('',#1882,#851);
#712=LINE('',#1884,#852);
#713=LINE('',#1888,#853);
#714=LINE('',#1891,#854);
#715=LINE('',#1893,#855);
#716=LINE('',#1895,#856);
#717=LINE('',#1897,#857);
#718=LINE('',#1900,#858);
#719=LINE('',#1902,#859);
#720=LINE('',#1904,#860);
#721=LINE('',#1908,#861);
#722=LINE('',#1911,#862);
#723=LINE('',#1913,#863);
#724=LINE('',#1915,#864);
#725=LINE('',#1917,#865);
#726=LINE('',#1920,#866);
#727=LINE('',#1922,#867);
#728=LINE('',#1924,#868);
#729=LINE('',#1928,#869);
#730=LINE('',#1931,#870);
#731=LINE('',#1933,#871);
#732=LINE('',#1935,#872);
#733=LINE('',#1939,#873);
#734=LINE('',#1942,#874);
#735=LINE('',#1944,#875);
#736=LINE('',#1946,#876);
#737=LINE('',#1950,#877);
#738=LINE('',#1953,#878);
#739=LINE('',#1955,#879);
#740=LINE('',#1957,#880);
#741=LINE('',#1959,#881);
#742=LINE('',#1962,#882);
#743=LINE('',#1964,#883);
#744=LINE('',#1966,#884);
#745=LINE('',#1968,#885);
#746=LINE('',#1971,#886);
#747=LINE('',#1973,#887);
#748=LINE('',#1975,#888);
#749=LINE('',#1977,#889);
#750=LINE('',#1980,#890);
#751=LINE('',#1982,#891);
#752=LINE('',#1984,#892);
#753=LINE('',#1986,#893);
#754=LINE('',#1989,#894);
#755=LINE('',#1991,#895);
#756=LINE('',#1993,#896);
#757=LINE('',#1995,#897);
#758=LINE('',#1998,#898);
#759=LINE('',#2000,#899);
#760=LINE('',#2002,#900);
#761=LINE('',#2004,#901);
#762=LINE('',#2005,#902);
#763=LINE('',#2006,#903);
#764=LINE('',#2007,#904);
#765=LINE('',#2008,#905);
#766=LINE('',#2009,#906);
#767=LINE('',#2010,#907);
#768=LINE('',#2011,#908);
#769=LINE('',#2012,#909);
#770=LINE('',#2013,#910);
#771=LINE('',#2019,#911);
#772=LINE('',#2021,#912);
#773=LINE('',#2023,#913);
#774=LINE('',#2025,#914);
#775=LINE('',#2028,#915);
#776=LINE('',#2029,#916);
#777=LINE('',#2031,#917);
#778=LINE('',#2034,#918);
#779=LINE('',#2035,#919);
#780=LINE('',#2037,#920);
#781=LINE('',#2039,#921);
#782=LINE('',#2041,#922);
#783=LINE('',#2043,#923);
#784=LINE('',#2046,#924);
#785=LINE('',#2047,#925);
#786=LINE('',#2049,#926);
#787=LINE('',#2051,#927);
#788=LINE('',#2053,#928);
#789=LINE('',#2055,#929);
#790=LINE('',#2058,#930);
#791=LINE('',#2059,#931);
#792=LINE('',#2061,#932);
#793=LINE('',#2063,#933);
#794=LINE('',#2065,#934);
#795=LINE('',#2067,#935);
#796=LINE('',#2070,#936);
#797=LINE('',#2071,#937);
#798=LINE('',#2073,#938);
#799=LINE('',#2075,#939);
#800=LINE('',#2077,#940);
#801=LINE('',#2079,#941);
#802=LINE('',#2080,#942);
#803=LINE('',#2082,#943);
#804=LINE('',#2083,#944);
#805=LINE('',#2085,#945);
#806=LINE('',#2086,#946);
#807=LINE('',#2088,#947);
#808=LINE('',#2089,#948);
#809=LINE('',#2091,#949);
#810=LINE('',#2092,#950);
#811=LINE('',#2094,#951);
#812=LINE('',#2095,#952);
#813=LINE('',#2097,#953);
#814=LINE('',#2098,#954);
#815=LINE('',#2100,#955);
#816=LINE('',#2101,#956);
#817=LINE('',#2104,#957);
#818=LINE('',#2105,#958);
#819=LINE('',#2107,#959);
#820=LINE('',#2108,#960);
#821=VECTOR('',#1476,1.);
#822=VECTOR('',#1477,1.);
#823=VECTOR('',#1478,1.);
#824=VECTOR('',#1479,1.);
#825=VECTOR('',#1484,1.);
#826=VECTOR('',#1485,1.);
#827=VECTOR('',#1486,1.);
#828=VECTOR('',#1487,1.);
#829=VECTOR('',#1492,1.);
#830=VECTOR('',#1493,1.);
#831=VECTOR('',#1494,1.);
#832=VECTOR('',#1495,1.);
#833=VECTOR('',#1500,1.);
#834=VECTOR('',#1501,1.);
#835=VECTOR('',#1502,1.);
#836=VECTOR('',#1503,1.);
#837=VECTOR('',#1506,1.);
#838=VECTOR('',#1507,1.);
#839=VECTOR('',#1508,1.);
#840=VECTOR('',#1509,1.);
#841=VECTOR('',#1512,1.);
#842=VECTOR('',#1513,1.);
#843=VECTOR('',#1514,1.);
#844=VECTOR('',#1515,1.);
#845=VECTOR('',#1520,1.);
#846=VECTOR('',#1521,1.);
#847=VECTOR('',#1522,1.);
#848=VECTOR('',#1523,1.);
#849=VECTOR('',#1528,1.);
#850=VECTOR('',#1529,1.);
#851=VECTOR('',#1530,1.);
#852=VECTOR('',#1531,1.);
#853=VECTOR('',#1536,1.);
#854=VECTOR('',#1537,1.);
#855=VECTOR('',#1538,1.);
#856=VECTOR('',#1539,1.);
#857=VECTOR('',#1542,1.);
#858=VECTOR('',#1543,1.);
#859=VECTOR('',#1544,1.);
#860=VECTOR('',#1545,1.);
#861=VECTOR('',#1550,1.);
#862=VECTOR('',#1551,1.);
#863=VECTOR('',#1552,1.);
#864=VECTOR('',#1553,1.);
#865=VECTOR('',#1556,1.);
#866=VECTOR('',#1557,1.);
#867=VECTOR('',#1558,1.);
#868=VECTOR('',#1559,1.);
#869=VECTOR('',#1564,1.);
#870=VECTOR('',#1565,1.);
#871=VECTOR('',#1566,1.);
#872=VECTOR('',#1567,1.);
#873=VECTOR('',#1572,1.);
#874=VECTOR('',#1573,1.);
#875=VECTOR('',#1574,1.);
#876=VECTOR('',#1575,1.);
#877=VECTOR('',#1580,1.);
#878=VECTOR('',#1581,1.);
#879=VECTOR('',#1582,1.);
#880=VECTOR('',#1583,1.);
#881=VECTOR('',#1586,1.);
#882=VECTOR('',#1587,1.);
#883=VECTOR('',#1588,1.);
#884=VECTOR('',#1589,1.);
#885=VECTOR('',#1592,1.);
#886=VECTOR('',#1593,1.);
#887=VECTOR('',#1594,1.);
#888=VECTOR('',#1595,1.);
#889=VECTOR('',#1598,1.);
#890=VECTOR('',#1599,1.);
#891=VECTOR('',#1600,1.);
#892=VECTOR('',#1601,1.);
#893=VECTOR('',#1604,1.);
#894=VECTOR('',#1605,1.);
#895=VECTOR('',#1606,1.);
#896=VECTOR('',#1607,1.);
#897=VECTOR('',#1610,1.);
#898=VECTOR('',#1611,1.);
#899=VECTOR('',#1612,1.);
#900=VECTOR('',#1613,1.);
#901=VECTOR('',#1616,1.);
#902=VECTOR('',#1617,1.);
#903=VECTOR('',#1618,1.);
#904=VECTOR('',#1619,1.);
#905=VECTOR('',#1620,1.);
#906=VECTOR('',#1621,1.);
#907=VECTOR('',#1622,1.);
#908=VECTOR('',#1623,1.);
#909=VECTOR('',#1624,1.);
#910=VECTOR('',#1625,1.);
#911=VECTOR('',#1636,1.);
#912=VECTOR('',#1637,1.);
#913=VECTOR('',#1638,1.);
#914=VECTOR('',#1641,1.);
#915=VECTOR('',#1642,1.);
#916=VECTOR('',#1643,1.);
#917=VECTOR('',#1646,1.);
#918=VECTOR('',#1647,1.);
#919=VECTOR('',#1648,1.);
#920=VECTOR('',#1651,1.);
#921=VECTOR('',#1652,1.);
#922=VECTOR('',#1653,1.);
#923=VECTOR('',#1656,1.);
#924=VECTOR('',#1657,1.);
#925=VECTOR('',#1658,1.);
#926=VECTOR('',#1661,1.);
#927=VECTOR('',#1662,1.);
#928=VECTOR('',#1663,1.);
#929=VECTOR('',#1666,1.);
#930=VECTOR('',#1667,1.);
#931=VECTOR('',#1668,1.);
#932=VECTOR('',#1671,1.);
#933=VECTOR('',#1672,1.);
#934=VECTOR('',#1673,1.);
#935=VECTOR('',#1676,1.);
#936=VECTOR('',#1677,1.);
#937=VECTOR('',#1678,1.);
#938=VECTOR('',#1681,1.);
#939=VECTOR('',#1682,1.);
#940=VECTOR('',#1683,1.);
#941=VECTOR('',#1686,1.);
#942=VECTOR('',#1687,1.);
#943=VECTOR('',#1690,1.);
#944=VECTOR('',#1691,1.);
#945=VECTOR('',#1694,1.);
#946=VECTOR('',#1695,1.);
#947=VECTOR('',#1698,1.);
#948=VECTOR('',#1699,1.);
#949=VECTOR('',#1702,1.);
#950=VECTOR('',#1703,1.);
#951=VECTOR('',#1706,1.);
#952=VECTOR('',#1707,1.);
#953=VECTOR('',#1710,1.);
#954=VECTOR('',#1711,1.);
#955=VECTOR('',#1714,1.);
#956=VECTOR('',#1715,1.);
#957=VECTOR('',#1720,1.);
#958=VECTOR('',#1721,1.);
#959=VECTOR('',#1724,1.);
#960=VECTOR('',#1725,1.);
#961=EDGE_LOOP('',(#73,#74,#75,#76));
#962=EDGE_LOOP('',(#77));
#963=EDGE_LOOP('',(#78,#79,#80,#81));
#964=EDGE_LOOP('',(#82));
#965=EDGE_LOOP('',(#83,#84,#85,#86));
#966=EDGE_LOOP('',(#87));
#967=EDGE_LOOP('',(#88,#89,#90,#91));
#968=EDGE_LOOP('',(#92,#93,#94,#95));
#969=EDGE_LOOP('',(#96,#97,#98,#99));
#970=EDGE_LOOP('',(#100));
#971=EDGE_LOOP('',(#101,#102,#103,#104));
#972=EDGE_LOOP('',(#105));
#973=EDGE_LOOP('',(#106,#107,#108,#109));
#974=EDGE_LOOP('',(#110));
#975=EDGE_LOOP('',(#111,#112,#113,#114));
#976=EDGE_LOOP('',(#115,#116,#117,#118));
#977=EDGE_LOOP('',(#119));
#978=EDGE_LOOP('',(#120,#121,#122,#123));
#979=EDGE_LOOP('',(#124,#125,#126,#127));
#980=EDGE_LOOP('',(#128));
#981=EDGE_LOOP('',(#129,#130,#131,#132));
#982=EDGE_LOOP('',(#133));
#983=EDGE_LOOP('',(#134,#135,#136,#137));
#984=EDGE_LOOP('',(#138));
#985=EDGE_LOOP('',(#139,#140,#141,#142));
#986=EDGE_LOOP('',(#143,#144,#145,#146));
#987=EDGE_LOOP('',(#147,#148,#149,#150));
#988=EDGE_LOOP('',(#151,#152,#153,#154));
#989=EDGE_LOOP('',(#155,#156,#157,#158));
#990=EDGE_LOOP('',(#159,#160,#161,#162));
#991=EDGE_LOOP('',(#163,#164,#165,#166));
#992=EDGE_LOOP('',(#167,#168,#169,#170));
#993=EDGE_LOOP('',(#171,#172,#173,#174));
#994=EDGE_LOOP('',(#175,#176,#177,#178));
#995=EDGE_LOOP('',(#179,#180,#181,#182));
#996=EDGE_LOOP('',(#183,#184,#185,#186,#187,#188,#189,#190));
#997=EDGE_LOOP('',(#191,#192,#193,#194,#195,#196));
#998=EDGE_LOOP('',(#197,#198,#199,#200,#201,#202));
#999=EDGE_LOOP('',(#203,#204,#205,#206,#207,#208));
#1000=EDGE_LOOP('',(#209,#210,#211,#212,#213,#214));
#1001=EDGE_LOOP('',(#215,#216,#217,#218,#219,#220));
#1002=EDGE_LOOP('',(#221,#222,#223,#224,#225,#226));
#1003=EDGE_LOOP('',(#227,#228,#229,#230,#231,#232));
#1004=EDGE_LOOP('',(#233,#234,#235,#236,#237,#238));
#1005=EDGE_LOOP('',(#239,#240,#241,#242,#243,#244));
#1006=EDGE_LOOP('',(#245,#246,#247,#248,#249,#250));
#1007=EDGE_LOOP('',(#251,#252,#253,#254));
#1008=EDGE_LOOP('',(#255,#256,#257,#258));
#1009=EDGE_LOOP('',(#259,#260,#261,#262));
#1010=EDGE_LOOP('',(#263,#264,#265,#266));
#1011=EDGE_LOOP('',(#267,#268,#269,#270));
#1012=EDGE_LOOP('',(#271,#272,#273,#274));
#1013=EDGE_LOOP('',(#275,#276,#277,#278));
#1014=EDGE_LOOP('',(#279,#280,#281,#282));
#1015=EDGE_LOOP('',(#283));
#1016=EDGE_LOOP('',(#284));
#1017=EDGE_LOOP('',(#285,#286,#287,#288));
#1018=EDGE_LOOP('',(#289,#290,#291,#292));
#1019=EDGE_LOOP('',(#293));
#1020=EDGE_LOOP('',(#294));
#1021=EDGE_LOOP('',(#295));
#1022=EDGE_LOOP('',(#296));
#1023=EDGE_LOOP('',(#297));
#1024=EDGE_LOOP('',(#298));
#1025=EDGE_LOOP('',(#299));
#1026=EDGE_LOOP('',(#300));
#1027=EDGE_LOOP('',(#301,#302,#303,#304));
#1028=EDGE_LOOP('',(#305,#306,#307,#308));
#1029=EDGE_LOOP('',(#309,#310,#311,#312));
#1030=EDGE_LOOP('',(#313,#314,#315));
#1031=EDGE_LOOP('',(#316,#317,#318));
#1032=EDGE_LOOP('',(#319,#320,#321,#322));
#1033=EDGE_LOOP('',(#323,#324,#325,#326));
#1034=EDGE_LOOP('',(#327,#328,#329,#330));
#1035=EDGE_LOOP('',(#331,#332,#333,#334));
#1036=EDGE_LOOP('',(#335,#336,#337));
#1037=EDGE_LOOP('',(#338,#339,#340));
#1038=EDGE_LOOP('',(#341,#342,#343,#344));
#1039=EDGE_LOOP('',(#345,#346,#347,#348,#349,#350));
#1040=EDGE_LOOP('',(#351,#352,#353,#354,#355,#356));
#1041=EDGE_LOOP('',(#357,#358,#359,#360,#361,#362));
#1042=EDGE_LOOP('',(#363,#364,#365,#366,#367,#368));
#1043=EDGE_LOOP('',(#369,#370,#371,#372,#373,#374));
#1044=EDGE_LOOP('',(#375,#376,#377,#378,#379,#380));
#1045=EDGE_LOOP('',(#381,#382,#383,#384,#385,#386));
#1046=EDGE_LOOP('',(#387,#388,#389,#390,#391,#392));
#1047=EDGE_LOOP('',(#393,#394,#395,#396,#397,#398));
#1048=EDGE_LOOP('',(#399,#400,#401,#402,#403,#404));
#1049=FACE_BOUND('',#961,.T.);
#1050=FACE_BOUND('',#962,.T.);
#1051=FACE_BOUND('',#963,.T.);
#1052=FACE_BOUND('',#964,.T.);
#1053=FACE_BOUND('',#965,.T.);
#1054=FACE_BOUND('',#966,.T.);
#1055=FACE_BOUND('',#967,.T.);
#1056=FACE_BOUND('',#968,.T.);
#1057=FACE_BOUND('',#969,.T.);
#1058=FACE_BOUND('',#970,.T.);
#1059=FACE_BOUND('',#971,.T.);
#1060=FACE_BOUND('',#972,.T.);
#1061=FACE_BOUND('',#973,.T.);
#1062=FACE_BOUND('',#974,.T.);
#1063=FACE_BOUND('',#975,.T.);
#1064=FACE_BOUND('',#976,.T.);
#1065=FACE_BOUND('',#977,.T.);
#1066=FACE_BOUND('',#978,.T.);
#1067=FACE_BOUND('',#979,.T.);
#1068=FACE_BOUND('',#980,.T.);
#1069=FACE_BOUND('',#981,.T.);
#1070=FACE_BOUND('',#982,.T.);
#1071=FACE_BOUND('',#983,.T.);
#1072=FACE_BOUND('',#984,.T.);
#1073=FACE_BOUND('',#985,.T.);
#1074=FACE_BOUND('',#986,.T.);
#1075=FACE_BOUND('',#987,.T.);
#1076=FACE_BOUND('',#988,.T.);
#1077=FACE_BOUND('',#989,.T.);
#1078=FACE_BOUND('',#990,.T.);
#1079=FACE_BOUND('',#991,.T.);
#1080=FACE_BOUND('',#992,.T.);
#1081=FACE_BOUND('',#993,.T.);
#1082=FACE_BOUND('',#994,.T.);
#1083=FACE_BOUND('',#995,.T.);
#1084=FACE_BOUND('',#996,.T.);
#1085=FACE_BOUND('',#997,.T.);
#1086=FACE_BOUND('',#998,.T.);
#1087=FACE_BOUND('',#999,.T.);
#1088=FACE_BOUND('',#1000,.T.);
#1089=FACE_BOUND('',#1001,.T.);
#1090=FACE_BOUND('',#1002,.T.);
#1091=FACE_BOUND('',#1003,.T.);
#1092=FACE_BOUND('',#1004,.T.);
#1093=FACE_BOUND('',#1005,.T.);
#1094=FACE_BOUND('',#1006,.T.);
#1095=FACE_BOUND('',#1007,.T.);
#1096=FACE_BOUND('',#1008,.T.);
#1097=FACE_BOUND('',#1009,.T.);
#1098=FACE_BOUND('',#1010,.T.);
#1099=FACE_BOUND('',#1011,.T.);
#1100=FACE_BOUND('',#1012,.T.);
#1101=FACE_BOUND('',#1013,.T.);
#1102=FACE_BOUND('',#1014,.T.);
#1103=FACE_BOUND('',#1015,.T.);
#1104=FACE_BOUND('',#1016,.T.);
#1105=FACE_BOUND('',#1017,.T.);
#1106=FACE_BOUND('',#1018,.T.);
#1107=FACE_BOUND('',#1019,.T.);
#1108=FACE_BOUND('',#1020,.T.);
#1109=FACE_BOUND('',#1021,.T.);
#1110=FACE_BOUND('',#1022,.T.);
#1111=FACE_BOUND('',#1023,.T.);
#1112=FACE_BOUND('',#1024,.T.);
#1113=FACE_BOUND('',#1025,.T.);
#1114=FACE_BOUND('',#1026,.T.);
#1115=FACE_BOUND('',#1027,.T.);
#1116=FACE_BOUND('',#1028,.T.);
#1117=FACE_BOUND('',#1029,.T.);
#1118=FACE_BOUND('',#1030,.T.);
#1119=FACE_BOUND('',#1031,.T.);
#1120=FACE_BOUND('',#1032,.T.);
#1121=FACE_BOUND('',#1033,.T.);
#1122=FACE_BOUND('',#1034,.T.);
#1123=FACE_BOUND('',#1035,.T.);
#1124=FACE_BOUND('',#1036,.T.);
#1125=FACE_BOUND('',#1037,.T.);
#1126=FACE_BOUND('',#1038,.T.);
#1127=FACE_BOUND('',#1039,.T.);
#1128=FACE_BOUND('',#1040,.T.);
#1129=FACE_BOUND('',#1041,.T.);
#1130=FACE_BOUND('',#1042,.T.);
#1131=FACE_BOUND('',#1043,.T.);
#1132=FACE_BOUND('',#1044,.T.);
#1133=FACE_BOUND('',#1045,.T.);
#1134=FACE_BOUND('',#1046,.T.);
#1135=FACE_BOUND('',#1047,.T.);
#1136=FACE_BOUND('',#1048,.T.);
#1137=PLANE('',#1378);
#1138=PLANE('',#1379);
#1139=PLANE('',#1381);
#1140=PLANE('',#1383);
#1141=PLANE('',#1385);
#1142=PLANE('',#1386);
#1143=PLANE('',#1387);
#1144=PLANE('',#1389);
#1145=PLANE('',#1391);
#1146=PLANE('',#1393);
#1147=PLANE('',#1394);
#1148=PLANE('',#1396);
#1149=PLANE('',#1397);
#1150=PLANE('',#1399);
#1151=PLANE('',#1401);
#1152=PLANE('',#1403);
#1153=PLANE('',#1404);
#1154=PLANE('',#1405);
#1155=PLANE('',#1406);
#1156=PLANE('',#1407);
#1157=PLANE('',#1408);
#1158=PLANE('',#1413);
#1159=PLANE('',#1414);
#1160=PLANE('',#1415);
#1161=PLANE('',#1416);
#1162=PLANE('',#1417);
#1163=PLANE('',#1418);
#1164=PLANE('',#1419);
#1165=PLANE('',#1420);
#1166=PLANE('',#1421);
#1167=PLANE('',#1422);
#1168=PLANE('',#1423);
#1169=PLANE('',#1424);
#1170=PLANE('',#1425);
#1171=PLANE('',#1426);
#1172=PLANE('',#1427);
#1173=PLANE('',#1428);
#1174=PLANE('',#1429);
#1175=PLANE('',#1430);
#1176=PLANE('',#1432);
#1177=PLANE('',#1433);
#1178=PLANE('',#1462);
#1179=PLANE('',#1463);
#1180=PLANE('',#1464);
#1181=PLANE('',#1465);
#1182=PLANE('',#1466);
#1183=PLANE('',#1467);
#1184=PLANE('',#1468);
#1185=PLANE('',#1469);
#1186=PLANE('',#1470);
#1187=PLANE('',#1471);
#1188=ADVANCED_FACE('',(#1049),#1137,.T.);
#1189=ADVANCED_FACE('',(#1050,#1051),#1138,.F.);
#1190=ADVANCED_FACE('',(#1052,#1053),#1139,.T.);
#1191=ADVANCED_FACE('',(#1054,#1055),#1140,.T.);
#1192=ADVANCED_FACE('',(#1056),#1141,.T.);
#1193=ADVANCED_FACE('',(#1057),#1142,.T.);
#1194=ADVANCED_FACE('',(#1058,#1059),#1143,.F.);
#1195=ADVANCED_FACE('',(#1060,#1061),#1144,.T.);
#1196=ADVANCED_FACE('',(#1062,#1063),#1145,.F.);
#1197=ADVANCED_FACE('',(#1064),#1146,.T.);
#1198=ADVANCED_FACE('',(#1065,#1066),#1147,.F.);
#1199=ADVANCED_FACE('',(#1067),#1148,.T.);
#1200=ADVANCED_FACE('',(#1068,#1069),#1149,.T.);
#1201=ADVANCED_FACE('',(#1070,#1071),#1150,.F.);
#1202=ADVANCED_FACE('',(#1072,#1073),#1151,.T.);
#1203=ADVANCED_FACE('',(#1074),#1152,.T.);
#1204=ADVANCED_FACE('',(#1075),#1153,.F.);
#1205=ADVANCED_FACE('',(#1076),#1154,.F.);
#1206=ADVANCED_FACE('',(#1077),#1155,.T.);
#1207=ADVANCED_FACE('',(#1078),#1156,.T.);
#1208=ADVANCED_FACE('',(#1079,#1080,#1081,#1082,#1083,#1084),#1157,.F.);
#1209=ADVANCED_FACE('',(#1085),#1158,.F.);
#1210=ADVANCED_FACE('',(#1086),#1159,.T.);
#1211=ADVANCED_FACE('',(#1087),#1160,.F.);
#1212=ADVANCED_FACE('',(#1088),#1161,.T.);
#1213=ADVANCED_FACE('',(#1089),#1162,.T.);
#1214=ADVANCED_FACE('',(#1090),#1163,.F.);
#1215=ADVANCED_FACE('',(#1091),#1164,.T.);
#1216=ADVANCED_FACE('',(#1092),#1165,.F.);
#1217=ADVANCED_FACE('',(#1093),#1166,.F.);
#1218=ADVANCED_FACE('',(#1094),#1167,.T.);
#1219=ADVANCED_FACE('',(#1095),#1168,.F.);
#1220=ADVANCED_FACE('',(#1096),#1169,.T.);
#1221=ADVANCED_FACE('',(#1097),#1170,.F.);
#1222=ADVANCED_FACE('',(#1098),#1171,.T.);
#1223=ADVANCED_FACE('',(#1099),#1172,.F.);
#1224=ADVANCED_FACE('',(#1100),#1173,.T.);
#1225=ADVANCED_FACE('',(#1101),#1174,.F.);
#1226=ADVANCED_FACE('',(#1102),#1175,.T.);
#1227=ADVANCED_FACE('',(#1103,#1104),#16,.F.);
#1228=ADVANCED_FACE('',(#1105),#1176,.F.);
#1229=ADVANCED_FACE('',(#1106),#1177,.T.);
#1230=ADVANCED_FACE('',(#1107,#1108),#17,.F.);
#1231=ADVANCED_FACE('',(#1109,#1110),#18,.F.);
#1232=ADVANCED_FACE('',(#1111,#1112),#19,.F.);
#1233=ADVANCED_FACE('',(#1113,#1114),#20,.F.);
#1234=ADVANCED_FACE('',(#1115),#21,.T.);
#1235=ADVANCED_FACE('',(#1116),#22,.T.);
#1236=ADVANCED_FACE('',(#1117),#23,.T.);
#1237=ADVANCED_FACE('',(#1118),#12,.T.);
#1238=ADVANCED_FACE('',(#1119),#13,.T.);
#1239=ADVANCED_FACE('',(#1120),#24,.T.);
#1240=ADVANCED_FACE('',(#1121),#25,.T.);
#1241=ADVANCED_FACE('',(#1122),#26,.T.);
#1242=ADVANCED_FACE('',(#1123),#27,.T.);
#1243=ADVANCED_FACE('',(#1124),#14,.T.);
#1244=ADVANCED_FACE('',(#1125),#15,.T.);
#1245=ADVANCED_FACE('',(#1126),#28,.T.);
#1246=ADVANCED_FACE('',(#1127),#1178,.T.);
#1247=ADVANCED_FACE('',(#1128),#1179,.T.);
#1248=ADVANCED_FACE('',(#1129),#1180,.F.);
#1249=ADVANCED_FACE('',(#1130),#1181,.T.);
#1250=ADVANCED_FACE('',(#1131),#1182,.T.);
#1251=ADVANCED_FACE('',(#1132),#1183,.F.);
#1252=ADVANCED_FACE('',(#1133),#1184,.F.);
#1253=ADVANCED_FACE('',(#1134),#1185,.T.);
#1254=ADVANCED_FACE('',(#1135),#1186,.F.);
#1255=ADVANCED_FACE('',(#1136),#1187,.F.);
#1256=CLOSED_SHELL('',(#1188,#1189,#1190,#1191,#1192,#1193,#1194,#1195,
#1196,#1197,#1198,#1199,#1200,#1201,#1202,#1203,#1204,#1205,#1206,#1207,
#1208,#1209,#1210,#1211,#1212,#1213,#1214,#1215,#1216,#1217,#1218,#1219,
#1220,#1221,#1222,#1223,#1224,#1225,#1226,#1227,#1228,#1229,#1230,#1231,
#1232,#1233,#1234,#1235,#1236,#1237,#1238,#1239,#1240,#1241,#1242,#1243,
#1244,#1245,#1246,#1247,#1248,#1249,#1250,#1251,#1252,#1253,#1254,#1255));
#1257=STYLED_ITEM('',(#1258),#1374);
#1258=PRESENTATION_STYLE_ASSIGNMENT((#1277));
#1259=PRESENTATION_STYLE_ASSIGNMENT((#1278));
#1260=PRESENTATION_STYLE_ASSIGNMENT((#1279));
#1261=PRESENTATION_STYLE_ASSIGNMENT((#1280));
#1262=PRESENTATION_STYLE_ASSIGNMENT((#1281));
#1263=PRESENTATION_STYLE_ASSIGNMENT((#1282));
#1264=PRESENTATION_STYLE_ASSIGNMENT((#1283));
#1265=PRESENTATION_STYLE_ASSIGNMENT((#1284));
#1266=PRESENTATION_STYLE_ASSIGNMENT((#1285));
#1267=PRESENTATION_STYLE_ASSIGNMENT((#1286));
#1268=PRESENTATION_STYLE_ASSIGNMENT((#1287));
#1269=PRESENTATION_STYLE_ASSIGNMENT((#1288));
#1270=PRESENTATION_STYLE_ASSIGNMENT((#1289));
#1271=PRESENTATION_STYLE_ASSIGNMENT((#1290));
#1272=PRESENTATION_STYLE_ASSIGNMENT((#1291));
#1273=PRESENTATION_STYLE_ASSIGNMENT((#1292));
#1274=PRESENTATION_STYLE_ASSIGNMENT((#1293));
#1275=PRESENTATION_STYLE_ASSIGNMENT((#1294));
#1276=PRESENTATION_STYLE_ASSIGNMENT((#1295));
#1277=SURFACE_STYLE_USAGE(.BOTH.,#1296);
#1278=SURFACE_STYLE_USAGE(.BOTH.,#1297);
#1279=SURFACE_STYLE_USAGE(.BOTH.,#1298);
#1280=SURFACE_STYLE_USAGE(.BOTH.,#1299);
#1281=SURFACE_STYLE_USAGE(.BOTH.,#1300);
#1282=SURFACE_STYLE_USAGE(.BOTH.,#1301);
#1283=SURFACE_STYLE_USAGE(.BOTH.,#1302);
#1284=SURFACE_STYLE_USAGE(.BOTH.,#1303);
#1285=SURFACE_STYLE_USAGE(.BOTH.,#1304);
#1286=SURFACE_STYLE_USAGE(.BOTH.,#1305);
#1287=SURFACE_STYLE_USAGE(.BOTH.,#1306);
#1288=SURFACE_STYLE_USAGE(.BOTH.,#1307);
#1289=SURFACE_STYLE_USAGE(.BOTH.,#1308);
#1290=SURFACE_STYLE_USAGE(.BOTH.,#1309);
#1291=SURFACE_STYLE_USAGE(.BOTH.,#1310);
#1292=SURFACE_STYLE_USAGE(.BOTH.,#1311);
#1293=SURFACE_STYLE_USAGE(.BOTH.,#1312);
#1294=SURFACE_STYLE_USAGE(.BOTH.,#1313);
#1295=SURFACE_STYLE_USAGE(.BOTH.,#1314);
#1296=SURFACE_SIDE_STYLE('',(#1315));
#1297=SURFACE_SIDE_STYLE('',(#1316));
#1298=SURFACE_SIDE_STYLE('',(#1317));
#1299=SURFACE_SIDE_STYLE('',(#1318));
#1300=SURFACE_SIDE_STYLE('',(#1319));
#1301=SURFACE_SIDE_STYLE('',(#1320));
#1302=SURFACE_SIDE_STYLE('',(#1321));
#1303=SURFACE_SIDE_STYLE('',(#1322));
#1304=SURFACE_SIDE_STYLE('',(#1323));
#1305=SURFACE_SIDE_STYLE('',(#1324));
#1306=SURFACE_SIDE_STYLE('',(#1325));
#1307=SURFACE_SIDE_STYLE('',(#1326));
#1308=SURFACE_SIDE_STYLE('',(#1327));
#1309=SURFACE_SIDE_STYLE('',(#1328));
#1310=SURFACE_SIDE_STYLE('',(#1329));
#1311=SURFACE_SIDE_STYLE('',(#1330));
#1312=SURFACE_SIDE_STYLE('',(#1331));
#1313=SURFACE_SIDE_STYLE('',(#1332));
#1314=SURFACE_SIDE_STYLE('',(#1333));
#1315=SURFACE_STYLE_FILL_AREA(#1334);
#1316=SURFACE_STYLE_FILL_AREA(#1335);
#1317=SURFACE_STYLE_FILL_AREA(#1336);
#1318=SURFACE_STYLE_FILL_AREA(#1337);
#1319=SURFACE_STYLE_FILL_AREA(#1338);
#1320=SURFACE_STYLE_FILL_AREA(#1339);
#1321=SURFACE_STYLE_FILL_AREA(#1340);
#1322=SURFACE_STYLE_FILL_AREA(#1341);
#1323=SURFACE_STYLE_FILL_AREA(#1342);
#1324=SURFACE_STYLE_FILL_AREA(#1343);
#1325=SURFACE_STYLE_FILL_AREA(#1344);
#1326=SURFACE_STYLE_FILL_AREA(#1345);
#1327=SURFACE_STYLE_FILL_AREA(#1346);
#1328=SURFACE_STYLE_FILL_AREA(#1347);
#1329=SURFACE_STYLE_FILL_AREA(#1348);
#1330=SURFACE_STYLE_FILL_AREA(#1349);
#1331=SURFACE_STYLE_FILL_AREA(#1350);
#1332=SURFACE_STYLE_FILL_AREA(#1351);
#1333=SURFACE_STYLE_FILL_AREA(#1352);
#1334=FILL_AREA_STYLE('',(#1353));
#1335=FILL_AREA_STYLE('',(#1354));
#1336=FILL_AREA_STYLE('',(#1355));
#1337=FILL_AREA_STYLE('',(#1356));
#1338=FILL_AREA_STYLE('',(#1357));
#1339=FILL_AREA_STYLE('',(#1358));
#1340=FILL_AREA_STYLE('',(#1359));
#1341=FILL_AREA_STYLE('',(#1360));
#1342=FILL_AREA_STYLE('',(#1361));
#1343=FILL_AREA_STYLE('',(#1362));
#1344=FILL_AREA_STYLE('',(#1363));
#1345=FILL_AREA_STYLE('',(#1364));
#1346=FILL_AREA_STYLE('',(#1365));
#1347=FILL_AREA_STYLE('',(#1366));
#1348=FILL_AREA_STYLE('',(#1367));
#1349=FILL_AREA_STYLE('',(#1368));
#1350=FILL_AREA_STYLE('',(#1369));
#1351=FILL_AREA_STYLE('',(#1370));
#1352=FILL_AREA_STYLE('',(#1371));
#1353=FILL_AREA_STYLE_COLOUR('',#1372);
#1354=FILL_AREA_STYLE_COLOUR('',#1373);
#1355=FILL_AREA_STYLE_COLOUR('',#1373);
#1356=FILL_AREA_STYLE_COLOUR('',#1373);
#1357=FILL_AREA_STYLE_COLOUR('',#1373);
#1358=FILL_AREA_STYLE_COLOUR('',#1373);
#1359=FILL_AREA_STYLE_COLOUR('',#1373);
#1360=FILL_AREA_STYLE_COLOUR('',#1373);
#1361=FILL_AREA_STYLE_COLOUR('',#1373);
#1362=FILL_AREA_STYLE_COLOUR('',#1373);
#1363=FILL_AREA_STYLE_COLOUR('',#1373);
#1364=FILL_AREA_STYLE_COLOUR('',#1373);
#1365=FILL_AREA_STYLE_COLOUR('',#1373);
#1366=FILL_AREA_STYLE_COLOUR('',#1373);
#1367=FILL_AREA_STYLE_COLOUR('',#1373);
#1368=FILL_AREA_STYLE_COLOUR('',#1373);
#1369=FILL_AREA_STYLE_COLOUR('',#1373);
#1370=FILL_AREA_STYLE_COLOUR('',#1373);
#1371=FILL_AREA_STYLE_COLOUR('',#1373);
#1372=COLOUR_RGB('',0.764705882352941,0.764705882352941,0.764705882352941);
#1373=COLOUR_RGB('',0.254901960784313,0.254901960784313,0.254901960784313);
#1374=MANIFOLD_SOLID_BREP('CB1-12V',#1256);
#1375=SHAPE_DEFINITION_REPRESENTATION(#2153,#1376);
#1376=SHAPE_REPRESENTATION('CB1-12V',(#1377),#2148);
#1377=AXIS2_PLACEMENT_3D('',#1802,#1472,#1473);
#1378=AXIS2_PLACEMENT_3D('',#1803,#1474,#1475);
#1379=AXIS2_PLACEMENT_3D('',#1812,#1480,#1481);
#1380=AXIS2_PLACEMENT_3D('',#1813,#1482,#1483);
#1381=AXIS2_PLACEMENT_3D('',#1823,#1488,#1489);
#1382=AXIS2_PLACEMENT_3D('',#1824,#1490,#1491);
#1383=AXIS2_PLACEMENT_3D('',#1834,#1496,#1497);
#1384=AXIS2_PLACEMENT_3D('',#1835,#1498,#1499);
#1385=AXIS2_PLACEMENT_3D('',#1845,#1504,#1505);
#1386=AXIS2_PLACEMENT_3D('',#1854,#1510,#1511);
#1387=AXIS2_PLACEMENT_3D('',#1863,#1516,#1517);
#1388=AXIS2_PLACEMENT_3D('',#1864,#1518,#1519);
#1389=AXIS2_PLACEMENT_3D('',#1874,#1524,#1525);
#1390=AXIS2_PLACEMENT_3D('',#1875,#1526,#1527);
#1391=AXIS2_PLACEMENT_3D('',#1885,#1532,#1533);
#1392=AXIS2_PLACEMENT_3D('',#1886,#1534,#1535);
#1393=AXIS2_PLACEMENT_3D('',#1896,#1540,#1541);
#1394=AXIS2_PLACEMENT_3D('',#1905,#1546,#1547);
#1395=AXIS2_PLACEMENT_3D('',#1906,#1548,#1549);
#1396=AXIS2_PLACEMENT_3D('',#1916,#1554,#1555);
#1397=AXIS2_PLACEMENT_3D('',#1925,#1560,#1561);
#1398=AXIS2_PLACEMENT_3D('',#1926,#1562,#1563);
#1399=AXIS2_PLACEMENT_3D('',#1936,#1568,#1569);
#1400=AXIS2_PLACEMENT_3D('',#1937,#1570,#1571);
#1401=AXIS2_PLACEMENT_3D('',#1947,#1576,#1577);
#1402=AXIS2_PLACEMENT_3D('',#1948,#1578,#1579);
#1403=AXIS2_PLACEMENT_3D('',#1958,#1584,#1585);
#1404=AXIS2_PLACEMENT_3D('',#1967,#1590,#1591);
#1405=AXIS2_PLACEMENT_3D('',#1976,#1596,#1597);
#1406=AXIS2_PLACEMENT_3D('',#1985,#1602,#1603);
#1407=AXIS2_PLACEMENT_3D('',#1994,#1608,#1609);
#1408=AXIS2_PLACEMENT_3D('',#2003,#1614,#1615);
#1409=AXIS2_PLACEMENT_3D('',#2014,#1626,#1627);
#1410=AXIS2_PLACEMENT_3D('',#2015,#1628,#1629);
#1411=AXIS2_PLACEMENT_3D('',#2016,#1630,#1631);
#1412=AXIS2_PLACEMENT_3D('',#2017,#1632,#1633);
#1413=AXIS2_PLACEMENT_3D('',#2018,#1634,#1635);
#1414=AXIS2_PLACEMENT_3D('',#2024,#1639,#1640);
#1415=AXIS2_PLACEMENT_3D('',#2030,#1644,#1645);
#1416=AXIS2_PLACEMENT_3D('',#2036,#1649,#1650);
#1417=AXIS2_PLACEMENT_3D('',#2042,#1654,#1655);
#1418=AXIS2_PLACEMENT_3D('',#2048,#1659,#1660);
#1419=AXIS2_PLACEMENT_3D('',#2054,#1664,#1665);
#1420=AXIS2_PLACEMENT_3D('',#2060,#1669,#1670);
#1421=AXIS2_PLACEMENT_3D('',#2066,#1674,#1675);
#1422=AXIS2_PLACEMENT_3D('',#2072,#1679,#1680);
#1423=AXIS2_PLACEMENT_3D('',#2078,#1684,#1685);
#1424=AXIS2_PLACEMENT_3D('',#2081,#1688,#1689);
#1425=AXIS2_PLACEMENT_3D('',#2084,#1692,#1693);
#1426=AXIS2_PLACEMENT_3D('',#2087,#1696,#1697);
#1427=AXIS2_PLACEMENT_3D('',#2090,#1700,#1701);
#1428=AXIS2_PLACEMENT_3D('',#2093,#1704,#1705);
#1429=AXIS2_PLACEMENT_3D('',#2096,#1708,#1709);
#1430=AXIS2_PLACEMENT_3D('',#2099,#1712,#1713);
#1431=AXIS2_PLACEMENT_3D('',#2102,#1716,#1717);
#1432=AXIS2_PLACEMENT_3D('',#2103,#1718,#1719);
#1433=AXIS2_PLACEMENT_3D('',#2106,#1722,#1723);
#1434=AXIS2_PLACEMENT_3D('',#2109,#1726,#1727);
#1435=AXIS2_PLACEMENT_3D('',#2110,#1728,#1729);
#1436=AXIS2_PLACEMENT_3D('',#2111,#1730,#1731);
#1437=AXIS2_PLACEMENT_3D('',#2112,#1732,#1733);
#1438=AXIS2_PLACEMENT_3D('',#2113,#1734,#1735);
#1439=AXIS2_PLACEMENT_3D('',#2114,#1736,#1737);
#1440=AXIS2_PLACEMENT_3D('',#2115,#1738,#1739);
#1441=AXIS2_PLACEMENT_3D('',#2116,#1740,#1741);
#1442=AXIS2_PLACEMENT_3D('',#2117,#1742,#1743);
#1443=AXIS2_PLACEMENT_3D('',#2118,#1744,#1745);
#1444=AXIS2_PLACEMENT_3D('',#2119,#1746,#1747);
#1445=AXIS2_PLACEMENT_3D('',#2120,#1748,#1749);
#1446=AXIS2_PLACEMENT_3D('',#2121,#1750,#1751);
#1447=AXIS2_PLACEMENT_3D('',#2122,#1752,#1753);
#1448=AXIS2_PLACEMENT_3D('',#2123,#1754,#1755);
#1449=AXIS2_PLACEMENT_3D('',#2124,#1756,#1757);
#1450=AXIS2_PLACEMENT_3D('',#2125,#1758,#1759);
#1451=AXIS2_PLACEMENT_3D('',#2126,#1760,#1761);
#1452=AXIS2_PLACEMENT_3D('',#2127,#1762,#1763);
#1453=AXIS2_PLACEMENT_3D('',#2128,#1764,#1765);
#1454=AXIS2_PLACEMENT_3D('',#2129,#1766,#1767);
#1455=AXIS2_PLACEMENT_3D('',#2130,#1768,#1769);
#1456=AXIS2_PLACEMENT_3D('',#2131,#1770,#1771);
#1457=AXIS2_PLACEMENT_3D('',#2132,#1772,#1773);
#1458=AXIS2_PLACEMENT_3D('',#2133,#1774,#1775);
#1459=AXIS2_PLACEMENT_3D('',#2134,#1776,#1777);
#1460=AXIS2_PLACEMENT_3D('',#2135,#1778,#1779);
#1461=AXIS2_PLACEMENT_3D('',#2136,#1780,#1781);
#1462=AXIS2_PLACEMENT_3D('',#2137,#1782,#1783);
#1463=AXIS2_PLACEMENT_3D('',#2138,#1784,#1785);
#1464=AXIS2_PLACEMENT_3D('',#2139,#1786,#1787);
#1465=AXIS2_PLACEMENT_3D('',#2140,#1788,#1789);
#1466=AXIS2_PLACEMENT_3D('',#2141,#1790,#1791);
#1467=AXIS2_PLACEMENT_3D('',#2142,#1792,#1793);
#1468=AXIS2_PLACEMENT_3D('',#2143,#1794,#1795);
#1469=AXIS2_PLACEMENT_3D('',#2144,#1796,#1797);
#1470=AXIS2_PLACEMENT_3D('',#2145,#1798,#1799);
#1471=AXIS2_PLACEMENT_3D('',#2146,#1800,#1801);
#1472=DIRECTION('',(0.,0.,1.));
#1473=DIRECTION('',(1.,0.,0.));
#1474=DIRECTION('',(0.,0.,-1.));
#1475=DIRECTION('',(1.,0.,0.));
#1476=DIRECTION('',(1.20466908053945E-16,-1.,0.));
#1477=DIRECTION('',(1.,1.20466908053945E-16,0.));
#1478=DIRECTION('',(1.20466908053945E-16,-1.,0.));
#1479=DIRECTION('',(-1.,-1.20466908053945E-16,0.));
#1480=DIRECTION('',(-1.20466908053945E-16,1.,0.));
#1481=DIRECTION('',(-1.,-1.20466908053945E-16,0.));
#1482=DIRECTION('',(1.20466908053945E-16,-1.,0.));
#1483=DIRECTION('',(1.,1.20466908053945E-16,0.));
#1484=DIRECTION('',(0.,0.,1.));
#1485=DIRECTION('',(1.,1.20466908053945E-16,0.));
#1486=DIRECTION('',(0.,0.,1.));
#1487=DIRECTION('',(-1.,-1.20466908053945E-16,0.));
#1488=DIRECTION('',(-1.20466908053945E-16,1.,0.));
#1489=DIRECTION('',(-1.,-1.20466908053945E-16,0.));
#1490=DIRECTION('',(-1.20466908053945E-16,1.,0.));
#1491=DIRECTION('',(-1.,-1.20466908053945E-16,0.));
#1492=DIRECTION('',(0.,0.,1.));
#1493=DIRECTION('',(-1.,-1.20466908053945E-16,0.));
#1494=DIRECTION('',(0.,0.,1.));
#1495=DIRECTION('',(-1.,-1.20466908053945E-16,0.));
#1496=DIRECTION('',(0.,1.,0.));
#1497=DIRECTION('',(0.,0.,1.));
#1498=DIRECTION('',(0.,1.,0.));
#1499=DIRECTION('',(0.,0.,1.));
#1500=DIRECTION('',(0.,0.,1.));
#1501=DIRECTION('',(-1.,0.,0.));
#1502=DIRECTION('',(0.,0.,1.));
#1503=DIRECTION('',(-1.,0.,0.));
#1504=DIRECTION('',(0.,0.,-1.));
#1505=DIRECTION('',(1.,0.,0.));
#1506=DIRECTION('',(0.,1.,0.));
#1507=DIRECTION('',(1.,0.,0.));
#1508=DIRECTION('',(0.,1.,0.));
#1509=DIRECTION('',(-1.,0.,0.));
#1510=DIRECTION('',(0.,0.,-1.));
#1511=DIRECTION('',(1.,0.,0.));
#1512=DIRECTION('',(0.,1.,0.));
#1513=DIRECTION('',(1.,0.,0.));
#1514=DIRECTION('',(0.,1.,0.));
#1515=DIRECTION('',(-1.,0.,0.));
#1516=DIRECTION('',(0.,1.,0.));
#1517=DIRECTION('',(0.,0.,1.));
#1518=DIRECTION('',(0.,1.,0.));
#1519=DIRECTION('',(0.,0.,1.));
#1520=DIRECTION('',(0.,0.,1.));
#1521=DIRECTION('',(1.,0.,0.));
#1522=DIRECTION('',(0.,0.,1.));
#1523=DIRECTION('',(-1.,0.,0.));
#1524=DIRECTION('',(0.,1.,0.));
#1525=DIRECTION('',(0.,0.,1.));
#1526=DIRECTION('',(0.,1.,0.));
#1527=DIRECTION('',(0.,0.,1.));
#1528=DIRECTION('',(0.,0.,1.));
#1529=DIRECTION('',(-1.,0.,0.));
#1530=DIRECTION('',(0.,0.,1.));
#1531=DIRECTION('',(-1.,0.,0.));
#1532=DIRECTION('',(0.,1.,0.));
#1533=DIRECTION('',(0.,0.,1.));
#1534=DIRECTION('',(0.,-1.,0.));
#1535=DIRECTION('',(0.,0.,-1.));
#1536=DIRECTION('',(0.,0.,1.));
#1537=DIRECTION('',(1.,0.,0.));
#1538=DIRECTION('',(0.,0.,1.));
#1539=DIRECTION('',(-1.,0.,0.));
#1540=DIRECTION('',(0.,0.,-1.));
#1541=DIRECTION('',(1.,0.,0.));
#1542=DIRECTION('',(1.,0.,0.));
#1543=DIRECTION('',(-1.83697019872103E-16,1.,0.));
#1544=DIRECTION('',(1.,0.,0.));
#1545=DIRECTION('',(1.72095582934207E-16,-1.,0.));
#1546=DIRECTION('',(-1.,0.,0.));
#1547=DIRECTION('',(0.,0.,1.));
#1548=DIRECTION('',(1.,0.,0.));
#1549=DIRECTION('',(0.,0.,-1.));
#1550=DIRECTION('',(0.,0.,1.));
#1551=DIRECTION('',(0.,1.,0.));
#1552=DIRECTION('',(0.,0.,1.));
#1553=DIRECTION('',(0.,-1.,0.));
#1554=DIRECTION('',(0.,0.,-1.));
#1555=DIRECTION('',(1.,0.,0.));
#1556=DIRECTION('',(1.,0.,0.));
#1557=DIRECTION('',(0.,1.,0.));
#1558=DIRECTION('',(1.,0.,0.));
#1559=DIRECTION('',(0.,-1.,0.));
#1560=DIRECTION('',(1.,1.72095582934207E-16,0.));
#1561=DIRECTION('',(-1.72095582934207E-16,1.,0.));
#1562=DIRECTION('',(1.,1.72095582934207E-16,0.));
#1563=DIRECTION('',(-1.72095582934207E-16,1.,0.));
#1564=DIRECTION('',(0.,0.,1.));
#1565=DIRECTION('',(-1.72095582934207E-16,1.,0.));
#1566=DIRECTION('',(0.,0.,1.));
#1567=DIRECTION('',(-1.72095582934207E-16,1.,0.));
#1568=DIRECTION('',(1.,1.83697019872103E-16,0.));
#1569=DIRECTION('',(-1.83697019872103E-16,1.,0.));
#1570=DIRECTION('',(1.,1.83697019872103E-16,0.));
#1571=DIRECTION('',(-1.83697019872103E-16,1.,0.));
#1572=DIRECTION('',(0.,0.,1.));
#1573=DIRECTION('',(1.83697019872103E-16,-1.,0.));
#1574=DIRECTION('',(0.,0.,1.));
#1575=DIRECTION('',(-1.83697019872103E-16,1.,0.));
#1576=DIRECTION('',(-1.,0.,0.));
#1577=DIRECTION('',(0.,0.,1.));
#1578=DIRECTION('',(-1.,0.,0.));
#1579=DIRECTION('',(0.,0.,1.));
#1580=DIRECTION('',(0.,0.,1.));
#1581=DIRECTION('',(0.,-1.,0.));
#1582=DIRECTION('',(0.,0.,1.));
#1583=DIRECTION('',(0.,-1.,0.));
#1584=DIRECTION('',(1.,0.,0.));
#1585=DIRECTION('',(0.,0.,-1.));
#1586=DIRECTION('',(0.,-1.,0.));
#1587=DIRECTION('',(0.,0.,-1.));
#1588=DIRECTION('',(0.,-1.,0.));
#1589=DIRECTION('',(0.,0.,-1.));
#1590=DIRECTION('',(0.,-1.,0.));
#1591=DIRECTION('',(0.,0.,-1.));
#1592=DIRECTION('',(-1.,0.,0.));
#1593=DIRECTION('',(0.,0.,-1.));
#1594=DIRECTION('',(-1.,0.,0.));
#1595=DIRECTION('',(0.,0.,-1.));
#1596=DIRECTION('',(1.,0.,0.));
#1597=DIRECTION('',(0.,0.,-1.));
#1598=DIRECTION('',(0.,-1.,0.));
#1599=DIRECTION('',(0.,0.,-1.));
#1600=DIRECTION('',(0.,-1.,0.));
#1601=DIRECTION('',(0.,0.,-1.));
#1602=DIRECTION('',(0.,-1.,0.));
#1603=DIRECTION('',(0.,0.,-1.));
#1604=DIRECTION('',(-1.,0.,0.));
#1605=DIRECTION('',(0.,0.,-1.));
#1606=DIRECTION('',(-1.,0.,0.));
#1607=DIRECTION('',(0.,0.,-1.));
#1608=DIRECTION('',(0.,0.,1.));
#1609=DIRECTION('',(1.,0.,0.));
#1610=DIRECTION('',(0.,-1.,0.));
#1611=DIRECTION('',(-1.,0.,0.));
#1612=DIRECTION('',(0.,-1.,0.));
#1613=DIRECTION('',(-1.,0.,0.));
#1614=DIRECTION('',(0.,0.,1.));
#1615=DIRECTION('',(1.,0.,0.));
#1616=DIRECTION('',(0.,-1.,0.));
#1617=DIRECTION('',(0.,-1.,0.));
#1618=DIRECTION('',(0.,1.,0.));
#1619=DIRECTION('',(0.,1.,0.));
#1620=DIRECTION('',(-1.,0.,0.));
#1621=DIRECTION('',(-1.,0.,0.));
#1622=DIRECTION('',(0.,-1.,0.));
#1623=DIRECTION('',(0.,-1.,0.));
#1624=DIRECTION('',(-1.,0.,0.));
#1625=DIRECTION('',(-1.,0.,0.));
#1626=DIRECTION('',(0.,0.,1.));
#1627=DIRECTION('',(1.,0.,0.));
#1628=DIRECTION('',(0.,0.,1.));
#1629=DIRECTION('',(1.,0.,0.));
#1630=DIRECTION('',(0.,0.,1.));
#1631=DIRECTION('',(1.,0.,0.));
#1632=DIRECTION('',(0.,0.,1.));
#1633=DIRECTION('',(1.,0.,0.));
#1634=DIRECTION('',(0.,1.,0.));
#1635=DIRECTION('',(0.,0.,1.));
#1636=DIRECTION('',(0.0995037190209989,0.,-0.995037190209989));
#1637=DIRECTION('',(1.,0.,0.));
#1638=DIRECTION('',(-0.0995037190209989,0.,-0.995037190209989));
#1639=DIRECTION('',(0.,1.,0.));
#1640=DIRECTION('',(0.,0.,1.));
#1641=DIRECTION('',(1.,0.,0.));
#1642=DIRECTION('',(-0.0995037190209989,0.,0.995037190209989));
#1643=DIRECTION('',(0.0995037190209989,0.,0.995037190209989));
#1644=DIRECTION('',(-1.,0.,0.));
#1645=DIRECTION('',(0.,0.,1.));
#1646=DIRECTION('',(0.,1.,0.));
#1647=DIRECTION('',(0.,-0.0995037190209992,-0.995037190209989));
#1648=DIRECTION('',(0.,0.0995037190209992,-0.995037190209989));
#1649=DIRECTION('',(-1.,0.,0.));
#1650=DIRECTION('',(0.,0.,1.));
#1651=DIRECTION('',(0.,0.0995037190209992,0.995037190209989));
#1652=DIRECTION('',(0.,1.,0.));
#1653=DIRECTION('',(0.,-0.0995037190209992,0.995037190209989));
#1654=DIRECTION('',(0.,1.,0.));
#1655=DIRECTION('',(0.,0.,1.));
#1656=DIRECTION('',(1.,0.,0.));
#1657=DIRECTION('',(0.0995037190209992,0.,-0.995037190209989));
#1658=DIRECTION('',(-0.0995037190209992,0.,-0.995037190209989));
#1659=DIRECTION('',(0.,1.,0.));
#1660=DIRECTION('',(0.,0.,1.));
#1661=DIRECTION('',(-0.0995037190209992,0.,0.995037190209989));
#1662=DIRECTION('',(1.,0.,0.));
#1663=DIRECTION('',(0.0995037190209992,0.,0.995037190209989));
#1664=DIRECTION('',(1.,0.,0.));
#1665=DIRECTION('',(0.,0.,-1.));
#1666=DIRECTION('',(1.20466908053945E-16,-1.,0.));
#1667=DIRECTION('',(0.,-0.0995037190209989,-0.995037190209989));
#1668=DIRECTION('',(0.,0.0995037190209989,-0.995037190209989));
#1669=DIRECTION('',(1.,0.,0.));
#1670=DIRECTION('',(0.,0.,-1.));
#1671=DIRECTION('',(0.,0.0995037190209989,0.995037190209989));
#1672=DIRECTION('',(1.20466908053945E-16,-1.,0.));
#1673=DIRECTION('',(0.,-0.0995037190209989,0.995037190209989));
#1674=DIRECTION('',(-1.,0.,0.));
#1675=DIRECTION('',(0.,0.,1.));
#1676=DIRECTION('',(0.,1.,0.));
#1677=DIRECTION('',(0.,-0.0995037190209992,-0.995037190209989));
#1678=DIRECTION('',(0.,0.0995037190209992,-0.995037190209989));
#1679=DIRECTION('',(-1.,0.,0.));
#1680=DIRECTION('',(0.,0.,1.));
#1681=DIRECTION('',(0.,0.0995037190209992,0.995037190209989));
#1682=DIRECTION('',(0.,1.,0.));
#1683=DIRECTION('',(0.,-0.0995037190209992,0.995037190209989));
#1684=DIRECTION('',(0.,-0.766044443118978,0.642787609686539));
#1685=DIRECTION('',(0.,-0.642787609686539,-0.766044443118978));
#1686=DIRECTION('',(0.0763806620715672,-0.640909853733283,-0.76380662071567));
#1687=DIRECTION('',(-0.0763806620715672,-0.640909853733283,-0.76380662071567));
#1688=DIRECTION('',(0.,-0.766044443118978,-0.642787609686539));
#1689=DIRECTION('',(0.,0.642787609686539,-0.766044443118978));
#1690=DIRECTION('',(-0.0763806620715672,-0.640909853733283,0.76380662071567));
#1691=DIRECTION('',(0.0763806620715672,-0.640909853733283,0.76380662071567));
#1692=DIRECTION('',(0.,-0.766044443118978,0.642787609686539));
#1693=DIRECTION('',(0.,-0.642787609686539,-0.766044443118978));
#1694=DIRECTION('',(-0.0763806620715671,0.640909853733283,0.76380662071567));
#1695=DIRECTION('',(0.0763806620715668,0.640909853733283,0.76380662071567));
#1696=DIRECTION('',(0.,-0.766044443118978,-0.642787609686539));
#1697=DIRECTION('',(0.,0.642787609686539,-0.766044443118978));
#1698=DIRECTION('',(0.0763806620715669,0.640909853733283,-0.76380662071567));
#1699=DIRECTION('',(-0.0763806620715671,0.640909853733283,-0.76380662071567));
#1700=DIRECTION('',(0.766044443118978,0.,0.642787609686539));
#1701=DIRECTION('',(0.642787609686539,0.,-0.766044443118978));
#1702=DIRECTION('',(-0.640909853733283,0.0763806620715672,0.76380662071567));
#1703=DIRECTION('',(-0.640909853733283,-0.0763806620715672,0.76380662071567));
#1704=DIRECTION('',(0.766044443118978,0.,-0.642787609686539));
#1705=DIRECTION('',(-0.642787609686539,0.,-0.766044443118978));
#1706=DIRECTION('',(-0.640909853733283,-0.0763806620715672,-0.76380662071567));
#1707=DIRECTION('',(-0.640909853733283,0.0763806620715672,-0.76380662071567));
#1708=DIRECTION('',(0.766044443118978,0.,0.642787609686539));
#1709=DIRECTION('',(0.642787609686539,0.,-0.766044443118978));
#1710=DIRECTION('',(-0.640909853733283,0.0763806620715672,0.76380662071567));
#1711=DIRECTION('',(-0.640909853733283,-0.0763806620715672,0.76380662071567));
#1712=DIRECTION('',(0.766044443118978,0.,-0.642787609686539));
#1713=DIRECTION('',(-0.642787609686539,0.,-0.766044443118978));
#1714=DIRECTION('',(-0.640909853733283,-0.0763806620715672,-0.76380662071567));
#1715=DIRECTION('',(-0.640909853733283,0.0763806620715672,-0.76380662071567));
#1716=DIRECTION('',(1.20466908053945E-16,-1.,0.));
#1717=DIRECTION('',(1.,1.20466908053945E-16,0.));
#1718=DIRECTION('',(-0.766044443118978,-9.22830054944494E-17,0.64278760968654));
#1719=DIRECTION('',(0.64278760968654,0.,0.766044443118978));
#1720=DIRECTION('',(-0.640909853733283,-0.076380662071567,-0.76380662071567));
#1721=DIRECTION('',(-0.640909853733283,0.0763806620715669,-0.76380662071567));
#1722=DIRECTION('',(-0.766044443118978,-9.22830054944494E-17,-0.642787609686539));
#1723=DIRECTION('',(-0.642787609686539,0.,0.766044443118978));
#1724=DIRECTION('',(-0.640909853733283,0.0763806620715669,0.76380662071567));
#1725=DIRECTION('',(-0.640909853733283,-0.0763806620715671,0.76380662071567));
#1726=DIRECTION('',(1.,0.,0.));
#1727=DIRECTION('',(0.,0.,-1.));
#1728=DIRECTION('',(1.,0.,0.));
#1729=DIRECTION('',(0.,0.,-1.));
#1730=DIRECTION('',(0.,1.,0.));
#1731=DIRECTION('',(0.,0.,1.));
#1732=DIRECTION('',(0.,-1.,0.));
#1733=DIRECTION('',(0.,0.,-1.));
#1734=DIRECTION('',(0.,0.,1.));
#1735=DIRECTION('',(1.,0.,0.));
#1736=DIRECTION('',(0.,0.,1.));
#1737=DIRECTION('',(1.,0.,0.));
#1738=DIRECTION('',(0.,-1.,0.));
#1739=DIRECTION('',(0.,0.,-1.));
#1740=DIRECTION('',(0.,-1.,0.));
#1741=DIRECTION('',(0.,0.,-1.));
#1742=DIRECTION('',(0.,1.,0.));
#1743=DIRECTION('',(0.,0.,1.));
#1744=DIRECTION('',(0.,0.,-1.));
#1745=DIRECTION('',(-1.,0.,0.));
#1746=DIRECTION('',(0.,0.,1.));
#1747=DIRECTION('',(1.,0.,0.));
#1748=DIRECTION('',(1.,0.,0.));
#1749=DIRECTION('',(0.,0.,-1.));
#1750=DIRECTION('',(1.,0.,0.));
#1751=DIRECTION('',(0.,0.,-1.));
#1752=DIRECTION('',(1.,0.,0.));
#1753=DIRECTION('',(0.,0.,-1.));
#1754=DIRECTION('',(1.,0.,0.));
#1755=DIRECTION('',(0.,0.,-1.));
#1756=DIRECTION('',(0.,0.,-1.));
#1757=DIRECTION('',(-1.,0.,0.));
#1758=DIRECTION('',(0.,0.,1.));
#1759=DIRECTION('',(1.,0.,0.));
#1760=DIRECTION('',(1.,0.,0.));
#1761=DIRECTION('',(0.,0.,-1.));
#1762=DIRECTION('',(-1.,0.,0.));
#1763=DIRECTION('',(0.,0.,1.));
#1764=DIRECTION('',(-1.,0.,0.));
#1765=DIRECTION('',(0.,0.,1.));
#1766=DIRECTION('',(-1.,0.,0.));
#1767=DIRECTION('',(0.,0.,1.));
#1768=DIRECTION('',(0.,0.,1.));
#1769=DIRECTION('',(1.,0.,0.));
#1770=DIRECTION('',(0.,0.,1.));
#1771=DIRECTION('',(1.,0.,0.));
#1772=DIRECTION('',(0.,1.,0.));
#1773=DIRECTION('',(0.,0.,1.));
#1774=DIRECTION('',(0.,1.,0.));
#1775=DIRECTION('',(0.,0.,1.));
#1776=DIRECTION('',(0.,-1.,0.));
#1777=DIRECTION('',(0.,0.,-1.));
#1778=DIRECTION('',(0.,-1.,0.));
#1779=DIRECTION('',(0.,0.,-1.));
#1780=DIRECTION('',(0.,1.,0.));
#1781=DIRECTION('',(0.,0.,1.));
#1782=DIRECTION('',(0.,-0.995037190209989,-0.0995037190209992));
#1783=DIRECTION('',(1.,0.,0.));
#1784=DIRECTION('',(0.,-0.995037190209989,-0.0995037190209992));
#1785=DIRECTION('',(1.,0.,0.));
#1786=DIRECTION('',(0.995037190209989,0.,0.0995037190209992));
#1787=DIRECTION('',(0.,-1.,0.));
#1788=DIRECTION('',(0.995037190209989,0.,-0.0995037190209992));
#1789=DIRECTION('',(0.,1.,0.));
#1790=DIRECTION('',(-0.995037190209989,-1.82785366503486E-16,-0.0995037190209989));
#1791=DIRECTION('',(1.83697019872103E-16,-1.,0.));
#1792=DIRECTION('',(-0.995037190209989,-1.71241505290403E-16,0.0995037190209989));
#1793=DIRECTION('',(-1.72095582934207E-16,1.,0.));
#1794=DIRECTION('',(1.19869053703282E-16,-0.995037190209989,0.0995037190209989));
#1795=DIRECTION('',(-1.,-1.20466908053945E-16,0.));
#1796=DIRECTION('',(1.19869053703282E-16,-0.995037190209989,-0.0995037190209989));
#1797=DIRECTION('',(1.,1.20466908053945E-16,0.));
#1798=DIRECTION('',(0.,-0.995037190209989,0.0995037190209992));
#1799=DIRECTION('',(-1.,0.,0.));
#1800=DIRECTION('',(0.,-0.995037190209989,0.0995037190209992));
#1801=DIRECTION('',(-1.,0.,0.));
#1802=CARTESIAN_POINT('',(0.,0.,0.));
#1803=CARTESIAN_POINT('',(0.,0.,-0.011));
#1804=CARTESIAN_POINT('',(-0.01135,0.0491680467734555,-0.011));
#1805=CARTESIAN_POINT('',(-0.01135,0.000199999999999992,-0.011));
#1806=CARTESIAN_POINT('',(-0.01135,-0.0002,-0.011));
#1807=CARTESIAN_POINT('',(-2.40933816107885E-20,0.000199999999999996,-0.011));
#1808=CARTESIAN_POINT('',(-0.00655,0.000199999999999992,-0.011));
#1809=CARTESIAN_POINT('',(-0.00655,0.0491680467734555,-0.011));
#1810=CARTESIAN_POINT('',(-0.00655,-0.0002,-0.011));
#1811=CARTESIAN_POINT('',(-0.01135,-0.0002,-0.011));
#1812=CARTESIAN_POINT('',(-0.00895,-0.0004,-0.011));
#1813=CARTESIAN_POINT('',(-0.00895,-0.0004,-0.007));
#1814=CARTESIAN_POINT('',(-0.0081,-0.0004,-0.007));
#1815=CARTESIAN_POINT('',(-0.0121,-0.0004,-0.011));
#1816=CARTESIAN_POINT('',(-0.0121,-0.0004,-0.009));
#1817=CARTESIAN_POINT('',(-0.0121,-0.0004,0.));
#1818=CARTESIAN_POINT('',(-0.00655,-0.0004,-0.009));
#1819=CARTESIAN_POINT('',(-0.0058,-0.0004,-0.009));
#1820=CARTESIAN_POINT('',(-0.0058,-0.0004,-0.011));
#1821=CARTESIAN_POINT('',(-0.0058,-0.0004,0.));
#1822=CARTESIAN_POINT('',(-0.00895,-0.0004,0.));
#1823=CARTESIAN_POINT('',(-0.00895,0.000399999999999995,-0.011));
#1824=CARTESIAN_POINT('',(-0.00895,0.0004,-0.007));
#1825=CARTESIAN_POINT('',(-0.0098,0.0004,-0.007));
#1826=CARTESIAN_POINT('',(-0.0058,0.000399999999999995,-0.011));
#1827=CARTESIAN_POINT('',(-0.0058,0.000399999999999995,-0.009));
#1828=CARTESIAN_POINT('',(-0.0058,0.000399999999999995,0.));
#1829=CARTESIAN_POINT('',(-0.00895,0.000399999999999995,-0.009));
#1830=CARTESIAN_POINT('',(-0.0121,0.0004,-0.009));
#1831=CARTESIAN_POINT('',(-0.0121,0.0004,-0.011));
#1832=CARTESIAN_POINT('',(-0.0121,0.0004,0.));
#1833=CARTESIAN_POINT('',(-0.00895,0.000399999999999995,0.));
#1834=CARTESIAN_POINT('',(0.,0.0088,-0.011));
#1835=CARTESIAN_POINT('',(1.0842021724855E-19,0.0088,-0.007));
#1836=CARTESIAN_POINT('',(1.0842021724855E-19,0.0088,-0.00615));
#1837=CARTESIAN_POINT('',(0.00315,0.0088,-0.011));
#1838=CARTESIAN_POINT('',(0.00315,0.0088,-0.009));
#1839=CARTESIAN_POINT('',(0.00315,0.0088,0.));
#1840=CARTESIAN_POINT('',(0.,0.0088,-0.009));
#1841=CARTESIAN_POINT('',(-0.00315,0.0088,-0.009));
#1842=CARTESIAN_POINT('',(-0.00315,0.0088,-0.011));
#1843=CARTESIAN_POINT('',(-0.00315,0.0088,0.));
#1844=CARTESIAN_POINT('',(0.,0.0088,0.));
#1845=CARTESIAN_POINT('',(0.,0.,-0.011));
#1846=CARTESIAN_POINT('',(-0.0024,-0.0162,-0.011));
#1847=CARTESIAN_POINT('',(-0.0024,0.0082,-0.011));
#1848=CARTESIAN_POINT('',(-0.0024,0.0086,-0.011));
#1849=CARTESIAN_POINT('',(0.,0.0086,-0.011));
#1850=CARTESIAN_POINT('',(0.0024,0.0086,-0.011));
#1851=CARTESIAN_POINT('',(0.0024,-0.0162,-0.011));
#1852=CARTESIAN_POINT('',(0.0024,0.0082,-0.011));
#1853=CARTESIAN_POINT('',(-0.0024,0.0082,-0.011));
#1854=CARTESIAN_POINT('',(0.,0.,-0.011));
#1855=CARTESIAN_POINT('',(-0.0024,-0.0162,-0.011));
#1856=CARTESIAN_POINT('',(-0.0024,-0.0086,-0.011));
#1857=CARTESIAN_POINT('',(-0.0024,-0.0082,-0.011));
#1858=CARTESIAN_POINT('',(0.,-0.0082,-0.011));
#1859=CARTESIAN_POINT('',(0.0024,-0.0082,-0.011));
#1860=CARTESIAN_POINT('',(0.0024,-0.0162,-0.011));
#1861=CARTESIAN_POINT('',(0.0024,-0.0086,-0.011));
#1862=CARTESIAN_POINT('',(-0.0024,-0.0086,-0.011));
#1863=CARTESIAN_POINT('',(0.,0.008,-0.011));
#1864=CARTESIAN_POINT('',(1.0842021724855E-19,0.008,-0.007));
#1865=CARTESIAN_POINT('',(1.0842021724855E-19,0.008,-0.00615));
#1866=CARTESIAN_POINT('',(-0.00315,0.008,-0.011));
#1867=CARTESIAN_POINT('',(-0.00315,0.008,-0.009));
#1868=CARTESIAN_POINT('',(-0.00315,0.008,0.));
#1869=CARTESIAN_POINT('',(0.0024,0.008,-0.009));
#1870=CARTESIAN_POINT('',(0.00315,0.008,-0.009));
#1871=CARTESIAN_POINT('',(0.00315,0.008,-0.011));
#1872=CARTESIAN_POINT('',(0.00315,0.008,0.));
#1873=CARTESIAN_POINT('',(0.,0.008,0.));
#1874=CARTESIAN_POINT('',(-6.50521303491303E-18,-0.008,-0.011));
#1875=CARTESIAN_POINT('',(-1.0842021724855E-19,-0.008,-0.007));
#1876=CARTESIAN_POINT('',(-1.0842021724855E-19,-0.008,-0.00615));
#1877=CARTESIAN_POINT('',(0.00315,-0.008,-0.011));
#1878=CARTESIAN_POINT('',(0.00315,-0.008,-0.009));
#1879=CARTESIAN_POINT('',(0.00315,-0.008,0.));
#1880=CARTESIAN_POINT('',(-6.50521303491303E-18,-0.008,-0.009));
#1881=CARTESIAN_POINT('',(-0.00315,-0.008,-0.009));
#1882=CARTESIAN_POINT('',(-0.00315,-0.008,-0.011));
#1883=CARTESIAN_POINT('',(-0.00315,-0.008,0.));
#1884=CARTESIAN_POINT('',(-6.50521303491303E-18,-0.008,0.));
#1885=CARTESIAN_POINT('',(-6.50521303491303E-18,-0.0088,-0.011));
#1886=CARTESIAN_POINT('',(-1.0842021724855E-19,-0.0088,-0.007));
#1887=CARTESIAN_POINT('',(-1.0842021724855E-19,-0.0088,-0.00785));
#1888=CARTESIAN_POINT('',(-0.00315,-0.0088,-0.011));
#1889=CARTESIAN_POINT('',(-0.00315,-0.0088,-0.009));
#1890=CARTESIAN_POINT('',(-0.00315,-0.0088,0.));
#1891=CARTESIAN_POINT('',(0.0024,-0.0088,-0.009));
#1892=CARTESIAN_POINT('',(0.00315,-0.0088,-0.009));
#1893=CARTESIAN_POINT('',(0.00315,-0.0088,-0.011));
#1894=CARTESIAN_POINT('',(0.00315,-0.0088,0.));
#1895=CARTESIAN_POINT('',(-6.50521303491303E-18,-0.0088,0.));
#1896=CARTESIAN_POINT('',(0.,0.,-0.011));
#1897=CARTESIAN_POINT('',(-0.0402180467734555,-0.0024,-0.011));
#1898=CARTESIAN_POINT('',(0.0002,-0.0024,-0.011));
#1899=CARTESIAN_POINT('',(0.0006,-0.0024,-0.011));
#1900=CARTESIAN_POINT('',(0.0002,0.0024,-0.011));
#1901=CARTESIAN_POINT('',(0.0002,0.0024,-0.011));
#1902=CARTESIAN_POINT('',(-0.0402180467734555,0.0024,-0.011));
#1903=CARTESIAN_POINT('',(0.0006,0.0024,-0.011));
#1904=CARTESIAN_POINT('',(0.0006,1.03257349760524E-19,-0.011));
#1905=CARTESIAN_POINT('',(0.00935,-3.46944695195361E-18,-0.011));
#1906=CARTESIAN_POINT('',(0.00935,-2.16840434497101E-19,-0.007));
#1907=CARTESIAN_POINT('',(0.00935,-2.16840434497101E-19,-0.00785));
#1908=CARTESIAN_POINT('',(0.00935,-0.00315,-0.011));
#1909=CARTESIAN_POINT('',(0.00935,-0.00315,-0.009));
#1910=CARTESIAN_POINT('',(0.00935,-0.00315,0.));
#1911=CARTESIAN_POINT('',(0.00935,0.0024,-0.009));
#1912=CARTESIAN_POINT('',(0.00935,0.00315,-0.009));
#1913=CARTESIAN_POINT('',(0.00935,0.00315,-0.011));
#1914=CARTESIAN_POINT('',(0.00935,0.00315,0.));
#1915=CARTESIAN_POINT('',(0.00935,-3.46944695195361E-18,0.));
#1916=CARTESIAN_POINT('',(0.,0.,-0.011));
#1917=CARTESIAN_POINT('',(-0.0402180467734555,-0.0024,-0.011));
#1918=CARTESIAN_POINT('',(0.00875,-0.0024,-0.011));
#1919=CARTESIAN_POINT('',(0.00915,-0.0024,-0.011));
#1920=CARTESIAN_POINT('',(0.00875,0.,-0.011));
#1921=CARTESIAN_POINT('',(0.00875,0.0024,-0.011));
#1922=CARTESIAN_POINT('',(-0.0402180467734555,0.0024,-0.011));
#1923=CARTESIAN_POINT('',(0.00915,0.0024,-0.011));
#1924=CARTESIAN_POINT('',(0.00915,-0.0024,-0.011));
#1925=CARTESIAN_POINT('',(0.0008,0.,-0.011));
#1926=CARTESIAN_POINT('',(0.0008,-2.16840434497101E-19,-0.007));
#1927=CARTESIAN_POINT('',(0.0008,0.00085,-0.007));
#1928=CARTESIAN_POINT('',(0.0008,-0.00315,-0.011));
#1929=CARTESIAN_POINT('',(0.0008,-0.00315,-0.009));
#1930=CARTESIAN_POINT('',(0.0008,-0.00315,0.));
#1931=CARTESIAN_POINT('',(0.0008,0.,-0.009));
#1932=CARTESIAN_POINT('',(0.0008,0.00315,-0.009));
#1933=CARTESIAN_POINT('',(0.0008,0.00315,-0.011));
#1934=CARTESIAN_POINT('',(0.0008,0.00315,0.));
#1935=CARTESIAN_POINT('',(0.0008,0.,0.));
#1936=CARTESIAN_POINT('',(-6.13905075883637E-20,-4.33680868994202E-19,-0.011));
#1937=CARTESIAN_POINT('',(-6.14098886759368E-20,-2.16840434497101E-19,-0.007));
#1938=CARTESIAN_POINT('',(-2.17552355567224E-19,0.00085,-0.007));
#1939=CARTESIAN_POINT('',(-6.40036120185488E-19,0.00315,-0.011));
#1940=CARTESIAN_POINT('',(-6.40036120185488E-19,0.00315,-0.009));
#1941=CARTESIAN_POINT('',(-6.40036120185488E-19,0.00315,0.));
#1942=CARTESIAN_POINT('',(3.79482340104683E-19,-0.0024,-0.009));
#1943=CARTESIAN_POINT('',(5.17255105008761E-19,-0.00315,-0.009));
#1944=CARTESIAN_POINT('',(5.17255105008761E-19,-0.00315,-0.011));
#1945=CARTESIAN_POINT('',(5.17255105008761E-19,-0.00315,0.));
#1946=CARTESIAN_POINT('',(-6.13905075883637E-20,-4.33680868994202E-19,0.));
#1947=CARTESIAN_POINT('',(0.00855,-3.46944695195361E-18,-0.011));
#1948=CARTESIAN_POINT('',(0.00855,-2.16840434497101E-19,-0.007));
#1949=CARTESIAN_POINT('',(0.00855,-2.16840434497101E-19,-0.00615));
#1950=CARTESIAN_POINT('',(0.00855,0.00315,-0.011));
#1951=CARTESIAN_POINT('',(0.00855,0.00315,-0.009));
#1952=CARTESIAN_POINT('',(0.00855,0.00315,0.));
#1953=CARTESIAN_POINT('',(0.00855,-3.46944695195361E-18,-0.009));
#1954=CARTESIAN_POINT('',(0.00855,-0.00315,-0.009));
#1955=CARTESIAN_POINT('',(0.00855,-0.00315,-0.011));
#1956=CARTESIAN_POINT('',(0.00855,-0.00315,0.));
#1957=CARTESIAN_POINT('',(0.00855,-3.46944695195361E-18,0.));
#1958=CARTESIAN_POINT('',(0.013,0.,0.025));
#1959=CARTESIAN_POINT('',(0.013,0.,0.));
#1960=CARTESIAN_POINT('',(0.013,0.0095,0.));
#1961=CARTESIAN_POINT('',(0.013,-0.0095,0.));
#1962=CARTESIAN_POINT('',(0.013,0.0095,0.025));
#1963=CARTESIAN_POINT('',(0.013,0.0095,0.0235));
#1964=CARTESIAN_POINT('',(0.013,0.,0.0235));
#1965=CARTESIAN_POINT('',(0.013,-0.0095,0.0235));
#1966=CARTESIAN_POINT('',(0.013,-0.0095,0.025));
#1967=CARTESIAN_POINT('',(0.,0.011,0.025));
#1968=CARTESIAN_POINT('',(0.013,0.011,0.0235));
#1969=CARTESIAN_POINT('',(-0.0115,0.011,0.0235));
#1970=CARTESIAN_POINT('',(0.0115,0.011,0.0235));
#1971=CARTESIAN_POINT('',(0.0115,0.011,0.));
#1972=CARTESIAN_POINT('',(0.0115,0.011,0.));
#1973=CARTESIAN_POINT('',(0.,0.011,0.));
#1974=CARTESIAN_POINT('',(-0.0115,0.011,0.));
#1975=CARTESIAN_POINT('',(-0.0115,0.011,0.025));
#1976=CARTESIAN_POINT('',(-0.013,0.,0.025));
#1977=CARTESIAN_POINT('',(-0.013,0.011,0.0235));
#1978=CARTESIAN_POINT('',(-0.013,-0.0095,0.0235));
#1979=CARTESIAN_POINT('',(-0.013,0.0095,0.0235));
#1980=CARTESIAN_POINT('',(-0.013,0.0095,0.025));
#1981=CARTESIAN_POINT('',(-0.013,0.0095,0.));
#1982=CARTESIAN_POINT('',(-0.013,0.,0.));
#1983=CARTESIAN_POINT('',(-0.013,-0.0095,0.));
#1984=CARTESIAN_POINT('',(-0.013,-0.0095,0.025));
#1985=CARTESIAN_POINT('',(1.7347234759768E-18,-0.011,0.025));
#1986=CARTESIAN_POINT('',(1.7347234759768E-18,-0.011,0.));
#1987=CARTESIAN_POINT('',(0.0115,-0.011,0.));
#1988=CARTESIAN_POINT('',(-0.0115,-0.011,0.));
#1989=CARTESIAN_POINT('',(0.0115,-0.011,0.025));
#1990=CARTESIAN_POINT('',(0.0115,-0.011,0.0235));
#1991=CARTESIAN_POINT('',(1.7347234759768E-18,-0.011,0.0235));
#1992=CARTESIAN_POINT('',(-0.0115,-0.011,0.0235));
#1993=CARTESIAN_POINT('',(-0.0115,-0.011,0.));
#1994=CARTESIAN_POINT('',(0.,0.,0.025));
#1995=CARTESIAN_POINT('',(-0.0115,-0.011,0.025));
#1996=CARTESIAN_POINT('',(-0.0115,0.0095,0.025));
#1997=CARTESIAN_POINT('',(-0.0115,-0.0095,0.025));
#1998=CARTESIAN_POINT('',(0.,-0.0095,0.025));
#1999=CARTESIAN_POINT('',(0.0115,-0.0095,0.025));
#2000=CARTESIAN_POINT('',(0.0115,0.,0.025));
#2001=CARTESIAN_POINT('',(0.0115,0.0095,0.025));
#2002=CARTESIAN_POINT('',(-0.013,0.0095,0.025));
#2003=CARTESIAN_POINT('',(0.,0.,0.));
#2004=CARTESIAN_POINT('',(0.00315,-0.0084,0.));
#2005=CARTESIAN_POINT('',(-0.00315,-0.0084,0.));
#2006=CARTESIAN_POINT('',(-0.0058,1.62630325872825E-18,0.));
#2007=CARTESIAN_POINT('',(-0.0121,8.67361737988404E-19,0.));
#2008=CARTESIAN_POINT('',(0.00895,0.00315,0.));
#2009=CARTESIAN_POINT('',(0.00895,-0.00315,0.));
#2010=CARTESIAN_POINT('',(0.00315,0.0084,0.));
#2011=CARTESIAN_POINT('',(-0.00315,0.0084,0.));
#2012=CARTESIAN_POINT('',(0.0004,-0.00315,0.));
#2013=CARTESIAN_POINT('',(0.0004,0.00315,0.));
#2014=CARTESIAN_POINT('',(0.0115,0.0095,0.));
#2015=CARTESIAN_POINT('',(0.0115,-0.0095,0.));
#2016=CARTESIAN_POINT('',(-0.0115,-0.0095,0.));
#2017=CARTESIAN_POINT('',(-0.0115,0.0095,0.));
#2018=CARTESIAN_POINT('',(0.0004,-0.00315,-0.011));
#2019=CARTESIAN_POINT('',(0.0002,-0.00315,-0.011));
#2020=CARTESIAN_POINT('',(0.000110618480555442,-0.00315,-0.0101061848055543));
#2021=CARTESIAN_POINT('',(-0.0402180467734555,-0.00315,-0.0101061848055543));
#2022=CARTESIAN_POINT('',(0.000689381519444567,-0.00315,-0.0101061848055543));
#2023=CARTESIAN_POINT('',(0.0008,-0.00315,-0.009));
#2024=CARTESIAN_POINT('',(0.0004,0.00315,-0.011));
#2025=CARTESIAN_POINT('',(-0.0402180467734555,0.00315,-0.0101061848055543));
#2026=CARTESIAN_POINT('',(0.000110618480555442,0.00315,-0.0101061848055543));
#2027=CARTESIAN_POINT('',(0.000689381519444567,0.00315,-0.0101061848055543));
#2028=CARTESIAN_POINT('',(0.000201980198019801,0.00315,-0.011019801980198));
#2029=CARTESIAN_POINT('',(0.000598019801980198,0.00315,-0.011019801980198));
#2030=CARTESIAN_POINT('',(0.00315,0.0084,-0.011));
#2031=CARTESIAN_POINT('',(0.00315,-0.0162,-0.0101061848055543));
#2032=CARTESIAN_POINT('',(0.00315,0.00811061848055543,-0.0101061848055543));
#2033=CARTESIAN_POINT('',(0.00315,0.00868938151944456,-0.0101061848055543));
#2034=CARTESIAN_POINT('',(0.00315,0.0088,-0.009));
#2035=CARTESIAN_POINT('',(0.00315,0.0082,-0.011));
#2036=CARTESIAN_POINT('',(-0.00315,0.0084,-0.011));
#2037=CARTESIAN_POINT('',(-0.00315,0.0085980198019802,-0.011019801980198));
#2038=CARTESIAN_POINT('',(-0.00315,0.00868938151944456,-0.0101061848055543));
#2039=CARTESIAN_POINT('',(-0.00315,-0.0162,-0.0101061848055543));
#2040=CARTESIAN_POINT('',(-0.00315,0.00811061848055543,-0.0101061848055543));
#2041=CARTESIAN_POINT('',(-0.00315,0.0082019801980198,-0.011019801980198));
#2042=CARTESIAN_POINT('',(0.00895,0.00315,-0.011));
#2043=CARTESIAN_POINT('',(-0.0402180467734555,0.00315,-0.0101061848055543));
#2044=CARTESIAN_POINT('',(0.00866061848055543,0.00315,-0.0101061848055543));
#2045=CARTESIAN_POINT('',(0.00923938151944456,0.00315,-0.0101061848055543));
#2046=CARTESIAN_POINT('',(0.0087519801980198,0.00315,-0.011019801980198));
#2047=CARTESIAN_POINT('',(0.0091480198019802,0.00315,-0.011019801980198));
#2048=CARTESIAN_POINT('',(0.00895,-0.00315,-0.011));
#2049=CARTESIAN_POINT('',(0.00855,-0.00315,-0.009));
#2050=CARTESIAN_POINT('',(0.00866061848055542,-0.00315,-0.0101061848055543));
#2051=CARTESIAN_POINT('',(-0.0402180467734555,-0.00315,-0.0101061848055543));
#2052=CARTESIAN_POINT('',(0.00923938151944457,-0.00315,-0.0101061848055543));
#2053=CARTESIAN_POINT('',(0.00915,-0.00315,-0.011));
#2054=CARTESIAN_POINT('',(-0.0058,1.62630325872825E-18,-0.011));
#2055=CARTESIAN_POINT('',(-0.0058,0.0491680467734555,-0.0101061848055543));
#2056=CARTESIAN_POINT('',(-0.0058,0.000289381519444569,-0.0101061848055543));
#2057=CARTESIAN_POINT('',(-0.0058,-0.000289381519444562,-0.0101061848055543));
#2058=CARTESIAN_POINT('',(-0.0058,0.000198019801980193,-0.011019801980198));
#2059=CARTESIAN_POINT('',(-0.0058,-0.000198019801980197,-0.011019801980198));
#2060=CARTESIAN_POINT('',(-0.0121,8.67361737988404E-19,-0.011));
#2061=CARTESIAN_POINT('',(-0.0121,0.000399999999999994,-0.009));
#2062=CARTESIAN_POINT('',(-0.0121,0.000289381519444569,-0.0101061848055543));
#2063=CARTESIAN_POINT('',(-0.0121,0.0491680467734555,-0.0101061848055543));
#2064=CARTESIAN_POINT('',(-0.0121,-0.000289381519444562,-0.0101061848055543));
#2065=CARTESIAN_POINT('',(-0.0121,-0.0002,-0.011));
#2066=CARTESIAN_POINT('',(0.00315,-0.0084,-0.011));
#2067=CARTESIAN_POINT('',(0.00315,-0.0162,-0.0101061848055543));
#2068=CARTESIAN_POINT('',(0.00315,-0.00868938151944457,-0.0101061848055543));
#2069=CARTESIAN_POINT('',(0.00315,-0.00811061848055543,-0.0101061848055543));
#2070=CARTESIAN_POINT('',(0.00315,-0.008,-0.009));
#2071=CARTESIAN_POINT('',(0.00315,-0.0086,-0.011));
#2072=CARTESIAN_POINT('',(-0.00315,-0.0084,-0.011));
#2073=CARTESIAN_POINT('',(-0.00315,-0.0082019801980198,-0.011019801980198));
#2074=CARTESIAN_POINT('',(-0.00315,-0.00811061848055543,-0.0101061848055543));
#2075=CARTESIAN_POINT('',(-0.00315,-0.0162,-0.0101061848055543));
#2076=CARTESIAN_POINT('',(-0.00315,-0.00868938151944457,-0.0101061848055543));
#2077=CARTESIAN_POINT('',(-0.00315,-0.0085980198019802,-0.011019801980198));
#2078=CARTESIAN_POINT('',(-0.0402180467734555,0.002775,-0.0105530924027772));
#2079=CARTESIAN_POINT('',(0.0087496405736177,0.00240301594544825,-0.010996405736177));
#2080=CARTESIAN_POINT('',(0.00903251251450478,0.0014141629425302,-0.0121748748549521));
#2081=CARTESIAN_POINT('',(-0.0402180467734555,-0.002775,-0.0105530924027772));
#2082=CARTESIAN_POINT('',(0.00841989011033203,-0.00516995086668363,-0.00769890110332035));
#2083=CARTESIAN_POINT('',(0.00890641657528172,-0.000356092381579971,-0.0134358342471827));
#2084=CARTESIAN_POINT('',(-0.0402180467734555,0.002775,-0.0105530924027772));
#2085=CARTESIAN_POINT('',(0.000317487485495214,0.0014141629425302,-0.0121748748549521));
#2086=CARTESIAN_POINT('',(0.000600359426382302,0.00240301594544825,-0.010996405736177));
#2087=CARTESIAN_POINT('',(-0.0402180467734555,-0.002775,-0.0105530924027772));
#2088=CARTESIAN_POINT('',(-8.02291423138632E-5,-0.00475140169960692,-0.00819770857686133));
#2089=CARTESIAN_POINT('',(0.000406297322635821,-0.000774641548656675,-0.0129370267736418));
#2090=CARTESIAN_POINT('',(-0.002775,-0.0162,-0.0105530924027772));
#2091=CARTESIAN_POINT('',(-0.00240301594544825,-0.0081996405736177,-0.010996405736177));
#2092=CARTESIAN_POINT('',(-0.0014141629425302,-0.00848251251450479,-0.0121748748549521));
#2093=CARTESIAN_POINT('',(0.002775,-0.0162,-0.0105530924027772));
#2094=CARTESIAN_POINT('',(0.00238118729627235,-0.00820224201072538,-0.0110224201072538));
#2095=CARTESIAN_POINT('',(0.00314485595199124,-0.00868876847567508,-0.0101123152432492));
#2096=CARTESIAN_POINT('',(-0.002775,-0.0162,-0.0105530924027772));
#2097=CARTESIAN_POINT('',(-0.00240301594544825,0.0086003594263823,-0.010996405736177));
#2098=CARTESIAN_POINT('',(-0.0014141629425302,0.00831748748549522,-0.0121748748549521));
#2099=CARTESIAN_POINT('',(0.002775,-0.0162,-0.0105530924027772));
#2100=CARTESIAN_POINT('',(0.00155877489780585,0.00849974669622797,-0.0120025330377203));
#2101=CARTESIAN_POINT('',(0.00396726835045775,0.00801322023127828,-0.00913220231278278));
#2102=CARTESIAN_POINT('',(-0.00895,0.0491680467734555,-0.007));
#2103=CARTESIAN_POINT('',(-0.006175,0.0491680467734555,-0.0105530924027772));
#2104=CARTESIAN_POINT('',(-0.00654698405455175,0.000200359426382297,-0.010996405736177));
#2105=CARTESIAN_POINT('',(-0.00385948636398866,-0.000520642929164021,-0.00779357070835978));
#2106=CARTESIAN_POINT('',(-0.011725,0.0491680467734555,-0.0105530924027772));
#2107=CARTESIAN_POINT('',(-0.0141199508666836,0.000530109889667958,-0.00769890110332035));
#2108=CARTESIAN_POINT('',(-0.00930609238157998,4.35834247182812E-5,-0.0134358342471827));
#2109=CARTESIAN_POINT('',(-2.00000000000027E-6,-2.16840434497101E-19,-0.007));
#2110=CARTESIAN_POINT('',(-2.00000000000027E-6,-2.16840434497101E-19,-0.007));
#2111=CARTESIAN_POINT('',(1.0842021724855E-19,0.007998,-0.007));
#2112=CARTESIAN_POINT('',(-1.0842021724855E-19,-0.007998,-0.007));
#2113=CARTESIAN_POINT('',(0.0115,0.0095,0.025));
#2114=CARTESIAN_POINT('',(0.0115,0.0095,0.0235));
#2115=CARTESIAN_POINT('',(0.0115,0.,0.0235));
#2116=CARTESIAN_POINT('',(0.0115,-0.0095,0.0235));
#2117=CARTESIAN_POINT('',(0.0115,0.0095,0.0235));
#2118=CARTESIAN_POINT('',(0.0115,-0.0095,0.025));
#2119=CARTESIAN_POINT('',(0.0115,-0.0095,0.0235));
#2120=CARTESIAN_POINT('',(0.0115,0.0095,0.0235));
#2121=CARTESIAN_POINT('',(0.0115,0.0095,0.0235));
#2122=CARTESIAN_POINT('',(0.0115,-0.0095,0.0235));
#2123=CARTESIAN_POINT('',(0.0115,-0.0095,0.0235));
#2124=CARTESIAN_POINT('',(-0.0115,0.0095,0.025));
#2125=CARTESIAN_POINT('',(-0.0115,0.0095,0.0235));
#2126=CARTESIAN_POINT('',(0.,0.0095,0.0235));
#2127=CARTESIAN_POINT('',(-0.0115,0.0095,0.0235));
#2128=CARTESIAN_POINT('',(1.7347234759768E-18,-0.0095,0.0235));
#2129=CARTESIAN_POINT('',(-0.0115,-0.0095,0.0235));
#2130=CARTESIAN_POINT('',(-0.0115,-0.0095,0.025));
#2131=CARTESIAN_POINT('',(-0.0115,-0.0095,0.0235));
#2132=CARTESIAN_POINT('',(-0.0115,0.0095,0.0235));
#2133=CARTESIAN_POINT('',(-0.0115,0.0095,0.0235));
#2134=CARTESIAN_POINT('',(-0.0115,-0.0095,0.0235));
#2135=CARTESIAN_POINT('',(-0.0115,-0.0095,0.0235));
#2136=CARTESIAN_POINT('',(-0.0115,0.,0.0235));
#2137=CARTESIAN_POINT('',(0.,0.0082,-0.011));
#2138=CARTESIAN_POINT('',(0.,-0.0086,-0.011));
#2139=CARTESIAN_POINT('',(0.00855,-3.46944695195361E-18,-0.009));
#2140=CARTESIAN_POINT('',(0.00915,0.,-0.011));
#2141=CARTESIAN_POINT('',(0.0002,3.67394039744206E-20,-0.011));
#2142=CARTESIAN_POINT('',(0.0008,0.,-0.009));
#2143=CARTESIAN_POINT('',(-0.00895,0.000399999999999995,-0.009));
#2144=CARTESIAN_POINT('',(2.40933816107888E-20,-0.0002,-0.011));
#2145=CARTESIAN_POINT('',(0.,0.0088,-0.009));
#2146=CARTESIAN_POINT('',(-6.50521303491303E-18,-0.008,-0.009));
#2147=MECHANICAL_DESIGN_GEOMETRIC_PRESENTATION_REPRESENTATION('',(#1257,
#29,#30,#31,#32,#33,#34,#35,#36,#37,#38,#39,#40,#41,#42,#43,#44,#45,#46),
#2148);
#2148=(
GEOMETRIC_REPRESENTATION_CONTEXT(3)
GLOBAL_UNCERTAINTY_ASSIGNED_CONTEXT((#2149))
GLOBAL_UNIT_ASSIGNED_CONTEXT((#2152,#2151,#2150))
REPRESENTATION_CONTEXT('CB1-12V','TOP_LEVEL_ASSEMBLY_PART')
);
#2149=UNCERTAINTY_MEASURE_WITH_UNIT(LENGTH_MEASURE(1.E-8),#2152,
'DISTANCE_ACCURACY_VALUE','Maximum Tolerance applied to model');
#2150=(
NAMED_UNIT(*)
SI_UNIT($,.STERADIAN.)
SOLID_ANGLE_UNIT()
);
#2151=(
NAMED_UNIT(*)
PLANE_ANGLE_UNIT()
SI_UNIT($,.RADIAN.)
);
#2152=(
LENGTH_UNIT()
NAMED_UNIT(*)
SI_UNIT($,.METRE.)
);
#2153=PRODUCT_DEFINITION_SHAPE('','',#2154);
#2154=PRODUCT_DEFINITION('','',#2156,#2155);
#2155=PRODUCT_DEFINITION_CONTEXT('',#2162,'design');
#2156=PRODUCT_DEFINITION_FORMATION_WITH_SPECIFIED_SOURCE('','',#2158,
 .NOT_KNOWN.);
#2157=PRODUCT_RELATED_PRODUCT_CATEGORY('','',(#2158));
#2158=PRODUCT('CB1-12V','CB1-12V','CB1-12V',(#2160));
#2159=PRODUCT_CATEGORY('','');
#2160=PRODUCT_CONTEXT('',#2162,'mechanical');
#2161=APPLICATION_PROTOCOL_DEFINITION('international standard',
'ap242_managed_model_based_3d_engineering',2011,#2162);
#2162=APPLICATION_CONTEXT('managed model based 3d engineering');
ENDSEC;
END-ISO-10303-21;
