ISO-10303-21;
HEADER;
/* Generated by software containing ST-Developer
 * from STEP Tools, Inc. (www.steptools.com) 
 */
/* OPTION: using custom renumber hook */

FILE_DESCRIPTION(
/* description */ ('STEP AP242',
'CAx-IF Rec.Pracs.---Representation and Presentation of Product Manufa
cturing Information (PMI)---4.0---2014-10-13',
'CAx-IF Rec.Pracs.---3D Tessellated Geometry---0.4---2014-09-14','2;1'),

/* implementation_level */ '2;1');

FILE_NAME(
/* name */ '67fb345cd55f9c32cf065840',
/* time_stamp */ '2025-04-13T03:49:49Z',
/* author */ (''),
/* organization */ (''),
/* preprocessor_version */ 'ST-DEVELOPER v20',
/* originating_system */ 'ONSHAPE BY PTC INC, 1.196',
/* authorisation */ '  ');

FILE_SCHEMA (('AP242_MANAGED_MODEL_BASED_3D_ENGINEERING_MIM_LF { 1 0 10303 442 1 1 4 }'));
ENDSEC;

DATA;
#10=SHAPE_REPRESENTATION_RELATIONSHIP('','',#365,#11);
#11=ADVANCED_BREP_SHAPE_REPRESENTATION('',(#363),#607);
#12=CYLINDRICAL_SURFACE('',#394,0.003);
#13=CYLINDRICAL_SURFACE('',#395,0.003);
#14=CYLINDRICAL_SURFACE('',#396,0.003);
#15=CYLINDRICAL_SURFACE('',#397,0.003);
#16=CYLINDRICAL_SURFACE('',#398,0.001);
#17=CYLINDRICAL_SURFACE('',#399,0.001);
#18=CYLINDRICAL_SURFACE('',#400,0.001);
#19=CYLINDRICAL_SURFACE('',#401,0.001);
#20=OVER_RIDING_STYLED_ITEM('',(#350),#338,#348);
#21=CIRCLE('',#368,0.003);
#22=CIRCLE('',#369,0.003);
#23=CIRCLE('',#370,0.003);
#24=CIRCLE('',#371,0.003);
#25=CIRCLE('',#372,0.001);
#26=CIRCLE('',#373,0.001);
#27=CIRCLE('',#374,0.001);
#28=CIRCLE('',#375,0.001);
#29=CIRCLE('',#381,0.003);
#30=CIRCLE('',#382,0.003);
#31=CIRCLE('',#383,0.003);
#32=CIRCLE('',#384,0.003);
#33=CIRCLE('',#390,0.001);
#34=CIRCLE('',#391,0.001);
#35=CIRCLE('',#392,0.001);
#36=CIRCLE('',#393,0.001);
#37=ORIENTED_EDGE('',*,*,#133,.T.);
#38=ORIENTED_EDGE('',*,*,#134,.T.);
#39=ORIENTED_EDGE('',*,*,#135,.T.);
#40=ORIENTED_EDGE('',*,*,#136,.T.);
#41=ORIENTED_EDGE('',*,*,#137,.F.);
#42=ORIENTED_EDGE('',*,*,#138,.T.);
#43=ORIENTED_EDGE('',*,*,#139,.F.);
#44=ORIENTED_EDGE('',*,*,#140,.T.);
#45=ORIENTED_EDGE('',*,*,#141,.F.);
#46=ORIENTED_EDGE('',*,*,#142,.T.);
#47=ORIENTED_EDGE('',*,*,#143,.T.);
#48=ORIENTED_EDGE('',*,*,#144,.T.);
#49=ORIENTED_EDGE('',*,*,#145,.T.);
#50=ORIENTED_EDGE('',*,*,#146,.T.);
#51=ORIENTED_EDGE('',*,*,#147,.F.);
#52=ORIENTED_EDGE('',*,*,#148,.T.);
#53=ORIENTED_EDGE('',*,*,#149,.F.);
#54=ORIENTED_EDGE('',*,*,#150,.T.);
#55=ORIENTED_EDGE('',*,*,#139,.T.);
#56=ORIENTED_EDGE('',*,*,#151,.T.);
#57=ORIENTED_EDGE('',*,*,#152,.T.);
#58=ORIENTED_EDGE('',*,*,#153,.T.);
#59=ORIENTED_EDGE('',*,*,#133,.F.);
#60=ORIENTED_EDGE('',*,*,#154,.T.);
#61=ORIENTED_EDGE('',*,*,#135,.F.);
#62=ORIENTED_EDGE('',*,*,#155,.T.);
#63=ORIENTED_EDGE('',*,*,#156,.T.);
#64=ORIENTED_EDGE('',*,*,#157,.T.);
#65=ORIENTED_EDGE('',*,*,#137,.T.);
#66=ORIENTED_EDGE('',*,*,#158,.T.);
#67=ORIENTED_EDGE('',*,*,#159,.F.);
#68=ORIENTED_EDGE('',*,*,#160,.T.);
#69=ORIENTED_EDGE('',*,*,#156,.F.);
#70=ORIENTED_EDGE('',*,*,#161,.T.);
#71=ORIENTED_EDGE('',*,*,#152,.F.);
#72=ORIENTED_EDGE('',*,*,#162,.T.);
#73=ORIENTED_EDGE('',*,*,#149,.T.);
#74=ORIENTED_EDGE('',*,*,#163,.T.);
#75=ORIENTED_EDGE('',*,*,#159,.T.);
#76=ORIENTED_EDGE('',*,*,#164,.T.);
#77=ORIENTED_EDGE('',*,*,#165,.T.);
#78=ORIENTED_EDGE('',*,*,#166,.T.);
#79=ORIENTED_EDGE('',*,*,#143,.F.);
#80=ORIENTED_EDGE('',*,*,#167,.T.);
#81=ORIENTED_EDGE('',*,*,#168,.F.);
#82=ORIENTED_EDGE('',*,*,#169,.T.);
#83=ORIENTED_EDGE('',*,*,#141,.T.);
#84=ORIENTED_EDGE('',*,*,#170,.T.);
#85=ORIENTED_EDGE('',*,*,#147,.T.);
#86=ORIENTED_EDGE('',*,*,#171,.T.);
#87=ORIENTED_EDGE('',*,*,#172,.F.);
#88=ORIENTED_EDGE('',*,*,#173,.T.);
#89=ORIENTED_EDGE('',*,*,#174,.T.);
#90=ORIENTED_EDGE('',*,*,#175,.T.);
#91=ORIENTED_EDGE('',*,*,#145,.F.);
#92=ORIENTED_EDGE('',*,*,#176,.T.);
#93=ORIENTED_EDGE('',*,*,#172,.T.);
#94=ORIENTED_EDGE('',*,*,#177,.T.);
#95=ORIENTED_EDGE('',*,*,#174,.F.);
#96=ORIENTED_EDGE('',*,*,#178,.T.);
#97=ORIENTED_EDGE('',*,*,#165,.F.);
#98=ORIENTED_EDGE('',*,*,#179,.T.);
#99=ORIENTED_EDGE('',*,*,#168,.T.);
#100=ORIENTED_EDGE('',*,*,#180,.T.);
#101=ORIENTED_EDGE('',*,*,#134,.F.);
#102=ORIENTED_EDGE('',*,*,#153,.F.);
#103=ORIENTED_EDGE('',*,*,#161,.F.);
#104=ORIENTED_EDGE('',*,*,#155,.F.);
#105=ORIENTED_EDGE('',*,*,#140,.F.);
#106=ORIENTED_EDGE('',*,*,#150,.F.);
#107=ORIENTED_EDGE('',*,*,#162,.F.);
#108=ORIENTED_EDGE('',*,*,#154,.F.);
#109=ORIENTED_EDGE('',*,*,#136,.F.);
#110=ORIENTED_EDGE('',*,*,#157,.F.);
#111=ORIENTED_EDGE('',*,*,#164,.F.);
#112=ORIENTED_EDGE('',*,*,#158,.F.);
#113=ORIENTED_EDGE('',*,*,#138,.F.);
#114=ORIENTED_EDGE('',*,*,#160,.F.);
#115=ORIENTED_EDGE('',*,*,#163,.F.);
#116=ORIENTED_EDGE('',*,*,#151,.F.);
#117=ORIENTED_EDGE('',*,*,#177,.F.);
#118=ORIENTED_EDGE('',*,*,#171,.F.);
#119=ORIENTED_EDGE('',*,*,#146,.F.);
#120=ORIENTED_EDGE('',*,*,#175,.F.);
#121=ORIENTED_EDGE('',*,*,#178,.F.);
#122=ORIENTED_EDGE('',*,*,#176,.F.);
#123=ORIENTED_EDGE('',*,*,#144,.F.);
#124=ORIENTED_EDGE('',*,*,#166,.F.);
#125=ORIENTED_EDGE('',*,*,#179,.F.);
#126=ORIENTED_EDGE('',*,*,#167,.F.);
#127=ORIENTED_EDGE('',*,*,#142,.F.);
#128=ORIENTED_EDGE('',*,*,#169,.F.);
#129=ORIENTED_EDGE('',*,*,#180,.F.);
#130=ORIENTED_EDGE('',*,*,#170,.F.);
#131=ORIENTED_EDGE('',*,*,#148,.F.);
#132=ORIENTED_EDGE('',*,*,#173,.F.);
#133=EDGE_CURVE('',#181,#182,#213,.T.);
#134=EDGE_CURVE('',#182,#183,#21,.T.);
#135=EDGE_CURVE('',#183,#184,#214,.T.);
#136=EDGE_CURVE('',#184,#185,#22,.T.);
#137=EDGE_CURVE('',#186,#185,#215,.T.);
#138=EDGE_CURVE('',#186,#187,#23,.T.);
#139=EDGE_CURVE('',#188,#187,#216,.T.);
#140=EDGE_CURVE('',#188,#181,#24,.T.);
#141=EDGE_CURVE('',#189,#190,#217,.T.);
#142=EDGE_CURVE('',#189,#191,#25,.F.);
#143=EDGE_CURVE('',#191,#192,#218,.T.);
#144=EDGE_CURVE('',#192,#193,#26,.F.);
#145=EDGE_CURVE('',#193,#194,#219,.T.);
#146=EDGE_CURVE('',#194,#195,#27,.F.);
#147=EDGE_CURVE('',#196,#195,#220,.T.);
#148=EDGE_CURVE('',#196,#190,#28,.F.);
#149=EDGE_CURVE('',#197,#198,#221,.T.);
#150=EDGE_CURVE('',#197,#188,#222,.F.);
#151=EDGE_CURVE('',#187,#198,#223,.T.);
#152=EDGE_CURVE('',#199,#200,#224,.T.);
#153=EDGE_CURVE('',#200,#182,#225,.F.);
#154=EDGE_CURVE('',#181,#199,#226,.T.);
#155=EDGE_CURVE('',#183,#201,#227,.T.);
#156=EDGE_CURVE('',#201,#202,#228,.T.);
#157=EDGE_CURVE('',#202,#184,#229,.F.);
#158=EDGE_CURVE('',#185,#203,#230,.T.);
#159=EDGE_CURVE('',#204,#203,#231,.T.);
#160=EDGE_CURVE('',#204,#186,#232,.F.);
#161=EDGE_CURVE('',#201,#200,#29,.F.);
#162=EDGE_CURVE('',#199,#197,#30,.F.);
#163=EDGE_CURVE('',#198,#204,#31,.F.);
#164=EDGE_CURVE('',#203,#202,#32,.F.);
#165=EDGE_CURVE('',#205,#206,#233,.T.);
#166=EDGE_CURVE('',#206,#192,#234,.T.);
#167=EDGE_CURVE('',#191,#205,#235,.F.);
#168=EDGE_CURVE('',#207,#208,#236,.T.);
#169=EDGE_CURVE('',#207,#189,#237,.T.);
#170=EDGE_CURVE('',#190,#208,#238,.F.);
#171=EDGE_CURVE('',#195,#209,#239,.F.);
#172=EDGE_CURVE('',#210,#209,#240,.T.);
#173=EDGE_CURVE('',#210,#196,#241,.T.);
#174=EDGE_CURVE('',#211,#212,#242,.T.);
#175=EDGE_CURVE('',#212,#194,#243,.T.);
#176=EDGE_CURVE('',#193,#211,#244,.F.);
#177=EDGE_CURVE('',#209,#212,#33,.T.);
#178=EDGE_CURVE('',#211,#206,#34,.T.);
#179=EDGE_CURVE('',#205,#207,#35,.T.);
#180=EDGE_CURVE('',#208,#210,#36,.T.);
#181=VERTEX_POINT('',#509);
#182=VERTEX_POINT('',#510);
#183=VERTEX_POINT('',#512);
#184=VERTEX_POINT('',#514);
#185=VERTEX_POINT('',#516);
#186=VERTEX_POINT('',#518);
#187=VERTEX_POINT('',#520);
#188=VERTEX_POINT('',#522);
#189=VERTEX_POINT('',#525);
#190=VERTEX_POINT('',#526);
#191=VERTEX_POINT('',#528);
#192=VERTEX_POINT('',#530);
#193=VERTEX_POINT('',#532);
#194=VERTEX_POINT('',#534);
#195=VERTEX_POINT('',#536);
#196=VERTEX_POINT('',#538);
#197=VERTEX_POINT('',#542);
#198=VERTEX_POINT('',#543);
#199=VERTEX_POINT('',#548);
#200=VERTEX_POINT('',#549);
#201=VERTEX_POINT('',#554);
#202=VERTEX_POINT('',#556);
#203=VERTEX_POINT('',#560);
#204=VERTEX_POINT('',#562);
#205=VERTEX_POINT('',#571);
#206=VERTEX_POINT('',#572);
#207=VERTEX_POINT('',#577);
#208=VERTEX_POINT('',#578);
#209=VERTEX_POINT('',#583);
#210=VERTEX_POINT('',#585);
#211=VERTEX_POINT('',#589);
#212=VERTEX_POINT('',#590);
#213=LINE('',#508,#245);
#214=LINE('',#513,#246);
#215=LINE('',#517,#247);
#216=LINE('',#521,#248);
#217=LINE('',#524,#249);
#218=LINE('',#529,#250);
#219=LINE('',#533,#251);
#220=LINE('',#537,#252);
#221=LINE('',#541,#253);
#222=LINE('',#544,#254);
#223=LINE('',#545,#255);
#224=LINE('',#547,#256);
#225=LINE('',#550,#257);
#226=LINE('',#551,#258);
#227=LINE('',#553,#259);
#228=LINE('',#555,#260);
#229=LINE('',#557,#261);
#230=LINE('',#559,#262);
#231=LINE('',#561,#263);
#232=LINE('',#563,#264);
#233=LINE('',#570,#265);
#234=LINE('',#573,#266);
#235=LINE('',#574,#267);
#236=LINE('',#576,#268);
#237=LINE('',#579,#269);
#238=LINE('',#580,#270);
#239=LINE('',#582,#271);
#240=LINE('',#584,#272);
#241=LINE('',#586,#273);
#242=LINE('',#588,#274);
#243=LINE('',#591,#275);
#244=LINE('',#592,#276);
#245=VECTOR('',#406,1.);
#246=VECTOR('',#409,1.);
#247=VECTOR('',#412,1.);
#248=VECTOR('',#415,1.);
#249=VECTOR('',#418,1.);
#250=VECTOR('',#421,1.);
#251=VECTOR('',#424,1.);
#252=VECTOR('',#427,1.);
#253=VECTOR('',#432,1.);
#254=VECTOR('',#433,1.);
#255=VECTOR('',#434,1.);
#256=VECTOR('',#437,1.);
#257=VECTOR('',#438,1.);
#258=VECTOR('',#439,1.);
#259=VECTOR('',#442,1.);
#260=VECTOR('',#443,1.);
#261=VECTOR('',#444,1.);
#262=VECTOR('',#447,1.);
#263=VECTOR('',#448,1.);
#264=VECTOR('',#449,1.);
#265=VECTOR('',#462,1.);
#266=VECTOR('',#463,1.);
#267=VECTOR('',#464,1.);
#268=VECTOR('',#467,1.);
#269=VECTOR('',#468,1.);
#270=VECTOR('',#469,1.);
#271=VECTOR('',#472,1.);
#272=VECTOR('',#473,1.);
#273=VECTOR('',#474,1.);
#274=VECTOR('',#477,1.);
#275=VECTOR('',#478,1.);
#276=VECTOR('',#479,1.);
#277=EDGE_LOOP('',(#37,#38,#39,#40,#41,#42,#43,#44));
#278=EDGE_LOOP('',(#45,#46,#47,#48,#49,#50,#51,#52));
#279=EDGE_LOOP('',(#53,#54,#55,#56));
#280=EDGE_LOOP('',(#57,#58,#59,#60));
#281=EDGE_LOOP('',(#61,#62,#63,#64));
#282=EDGE_LOOP('',(#65,#66,#67,#68));
#283=EDGE_LOOP('',(#69,#70,#71,#72,#73,#74,#75,#76));
#284=EDGE_LOOP('',(#77,#78,#79,#80));
#285=EDGE_LOOP('',(#81,#82,#83,#84));
#286=EDGE_LOOP('',(#85,#86,#87,#88));
#287=EDGE_LOOP('',(#89,#90,#91,#92));
#288=EDGE_LOOP('',(#93,#94,#95,#96,#97,#98,#99,#100));
#289=EDGE_LOOP('',(#101,#102,#103,#104));
#290=EDGE_LOOP('',(#105,#106,#107,#108));
#291=EDGE_LOOP('',(#109,#110,#111,#112));
#292=EDGE_LOOP('',(#113,#114,#115,#116));
#293=EDGE_LOOP('',(#117,#118,#119,#120));
#294=EDGE_LOOP('',(#121,#122,#123,#124));
#295=EDGE_LOOP('',(#125,#126,#127,#128));
#296=EDGE_LOOP('',(#129,#130,#131,#132));
#297=FACE_BOUND('',#277,.T.);
#298=FACE_BOUND('',#278,.T.);
#299=FACE_BOUND('',#279,.T.);
#300=FACE_BOUND('',#280,.T.);
#301=FACE_BOUND('',#281,.T.);
#302=FACE_BOUND('',#282,.T.);
#303=FACE_BOUND('',#283,.T.);
#304=FACE_BOUND('',#284,.T.);
#305=FACE_BOUND('',#285,.T.);
#306=FACE_BOUND('',#286,.T.);
#307=FACE_BOUND('',#287,.T.);
#308=FACE_BOUND('',#288,.T.);
#309=FACE_BOUND('',#289,.T.);
#310=FACE_BOUND('',#290,.T.);
#311=FACE_BOUND('',#291,.T.);
#312=FACE_BOUND('',#292,.T.);
#313=FACE_BOUND('',#293,.T.);
#314=FACE_BOUND('',#294,.T.);
#315=FACE_BOUND('',#295,.T.);
#316=FACE_BOUND('',#296,.T.);
#317=PLANE('',#367);
#318=PLANE('',#376);
#319=PLANE('',#377);
#320=PLANE('',#378);
#321=PLANE('',#379);
#322=PLANE('',#380);
#323=PLANE('',#385);
#324=PLANE('',#386);
#325=PLANE('',#387);
#326=PLANE('',#388);
#327=PLANE('',#389);
#328=ADVANCED_FACE('',(#297,#298),#317,.T.);
#329=ADVANCED_FACE('',(#299),#318,.T.);
#330=ADVANCED_FACE('',(#300),#319,.F.);
#331=ADVANCED_FACE('',(#301),#320,.F.);
#332=ADVANCED_FACE('',(#302),#321,.T.);
#333=ADVANCED_FACE('',(#303),#322,.F.);
#334=ADVANCED_FACE('',(#304),#323,.T.);
#335=ADVANCED_FACE('',(#305),#324,.F.);
#336=ADVANCED_FACE('',(#306),#325,.F.);
#337=ADVANCED_FACE('',(#307),#326,.T.);
#338=ADVANCED_FACE('',(#308),#327,.T.);
#339=ADVANCED_FACE('',(#309),#12,.T.);
#340=ADVANCED_FACE('',(#310),#13,.T.);
#341=ADVANCED_FACE('',(#311),#14,.T.);
#342=ADVANCED_FACE('',(#312),#15,.T.);
#343=ADVANCED_FACE('',(#313),#16,.F.);
#344=ADVANCED_FACE('',(#314),#17,.F.);
#345=ADVANCED_FACE('',(#315),#18,.F.);
#346=ADVANCED_FACE('',(#316),#19,.F.);
#347=CLOSED_SHELL('',(#328,#329,#330,#331,#332,#333,#334,#335,#336,#337,
#338,#339,#340,#341,#342,#343,#344,#345,#346));
#348=STYLED_ITEM('',(#349),#363);
#349=PRESENTATION_STYLE_ASSIGNMENT((#351));
#350=PRESENTATION_STYLE_ASSIGNMENT((#352));
#351=SURFACE_STYLE_USAGE(.BOTH.,#353);
#352=SURFACE_STYLE_USAGE(.BOTH.,#354);
#353=SURFACE_SIDE_STYLE('',(#355));
#354=SURFACE_SIDE_STYLE('',(#356));
#355=SURFACE_STYLE_FILL_AREA(#357);
#356=SURFACE_STYLE_FILL_AREA(#358);
#357=FILL_AREA_STYLE('',(#359));
#358=FILL_AREA_STYLE('',(#360));
#359=FILL_AREA_STYLE_COLOUR('',#361);
#360=FILL_AREA_STYLE_COLOUR('',#362);
#361=COLOUR_RGB('',0.294117647058823,0.294117647058823,0.294117647058823);
#362=COLOUR_RGB('',0.0980392156862745,0.0980392156862745,0.0980392156862745);
#363=MANIFOLD_SOLID_BREP('GLT0881280320IR1',#347);
#364=SHAPE_DEFINITION_REPRESENTATION(#612,#365);
#365=SHAPE_REPRESENTATION('GLT0881280320IR1',(#366),#607);
#366=AXIS2_PLACEMENT_3D('',#506,#402,#403);
#367=AXIS2_PLACEMENT_3D('',#507,#404,#405);
#368=AXIS2_PLACEMENT_3D('',#511,#407,#408);
#369=AXIS2_PLACEMENT_3D('',#515,#410,#411);
#370=AXIS2_PLACEMENT_3D('',#519,#413,#414);
#371=AXIS2_PLACEMENT_3D('',#523,#416,#417);
#372=AXIS2_PLACEMENT_3D('',#527,#419,#420);
#373=AXIS2_PLACEMENT_3D('',#531,#422,#423);
#374=AXIS2_PLACEMENT_3D('',#535,#425,#426);
#375=AXIS2_PLACEMENT_3D('',#539,#428,#429);
#376=AXIS2_PLACEMENT_3D('',#540,#430,#431);
#377=AXIS2_PLACEMENT_3D('',#546,#435,#436);
#378=AXIS2_PLACEMENT_3D('',#552,#440,#441);
#379=AXIS2_PLACEMENT_3D('',#558,#445,#446);
#380=AXIS2_PLACEMENT_3D('',#564,#450,#451);
#381=AXIS2_PLACEMENT_3D('',#565,#452,#453);
#382=AXIS2_PLACEMENT_3D('',#566,#454,#455);
#383=AXIS2_PLACEMENT_3D('',#567,#456,#457);
#384=AXIS2_PLACEMENT_3D('',#568,#458,#459);
#385=AXIS2_PLACEMENT_3D('',#569,#460,#461);
#386=AXIS2_PLACEMENT_3D('',#575,#465,#466);
#387=AXIS2_PLACEMENT_3D('',#581,#470,#471);
#388=AXIS2_PLACEMENT_3D('',#587,#475,#476);
#389=AXIS2_PLACEMENT_3D('',#593,#480,#481);
#390=AXIS2_PLACEMENT_3D('',#594,#482,#483);
#391=AXIS2_PLACEMENT_3D('',#595,#484,#485);
#392=AXIS2_PLACEMENT_3D('',#596,#486,#487);
#393=AXIS2_PLACEMENT_3D('',#597,#488,#489);
#394=AXIS2_PLACEMENT_3D('',#598,#490,#491);
#395=AXIS2_PLACEMENT_3D('',#599,#492,#493);
#396=AXIS2_PLACEMENT_3D('',#600,#494,#495);
#397=AXIS2_PLACEMENT_3D('',#601,#496,#497);
#398=AXIS2_PLACEMENT_3D('',#602,#498,#499);
#399=AXIS2_PLACEMENT_3D('',#603,#500,#501);
#400=AXIS2_PLACEMENT_3D('',#604,#502,#503);
#401=AXIS2_PLACEMENT_3D('',#605,#504,#505);
#402=DIRECTION('',(0.,0.,1.));
#403=DIRECTION('',(1.,0.,0.));
#404=DIRECTION('',(0.,0.,1.));
#405=DIRECTION('',(1.,0.,0.));
#406=DIRECTION('',(0.,-1.,0.));
#407=DIRECTION('',(0.,0.,1.));
#408=DIRECTION('',(1.,0.,0.));
#409=DIRECTION('',(1.,0.,0.));
#410=DIRECTION('',(0.,0.,1.));
#411=DIRECTION('',(1.,0.,0.));
#412=DIRECTION('',(0.,-1.,0.));
#413=DIRECTION('',(0.,0.,1.));
#414=DIRECTION('',(1.,0.,0.));
#415=DIRECTION('',(1.,0.,0.));
#416=DIRECTION('',(0.,0.,1.));
#417=DIRECTION('',(1.,0.,0.));
#418=DIRECTION('',(-1.,0.,0.));
#419=DIRECTION('',(0.,0.,1.));
#420=DIRECTION('',(1.,0.,0.));
#421=DIRECTION('',(0.,-1.,0.));
#422=DIRECTION('',(0.,0.,1.));
#423=DIRECTION('',(1.,0.,0.));
#424=DIRECTION('',(-1.,0.,0.));
#425=DIRECTION('',(0.,0.,1.));
#426=DIRECTION('',(1.,0.,0.));
#427=DIRECTION('',(0.,-1.,0.));
#428=DIRECTION('',(0.,0.,1.));
#429=DIRECTION('',(1.,0.,0.));
#430=DIRECTION('',(0.,1.,0.));
#431=DIRECTION('',(0.,0.,1.));
#432=DIRECTION('',(1.,0.,0.));
#433=DIRECTION('',(0.,0.,-1.));
#434=DIRECTION('',(0.,0.,-1.));
#435=DIRECTION('',(1.,0.,0.));
#436=DIRECTION('',(0.,0.,-1.));
#437=DIRECTION('',(0.,-1.,0.));
#438=DIRECTION('',(0.,0.,-1.));
#439=DIRECTION('',(0.,0.,-1.));
#440=DIRECTION('',(0.,1.,0.));
#441=DIRECTION('',(0.,0.,1.));
#442=DIRECTION('',(0.,0.,-1.));
#443=DIRECTION('',(1.,0.,0.));
#444=DIRECTION('',(0.,0.,-1.));
#445=DIRECTION('',(1.,0.,0.));
#446=DIRECTION('',(0.,0.,-1.));
#447=DIRECTION('',(0.,0.,-1.));
#448=DIRECTION('',(0.,-1.,0.));
#449=DIRECTION('',(0.,0.,-1.));
#450=DIRECTION('',(0.,0.,1.));
#451=DIRECTION('',(1.,0.,0.));
#452=DIRECTION('',(0.,0.,1.));
#453=DIRECTION('',(1.,0.,0.));
#454=DIRECTION('',(0.,0.,1.));
#455=DIRECTION('',(1.,0.,0.));
#456=DIRECTION('',(0.,0.,1.));
#457=DIRECTION('',(1.,0.,0.));
#458=DIRECTION('',(0.,0.,1.));
#459=DIRECTION('',(1.,0.,0.));
#460=DIRECTION('',(-1.,0.,0.));
#461=DIRECTION('',(0.,0.,1.));
#462=DIRECTION('',(0.,-1.,0.));
#463=DIRECTION('',(0.,0.,1.));
#464=DIRECTION('',(0.,0.,1.));
#465=DIRECTION('',(0.,1.,0.));
#466=DIRECTION('',(0.,0.,1.));
#467=DIRECTION('',(-1.,0.,0.));
#468=DIRECTION('',(0.,0.,1.));
#469=DIRECTION('',(0.,0.,1.));
#470=DIRECTION('',(-1.,0.,0.));
#471=DIRECTION('',(0.,0.,1.));
#472=DIRECTION('',(0.,0.,1.));
#473=DIRECTION('',(0.,-1.,0.));
#474=DIRECTION('',(0.,0.,1.));
#475=DIRECTION('',(0.,1.,0.));
#476=DIRECTION('',(0.,0.,1.));
#477=DIRECTION('',(-1.,0.,0.));
#478=DIRECTION('',(0.,0.,1.));
#479=DIRECTION('',(0.,0.,1.));
#480=DIRECTION('',(0.,0.,1.));
#481=DIRECTION('',(1.,0.,0.));
#482=DIRECTION('',(0.,0.,1.));
#483=DIRECTION('',(1.,0.,0.));
#484=DIRECTION('',(0.,0.,1.));
#485=DIRECTION('',(1.,0.,0.));
#486=DIRECTION('',(0.,0.,1.));
#487=DIRECTION('',(1.,0.,0.));
#488=DIRECTION('',(0.,0.,1.));
#489=DIRECTION('',(1.,0.,0.));
#490=DIRECTION('',(0.,0.,-1.));
#491=DIRECTION('',(-1.,0.,0.));
#492=DIRECTION('',(0.,0.,1.));
#493=DIRECTION('',(1.,0.,0.));
#494=DIRECTION('',(0.,0.,1.));
#495=DIRECTION('',(1.,0.,0.));
#496=DIRECTION('',(0.,0.,-1.));
#497=DIRECTION('',(-1.,0.,0.));
#498=DIRECTION('',(0.,0.,1.));
#499=DIRECTION('',(1.,0.,0.));
#500=DIRECTION('',(0.,0.,-1.));
#501=DIRECTION('',(-1.,0.,0.));
#502=DIRECTION('',(0.,0.,1.));
#503=DIRECTION('',(1.,0.,0.));
#504=DIRECTION('',(0.,0.,-1.));
#505=DIRECTION('',(-1.,0.,0.));
#506=CARTESIAN_POINT('',(0.,0.,0.));
#507=CARTESIAN_POINT('',(0.,0.,0.0035));
#508=CARTESIAN_POINT('',(-0.11483,6.93889390390723E-18,0.0035));
#509=CARTESIAN_POINT('',(-0.11483,0.03075,0.0035));
#510=CARTESIAN_POINT('',(-0.11483,-0.03075,0.0035));
#511=CARTESIAN_POINT('',(-0.11183,-0.03075,0.0035));
#512=CARTESIAN_POINT('',(-0.11183,-0.03375,0.0035));
#513=CARTESIAN_POINT('',(0.,-0.03375,0.0035));
#514=CARTESIAN_POINT('',(0.11183,-0.03375,0.0035));
#515=CARTESIAN_POINT('',(0.11183,-0.03075,0.0035));
#516=CARTESIAN_POINT('',(0.11483,-0.03075,0.0035));
#517=CARTESIAN_POINT('',(0.11483,6.93889390390723E-18,0.0035));
#518=CARTESIAN_POINT('',(0.11483,0.03075,0.0035));
#519=CARTESIAN_POINT('',(0.11183,0.03075,0.0035));
#520=CARTESIAN_POINT('',(0.11183,0.03375,0.0035));
#521=CARTESIAN_POINT('',(0.,0.03375,0.0035));
#522=CARTESIAN_POINT('',(-0.11183,0.03375,0.0035));
#523=CARTESIAN_POINT('',(-0.11183,0.03075,0.0035));
#524=CARTESIAN_POINT('',(-1.38777878078145E-17,0.03054,0.0035));
#525=CARTESIAN_POINT('',(0.10898,0.03054,0.0035));
#526=CARTESIAN_POINT('',(-0.10898,0.03054,0.0035));
#527=CARTESIAN_POINT('',(0.10898,0.02954,0.0035));
#528=CARTESIAN_POINT('',(0.10998,0.02954,0.0035));
#529=CARTESIAN_POINT('',(0.10998,0.00192,0.0035));
#530=CARTESIAN_POINT('',(0.10998,-0.0257,0.0035));
#531=CARTESIAN_POINT('',(0.10898,-0.0257,0.0035));
#532=CARTESIAN_POINT('',(0.10898,-0.0267,0.0035));
#533=CARTESIAN_POINT('',(-1.38777878078145E-17,-0.0267,0.0035));
#534=CARTESIAN_POINT('',(-0.10898,-0.0267,0.0035));
#535=CARTESIAN_POINT('',(-0.10898,-0.0257,0.0035));
#536=CARTESIAN_POINT('',(-0.10998,-0.0257,0.0035));
#537=CARTESIAN_POINT('',(-0.10998,0.00192,0.0035));
#538=CARTESIAN_POINT('',(-0.10998,0.02954,0.0035));
#539=CARTESIAN_POINT('',(-0.10898,0.02954,0.0035));
#540=CARTESIAN_POINT('',(0.,0.03375,0.0035));
#541=CARTESIAN_POINT('',(0.,0.03375,0.));
#542=CARTESIAN_POINT('',(-0.11183,0.03375,0.));
#543=CARTESIAN_POINT('',(0.11183,0.03375,0.));
#544=CARTESIAN_POINT('',(-0.11183,0.03375,0.0035));
#545=CARTESIAN_POINT('',(0.11183,0.03375,0.0035));
#546=CARTESIAN_POINT('',(-0.11483,6.93889390390723E-18,0.0035));
#547=CARTESIAN_POINT('',(-0.11483,6.93889390390723E-18,0.));
#548=CARTESIAN_POINT('',(-0.11483,0.03075,0.));
#549=CARTESIAN_POINT('',(-0.11483,-0.03075,0.));
#550=CARTESIAN_POINT('',(-0.11483,-0.03075,0.0035));
#551=CARTESIAN_POINT('',(-0.11483,0.03075,0.));
#552=CARTESIAN_POINT('',(0.,-0.03375,0.0035));
#553=CARTESIAN_POINT('',(-0.11183,-0.03375,0.0035));
#554=CARTESIAN_POINT('',(-0.11183,-0.03375,0.));
#555=CARTESIAN_POINT('',(0.,-0.03375,0.));
#556=CARTESIAN_POINT('',(0.11183,-0.03375,0.));
#557=CARTESIAN_POINT('',(0.11183,-0.03375,0.0035));
#558=CARTESIAN_POINT('',(0.11483,6.93889390390723E-18,0.0035));
#559=CARTESIAN_POINT('',(0.11483,-0.03075,0.));
#560=CARTESIAN_POINT('',(0.11483,-0.03075,0.));
#561=CARTESIAN_POINT('',(0.11483,6.93889390390723E-18,0.));
#562=CARTESIAN_POINT('',(0.11483,0.03075,0.));
#563=CARTESIAN_POINT('',(0.11483,0.03075,0.0035));
#564=CARTESIAN_POINT('',(0.,0.,0.));
#565=CARTESIAN_POINT('',(-0.11183,-0.03075,0.));
#566=CARTESIAN_POINT('',(-0.11183,0.03075,0.));
#567=CARTESIAN_POINT('',(0.11183,0.03075,0.));
#568=CARTESIAN_POINT('',(0.11183,-0.03075,0.));
#569=CARTESIAN_POINT('',(0.10998,0.00192,0.0034));
#570=CARTESIAN_POINT('',(0.10998,0.00192,0.0034));
#571=CARTESIAN_POINT('',(0.10998,0.02954,0.0034));
#572=CARTESIAN_POINT('',(0.10998,-0.0257,0.0034));
#573=CARTESIAN_POINT('',(0.10998,-0.0257,0.0035));
#574=CARTESIAN_POINT('',(0.10998,0.02954,0.0034));
#575=CARTESIAN_POINT('',(-1.38777878078145E-17,0.03054,0.0034));
#576=CARTESIAN_POINT('',(-1.38777878078145E-17,0.03054,0.0034));
#577=CARTESIAN_POINT('',(0.10898,0.03054,0.0034));
#578=CARTESIAN_POINT('',(-0.10898,0.03054,0.0034));
#579=CARTESIAN_POINT('',(0.10898,0.03054,0.0034));
#580=CARTESIAN_POINT('',(-0.10898,0.03054,0.0034));
#581=CARTESIAN_POINT('',(-0.10998,0.00192,0.0034));
#582=CARTESIAN_POINT('',(-0.10998,-0.0257,0.0034));
#583=CARTESIAN_POINT('',(-0.10998,-0.0257,0.0034));
#584=CARTESIAN_POINT('',(-0.10998,0.00192,0.0034));
#585=CARTESIAN_POINT('',(-0.10998,0.02954,0.0034));
#586=CARTESIAN_POINT('',(-0.10998,0.02954,0.0035));
#587=CARTESIAN_POINT('',(-1.38777878078145E-17,-0.0267,0.0034));
#588=CARTESIAN_POINT('',(-1.38777878078145E-17,-0.0267,0.0034));
#589=CARTESIAN_POINT('',(0.10898,-0.0267,0.0034));
#590=CARTESIAN_POINT('',(-0.10898,-0.0267,0.0034));
#591=CARTESIAN_POINT('',(-0.10898,-0.0267,0.0034));
#592=CARTESIAN_POINT('',(0.10898,-0.0267,0.0034));
#593=CARTESIAN_POINT('',(0.,0.,0.0034));
#594=CARTESIAN_POINT('',(-0.10898,-0.0257,0.0034));
#595=CARTESIAN_POINT('',(0.10898,-0.0257,0.0034));
#596=CARTESIAN_POINT('',(0.10898,0.02954,0.0034));
#597=CARTESIAN_POINT('',(-0.10898,0.02954,0.0034));
#598=CARTESIAN_POINT('',(-0.11183,-0.03075,0.0035));
#599=CARTESIAN_POINT('',(-0.11183,0.03075,0.0035));
#600=CARTESIAN_POINT('',(0.11183,-0.03075,0.0035));
#601=CARTESIAN_POINT('',(0.11183,0.03075,0.0035));
#602=CARTESIAN_POINT('',(-0.10898,-0.0257,0.0034));
#603=CARTESIAN_POINT('',(0.10898,-0.0257,0.0034));
#604=CARTESIAN_POINT('',(0.10898,0.02954,0.0034));
#605=CARTESIAN_POINT('',(-0.10898,0.02954,0.0034));
#606=MECHANICAL_DESIGN_GEOMETRIC_PRESENTATION_REPRESENTATION('',(#348,#20),
#607);
#607=(
GEOMETRIC_REPRESENTATION_CONTEXT(3)
GLOBAL_UNCERTAINTY_ASSIGNED_CONTEXT((#608))
GLOBAL_UNIT_ASSIGNED_CONTEXT((#611,#610,#609))
REPRESENTATION_CONTEXT('GLT0881280320IR1','TOP_LEVEL_ASSEMBLY_PART')
);
#608=UNCERTAINTY_MEASURE_WITH_UNIT(LENGTH_MEASURE(1.E-8),#611,
'DISTANCE_ACCURACY_VALUE','Maximum Tolerance applied to model');
#609=(
NAMED_UNIT(*)
SI_UNIT($,.STERADIAN.)
SOLID_ANGLE_UNIT()
);
#610=(
NAMED_UNIT(*)
PLANE_ANGLE_UNIT()
SI_UNIT($,.RADIAN.)
);
#611=(
LENGTH_UNIT()
NAMED_UNIT(*)
SI_UNIT($,.METRE.)
);
#612=PRODUCT_DEFINITION_SHAPE('','',#613);
#613=PRODUCT_DEFINITION('','',#615,#614);
#614=PRODUCT_DEFINITION_CONTEXT('',#621,'design');
#615=PRODUCT_DEFINITION_FORMATION_WITH_SPECIFIED_SOURCE('','',#617,
 .NOT_KNOWN.);
#616=PRODUCT_RELATED_PRODUCT_CATEGORY('','',(#617));
#617=PRODUCT('GLT0881280320IR1','GLT0881280320IR1','GLT0881280320IR1',(#619));
#618=PRODUCT_CATEGORY('','');
#619=PRODUCT_CONTEXT('',#621,'mechanical');
#620=APPLICATION_PROTOCOL_DEFINITION('international standard',
'ap242_managed_model_based_3d_engineering',2011,#621);
#621=APPLICATION_CONTEXT('managed model based 3d engineering');
ENDSEC;
END-ISO-10303-21;
