ISO-10303-21;
HEADER;
/* Generated by software containing ST-Developer
 * from STEP Tools, Inc. (www.steptools.com) 
 */
/* OPTION: using custom renumber hook */

FILE_DESCRIPTION(
/* description */ ('STEP AP242',
'CAx-IF Rec.Pracs.---Representation and Presentation of Product Manufa
cturing Information (PMI)---4.0---2014-10-13',
'CAx-IF Rec.Pracs.---3D Tessellated Geometry---0.4---2014-09-14','2;1'),

/* implementation_level */ '2;1');

FILE_NAME(
/* name */ '67fb38a63cb08d5aa48b5559',
/* time_stamp */ '2025-04-13T04:08:06Z',
/* author */ (''),
/* organization */ (''),
/* preprocessor_version */ 'ST-DEVELOPER v20',
/* originating_system */ 'ONSHAPE BY PTC INC, 1.196',
/* authorisation */ '  ');

FILE_SCHEMA (('AP242_MANAGED_MODEL_BASED_3D_ENGINEERING_MIM_LF { 1 0 10303 442 1 1 4 }'));
ENDSEC;

DATA;
#10=SHAPE_REPRESENTATION_RELATIONSHIP('','',#452,#11);
#11=ADVANCED_BREP_SHAPE_REPRESENTATION('',(#450),#666);
#12=ORIENTED_EDGE('',*,*,#108,.F.);
#13=ORIENTED_EDGE('',*,*,#109,.T.);
#14=ORIENTED_EDGE('',*,*,#110,.T.);
#15=ORIENTED_EDGE('',*,*,#111,.F.);
#16=ORIENTED_EDGE('',*,*,#112,.F.);
#17=ORIENTED_EDGE('',*,*,#113,.T.);
#18=ORIENTED_EDGE('',*,*,#114,.T.);
#19=ORIENTED_EDGE('',*,*,#115,.F.);
#20=ORIENTED_EDGE('',*,*,#116,.F.);
#21=ORIENTED_EDGE('',*,*,#117,.T.);
#22=ORIENTED_EDGE('',*,*,#118,.T.);
#23=ORIENTED_EDGE('',*,*,#119,.F.);
#24=ORIENTED_EDGE('',*,*,#120,.F.);
#25=ORIENTED_EDGE('',*,*,#121,.T.);
#26=ORIENTED_EDGE('',*,*,#122,.T.);
#27=ORIENTED_EDGE('',*,*,#123,.F.);
#28=ORIENTED_EDGE('',*,*,#124,.F.);
#29=ORIENTED_EDGE('',*,*,#125,.F.);
#30=ORIENTED_EDGE('',*,*,#116,.T.);
#31=ORIENTED_EDGE('',*,*,#126,.T.);
#32=ORIENTED_EDGE('',*,*,#127,.T.);
#33=ORIENTED_EDGE('',*,*,#128,.F.);
#34=ORIENTED_EDGE('',*,*,#117,.F.);
#35=ORIENTED_EDGE('',*,*,#125,.T.);
#36=ORIENTED_EDGE('',*,*,#129,.T.);
#37=ORIENTED_EDGE('',*,*,#130,.F.);
#38=ORIENTED_EDGE('',*,*,#118,.F.);
#39=ORIENTED_EDGE('',*,*,#128,.T.);
#40=ORIENTED_EDGE('',*,*,#131,.F.);
#41=ORIENTED_EDGE('',*,*,#126,.F.);
#42=ORIENTED_EDGE('',*,*,#119,.T.);
#43=ORIENTED_EDGE('',*,*,#130,.T.);
#44=ORIENTED_EDGE('',*,*,#132,.F.);
#45=ORIENTED_EDGE('',*,*,#133,.F.);
#46=ORIENTED_EDGE('',*,*,#110,.F.);
#47=ORIENTED_EDGE('',*,*,#134,.T.);
#48=ORIENTED_EDGE('',*,*,#135,.T.);
#49=ORIENTED_EDGE('',*,*,#136,.T.);
#50=ORIENTED_EDGE('',*,*,#132,.T.);
#51=ORIENTED_EDGE('',*,*,#129,.F.);
#52=ORIENTED_EDGE('',*,*,#127,.F.);
#53=ORIENTED_EDGE('',*,*,#124,.T.);
#54=ORIENTED_EDGE('',*,*,#131,.T.);
#55=ORIENTED_EDGE('',*,*,#137,.F.);
#56=ORIENTED_EDGE('',*,*,#121,.F.);
#57=ORIENTED_EDGE('',*,*,#138,.F.);
#58=ORIENTED_EDGE('',*,*,#139,.T.);
#59=ORIENTED_EDGE('',*,*,#140,.T.);
#60=ORIENTED_EDGE('',*,*,#120,.T.);
#61=ORIENTED_EDGE('',*,*,#141,.F.);
#62=ORIENTED_EDGE('',*,*,#142,.F.);
#63=ORIENTED_EDGE('',*,*,#138,.T.);
#64=ORIENTED_EDGE('',*,*,#123,.T.);
#65=ORIENTED_EDGE('',*,*,#143,.F.);
#66=ORIENTED_EDGE('',*,*,#144,.F.);
#67=ORIENTED_EDGE('',*,*,#141,.T.);
#68=ORIENTED_EDGE('',*,*,#122,.F.);
#69=ORIENTED_EDGE('',*,*,#140,.F.);
#70=ORIENTED_EDGE('',*,*,#145,.T.);
#71=ORIENTED_EDGE('',*,*,#143,.T.);
#72=ORIENTED_EDGE('',*,*,#139,.F.);
#73=ORIENTED_EDGE('',*,*,#142,.T.);
#74=ORIENTED_EDGE('',*,*,#144,.T.);
#75=ORIENTED_EDGE('',*,*,#145,.F.);
#76=ORIENTED_EDGE('',*,*,#135,.F.);
#77=ORIENTED_EDGE('',*,*,#146,.F.);
#78=ORIENTED_EDGE('',*,*,#108,.T.);
#79=ORIENTED_EDGE('',*,*,#147,.T.);
#80=ORIENTED_EDGE('',*,*,#137,.T.);
#81=ORIENTED_EDGE('',*,*,#134,.F.);
#82=ORIENTED_EDGE('',*,*,#109,.F.);
#83=ORIENTED_EDGE('',*,*,#146,.T.);
#84=ORIENTED_EDGE('',*,*,#136,.F.);
#85=ORIENTED_EDGE('',*,*,#147,.F.);
#86=ORIENTED_EDGE('',*,*,#111,.T.);
#87=ORIENTED_EDGE('',*,*,#133,.T.);
#88=ORIENTED_EDGE('',*,*,#113,.F.);
#89=ORIENTED_EDGE('',*,*,#148,.F.);
#90=ORIENTED_EDGE('',*,*,#149,.T.);
#91=ORIENTED_EDGE('',*,*,#150,.T.);
#92=ORIENTED_EDGE('',*,*,#112,.T.);
#93=ORIENTED_EDGE('',*,*,#151,.F.);
#94=ORIENTED_EDGE('',*,*,#152,.F.);
#95=ORIENTED_EDGE('',*,*,#148,.T.);
#96=ORIENTED_EDGE('',*,*,#115,.T.);
#97=ORIENTED_EDGE('',*,*,#153,.F.);
#98=ORIENTED_EDGE('',*,*,#154,.F.);
#99=ORIENTED_EDGE('',*,*,#151,.T.);
#100=ORIENTED_EDGE('',*,*,#114,.F.);
#101=ORIENTED_EDGE('',*,*,#150,.F.);
#102=ORIENTED_EDGE('',*,*,#155,.T.);
#103=ORIENTED_EDGE('',*,*,#153,.T.);
#104=ORIENTED_EDGE('',*,*,#149,.F.);
#105=ORIENTED_EDGE('',*,*,#152,.T.);
#106=ORIENTED_EDGE('',*,*,#154,.T.);
#107=ORIENTED_EDGE('',*,*,#155,.F.);
#108=EDGE_CURVE('',#156,#157,#188,.T.);
#109=EDGE_CURVE('',#156,#158,#189,.T.);
#110=EDGE_CURVE('',#158,#159,#190,.T.);
#111=EDGE_CURVE('',#157,#159,#191,.T.);
#112=EDGE_CURVE('',#160,#161,#192,.T.);
#113=EDGE_CURVE('',#160,#162,#193,.T.);
#114=EDGE_CURVE('',#162,#163,#194,.T.);
#115=EDGE_CURVE('',#161,#163,#195,.T.);
#116=EDGE_CURVE('',#164,#165,#196,.T.);
#117=EDGE_CURVE('',#164,#166,#197,.T.);
#118=EDGE_CURVE('',#166,#167,#198,.T.);
#119=EDGE_CURVE('',#165,#167,#199,.T.);
#120=EDGE_CURVE('',#168,#169,#200,.T.);
#121=EDGE_CURVE('',#168,#170,#201,.T.);
#122=EDGE_CURVE('',#170,#171,#202,.T.);
#123=EDGE_CURVE('',#169,#171,#203,.T.);
#124=EDGE_CURVE('',#172,#173,#204,.T.);
#125=EDGE_CURVE('',#164,#172,#205,.T.);
#126=EDGE_CURVE('',#165,#173,#206,.T.);
#127=EDGE_CURVE('',#172,#174,#207,.T.);
#128=EDGE_CURVE('',#166,#174,#208,.T.);
#129=EDGE_CURVE('',#174,#175,#209,.T.);
#130=EDGE_CURVE('',#167,#175,#210,.T.);
#131=EDGE_CURVE('',#173,#176,#211,.T.);
#132=EDGE_CURVE('',#177,#175,#212,.T.);
#133=EDGE_CURVE('',#159,#177,#213,.T.);
#134=EDGE_CURVE('',#158,#176,#214,.T.);
#135=EDGE_CURVE('',#178,#179,#215,.T.);
#136=EDGE_CURVE('',#179,#177,#216,.T.);
#137=EDGE_CURVE('',#178,#176,#217,.T.);
#138=EDGE_CURVE('',#180,#168,#218,.T.);
#139=EDGE_CURVE('',#180,#181,#219,.T.);
#140=EDGE_CURVE('',#181,#170,#220,.T.);
#141=EDGE_CURVE('',#182,#169,#221,.T.);
#142=EDGE_CURVE('',#180,#182,#222,.T.);
#143=EDGE_CURVE('',#183,#171,#223,.T.);
#144=EDGE_CURVE('',#182,#183,#224,.T.);
#145=EDGE_CURVE('',#181,#183,#225,.T.);
#146=EDGE_CURVE('',#156,#178,#226,.T.);
#147=EDGE_CURVE('',#157,#179,#227,.T.);
#148=EDGE_CURVE('',#184,#160,#228,.T.);
#149=EDGE_CURVE('',#184,#185,#229,.T.);
#150=EDGE_CURVE('',#185,#162,#230,.T.);
#151=EDGE_CURVE('',#186,#161,#231,.T.);
#152=EDGE_CURVE('',#184,#186,#232,.T.);
#153=EDGE_CURVE('',#187,#163,#233,.T.);
#154=EDGE_CURVE('',#186,#187,#234,.T.);
#155=EDGE_CURVE('',#185,#187,#235,.T.);
#156=VERTEX_POINT('',#567);
#157=VERTEX_POINT('',#568);
#158=VERTEX_POINT('',#570);
#159=VERTEX_POINT('',#572);
#160=VERTEX_POINT('',#575);
#161=VERTEX_POINT('',#576);
#162=VERTEX_POINT('',#578);
#163=VERTEX_POINT('',#580);
#164=VERTEX_POINT('',#584);
#165=VERTEX_POINT('',#585);
#166=VERTEX_POINT('',#587);
#167=VERTEX_POINT('',#589);
#168=VERTEX_POINT('',#592);
#169=VERTEX_POINT('',#593);
#170=VERTEX_POINT('',#595);
#171=VERTEX_POINT('',#597);
#172=VERTEX_POINT('',#601);
#173=VERTEX_POINT('',#602);
#174=VERTEX_POINT('',#607);
#175=VERTEX_POINT('',#611);
#176=VERTEX_POINT('',#615);
#177=VERTEX_POINT('',#617);
#178=VERTEX_POINT('',#622);
#179=VERTEX_POINT('',#623);
#180=VERTEX_POINT('',#628);
#181=VERTEX_POINT('',#630);
#182=VERTEX_POINT('',#634);
#183=VERTEX_POINT('',#638);
#184=VERTEX_POINT('',#650);
#185=VERTEX_POINT('',#652);
#186=VERTEX_POINT('',#656);
#187=VERTEX_POINT('',#660);
#188=LINE('',#566,#236);
#189=LINE('',#569,#237);
#190=LINE('',#571,#238);
#191=LINE('',#573,#239);
#192=LINE('',#574,#240);
#193=LINE('',#577,#241);
#194=LINE('',#579,#242);
#195=LINE('',#581,#243);
#196=LINE('',#583,#244);
#197=LINE('',#586,#245);
#198=LINE('',#588,#246);
#199=LINE('',#590,#247);
#200=LINE('',#591,#248);
#201=LINE('',#594,#249);
#202=LINE('',#596,#250);
#203=LINE('',#598,#251);
#204=LINE('',#600,#252);
#205=LINE('',#603,#253);
#206=LINE('',#604,#254);
#207=LINE('',#606,#255);
#208=LINE('',#608,#256);
#209=LINE('',#610,#257);
#210=LINE('',#612,#258);
#211=LINE('',#614,#259);
#212=LINE('',#616,#260);
#213=LINE('',#618,#261);
#214=LINE('',#619,#262);
#215=LINE('',#621,#263);
#216=LINE('',#624,#264);
#217=LINE('',#625,#265);
#218=LINE('',#627,#266);
#219=LINE('',#629,#267);
#220=LINE('',#631,#268);
#221=LINE('',#633,#269);
#222=LINE('',#635,#270);
#223=LINE('',#637,#271);
#224=LINE('',#639,#272);
#225=LINE('',#641,#273);
#226=LINE('',#644,#274);
#227=LINE('',#645,#275);
#228=LINE('',#649,#276);
#229=LINE('',#651,#277);
#230=LINE('',#653,#278);
#231=LINE('',#655,#279);
#232=LINE('',#657,#280);
#233=LINE('',#659,#281);
#234=LINE('',#661,#282);
#235=LINE('',#663,#283);
#236=VECTOR('',#478,1.);
#237=VECTOR('',#479,1.);
#238=VECTOR('',#480,1.);
#239=VECTOR('',#481,1.);
#240=VECTOR('',#482,1.);
#241=VECTOR('',#483,1.);
#242=VECTOR('',#484,1.);
#243=VECTOR('',#485,1.);
#244=VECTOR('',#488,1.);
#245=VECTOR('',#489,1.);
#246=VECTOR('',#490,1.);
#247=VECTOR('',#491,1.);
#248=VECTOR('',#492,1.);
#249=VECTOR('',#493,1.);
#250=VECTOR('',#494,1.);
#251=VECTOR('',#495,1.);
#252=VECTOR('',#498,1.);
#253=VECTOR('',#499,1.);
#254=VECTOR('',#500,1.);
#255=VECTOR('',#503,1.);
#256=VECTOR('',#504,1.);
#257=VECTOR('',#507,1.);
#258=VECTOR('',#508,1.);
#259=VECTOR('',#511,1.);
#260=VECTOR('',#512,1.);
#261=VECTOR('',#513,1.);
#262=VECTOR('',#514,1.);
#263=VECTOR('',#517,1.);
#264=VECTOR('',#518,1.);
#265=VECTOR('',#519,1.);
#266=VECTOR('',#522,1.);
#267=VECTOR('',#523,1.);
#268=VECTOR('',#524,1.);
#269=VECTOR('',#527,1.);
#270=VECTOR('',#528,1.);
#271=VECTOR('',#531,1.);
#272=VECTOR('',#532,1.);
#273=VECTOR('',#535,1.);
#274=VECTOR('',#540,1.);
#275=VECTOR('',#541,1.);
#276=VECTOR('',#548,1.);
#277=VECTOR('',#549,1.);
#278=VECTOR('',#550,1.);
#279=VECTOR('',#553,1.);
#280=VECTOR('',#554,1.);
#281=VECTOR('',#557,1.);
#282=VECTOR('',#558,1.);
#283=VECTOR('',#561,1.);
#284=EDGE_LOOP('',(#12,#13,#14,#15));
#285=EDGE_LOOP('',(#16,#17,#18,#19));
#286=EDGE_LOOP('',(#20,#21,#22,#23));
#287=EDGE_LOOP('',(#24,#25,#26,#27));
#288=EDGE_LOOP('',(#28,#29,#30,#31));
#289=EDGE_LOOP('',(#32,#33,#34,#35));
#290=EDGE_LOOP('',(#36,#37,#38,#39));
#291=EDGE_LOOP('',(#40,#41,#42,#43,#44,#45,#46,#47));
#292=EDGE_LOOP('',(#48,#49,#50,#51,#52,#53,#54,#55));
#293=EDGE_LOOP('',(#56,#57,#58,#59));
#294=EDGE_LOOP('',(#60,#61,#62,#63));
#295=EDGE_LOOP('',(#64,#65,#66,#67));
#296=EDGE_LOOP('',(#68,#69,#70,#71));
#297=EDGE_LOOP('',(#72,#73,#74,#75));
#298=EDGE_LOOP('',(#76,#77,#78,#79));
#299=EDGE_LOOP('',(#80,#81,#82,#83));
#300=EDGE_LOOP('',(#84,#85,#86,#87));
#301=EDGE_LOOP('',(#88,#89,#90,#91));
#302=EDGE_LOOP('',(#92,#93,#94,#95));
#303=EDGE_LOOP('',(#96,#97,#98,#99));
#304=EDGE_LOOP('',(#100,#101,#102,#103));
#305=EDGE_LOOP('',(#104,#105,#106,#107));
#306=FACE_BOUND('',#284,.T.);
#307=FACE_BOUND('',#285,.T.);
#308=FACE_BOUND('',#286,.T.);
#309=FACE_BOUND('',#287,.T.);
#310=FACE_BOUND('',#288,.T.);
#311=FACE_BOUND('',#289,.T.);
#312=FACE_BOUND('',#290,.T.);
#313=FACE_BOUND('',#291,.T.);
#314=FACE_BOUND('',#292,.T.);
#315=FACE_BOUND('',#293,.T.);
#316=FACE_BOUND('',#294,.T.);
#317=FACE_BOUND('',#295,.T.);
#318=FACE_BOUND('',#296,.T.);
#319=FACE_BOUND('',#297,.T.);
#320=FACE_BOUND('',#298,.T.);
#321=FACE_BOUND('',#299,.T.);
#322=FACE_BOUND('',#300,.T.);
#323=FACE_BOUND('',#301,.T.);
#324=FACE_BOUND('',#302,.T.);
#325=FACE_BOUND('',#303,.T.);
#326=FACE_BOUND('',#304,.T.);
#327=FACE_BOUND('',#305,.T.);
#328=PLANE('',#454);
#329=PLANE('',#455);
#330=PLANE('',#456);
#331=PLANE('',#457);
#332=PLANE('',#458);
#333=PLANE('',#459);
#334=PLANE('',#460);
#335=PLANE('',#461);
#336=PLANE('',#462);
#337=PLANE('',#463);
#338=PLANE('',#464);
#339=PLANE('',#465);
#340=PLANE('',#466);
#341=PLANE('',#467);
#342=PLANE('',#468);
#343=PLANE('',#469);
#344=PLANE('',#470);
#345=PLANE('',#471);
#346=PLANE('',#472);
#347=PLANE('',#473);
#348=OVER_RIDING_STYLED_ITEM('',(#381),#358,#379);
#349=OVER_RIDING_STYLED_ITEM('',(#382),#369,#379);
#350=OVER_RIDING_STYLED_ITEM('',(#383),#370,#379);
#351=OVER_RIDING_STYLED_ITEM('',(#384),#371,#379);
#352=OVER_RIDING_STYLED_ITEM('',(#385),#372,#379);
#353=OVER_RIDING_STYLED_ITEM('',(#386),#373,#379);
#354=OVER_RIDING_STYLED_ITEM('',(#387),#374,#379);
#355=OVER_RIDING_STYLED_ITEM('',(#388),#375,#379);
#356=OVER_RIDING_STYLED_ITEM('',(#389),#376,#379);
#357=OVER_RIDING_STYLED_ITEM('',(#390),#377,#379);
#358=ADVANCED_FACE('',(#306,#307),#328,.T.);
#359=ADVANCED_FACE('',(#308,#309),#329,.T.);
#360=ADVANCED_FACE('',(#310),#330,.T.);
#361=ADVANCED_FACE('',(#311),#331,.F.);
#362=ADVANCED_FACE('',(#312),#332,.F.);
#363=ADVANCED_FACE('',(#313),#333,.T.);
#364=ADVANCED_FACE('',(#314),#334,.F.);
#365=ADVANCED_FACE('',(#315),#335,.T.);
#366=ADVANCED_FACE('',(#316),#336,.F.);
#367=ADVANCED_FACE('',(#317),#337,.F.);
#368=ADVANCED_FACE('',(#318),#338,.T.);
#369=ADVANCED_FACE('',(#319),#339,.T.);
#370=ADVANCED_FACE('',(#320),#340,.T.);
#371=ADVANCED_FACE('',(#321),#341,.F.);
#372=ADVANCED_FACE('',(#322),#342,.T.);
#373=ADVANCED_FACE('',(#323),#343,.T.);
#374=ADVANCED_FACE('',(#324),#344,.F.);
#375=ADVANCED_FACE('',(#325),#345,.F.);
#376=ADVANCED_FACE('',(#326),#346,.T.);
#377=ADVANCED_FACE('',(#327),#347,.T.);
#378=CLOSED_SHELL('',(#358,#359,#360,#361,#362,#363,#364,#365,#366,#367,
#368,#369,#370,#371,#372,#373,#374,#375,#376,#377));
#379=STYLED_ITEM('',(#380),#450);
#380=PRESENTATION_STYLE_ASSIGNMENT((#391));
#381=PRESENTATION_STYLE_ASSIGNMENT((#392));
#382=PRESENTATION_STYLE_ASSIGNMENT((#393));
#383=PRESENTATION_STYLE_ASSIGNMENT((#394));
#384=PRESENTATION_STYLE_ASSIGNMENT((#395));
#385=PRESENTATION_STYLE_ASSIGNMENT((#396));
#386=PRESENTATION_STYLE_ASSIGNMENT((#397));
#387=PRESENTATION_STYLE_ASSIGNMENT((#398));
#388=PRESENTATION_STYLE_ASSIGNMENT((#399));
#389=PRESENTATION_STYLE_ASSIGNMENT((#400));
#390=PRESENTATION_STYLE_ASSIGNMENT((#401));
#391=SURFACE_STYLE_USAGE(.BOTH.,#402);
#392=SURFACE_STYLE_USAGE(.BOTH.,#403);
#393=SURFACE_STYLE_USAGE(.BOTH.,#404);
#394=SURFACE_STYLE_USAGE(.BOTH.,#405);
#395=SURFACE_STYLE_USAGE(.BOTH.,#406);
#396=SURFACE_STYLE_USAGE(.BOTH.,#407);
#397=SURFACE_STYLE_USAGE(.BOTH.,#408);
#398=SURFACE_STYLE_USAGE(.BOTH.,#409);
#399=SURFACE_STYLE_USAGE(.BOTH.,#410);
#400=SURFACE_STYLE_USAGE(.BOTH.,#411);
#401=SURFACE_STYLE_USAGE(.BOTH.,#412);
#402=SURFACE_SIDE_STYLE('',(#413));
#403=SURFACE_SIDE_STYLE('',(#414));
#404=SURFACE_SIDE_STYLE('',(#415));
#405=SURFACE_SIDE_STYLE('',(#416));
#406=SURFACE_SIDE_STYLE('',(#417));
#407=SURFACE_SIDE_STYLE('',(#418));
#408=SURFACE_SIDE_STYLE('',(#419));
#409=SURFACE_SIDE_STYLE('',(#420));
#410=SURFACE_SIDE_STYLE('',(#421));
#411=SURFACE_SIDE_STYLE('',(#422));
#412=SURFACE_SIDE_STYLE('',(#423));
#413=SURFACE_STYLE_FILL_AREA(#424);
#414=SURFACE_STYLE_FILL_AREA(#425);
#415=SURFACE_STYLE_FILL_AREA(#426);
#416=SURFACE_STYLE_FILL_AREA(#427);
#417=SURFACE_STYLE_FILL_AREA(#428);
#418=SURFACE_STYLE_FILL_AREA(#429);
#419=SURFACE_STYLE_FILL_AREA(#430);
#420=SURFACE_STYLE_FILL_AREA(#431);
#421=SURFACE_STYLE_FILL_AREA(#432);
#422=SURFACE_STYLE_FILL_AREA(#433);
#423=SURFACE_STYLE_FILL_AREA(#434);
#424=FILL_AREA_STYLE('',(#435));
#425=FILL_AREA_STYLE('',(#436));
#426=FILL_AREA_STYLE('',(#437));
#427=FILL_AREA_STYLE('',(#438));
#428=FILL_AREA_STYLE('',(#439));
#429=FILL_AREA_STYLE('',(#440));
#430=FILL_AREA_STYLE('',(#441));
#431=FILL_AREA_STYLE('',(#442));
#432=FILL_AREA_STYLE('',(#443));
#433=FILL_AREA_STYLE('',(#444));
#434=FILL_AREA_STYLE('',(#445));
#435=FILL_AREA_STYLE_COLOUR('',#446);
#436=FILL_AREA_STYLE_COLOUR('',#447);
#437=FILL_AREA_STYLE_COLOUR('',#448);
#438=FILL_AREA_STYLE_COLOUR('',#447);
#439=FILL_AREA_STYLE_COLOUR('',#447);
#440=FILL_AREA_STYLE_COLOUR('',#447);
#441=FILL_AREA_STYLE_COLOUR('',#449);
#442=FILL_AREA_STYLE_COLOUR('',#449);
#443=FILL_AREA_STYLE_COLOUR('',#449);
#444=FILL_AREA_STYLE_COLOUR('',#449);
#445=FILL_AREA_STYLE_COLOUR('',#449);
#446=COLOUR_RGB('',0.294117647058823,0.294117647058823,0.294117647058823);
#447=COLOUR_RGB('',0.972549019607843,0.529411764705882,0.00392156862745098);
#448=COLOUR_RGB('',0.0980392156862745,0.0980392156862745,0.0980392156862745);
#449=COLOUR_RGB('',0.976470588235294,0.956862745098039,0.850980392156863);
#450=MANIFOLD_SOLID_BREP('HSD088IPW1-A00',#378);
#451=SHAPE_DEFINITION_REPRESENTATION(#671,#452);
#452=SHAPE_REPRESENTATION('HSD088IPW1-A00',(#453),#666);
#453=AXIS2_PLACEMENT_3D('',#564,#474,#475);
#454=AXIS2_PLACEMENT_3D('',#565,#476,#477);
#455=AXIS2_PLACEMENT_3D('',#582,#486,#487);
#456=AXIS2_PLACEMENT_3D('',#599,#496,#497);
#457=AXIS2_PLACEMENT_3D('',#605,#501,#502);
#458=AXIS2_PLACEMENT_3D('',#609,#505,#506);
#459=AXIS2_PLACEMENT_3D('',#613,#509,#510);
#460=AXIS2_PLACEMENT_3D('',#620,#515,#516);
#461=AXIS2_PLACEMENT_3D('',#626,#520,#521);
#462=AXIS2_PLACEMENT_3D('',#632,#525,#526);
#463=AXIS2_PLACEMENT_3D('',#636,#529,#530);
#464=AXIS2_PLACEMENT_3D('',#640,#533,#534);
#465=AXIS2_PLACEMENT_3D('',#642,#536,#537);
#466=AXIS2_PLACEMENT_3D('',#643,#538,#539);
#467=AXIS2_PLACEMENT_3D('',#646,#542,#543);
#468=AXIS2_PLACEMENT_3D('',#647,#544,#545);
#469=AXIS2_PLACEMENT_3D('',#648,#546,#547);
#470=AXIS2_PLACEMENT_3D('',#654,#551,#552);
#471=AXIS2_PLACEMENT_3D('',#658,#555,#556);
#472=AXIS2_PLACEMENT_3D('',#662,#559,#560);
#473=AXIS2_PLACEMENT_3D('',#664,#562,#563);
#474=DIRECTION('',(0.,0.,1.));
#475=DIRECTION('',(1.,0.,0.));
#476=DIRECTION('',(0.,0.,-1.));
#477=DIRECTION('',(1.,0.,0.));
#478=DIRECTION('',(0.,-1.,0.));
#479=DIRECTION('',(1.,0.,0.));
#480=DIRECTION('',(0.,-1.,0.));
#481=DIRECTION('',(1.,0.,0.));
#482=DIRECTION('',(-1.,0.,0.));
#483=DIRECTION('',(0.,1.,0.));
#484=DIRECTION('',(-1.,0.,0.));
#485=DIRECTION('',(0.,1.,0.));
#486=DIRECTION('',(0.,0.,1.));
#487=DIRECTION('',(1.,0.,0.));
#488=DIRECTION('',(1.,0.,0.));
#489=DIRECTION('',(0.,-1.,0.));
#490=DIRECTION('',(1.,0.,0.));
#491=DIRECTION('',(0.,-1.,0.));
#492=DIRECTION('',(0.,1.,0.));
#493=DIRECTION('',(-1.,-1.25081458384988E-16,0.));
#494=DIRECTION('',(0.,1.,0.));
#495=DIRECTION('',(-1.,-1.25081458384988E-16,0.));
#496=DIRECTION('',(0.,1.,0.));
#497=DIRECTION('',(0.,0.,1.));
#498=DIRECTION('',(1.,0.,0.));
#499=DIRECTION('',(0.,0.,-1.));
#500=DIRECTION('',(0.,0.,-1.));
#501=DIRECTION('',(1.,0.,0.));
#502=DIRECTION('',(0.,0.,-1.));
#503=DIRECTION('',(0.,-1.,0.));
#504=DIRECTION('',(0.,0.,-1.));
#505=DIRECTION('',(0.,1.,0.));
#506=DIRECTION('',(0.,0.,1.));
#507=DIRECTION('',(1.,0.,0.));
#508=DIRECTION('',(0.,0.,-1.));
#509=DIRECTION('',(1.,0.,0.));
#510=DIRECTION('',(0.,0.,-1.));
#511=DIRECTION('',(0.,-1.,0.));
#512=DIRECTION('',(0.,-1.,0.));
#513=DIRECTION('',(0.,0.,1.));
#514=DIRECTION('',(0.,0.,1.));
#515=DIRECTION('',(0.,0.,1.));
#516=DIRECTION('',(1.,0.,0.));
#517=DIRECTION('',(0.,-1.,0.));
#518=DIRECTION('',(1.,0.,0.));
#519=DIRECTION('',(1.,0.,0.));
#520=DIRECTION('',(-1.25081458384988E-16,1.,0.));
#521=DIRECTION('',(-1.,-1.25081458384988E-16,0.));
#522=DIRECTION('',(0.,0.,1.));
#523=DIRECTION('',(-1.,-1.25081458384988E-16,0.));
#524=DIRECTION('',(0.,0.,1.));
#525=DIRECTION('',(1.,0.,0.));
#526=DIRECTION('',(0.,0.,-1.));
#527=DIRECTION('',(0.,0.,1.));
#528=DIRECTION('',(0.,1.,0.));
#529=DIRECTION('',(-1.25081458384988E-16,1.,0.));
#530=DIRECTION('',(-1.,-1.25081458384988E-16,0.));
#531=DIRECTION('',(0.,0.,1.));
#532=DIRECTION('',(-1.,-1.25081458384988E-16,0.));
#533=DIRECTION('',(1.,0.,0.));
#534=DIRECTION('',(0.,0.,-1.));
#535=DIRECTION('',(0.,1.,0.));
#536=DIRECTION('',(0.,0.,1.));
#537=DIRECTION('',(1.,0.,0.));
#538=DIRECTION('',(-1.,0.,0.));
#539=DIRECTION('',(0.,0.,1.));
#540=DIRECTION('',(0.,0.,1.));
#541=DIRECTION('',(0.,0.,1.));
#542=DIRECTION('',(0.,-1.,0.));
#543=DIRECTION('',(0.,0.,-1.));
#544=DIRECTION('',(0.,-1.,0.));
#545=DIRECTION('',(0.,0.,-1.));
#546=DIRECTION('',(1.,0.,0.));
#547=DIRECTION('',(0.,0.,-1.));
#548=DIRECTION('',(0.,0.,1.));
#549=DIRECTION('',(0.,1.,0.));
#550=DIRECTION('',(0.,0.,1.));
#551=DIRECTION('',(0.,1.,0.));
#552=DIRECTION('',(0.,0.,1.));
#553=DIRECTION('',(0.,0.,1.));
#554=DIRECTION('',(-1.,0.,0.));
#555=DIRECTION('',(1.,0.,0.));
#556=DIRECTION('',(0.,0.,-1.));
#557=DIRECTION('',(0.,0.,1.));
#558=DIRECTION('',(0.,1.,0.));
#559=DIRECTION('',(0.,1.,0.));
#560=DIRECTION('',(0.,0.,1.));
#561=DIRECTION('',(-1.,0.,0.));
#562=DIRECTION('',(0.,0.,-1.));
#563=DIRECTION('',(1.,0.,0.));
#564=CARTESIAN_POINT('',(0.,0.,0.));
#565=CARTESIAN_POINT('',(0.,0.,-0.0003));
#566=CARTESIAN_POINT('',(0.08595,-0.001675,-0.0003));
#567=CARTESIAN_POINT('',(0.08595,0.01115,-0.0003));
#568=CARTESIAN_POINT('',(0.08595,-0.0145,-0.0003));
#569=CARTESIAN_POINT('',(0.1008,0.01115,-0.0003));
#570=CARTESIAN_POINT('',(0.11565,0.01115,-0.0003));
#571=CARTESIAN_POINT('',(0.11565,6.93889390390723E-18,-0.0003));
#572=CARTESIAN_POINT('',(0.11565,-0.0145,-0.0003));
#573=CARTESIAN_POINT('',(0.1008,-0.0145,-0.0003));
#574=CARTESIAN_POINT('',(0.08905,-0.01215,-0.0003));
#575=CARTESIAN_POINT('',(0.09095,-0.01215,-0.0003));
#576=CARTESIAN_POINT('',(0.08715,-0.01215,-0.0003));
#577=CARTESIAN_POINT('',(0.09095,-0.00189999999999998,-0.0003));
#578=CARTESIAN_POINT('',(0.09095,0.00835,-0.0003));
#579=CARTESIAN_POINT('',(0.08905,0.00835,-0.0003));
#580=CARTESIAN_POINT('',(0.08715,0.00835,-0.0003));
#581=CARTESIAN_POINT('',(0.08715,-0.00189999999999998,-0.0003));
#582=CARTESIAN_POINT('',(0.,0.,0.0048));
#583=CARTESIAN_POINT('',(0.,0.03215,0.0048));
#584=CARTESIAN_POINT('',(-0.11565,0.03215,0.0048));
#585=CARTESIAN_POINT('',(0.11565,0.03215,0.0048));
#586=CARTESIAN_POINT('',(-0.11565,6.93889390390723E-18,0.0048));
#587=CARTESIAN_POINT('',(-0.11565,-0.03215,0.0048));
#588=CARTESIAN_POINT('',(0.,-0.03215,0.0048));
#589=CARTESIAN_POINT('',(0.11565,-0.03215,0.0048));
#590=CARTESIAN_POINT('',(0.11565,6.93889390390723E-18,0.0048));
#591=CARTESIAN_POINT('',(0.10875,1.7347234759768E-17,0.0048));
#592=CARTESIAN_POINT('',(0.10875,-0.02885,0.0048));
#593=CARTESIAN_POINT('',(0.10875,0.02885,0.0048));
#594=CARTESIAN_POINT('',(-0.0022,-0.02885,0.0048));
#595=CARTESIAN_POINT('',(-0.11315,-0.02885,0.0048));
#596=CARTESIAN_POINT('',(-0.11315,-1.04083408558608E-17,0.0048));
#597=CARTESIAN_POINT('',(-0.11315,0.02885,0.0048));
#598=CARTESIAN_POINT('',(-0.0022,0.02885,0.0048));
#599=CARTESIAN_POINT('',(0.,0.03215,0.0048));
#600=CARTESIAN_POINT('',(0.,0.03215,0.));
#601=CARTESIAN_POINT('',(-0.11565,0.03215,0.));
#602=CARTESIAN_POINT('',(0.11565,0.03215,0.));
#603=CARTESIAN_POINT('',(-0.11565,0.03215,0.0048));
#604=CARTESIAN_POINT('',(0.11565,0.03215,0.0048));
#605=CARTESIAN_POINT('',(-0.11565,6.93889390390723E-18,0.0048));
#606=CARTESIAN_POINT('',(-0.11565,6.93889390390723E-18,0.));
#607=CARTESIAN_POINT('',(-0.11565,-0.03215,0.));
#608=CARTESIAN_POINT('',(-0.11565,-0.03215,0.0048));
#609=CARTESIAN_POINT('',(0.,-0.03215,0.0048));
#610=CARTESIAN_POINT('',(0.,-0.03215,0.));
#611=CARTESIAN_POINT('',(0.11565,-0.03215,0.));
#612=CARTESIAN_POINT('',(0.11565,-0.03215,0.0048));
#613=CARTESIAN_POINT('',(0.11565,6.93889390390723E-18,0.0048));
#614=CARTESIAN_POINT('',(0.11565,6.93889390390723E-18,0.));
#615=CARTESIAN_POINT('',(0.11565,0.01115,0.));
#616=CARTESIAN_POINT('',(0.11565,6.93889390390723E-18,0.));
#617=CARTESIAN_POINT('',(0.11565,-0.0145,0.));
#618=CARTESIAN_POINT('',(0.11565,-0.0145,-0.0003));
#619=CARTESIAN_POINT('',(0.11565,0.01115,-0.0003));
#620=CARTESIAN_POINT('',(0.,0.,0.));
#621=CARTESIAN_POINT('',(0.08595,-0.001675,0.));
#622=CARTESIAN_POINT('',(0.08595,0.01115,0.));
#623=CARTESIAN_POINT('',(0.08595,-0.0145,0.));
#624=CARTESIAN_POINT('',(0.1008,-0.0145,0.));
#625=CARTESIAN_POINT('',(0.1008,0.01115,0.));
#626=CARTESIAN_POINT('',(-0.0022,-0.02885,0.0047));
#627=CARTESIAN_POINT('',(0.10875,-0.02885,0.0047));
#628=CARTESIAN_POINT('',(0.10875,-0.02885,0.0047));
#629=CARTESIAN_POINT('',(-0.0022,-0.02885,0.0047));
#630=CARTESIAN_POINT('',(-0.11315,-0.02885,0.0047));
#631=CARTESIAN_POINT('',(-0.11315,-0.02885,0.0047));
#632=CARTESIAN_POINT('',(0.10875,1.7347234759768E-17,0.0047));
#633=CARTESIAN_POINT('',(0.10875,0.02885,0.0047));
#634=CARTESIAN_POINT('',(0.10875,0.02885,0.0047));
#635=CARTESIAN_POINT('',(0.10875,1.7347234759768E-17,0.0047));
#636=CARTESIAN_POINT('',(-0.0022,0.02885,0.0047));
#637=CARTESIAN_POINT('',(-0.11315,0.02885,0.0047));
#638=CARTESIAN_POINT('',(-0.11315,0.02885,0.0047));
#639=CARTESIAN_POINT('',(-0.0022,0.02885,0.0047));
#640=CARTESIAN_POINT('',(-0.11315,-1.04083408558608E-17,0.0047));
#641=CARTESIAN_POINT('',(-0.11315,-1.04083408558608E-17,0.0047));
#642=CARTESIAN_POINT('',(0.,0.,0.0047));
#643=CARTESIAN_POINT('',(0.08595,-0.001675,-0.0003));
#644=CARTESIAN_POINT('',(0.08595,0.01115,-0.0003));
#645=CARTESIAN_POINT('',(0.08595,-0.0145,-0.0003));
#646=CARTESIAN_POINT('',(0.1008,0.01115,-0.0003));
#647=CARTESIAN_POINT('',(0.1008,-0.0145,-0.0003));
#648=CARTESIAN_POINT('',(0.09095,-0.00189999999999998,-0.0012));
#649=CARTESIAN_POINT('',(0.09095,-0.01215,-0.0012));
#650=CARTESIAN_POINT('',(0.09095,-0.01215,-0.0012));
#651=CARTESIAN_POINT('',(0.09095,-0.00189999999999998,-0.0012));
#652=CARTESIAN_POINT('',(0.09095,0.00835,-0.0012));
#653=CARTESIAN_POINT('',(0.09095,0.00835,-0.0012));
#654=CARTESIAN_POINT('',(0.08905,-0.01215,-0.0012));
#655=CARTESIAN_POINT('',(0.08715,-0.01215,-0.0012));
#656=CARTESIAN_POINT('',(0.08715,-0.01215,-0.0012));
#657=CARTESIAN_POINT('',(0.08905,-0.01215,-0.0012));
#658=CARTESIAN_POINT('',(0.08715,-0.00189999999999998,-0.0012));
#659=CARTESIAN_POINT('',(0.08715,0.00835,-0.0012));
#660=CARTESIAN_POINT('',(0.08715,0.00835,-0.0012));
#661=CARTESIAN_POINT('',(0.08715,-0.00189999999999998,-0.0012));
#662=CARTESIAN_POINT('',(0.08905,0.00835,-0.0012));
#663=CARTESIAN_POINT('',(0.08905,0.00835,-0.0012));
#664=CARTESIAN_POINT('',(0.1008,-0.001675,-0.0012));
#665=MECHANICAL_DESIGN_GEOMETRIC_PRESENTATION_REPRESENTATION('',(#379,#348,
#349,#350,#351,#352,#353,#354,#355,#356,#357),#666);
#666=(
GEOMETRIC_REPRESENTATION_CONTEXT(3)
GLOBAL_UNCERTAINTY_ASSIGNED_CONTEXT((#667))
GLOBAL_UNIT_ASSIGNED_CONTEXT((#670,#669,#668))
REPRESENTATION_CONTEXT('HSD088IPW1-A00','TOP_LEVEL_ASSEMBLY_PART')
);
#667=UNCERTAINTY_MEASURE_WITH_UNIT(LENGTH_MEASURE(1.E-8),#670,
'DISTANCE_ACCURACY_VALUE','Maximum Tolerance applied to model');
#668=(
NAMED_UNIT(*)
SI_UNIT($,.STERADIAN.)
SOLID_ANGLE_UNIT()
);
#669=(
NAMED_UNIT(*)
PLANE_ANGLE_UNIT()
SI_UNIT($,.RADIAN.)
);
#670=(
LENGTH_UNIT()
NAMED_UNIT(*)
SI_UNIT($,.METRE.)
);
#671=PRODUCT_DEFINITION_SHAPE('','',#672);
#672=PRODUCT_DEFINITION('','',#674,#673);
#673=PRODUCT_DEFINITION_CONTEXT('',#680,'design');
#674=PRODUCT_DEFINITION_FORMATION_WITH_SPECIFIED_SOURCE('','',#676,
 .NOT_KNOWN.);
#675=PRODUCT_RELATED_PRODUCT_CATEGORY('','',(#676));
#676=PRODUCT('HSD088IPW1-A00','HSD088IPW1-A00','HSD088IPW1-A00',(#678));
#677=PRODUCT_CATEGORY('','');
#678=PRODUCT_CONTEXT('',#680,'mechanical');
#679=APPLICATION_PROTOCOL_DEFINITION('international standard',
'ap242_managed_model_based_3d_engineering',2011,#680);
#680=APPLICATION_CONTEXT('managed model based 3d engineering');
ENDSEC;
END-ISO-10303-21;
