ISO-10303-21;
HEADER;
/* Generated by software containing ST-Developer
 * from STEP Tools, Inc. (www.steptools.com) 
 */
/* OPTION: using custom renumber hook */

FILE_DESCRIPTION(
/* description */ ('STEP AP242',
'CAx-IF Rec.Pracs.---Representation and Presentation of Product Manufa
cturing Information (PMI)---4.0---2014-10-13',
'CAx-IF Rec.Pracs.---3D Tessellated Geometry---0.4---2014-09-14','2;1'),

/* implementation_level */ '2;1');

FILE_NAME(
/* name */ '67e224a80862137604b6dc1e',
/* time_stamp */ '2025-03-25T03:36:08Z',
/* author */ (''),
/* organization */ (''),
/* preprocessor_version */ 'ST-DEVELOPER v20',
/* originating_system */ 'ONSHAPE BY PTC INC, 1.195',
/* authorisation */ '  ');

FILE_SCHEMA (('AP242_MANAGED_MODEL_BASED_3D_ENGINEERING_MIM_LF { 1 0 10303 442 1 1 4 }'));
ENDSEC;

DATA;
#10=SHAPE_REPRESENTATION_RELATIONSHIP('','',#1225,#11);
#11=ADVANCED_BREP_SHAPE_REPRESENTATION('',(#1223),#2031);
#12=CYLINDRICAL_SURFACE('',#1230,0.00075);
#13=CYLINDRICAL_SURFACE('',#1236,0.00075);
#14=CYLINDRICAL_SURFACE('',#1255,0.0005);
#15=CYLINDRICAL_SURFACE('',#1258,0.0005);
#16=CYLINDRICAL_SURFACE('',#1261,0.00075);
#17=CYLINDRICAL_SURFACE('',#1264,0.00075);
#18=CYLINDRICAL_SURFACE('',#1267,0.0005);
#19=CYLINDRICAL_SURFACE('',#1270,0.0005);
#20=CYLINDRICAL_SURFACE('',#1273,0.0005);
#21=CYLINDRICAL_SURFACE('',#1304,0.0005);
#22=CYLINDRICAL_SURFACE('',#1305,0.0005);
#23=CYLINDRICAL_SURFACE('',#1306,0.0002);
#24=CYLINDRICAL_SURFACE('',#1307,0.0002);
#25=CYLINDRICAL_SURFACE('',#1308,0.0005);
#26=CYLINDRICAL_SURFACE('',#1309,0.0005);
#27=CYLINDRICAL_SURFACE('',#1310,0.00075);
#28=CYLINDRICAL_SURFACE('',#1311,0.00075);
#29=CYLINDRICAL_SURFACE('',#1316,0.001);
#30=CYLINDRICAL_SURFACE('',#1317,0.001);
#31=CYLINDRICAL_SURFACE('',#1318,0.001);
#32=CYLINDRICAL_SURFACE('',#1319,0.001);
#33=CIRCLE('',#1228,0.001);
#34=CIRCLE('',#1229,0.001);
#35=CIRCLE('',#1231,0.00075);
#36=CIRCLE('',#1232,0.00075);
#37=CIRCLE('',#1234,0.001);
#38=CIRCLE('',#1235,0.001);
#39=CIRCLE('',#1237,0.00075);
#40=CIRCLE('',#1238,0.00075);
#41=CIRCLE('',#1241,0.00075);
#42=CIRCLE('',#1242,0.0002);
#43=CIRCLE('',#1243,0.0005);
#44=CIRCLE('',#1244,0.0005);
#45=CIRCLE('',#1246,0.0005);
#46=CIRCLE('',#1247,0.0005);
#47=CIRCLE('',#1248,0.0002);
#48=CIRCLE('',#1249,0.00075);
#49=CIRCLE('',#1256,0.0005);
#50=CIRCLE('',#1257,0.0005);
#51=CIRCLE('',#1259,0.0005);
#52=CIRCLE('',#1260,0.0005);
#53=CIRCLE('',#1262,0.00075);
#54=CIRCLE('',#1263,0.00075);
#55=CIRCLE('',#1265,0.00075);
#56=CIRCLE('',#1266,0.00075);
#57=CIRCLE('',#1268,0.0005);
#58=CIRCLE('',#1269,0.0005);
#59=CIRCLE('',#1271,0.0005);
#60=CIRCLE('',#1272,0.0005);
#61=CIRCLE('',#1274,0.0005);
#62=CIRCLE('',#1275,0.0005);
#63=CIRCLE('',#1277,0.001);
#64=CIRCLE('',#1278,0.001);
#65=CIRCLE('',#1280,0.001);
#66=CIRCLE('',#1281,0.001);
#67=CIRCLE('',#1295,0.0005);
#68=CIRCLE('',#1296,0.0005);
#69=CIRCLE('',#1297,0.0002);
#70=CIRCLE('',#1298,0.00075);
#71=CIRCLE('',#1300,0.00075);
#72=CIRCLE('',#1301,0.0002);
#73=CIRCLE('',#1302,0.0005);
#74=CIRCLE('',#1303,0.0005);
#75=ORIENTED_EDGE('',*,*,#427,.T.);
#76=ORIENTED_EDGE('',*,*,#428,.T.);
#77=ORIENTED_EDGE('',*,*,#429,.F.);
#78=ORIENTED_EDGE('',*,*,#430,.T.);
#79=ORIENTED_EDGE('',*,*,#431,.F.);
#80=ORIENTED_EDGE('',*,*,#432,.T.);
#81=ORIENTED_EDGE('',*,*,#433,.T.);
#82=ORIENTED_EDGE('',*,*,#434,.T.);
#83=ORIENTED_EDGE('',*,*,#435,.F.);
#84=ORIENTED_EDGE('',*,*,#436,.F.);
#85=ORIENTED_EDGE('',*,*,#437,.F.);
#86=ORIENTED_EDGE('',*,*,#438,.T.);
#87=ORIENTED_EDGE('',*,*,#439,.T.);
#88=ORIENTED_EDGE('',*,*,#440,.T.);
#89=ORIENTED_EDGE('',*,*,#441,.T.);
#90=ORIENTED_EDGE('',*,*,#442,.T.);
#91=ORIENTED_EDGE('',*,*,#443,.T.);
#92=ORIENTED_EDGE('',*,*,#444,.T.);
#93=ORIENTED_EDGE('',*,*,#445,.F.);
#94=ORIENTED_EDGE('',*,*,#446,.T.);
#95=ORIENTED_EDGE('',*,*,#447,.F.);
#96=ORIENTED_EDGE('',*,*,#448,.F.);
#97=ORIENTED_EDGE('',*,*,#449,.F.);
#98=ORIENTED_EDGE('',*,*,#450,.F.);
#99=ORIENTED_EDGE('',*,*,#451,.T.);
#100=ORIENTED_EDGE('',*,*,#452,.F.);
#101=ORIENTED_EDGE('',*,*,#453,.F.);
#102=ORIENTED_EDGE('',*,*,#454,.F.);
#103=ORIENTED_EDGE('',*,*,#455,.F.);
#104=ORIENTED_EDGE('',*,*,#456,.T.);
#105=ORIENTED_EDGE('',*,*,#457,.T.);
#106=ORIENTED_EDGE('',*,*,#458,.F.);
#107=ORIENTED_EDGE('',*,*,#459,.T.);
#108=ORIENTED_EDGE('',*,*,#460,.T.);
#109=ORIENTED_EDGE('',*,*,#461,.F.);
#110=ORIENTED_EDGE('',*,*,#462,.F.);
#111=ORIENTED_EDGE('',*,*,#463,.T.);
#112=ORIENTED_EDGE('',*,*,#464,.T.);
#113=ORIENTED_EDGE('',*,*,#465,.T.);
#114=ORIENTED_EDGE('',*,*,#461,.T.);
#115=ORIENTED_EDGE('',*,*,#466,.T.);
#116=ORIENTED_EDGE('',*,*,#467,.T.);
#117=ORIENTED_EDGE('',*,*,#468,.F.);
#118=ORIENTED_EDGE('',*,*,#469,.T.);
#119=ORIENTED_EDGE('',*,*,#470,.F.);
#120=ORIENTED_EDGE('',*,*,#471,.F.);
#121=ORIENTED_EDGE('',*,*,#472,.T.);
#122=ORIENTED_EDGE('',*,*,#473,.T.);
#123=ORIENTED_EDGE('',*,*,#474,.T.);
#124=ORIENTED_EDGE('',*,*,#475,.T.);
#125=ORIENTED_EDGE('',*,*,#476,.T.);
#126=ORIENTED_EDGE('',*,*,#477,.F.);
#127=ORIENTED_EDGE('',*,*,#478,.F.);
#128=ORIENTED_EDGE('',*,*,#459,.F.);
#129=ORIENTED_EDGE('',*,*,#479,.T.);
#130=ORIENTED_EDGE('',*,*,#480,.F.);
#131=ORIENTED_EDGE('',*,*,#481,.T.);
#132=ORIENTED_EDGE('',*,*,#482,.F.);
#133=ORIENTED_EDGE('',*,*,#483,.T.);
#134=ORIENTED_EDGE('',*,*,#484,.F.);
#135=ORIENTED_EDGE('',*,*,#485,.T.);
#136=ORIENTED_EDGE('',*,*,#486,.T.);
#137=ORIENTED_EDGE('',*,*,#487,.T.);
#138=ORIENTED_EDGE('',*,*,#488,.T.);
#139=ORIENTED_EDGE('',*,*,#489,.T.);
#140=ORIENTED_EDGE('',*,*,#490,.F.);
#141=ORIENTED_EDGE('',*,*,#491,.T.);
#142=ORIENTED_EDGE('',*,*,#492,.T.);
#143=ORIENTED_EDGE('',*,*,#493,.T.);
#144=ORIENTED_EDGE('',*,*,#494,.T.);
#145=ORIENTED_EDGE('',*,*,#495,.F.);
#146=ORIENTED_EDGE('',*,*,#476,.F.);
#147=ORIENTED_EDGE('',*,*,#496,.T.);
#148=ORIENTED_EDGE('',*,*,#480,.T.);
#149=ORIENTED_EDGE('',*,*,#497,.F.);
#150=ORIENTED_EDGE('',*,*,#498,.T.);
#151=ORIENTED_EDGE('',*,*,#499,.T.);
#152=ORIENTED_EDGE('',*,*,#500,.F.);
#153=ORIENTED_EDGE('',*,*,#437,.T.);
#154=ORIENTED_EDGE('',*,*,#501,.T.);
#155=ORIENTED_EDGE('',*,*,#502,.T.);
#156=ORIENTED_EDGE('',*,*,#503,.F.);
#157=ORIENTED_EDGE('',*,*,#504,.T.);
#158=ORIENTED_EDGE('',*,*,#505,.T.);
#159=ORIENTED_EDGE('',*,*,#452,.T.);
#160=ORIENTED_EDGE('',*,*,#506,.T.);
#161=ORIENTED_EDGE('',*,*,#507,.T.);
#162=ORIENTED_EDGE('',*,*,#508,.T.);
#163=ORIENTED_EDGE('',*,*,#509,.F.);
#164=ORIENTED_EDGE('',*,*,#510,.T.);
#165=ORIENTED_EDGE('',*,*,#511,.T.);
#166=ORIENTED_EDGE('',*,*,#512,.T.);
#167=ORIENTED_EDGE('',*,*,#513,.F.);
#168=ORIENTED_EDGE('',*,*,#514,.F.);
#169=ORIENTED_EDGE('',*,*,#502,.F.);
#170=ORIENTED_EDGE('',*,*,#515,.T.);
#171=ORIENTED_EDGE('',*,*,#457,.F.);
#172=ORIENTED_EDGE('',*,*,#516,.F.);
#173=ORIENTED_EDGE('',*,*,#463,.F.);
#174=ORIENTED_EDGE('',*,*,#517,.T.);
#175=ORIENTED_EDGE('',*,*,#504,.F.);
#176=ORIENTED_EDGE('',*,*,#512,.F.);
#177=ORIENTED_EDGE('',*,*,#518,.T.);
#178=ORIENTED_EDGE('',*,*,#498,.F.);
#179=ORIENTED_EDGE('',*,*,#519,.F.);
#180=ORIENTED_EDGE('',*,*,#494,.F.);
#181=ORIENTED_EDGE('',*,*,#520,.T.);
#182=ORIENTED_EDGE('',*,*,#506,.F.);
#183=ORIENTED_EDGE('',*,*,#521,.F.);
#184=ORIENTED_EDGE('',*,*,#522,.F.);
#185=ORIENTED_EDGE('',*,*,#439,.F.);
#186=ORIENTED_EDGE('',*,*,#523,.T.);
#187=ORIENTED_EDGE('',*,*,#508,.F.);
#188=ORIENTED_EDGE('',*,*,#524,.F.);
#189=ORIENTED_EDGE('',*,*,#525,.T.);
#190=ORIENTED_EDGE('',*,*,#446,.F.);
#191=ORIENTED_EDGE('',*,*,#526,.F.);
#192=ORIENTED_EDGE('',*,*,#527,.F.);
#193=ORIENTED_EDGE('',*,*,#510,.F.);
#194=ORIENTED_EDGE('',*,*,#528,.T.);
#195=ORIENTED_EDGE('',*,*,#427,.F.);
#196=ORIENTED_EDGE('',*,*,#529,.T.);
#197=ORIENTED_EDGE('',*,*,#530,.T.);
#198=ORIENTED_EDGE('',*,*,#435,.T.);
#199=ORIENTED_EDGE('',*,*,#531,.T.);
#200=ORIENTED_EDGE('',*,*,#532,.F.);
#201=ORIENTED_EDGE('',*,*,#533,.F.);
#202=ORIENTED_EDGE('',*,*,#534,.T.);
#203=ORIENTED_EDGE('',*,*,#535,.T.);
#204=ORIENTED_EDGE('',*,*,#536,.T.);
#205=ORIENTED_EDGE('',*,*,#537,.T.);
#206=ORIENTED_EDGE('',*,*,#538,.T.);
#207=ORIENTED_EDGE('',*,*,#539,.T.);
#208=ORIENTED_EDGE('',*,*,#450,.T.);
#209=ORIENTED_EDGE('',*,*,#540,.T.);
#210=ORIENTED_EDGE('',*,*,#541,.T.);
#211=ORIENTED_EDGE('',*,*,#542,.T.);
#212=ORIENTED_EDGE('',*,*,#543,.F.);
#213=ORIENTED_EDGE('',*,*,#544,.T.);
#214=ORIENTED_EDGE('',*,*,#545,.F.);
#215=ORIENTED_EDGE('',*,*,#441,.F.);
#216=ORIENTED_EDGE('',*,*,#546,.T.);
#217=ORIENTED_EDGE('',*,*,#545,.T.);
#218=ORIENTED_EDGE('',*,*,#547,.T.);
#219=ORIENTED_EDGE('',*,*,#548,.F.);
#220=ORIENTED_EDGE('',*,*,#526,.T.);
#221=ORIENTED_EDGE('',*,*,#445,.T.);
#222=ORIENTED_EDGE('',*,*,#549,.T.);
#223=ORIENTED_EDGE('',*,*,#541,.F.);
#224=ORIENTED_EDGE('',*,*,#485,.F.);
#225=ORIENTED_EDGE('',*,*,#550,.F.);
#226=ORIENTED_EDGE('',*,*,#471,.T.);
#227=ORIENTED_EDGE('',*,*,#551,.T.);
#228=ORIENTED_EDGE('',*,*,#484,.T.);
#229=ORIENTED_EDGE('',*,*,#552,.T.);
#230=ORIENTED_EDGE('',*,*,#472,.F.);
#231=ORIENTED_EDGE('',*,*,#550,.T.);
#232=ORIENTED_EDGE('',*,*,#482,.T.);
#233=ORIENTED_EDGE('',*,*,#553,.T.);
#234=ORIENTED_EDGE('',*,*,#474,.F.);
#235=ORIENTED_EDGE('',*,*,#554,.T.);
#236=ORIENTED_EDGE('',*,*,#555,.F.);
#237=ORIENTED_EDGE('',*,*,#556,.T.);
#238=ORIENTED_EDGE('',*,*,#557,.T.);
#239=ORIENTED_EDGE('',*,*,#558,.T.);
#240=ORIENTED_EDGE('',*,*,#559,.F.);
#241=ORIENTED_EDGE('',*,*,#560,.T.);
#242=ORIENTED_EDGE('',*,*,#561,.T.);
#243=ORIENTED_EDGE('',*,*,#562,.F.);
#244=ORIENTED_EDGE('',*,*,#563,.T.);
#245=ORIENTED_EDGE('',*,*,#564,.F.);
#246=ORIENTED_EDGE('',*,*,#565,.F.);
#247=ORIENTED_EDGE('',*,*,#562,.T.);
#248=ORIENTED_EDGE('',*,*,#566,.F.);
#249=ORIENTED_EDGE('',*,*,#567,.T.);
#250=ORIENTED_EDGE('',*,*,#568,.T.);
#251=ORIENTED_EDGE('',*,*,#564,.T.);
#252=ORIENTED_EDGE('',*,*,#569,.F.);
#253=ORIENTED_EDGE('',*,*,#570,.T.);
#254=ORIENTED_EDGE('',*,*,#571,.T.);
#255=ORIENTED_EDGE('',*,*,#572,.T.);
#256=ORIENTED_EDGE('',*,*,#468,.T.);
#257=ORIENTED_EDGE('',*,*,#573,.T.);
#258=ORIENTED_EDGE('',*,*,#488,.F.);
#259=ORIENTED_EDGE('',*,*,#574,.T.);
#260=ORIENTED_EDGE('',*,*,#470,.T.);
#261=ORIENTED_EDGE('',*,*,#575,.T.);
#262=ORIENTED_EDGE('',*,*,#486,.F.);
#263=ORIENTED_EDGE('',*,*,#551,.F.);
#264=ORIENTED_EDGE('',*,*,#576,.F.);
#265=ORIENTED_EDGE('',*,*,#465,.F.);
#266=ORIENTED_EDGE('',*,*,#577,.T.);
#267=ORIENTED_EDGE('',*,*,#492,.F.);
#268=ORIENTED_EDGE('',*,*,#578,.T.);
#269=ORIENTED_EDGE('',*,*,#555,.T.);
#270=ORIENTED_EDGE('',*,*,#579,.T.);
#271=ORIENTED_EDGE('',*,*,#559,.T.);
#272=ORIENTED_EDGE('',*,*,#565,.T.);
#273=ORIENTED_EDGE('',*,*,#568,.F.);
#274=ORIENTED_EDGE('',*,*,#580,.T.);
#275=ORIENTED_EDGE('',*,*,#571,.F.);
#276=ORIENTED_EDGE('',*,*,#581,.T.);
#277=ORIENTED_EDGE('',*,*,#455,.T.);
#278=ORIENTED_EDGE('',*,*,#582,.T.);
#279=ORIENTED_EDGE('',*,*,#583,.T.);
#280=ORIENTED_EDGE('',*,*,#569,.T.);
#281=ORIENTED_EDGE('',*,*,#584,.T.);
#282=ORIENTED_EDGE('',*,*,#566,.T.);
#283=ORIENTED_EDGE('',*,*,#563,.F.);
#284=ORIENTED_EDGE('',*,*,#561,.F.);
#285=ORIENTED_EDGE('',*,*,#585,.T.);
#286=ORIENTED_EDGE('',*,*,#557,.F.);
#287=ORIENTED_EDGE('',*,*,#586,.T.);
#288=ORIENTED_EDGE('',*,*,#490,.T.);
#289=ORIENTED_EDGE('',*,*,#587,.F.);
#290=ORIENTED_EDGE('',*,*,#579,.F.);
#291=ORIENTED_EDGE('',*,*,#558,.F.);
#292=ORIENTED_EDGE('',*,*,#585,.F.);
#293=ORIENTED_EDGE('',*,*,#560,.F.);
#294=ORIENTED_EDGE('',*,*,#473,.F.);
#295=ORIENTED_EDGE('',*,*,#552,.F.);
#296=ORIENTED_EDGE('',*,*,#483,.F.);
#297=ORIENTED_EDGE('',*,*,#554,.F.);
#298=ORIENTED_EDGE('',*,*,#580,.F.);
#299=ORIENTED_EDGE('',*,*,#567,.F.);
#300=ORIENTED_EDGE('',*,*,#584,.F.);
#301=ORIENTED_EDGE('',*,*,#572,.F.);
#302=ORIENTED_EDGE('',*,*,#469,.F.);
#303=ORIENTED_EDGE('',*,*,#574,.F.);
#304=ORIENTED_EDGE('',*,*,#487,.F.);
#305=ORIENTED_EDGE('',*,*,#575,.F.);
#306=ORIENTED_EDGE('',*,*,#578,.F.);
#307=ORIENTED_EDGE('',*,*,#491,.F.);
#308=ORIENTED_EDGE('',*,*,#586,.F.);
#309=ORIENTED_EDGE('',*,*,#556,.F.);
#310=ORIENTED_EDGE('',*,*,#475,.F.);
#311=ORIENTED_EDGE('',*,*,#553,.F.);
#312=ORIENTED_EDGE('',*,*,#481,.F.);
#313=ORIENTED_EDGE('',*,*,#496,.F.);
#314=ORIENTED_EDGE('',*,*,#588,.F.);
#315=ORIENTED_EDGE('',*,*,#581,.F.);
#316=ORIENTED_EDGE('',*,*,#570,.F.);
#317=ORIENTED_EDGE('',*,*,#583,.F.);
#318=ORIENTED_EDGE('',*,*,#589,.F.);
#319=ORIENTED_EDGE('',*,*,#489,.F.);
#320=ORIENTED_EDGE('',*,*,#573,.F.);
#321=ORIENTED_EDGE('',*,*,#467,.F.);
#322=ORIENTED_EDGE('',*,*,#431,.T.);
#323=ORIENTED_EDGE('',*,*,#590,.T.);
#324=ORIENTED_EDGE('',*,*,#535,.F.);
#325=ORIENTED_EDGE('',*,*,#591,.T.);
#326=ORIENTED_EDGE('',*,*,#443,.F.);
#327=ORIENTED_EDGE('',*,*,#592,.T.);
#328=ORIENTED_EDGE('',*,*,#543,.T.);
#329=ORIENTED_EDGE('',*,*,#593,.T.);
#330=ORIENTED_EDGE('',*,*,#594,.F.);
#331=ORIENTED_EDGE('',*,*,#433,.F.);
#332=ORIENTED_EDGE('',*,*,#595,.T.);
#333=ORIENTED_EDGE('',*,*,#533,.T.);
#334=ORIENTED_EDGE('',*,*,#429,.T.);
#335=ORIENTED_EDGE('',*,*,#596,.T.);
#336=ORIENTED_EDGE('',*,*,#537,.F.);
#337=ORIENTED_EDGE('',*,*,#597,.T.);
#338=ORIENTED_EDGE('',*,*,#430,.F.);
#339=ORIENTED_EDGE('',*,*,#597,.F.);
#340=ORIENTED_EDGE('',*,*,#536,.F.);
#341=ORIENTED_EDGE('',*,*,#590,.F.);
#342=ORIENTED_EDGE('',*,*,#432,.F.);
#343=ORIENTED_EDGE('',*,*,#591,.F.);
#344=ORIENTED_EDGE('',*,*,#534,.F.);
#345=ORIENTED_EDGE('',*,*,#595,.F.);
#346=ORIENTED_EDGE('',*,*,#544,.F.);
#347=ORIENTED_EDGE('',*,*,#592,.F.);
#348=ORIENTED_EDGE('',*,*,#442,.F.);
#349=ORIENTED_EDGE('',*,*,#547,.F.);
#350=ORIENTED_EDGE('',*,*,#542,.F.);
#351=ORIENTED_EDGE('',*,*,#549,.F.);
#352=ORIENTED_EDGE('',*,*,#444,.F.);
#353=ORIENTED_EDGE('',*,*,#593,.F.);
#354=ORIENTED_EDGE('',*,*,#440,.F.);
#355=ORIENTED_EDGE('',*,*,#598,.F.);
#356=ORIENTED_EDGE('',*,*,#538,.F.);
#357=ORIENTED_EDGE('',*,*,#546,.F.);
#358=ORIENTED_EDGE('',*,*,#594,.T.);
#359=ORIENTED_EDGE('',*,*,#532,.T.);
#360=ORIENTED_EDGE('',*,*,#599,.T.);
#361=ORIENTED_EDGE('',*,*,#434,.F.);
#362=ORIENTED_EDGE('',*,*,#524,.T.);
#363=ORIENTED_EDGE('',*,*,#548,.T.);
#364=ORIENTED_EDGE('',*,*,#540,.F.);
#365=ORIENTED_EDGE('',*,*,#600,.F.);
#366=ORIENTED_EDGE('',*,*,#448,.T.);
#367=ORIENTED_EDGE('',*,*,#601,.F.);
#368=ORIENTED_EDGE('',*,*,#428,.F.);
#369=ORIENTED_EDGE('',*,*,#602,.T.);
#370=ORIENTED_EDGE('',*,*,#529,.F.);
#371=ORIENTED_EDGE('',*,*,#596,.F.);
#372=ORIENTED_EDGE('',*,*,#519,.T.);
#373=ORIENTED_EDGE('',*,*,#497,.T.);
#374=ORIENTED_EDGE('',*,*,#479,.F.);
#375=ORIENTED_EDGE('',*,*,#458,.T.);
#376=ORIENTED_EDGE('',*,*,#515,.F.);
#377=ORIENTED_EDGE('',*,*,#501,.F.);
#378=ORIENTED_EDGE('',*,*,#436,.T.);
#379=ORIENTED_EDGE('',*,*,#530,.F.);
#380=ORIENTED_EDGE('',*,*,#602,.F.);
#381=ORIENTED_EDGE('',*,*,#528,.F.);
#382=ORIENTED_EDGE('',*,*,#513,.T.);
#383=ORIENTED_EDGE('',*,*,#511,.F.);
#384=ORIENTED_EDGE('',*,*,#527,.T.);
#385=ORIENTED_EDGE('',*,*,#599,.F.);
#386=ORIENTED_EDGE('',*,*,#531,.F.);
#387=ORIENTED_EDGE('',*,*,#438,.F.);
#388=ORIENTED_EDGE('',*,*,#500,.T.);
#389=ORIENTED_EDGE('',*,*,#514,.T.);
#390=ORIENTED_EDGE('',*,*,#456,.F.);
#391=ORIENTED_EDGE('',*,*,#587,.T.);
#392=ORIENTED_EDGE('',*,*,#499,.F.);
#393=ORIENTED_EDGE('',*,*,#518,.F.);
#394=ORIENTED_EDGE('',*,*,#521,.T.);
#395=ORIENTED_EDGE('',*,*,#509,.T.);
#396=ORIENTED_EDGE('',*,*,#523,.F.);
#397=ORIENTED_EDGE('',*,*,#449,.T.);
#398=ORIENTED_EDGE('',*,*,#600,.T.);
#399=ORIENTED_EDGE('',*,*,#453,.T.);
#400=ORIENTED_EDGE('',*,*,#505,.F.);
#401=ORIENTED_EDGE('',*,*,#517,.F.);
#402=ORIENTED_EDGE('',*,*,#462,.T.);
#403=ORIENTED_EDGE('',*,*,#477,.T.);
#404=ORIENTED_EDGE('',*,*,#495,.T.);
#405=ORIENTED_EDGE('',*,*,#601,.T.);
#406=ORIENTED_EDGE('',*,*,#447,.T.);
#407=ORIENTED_EDGE('',*,*,#525,.F.);
#408=ORIENTED_EDGE('',*,*,#493,.F.);
#409=ORIENTED_EDGE('',*,*,#577,.F.);
#410=ORIENTED_EDGE('',*,*,#464,.F.);
#411=ORIENTED_EDGE('',*,*,#516,.T.);
#412=ORIENTED_EDGE('',*,*,#503,.T.);
#413=ORIENTED_EDGE('',*,*,#451,.F.);
#414=ORIENTED_EDGE('',*,*,#539,.F.);
#415=ORIENTED_EDGE('',*,*,#598,.T.);
#416=ORIENTED_EDGE('',*,*,#522,.T.);
#417=ORIENTED_EDGE('',*,*,#507,.F.);
#418=ORIENTED_EDGE('',*,*,#520,.F.);
#419=ORIENTED_EDGE('',*,*,#466,.F.);
#420=ORIENTED_EDGE('',*,*,#460,.F.);
#421=ORIENTED_EDGE('',*,*,#478,.T.);
#422=ORIENTED_EDGE('',*,*,#589,.T.);
#423=ORIENTED_EDGE('',*,*,#582,.F.);
#424=ORIENTED_EDGE('',*,*,#454,.T.);
#425=ORIENTED_EDGE('',*,*,#576,.T.);
#426=ORIENTED_EDGE('',*,*,#588,.T.);
#427=EDGE_CURVE('',#603,#604,#719,.T.);
#428=EDGE_CURVE('',#604,#605,#720,.T.);
#429=EDGE_CURVE('',#606,#605,#721,.T.);
#430=EDGE_CURVE('',#606,#607,#33,.T.);
#431=EDGE_CURVE('',#608,#607,#722,.T.);
#432=EDGE_CURVE('',#608,#609,#34,.T.);
#433=EDGE_CURVE('',#609,#610,#723,.T.);
#434=EDGE_CURVE('',#610,#603,#724,.T.);
#435=EDGE_CURVE('',#611,#612,#725,.F.);
#436=EDGE_CURVE('',#613,#611,#35,.F.);
#437=EDGE_CURVE('',#614,#613,#726,.T.);
#438=EDGE_CURVE('',#614,#612,#36,.F.);
#439=EDGE_CURVE('',#615,#616,#727,.F.);
#440=EDGE_CURVE('',#616,#617,#728,.F.);
#441=EDGE_CURVE('',#617,#618,#729,.T.);
#442=EDGE_CURVE('',#618,#619,#37,.T.);
#443=EDGE_CURVE('',#619,#620,#730,.T.);
#444=EDGE_CURVE('',#620,#621,#38,.T.);
#445=EDGE_CURVE('',#622,#621,#731,.T.);
#446=EDGE_CURVE('',#622,#623,#732,.F.);
#447=EDGE_CURVE('',#624,#623,#733,.T.);
#448=EDGE_CURVE('',#625,#624,#734,.T.);
#449=EDGE_CURVE('',#615,#625,#735,.T.);
#450=EDGE_CURVE('',#626,#627,#736,.T.);
#451=EDGE_CURVE('',#626,#628,#39,.F.);
#452=EDGE_CURVE('',#629,#628,#737,.F.);
#453=EDGE_CURVE('',#627,#629,#40,.F.);
#454=EDGE_CURVE('',#630,#631,#738,.T.);
#455=EDGE_CURVE('',#632,#630,#739,.T.);
#456=EDGE_CURVE('',#632,#633,#740,.T.);
#457=EDGE_CURVE('',#633,#634,#741,.T.);
#458=EDGE_CURVE('',#635,#634,#742,.T.);
#459=EDGE_CURVE('',#635,#636,#743,.T.);
#460=EDGE_CURVE('',#636,#637,#744,.T.);
#461=EDGE_CURVE('',#638,#637,#745,.T.);
#462=EDGE_CURVE('',#639,#638,#746,.T.);
#463=EDGE_CURVE('',#639,#640,#747,.F.);
#464=EDGE_CURVE('',#640,#641,#748,.T.);
#465=EDGE_CURVE('',#641,#631,#749,.T.);
#466=EDGE_CURVE('',#637,#642,#750,.T.);
#467=EDGE_CURVE('',#642,#643,#41,.T.);
#468=EDGE_CURVE('',#644,#643,#751,.T.);
#469=EDGE_CURVE('',#644,#645,#42,.F.);
#470=EDGE_CURVE('',#646,#645,#752,.T.);
#471=EDGE_CURVE('',#647,#646,#753,.T.);
#472=EDGE_CURVE('',#647,#648,#754,.T.);
#473=EDGE_CURVE('',#648,#649,#43,.T.);
#474=EDGE_CURVE('',#649,#650,#755,.T.);
#475=EDGE_CURVE('',#650,#651,#44,.F.);
#476=EDGE_CURVE('',#651,#652,#756,.T.);
#477=EDGE_CURVE('',#638,#652,#757,.T.);
#478=EDGE_CURVE('',#636,#653,#758,.T.);
#479=EDGE_CURVE('',#635,#654,#759,.T.);
#480=EDGE_CURVE('',#655,#654,#760,.T.);
#481=EDGE_CURVE('',#655,#656,#45,.T.);
#482=EDGE_CURVE('',#657,#656,#761,.T.);
#483=EDGE_CURVE('',#657,#658,#46,.F.);
#484=EDGE_CURVE('',#659,#658,#762,.T.);
#485=EDGE_CURVE('',#659,#660,#763,.T.);
#486=EDGE_CURVE('',#660,#661,#764,.T.);
#487=EDGE_CURVE('',#661,#662,#47,.T.);
#488=EDGE_CURVE('',#662,#663,#765,.T.);
#489=EDGE_CURVE('',#663,#653,#48,.F.);
#490=EDGE_CURVE('',#664,#665,#766,.T.);
#491=EDGE_CURVE('',#664,#666,#767,.F.);
#492=EDGE_CURVE('',#666,#667,#768,.T.);
#493=EDGE_CURVE('',#667,#668,#769,.T.);
#494=EDGE_CURVE('',#668,#669,#770,.T.);
#495=EDGE_CURVE('',#652,#669,#771,.T.);
#496=EDGE_CURVE('',#651,#655,#772,.T.);
#497=EDGE_CURVE('',#670,#654,#773,.T.);
#498=EDGE_CURVE('',#670,#671,#774,.F.);
#499=EDGE_CURVE('',#671,#665,#775,.T.);
#500=EDGE_CURVE('',#614,#672,#776,.T.);
#501=EDGE_CURVE('',#613,#673,#777,.T.);
#502=EDGE_CURVE('',#673,#672,#778,.F.);
#503=EDGE_CURVE('',#674,#628,#779,.T.);
#504=EDGE_CURVE('',#674,#675,#780,.T.);
#505=EDGE_CURVE('',#675,#629,#781,.T.);
#506=EDGE_CURVE('',#676,#677,#782,.F.);
#507=EDGE_CURVE('',#677,#678,#783,.T.);
#508=EDGE_CURVE('',#678,#679,#784,.T.);
#509=EDGE_CURVE('',#676,#679,#785,.T.);
#510=EDGE_CURVE('',#680,#681,#786,.F.);
#511=EDGE_CURVE('',#681,#682,#787,.T.);
#512=EDGE_CURVE('',#682,#683,#788,.T.);
#513=EDGE_CURVE('',#680,#683,#789,.T.);
#514=EDGE_CURVE('',#672,#633,#49,.F.);
#515=EDGE_CURVE('',#673,#634,#50,.F.);
#516=EDGE_CURVE('',#640,#674,#51,.F.);
#517=EDGE_CURVE('',#639,#675,#52,.F.);
#518=EDGE_CURVE('',#682,#671,#53,.F.);
#519=EDGE_CURVE('',#683,#670,#54,.F.);
#520=EDGE_CURVE('',#668,#677,#55,.F.);
#521=EDGE_CURVE('',#669,#676,#56,.F.);
#522=EDGE_CURVE('',#616,#678,#57,.F.);
#523=EDGE_CURVE('',#615,#679,#58,.F.);
#524=EDGE_CURVE('',#684,#685,#790,.F.);
#525=EDGE_CURVE('',#684,#623,#59,.F.);
#526=EDGE_CURVE('',#685,#622,#60,.T.);
#527=EDGE_CURVE('',#681,#603,#61,.F.);
#528=EDGE_CURVE('',#680,#604,#62,.F.);
#529=EDGE_CURVE('',#686,#687,#791,.T.);
#530=EDGE_CURVE('',#687,#611,#792,.T.);
#531=EDGE_CURVE('',#612,#688,#793,.T.);
#532=EDGE_CURVE('',#689,#688,#794,.T.);
#533=EDGE_CURVE('',#690,#689,#795,.T.);
#534=EDGE_CURVE('',#690,#691,#63,.F.);
#535=EDGE_CURVE('',#691,#692,#796,.T.);
#536=EDGE_CURVE('',#692,#693,#64,.F.);
#537=EDGE_CURVE('',#693,#686,#797,.T.);
#538=EDGE_CURVE('',#694,#695,#798,.T.);
#539=EDGE_CURVE('',#695,#626,#799,.T.);
#540=EDGE_CURVE('',#627,#696,#800,.T.);
#541=EDGE_CURVE('',#696,#697,#801,.T.);
#542=EDGE_CURVE('',#697,#698,#65,.F.);
#543=EDGE_CURVE('',#699,#698,#802,.T.);
#544=EDGE_CURVE('',#699,#700,#66,.F.);
#545=EDGE_CURVE('',#694,#700,#803,.T.);
#546=EDGE_CURVE('',#617,#694,#804,.T.);
#547=EDGE_CURVE('',#700,#618,#805,.T.);
#548=EDGE_CURVE('',#685,#696,#806,.T.);
#549=EDGE_CURVE('',#621,#697,#807,.F.);
#550=EDGE_CURVE('',#647,#659,#808,.T.);
#551=EDGE_CURVE('',#646,#660,#809,.T.);
#552=EDGE_CURVE('',#658,#648,#810,.F.);
#553=EDGE_CURVE('',#656,#650,#811,.F.);
#554=EDGE_CURVE('',#649,#657,#812,.T.);
#555=EDGE_CURVE('',#701,#702,#813,.T.);
#556=EDGE_CURVE('',#701,#703,#814,.T.);
#557=EDGE_CURVE('',#703,#704,#815,.T.);
#558=EDGE_CURVE('',#704,#702,#816,.F.);
#559=EDGE_CURVE('',#705,#706,#817,.T.);
#560=EDGE_CURVE('',#705,#707,#818,.T.);
#561=EDGE_CURVE('',#707,#708,#819,.T.);
#562=EDGE_CURVE('',#706,#708,#820,.T.);
#563=EDGE_CURVE('',#708,#709,#821,.T.);
#564=EDGE_CURVE('',#710,#709,#822,.T.);
#565=EDGE_CURVE('',#706,#710,#823,.T.);
#566=EDGE_CURVE('',#711,#709,#824,.T.);
#567=EDGE_CURVE('',#711,#712,#825,.F.);
#568=EDGE_CURVE('',#712,#710,#826,.T.);
#569=EDGE_CURVE('',#713,#714,#827,.T.);
#570=EDGE_CURVE('',#713,#715,#828,.F.);
#571=EDGE_CURVE('',#715,#716,#829,.T.);
#572=EDGE_CURVE('',#716,#714,#830,.T.);
#573=EDGE_CURVE('',#643,#663,#831,.T.);
#574=EDGE_CURVE('',#662,#644,#832,.F.);
#575=EDGE_CURVE('',#645,#661,#833,.T.);
#576=EDGE_CURVE('',#631,#717,#834,.T.);
#577=EDGE_CURVE('',#641,#667,#835,.T.);
#578=EDGE_CURVE('',#666,#701,#67,.F.);
#579=EDGE_CURVE('',#702,#705,#68,.T.);
#580=EDGE_CURVE('',#712,#716,#69,.F.);
#581=EDGE_CURVE('',#715,#717,#70,.T.);
#582=EDGE_CURVE('',#630,#718,#836,.T.);
#583=EDGE_CURVE('',#718,#713,#71,.F.);
#584=EDGE_CURVE('',#714,#711,#72,.T.);
#585=EDGE_CURVE('',#707,#704,#73,.F.);
#586=EDGE_CURVE('',#703,#664,#74,.T.);
#587=EDGE_CURVE('',#632,#665,#837,.T.);
#588=EDGE_CURVE('',#717,#718,#838,.T.);
#589=EDGE_CURVE('',#653,#642,#839,.F.);
#590=EDGE_CURVE('',#607,#692,#840,.T.);
#591=EDGE_CURVE('',#691,#608,#841,.F.);
#592=EDGE_CURVE('',#619,#699,#842,.F.);
#593=EDGE_CURVE('',#698,#620,#843,.T.);
#594=EDGE_CURVE('',#610,#689,#844,.T.);
#595=EDGE_CURVE('',#609,#690,#845,.T.);
#596=EDGE_CURVE('',#605,#686,#846,.T.);
#597=EDGE_CURVE('',#693,#606,#847,.F.);
#598=EDGE_CURVE('',#695,#616,#848,.T.);
#599=EDGE_CURVE('',#688,#603,#849,.T.);
#600=EDGE_CURVE('',#625,#627,#850,.T.);
#601=EDGE_CURVE('',#684,#624,#851,.T.);
#602=EDGE_CURVE('',#604,#687,#852,.T.);
#603=VERTEX_POINT('',#1678);
#604=VERTEX_POINT('',#1679);
#605=VERTEX_POINT('',#1681);
#606=VERTEX_POINT('',#1683);
#607=VERTEX_POINT('',#1685);
#608=VERTEX_POINT('',#1687);
#609=VERTEX_POINT('',#1689);
#610=VERTEX_POINT('',#1691);
#611=VERTEX_POINT('',#1695);
#612=VERTEX_POINT('',#1696);
#613=VERTEX_POINT('',#1698);
#614=VERTEX_POINT('',#1700);
#615=VERTEX_POINT('',#1704);
#616=VERTEX_POINT('',#1705);
#617=VERTEX_POINT('',#1707);
#618=VERTEX_POINT('',#1709);
#619=VERTEX_POINT('',#1711);
#620=VERTEX_POINT('',#1713);
#621=VERTEX_POINT('',#1715);
#622=VERTEX_POINT('',#1717);
#623=VERTEX_POINT('',#1719);
#624=VERTEX_POINT('',#1721);
#625=VERTEX_POINT('',#1723);
#626=VERTEX_POINT('',#1727);
#627=VERTEX_POINT('',#1728);
#628=VERTEX_POINT('',#1730);
#629=VERTEX_POINT('',#1732);
#630=VERTEX_POINT('',#1736);
#631=VERTEX_POINT('',#1737);
#632=VERTEX_POINT('',#1739);
#633=VERTEX_POINT('',#1741);
#634=VERTEX_POINT('',#1743);
#635=VERTEX_POINT('',#1745);
#636=VERTEX_POINT('',#1747);
#637=VERTEX_POINT('',#1749);
#638=VERTEX_POINT('',#1751);
#639=VERTEX_POINT('',#1753);
#640=VERTEX_POINT('',#1755);
#641=VERTEX_POINT('',#1757);
#642=VERTEX_POINT('',#1761);
#643=VERTEX_POINT('',#1763);
#644=VERTEX_POINT('',#1765);
#645=VERTEX_POINT('',#1767);
#646=VERTEX_POINT('',#1769);
#647=VERTEX_POINT('',#1771);
#648=VERTEX_POINT('',#1773);
#649=VERTEX_POINT('',#1775);
#650=VERTEX_POINT('',#1777);
#651=VERTEX_POINT('',#1779);
#652=VERTEX_POINT('',#1781);
#653=VERTEX_POINT('',#1785);
#654=VERTEX_POINT('',#1787);
#655=VERTEX_POINT('',#1789);
#656=VERTEX_POINT('',#1791);
#657=VERTEX_POINT('',#1793);
#658=VERTEX_POINT('',#1795);
#659=VERTEX_POINT('',#1797);
#660=VERTEX_POINT('',#1799);
#661=VERTEX_POINT('',#1801);
#662=VERTEX_POINT('',#1803);
#663=VERTEX_POINT('',#1805);
#664=VERTEX_POINT('',#1809);
#665=VERTEX_POINT('',#1810);
#666=VERTEX_POINT('',#1812);
#667=VERTEX_POINT('',#1814);
#668=VERTEX_POINT('',#1816);
#669=VERTEX_POINT('',#1818);
#670=VERTEX_POINT('',#1822);
#671=VERTEX_POINT('',#1824);
#672=VERTEX_POINT('',#1828);
#673=VERTEX_POINT('',#1830);
#674=VERTEX_POINT('',#1834);
#675=VERTEX_POINT('',#1836);
#676=VERTEX_POINT('',#1840);
#677=VERTEX_POINT('',#1841);
#678=VERTEX_POINT('',#1843);
#679=VERTEX_POINT('',#1845);
#680=VERTEX_POINT('',#1849);
#681=VERTEX_POINT('',#1850);
#682=VERTEX_POINT('',#1852);
#683=VERTEX_POINT('',#1854);
#684=VERTEX_POINT('',#1873);
#685=VERTEX_POINT('',#1874);
#686=VERTEX_POINT('',#1882);
#687=VERTEX_POINT('',#1883);
#688=VERTEX_POINT('',#1886);
#689=VERTEX_POINT('',#1888);
#690=VERTEX_POINT('',#1890);
#691=VERTEX_POINT('',#1892);
#692=VERTEX_POINT('',#1894);
#693=VERTEX_POINT('',#1896);
#694=VERTEX_POINT('',#1900);
#695=VERTEX_POINT('',#1901);
#696=VERTEX_POINT('',#1904);
#697=VERTEX_POINT('',#1906);
#698=VERTEX_POINT('',#1908);
#699=VERTEX_POINT('',#1910);
#700=VERTEX_POINT('',#1912);
#701=VERTEX_POINT('',#1930);
#702=VERTEX_POINT('',#1931);
#703=VERTEX_POINT('',#1933);
#704=VERTEX_POINT('',#1935);
#705=VERTEX_POINT('',#1939);
#706=VERTEX_POINT('',#1940);
#707=VERTEX_POINT('',#1942);
#708=VERTEX_POINT('',#1944);
#709=VERTEX_POINT('',#1948);
#710=VERTEX_POINT('',#1950);
#711=VERTEX_POINT('',#1954);
#712=VERTEX_POINT('',#1956);
#713=VERTEX_POINT('',#1960);
#714=VERTEX_POINT('',#1961);
#715=VERTEX_POINT('',#1963);
#716=VERTEX_POINT('',#1965);
#717=VERTEX_POINT('',#1974);
#718=VERTEX_POINT('',#1982);
#719=LINE('',#1677,#853);
#720=LINE('',#1680,#854);
#721=LINE('',#1682,#855);
#722=LINE('',#1686,#856);
#723=LINE('',#1690,#857);
#724=LINE('',#1692,#858);
#725=LINE('',#1694,#859);
#726=LINE('',#1699,#860);
#727=LINE('',#1703,#861);
#728=LINE('',#1706,#862);
#729=LINE('',#1708,#863);
#730=LINE('',#1712,#864);
#731=LINE('',#1716,#865);
#732=LINE('',#1718,#866);
#733=LINE('',#1720,#867);
#734=LINE('',#1722,#868);
#735=LINE('',#1724,#869);
#736=LINE('',#1726,#870);
#737=LINE('',#1731,#871);
#738=LINE('',#1735,#872);
#739=LINE('',#1738,#873);
#740=LINE('',#1740,#874);
#741=LINE('',#1742,#875);
#742=LINE('',#1744,#876);
#743=LINE('',#1746,#877);
#744=LINE('',#1748,#878);
#745=LINE('',#1750,#879);
#746=LINE('',#1752,#880);
#747=LINE('',#1754,#881);
#748=LINE('',#1756,#882);
#749=LINE('',#1758,#883);
#750=LINE('',#1760,#884);
#751=LINE('',#1764,#885);
#752=LINE('',#1768,#886);
#753=LINE('',#1770,#887);
#754=LINE('',#1772,#888);
#755=LINE('',#1776,#889);
#756=LINE('',#1780,#890);
#757=LINE('',#1782,#891);
#758=LINE('',#1784,#892);
#759=LINE('',#1786,#893);
#760=LINE('',#1788,#894);
#761=LINE('',#1792,#895);
#762=LINE('',#1796,#896);
#763=LINE('',#1798,#897);
#764=LINE('',#1800,#898);
#765=LINE('',#1804,#899);
#766=LINE('',#1808,#900);
#767=LINE('',#1811,#901);
#768=LINE('',#1813,#902);
#769=LINE('',#1815,#903);
#770=LINE('',#1817,#904);
#771=LINE('',#1819,#905);
#772=LINE('',#1820,#906);
#773=LINE('',#1821,#907);
#774=LINE('',#1823,#908);
#775=LINE('',#1825,#909);
#776=LINE('',#1827,#910);
#777=LINE('',#1829,#911);
#778=LINE('',#1831,#912);
#779=LINE('',#1833,#913);
#780=LINE('',#1835,#914);
#781=LINE('',#1837,#915);
#782=LINE('',#1839,#916);
#783=LINE('',#1842,#917);
#784=LINE('',#1844,#918);
#785=LINE('',#1846,#919);
#786=LINE('',#1848,#920);
#787=LINE('',#1851,#921);
#788=LINE('',#1853,#922);
#789=LINE('',#1855,#923);
#790=LINE('',#1872,#924);
#791=LINE('',#1881,#925);
#792=LINE('',#1884,#926);
#793=LINE('',#1885,#927);
#794=LINE('',#1887,#928);
#795=LINE('',#1889,#929);
#796=LINE('',#1893,#930);
#797=LINE('',#1897,#931);
#798=LINE('',#1899,#932);
#799=LINE('',#1902,#933);
#800=LINE('',#1903,#934);
#801=LINE('',#1905,#935);
#802=LINE('',#1909,#936);
#803=LINE('',#1913,#937);
#804=LINE('',#1915,#938);
#805=LINE('',#1916,#939);
#806=LINE('',#1918,#940);
#807=LINE('',#1919,#941);
#808=LINE('',#1921,#942);
#809=LINE('',#1922,#943);
#810=LINE('',#1924,#944);
#811=LINE('',#1926,#945);
#812=LINE('',#1927,#946);
#813=LINE('',#1929,#947);
#814=LINE('',#1932,#948);
#815=LINE('',#1934,#949);
#816=LINE('',#1936,#950);
#817=LINE('',#1938,#951);
#818=LINE('',#1941,#952);
#819=LINE('',#1943,#953);
#820=LINE('',#1945,#954);
#821=LINE('',#1947,#955);
#822=LINE('',#1949,#956);
#823=LINE('',#1951,#957);
#824=LINE('',#1953,#958);
#825=LINE('',#1955,#959);
#826=LINE('',#1957,#960);
#827=LINE('',#1959,#961);
#828=LINE('',#1962,#962);
#829=LINE('',#1964,#963);
#830=LINE('',#1966,#964);
#831=LINE('',#1968,#965);
#832=LINE('',#1969,#966);
#833=LINE('',#1971,#967);
#834=LINE('',#1973,#968);
#835=LINE('',#1975,#969);
#836=LINE('',#1981,#970);
#837=LINE('',#1987,#971);
#838=LINE('',#1995,#972);
#839=LINE('',#1997,#973);
#840=LINE('',#1999,#974);
#841=LINE('',#2000,#975);
#842=LINE('',#2002,#976);
#843=LINE('',#2003,#977);
#844=LINE('',#2005,#978);
#845=LINE('',#2006,#979);
#846=LINE('',#2008,#980);
#847=LINE('',#2009,#981);
#848=LINE('',#2015,#982);
#849=LINE('',#2017,#983);
#850=LINE('',#2019,#984);
#851=LINE('',#2020,#985);
#852=LINE('',#2022,#986);
#853=VECTOR('',#1335,1.);
#854=VECTOR('',#1336,1.);
#855=VECTOR('',#1337,1.);
#856=VECTOR('',#1340,1.);
#857=VECTOR('',#1343,1.);
#858=VECTOR('',#1344,1.);
#859=VECTOR('',#1347,1.);
#860=VECTOR('',#1350,1.);
#861=VECTOR('',#1355,1.);
#862=VECTOR('',#1356,1.);
#863=VECTOR('',#1357,1.);
#864=VECTOR('',#1360,1.);
#865=VECTOR('',#1363,1.);
#866=VECTOR('',#1364,1.);
#867=VECTOR('',#1365,1.);
#868=VECTOR('',#1366,1.);
#869=VECTOR('',#1367,1.);
#870=VECTOR('',#1370,1.);
#871=VECTOR('',#1373,1.);
#872=VECTOR('',#1378,1.);
#873=VECTOR('',#1379,1.);
#874=VECTOR('',#1380,1.);
#875=VECTOR('',#1381,1.);
#876=VECTOR('',#1382,1.);
#877=VECTOR('',#1383,1.);
#878=VECTOR('',#1384,1.);
#879=VECTOR('',#1385,1.);
#880=VECTOR('',#1386,1.);
#881=VECTOR('',#1387,1.);
#882=VECTOR('',#1388,1.);
#883=VECTOR('',#1389,1.);
#884=VECTOR('',#1392,1.);
#885=VECTOR('',#1395,1.);
#886=VECTOR('',#1398,1.);
#887=VECTOR('',#1399,1.);
#888=VECTOR('',#1400,1.);
#889=VECTOR('',#1403,1.);
#890=VECTOR('',#1406,1.);
#891=VECTOR('',#1407,1.);
#892=VECTOR('',#1410,1.);
#893=VECTOR('',#1411,1.);
#894=VECTOR('',#1412,1.);
#895=VECTOR('',#1415,1.);
#896=VECTOR('',#1418,1.);
#897=VECTOR('',#1419,1.);
#898=VECTOR('',#1420,1.);
#899=VECTOR('',#1423,1.);
#900=VECTOR('',#1428,1.);
#901=VECTOR('',#1429,1.);
#902=VECTOR('',#1430,1.);
#903=VECTOR('',#1431,1.);
#904=VECTOR('',#1432,1.);
#905=VECTOR('',#1433,1.);
#906=VECTOR('',#1434,1.);
#907=VECTOR('',#1435,1.);
#908=VECTOR('',#1436,1.);
#909=VECTOR('',#1437,1.);
#910=VECTOR('',#1440,1.);
#911=VECTOR('',#1441,1.);
#912=VECTOR('',#1442,1.);
#913=VECTOR('',#1445,1.);
#914=VECTOR('',#1446,1.);
#915=VECTOR('',#1447,1.);
#916=VECTOR('',#1450,1.);
#917=VECTOR('',#1451,1.);
#918=VECTOR('',#1452,1.);
#919=VECTOR('',#1453,1.);
#920=VECTOR('',#1456,1.);
#921=VECTOR('',#1457,1.);
#922=VECTOR('',#1458,1.);
#923=VECTOR('',#1459,1.);
#924=VECTOR('',#1492,1.);
#925=VECTOR('',#1505,1.);
#926=VECTOR('',#1506,1.);
#927=VECTOR('',#1507,1.);
#928=VECTOR('',#1508,1.);
#929=VECTOR('',#1509,1.);
#930=VECTOR('',#1512,1.);
#931=VECTOR('',#1515,1.);
#932=VECTOR('',#1518,1.);
#933=VECTOR('',#1519,1.);
#934=VECTOR('',#1520,1.);
#935=VECTOR('',#1521,1.);
#936=VECTOR('',#1524,1.);
#937=VECTOR('',#1527,1.);
#938=VECTOR('',#1530,1.);
#939=VECTOR('',#1531,1.);
#940=VECTOR('',#1534,1.);
#941=VECTOR('',#1535,1.);
#942=VECTOR('',#1538,1.);
#943=VECTOR('',#1539,1.);
#944=VECTOR('',#1542,1.);
#945=VECTOR('',#1545,1.);
#946=VECTOR('',#1546,1.);
#947=VECTOR('',#1549,1.);
#948=VECTOR('',#1550,1.);
#949=VECTOR('',#1551,1.);
#950=VECTOR('',#1552,1.);
#951=VECTOR('',#1555,1.);
#952=VECTOR('',#1556,1.);
#953=VECTOR('',#1557,1.);
#954=VECTOR('',#1558,1.);
#955=VECTOR('',#1561,1.);
#956=VECTOR('',#1562,1.);
#957=VECTOR('',#1563,1.);
#958=VECTOR('',#1566,1.);
#959=VECTOR('',#1567,1.);
#960=VECTOR('',#1568,1.);
#961=VECTOR('',#1571,1.);
#962=VECTOR('',#1572,1.);
#963=VECTOR('',#1573,1.);
#964=VECTOR('',#1574,1.);
#965=VECTOR('',#1577,1.);
#966=VECTOR('',#1578,1.);
#967=VECTOR('',#1581,1.);
#968=VECTOR('',#1584,1.);
#969=VECTOR('',#1585,1.);
#970=VECTOR('',#1596,1.);
#971=VECTOR('',#1605,1.);
#972=VECTOR('',#1620,1.);
#973=VECTOR('',#1623,1.);
#974=VECTOR('',#1626,1.);
#975=VECTOR('',#1627,1.);
#976=VECTOR('',#1630,1.);
#977=VECTOR('',#1631,1.);
#978=VECTOR('',#1634,1.);
#979=VECTOR('',#1635,1.);
#980=VECTOR('',#1638,1.);
#981=VECTOR('',#1639,1.);
#982=VECTOR('',#1650,1.);
#983=VECTOR('',#1653,1.);
#984=VECTOR('',#1656,1.);
#985=VECTOR('',#1657,1.);
#986=VECTOR('',#1660,1.);
#987=EDGE_LOOP('',(#75,#76,#77,#78,#79,#80,#81,#82));
#988=EDGE_LOOP('',(#83,#84,#85,#86));
#989=EDGE_LOOP('',(#87,#88,#89,#90,#91,#92,#93,#94,#95,#96,#97));
#990=EDGE_LOOP('',(#98,#99,#100,#101));
#991=EDGE_LOOP('',(#102,#103,#104,#105,#106,#107,#108,#109,#110,#111,#112,
#113));
#992=EDGE_LOOP('',(#114,#115,#116,#117,#118,#119,#120,#121,#122,#123,#124,
#125,#126));
#993=EDGE_LOOP('',(#127,#128,#129,#130,#131,#132,#133,#134,#135,#136,#137,
#138,#139));
#994=EDGE_LOOP('',(#140,#141,#142,#143,#144,#145,#146,#147,#148,#149,#150,
#151));
#995=EDGE_LOOP('',(#152,#153,#154,#155));
#996=EDGE_LOOP('',(#156,#157,#158,#159));
#997=EDGE_LOOP('',(#160,#161,#162,#163));
#998=EDGE_LOOP('',(#164,#165,#166,#167));
#999=EDGE_LOOP('',(#168,#169,#170,#171));
#1000=EDGE_LOOP('',(#172,#173,#174,#175));
#1001=EDGE_LOOP('',(#176,#177,#178,#179));
#1002=EDGE_LOOP('',(#180,#181,#182,#183));
#1003=EDGE_LOOP('',(#184,#185,#186,#187));
#1004=EDGE_LOOP('',(#188,#189,#190,#191));
#1005=EDGE_LOOP('',(#192,#193,#194,#195));
#1006=EDGE_LOOP('',(#196,#197,#198,#199,#200,#201,#202,#203,#204,#205));
#1007=EDGE_LOOP('',(#206,#207,#208,#209,#210,#211,#212,#213,#214));
#1008=EDGE_LOOP('',(#215,#216,#217,#218));
#1009=EDGE_LOOP('',(#219,#220,#221,#222,#223));
#1010=EDGE_LOOP('',(#224,#225,#226,#227));
#1011=EDGE_LOOP('',(#228,#229,#230,#231));
#1012=EDGE_LOOP('',(#232,#233,#234,#235));
#1013=EDGE_LOOP('',(#236,#237,#238,#239));
#1014=EDGE_LOOP('',(#240,#241,#242,#243));
#1015=EDGE_LOOP('',(#244,#245,#246,#247));
#1016=EDGE_LOOP('',(#248,#249,#250,#251));
#1017=EDGE_LOOP('',(#252,#253,#254,#255));
#1018=EDGE_LOOP('',(#256,#257,#258,#259));
#1019=EDGE_LOOP('',(#260,#261,#262,#263));
#1020=EDGE_LOOP('',(#264,#265,#266,#267,#268,#269,#270,#271,#272,#273,#274,
#275,#276));
#1021=EDGE_LOOP('',(#277,#278,#279,#280,#281,#282,#283,#284,#285,#286,#287,
#288,#289));
#1022=EDGE_LOOP('',(#290,#291,#292,#293));
#1023=EDGE_LOOP('',(#294,#295,#296,#297));
#1024=EDGE_LOOP('',(#298,#299,#300,#301));
#1025=EDGE_LOOP('',(#302,#303,#304,#305));
#1026=EDGE_LOOP('',(#306,#307,#308,#309));
#1027=EDGE_LOOP('',(#310,#311,#312,#313));
#1028=EDGE_LOOP('',(#314,#315,#316,#317));
#1029=EDGE_LOOP('',(#318,#319,#320,#321));
#1030=EDGE_LOOP('',(#322,#323,#324,#325));
#1031=EDGE_LOOP('',(#326,#327,#328,#329));
#1032=EDGE_LOOP('',(#330,#331,#332,#333));
#1033=EDGE_LOOP('',(#334,#335,#336,#337));
#1034=EDGE_LOOP('',(#338,#339,#340,#341));
#1035=EDGE_LOOP('',(#342,#343,#344,#345));
#1036=EDGE_LOOP('',(#346,#347,#348,#349));
#1037=EDGE_LOOP('',(#350,#351,#352,#353));
#1038=EDGE_LOOP('',(#354,#355,#356,#357));
#1039=EDGE_LOOP('',(#358,#359,#360,#361));
#1040=EDGE_LOOP('',(#362,#363,#364,#365,#366,#367));
#1041=EDGE_LOOP('',(#368,#369,#370,#371));
#1042=EDGE_LOOP('',(#372,#373,#374,#375,#376,#377,#378,#379,#380,#381,#382));
#1043=EDGE_LOOP('',(#383,#384,#385,#386,#387,#388,#389,#390,#391,#392,#393));
#1044=EDGE_LOOP('',(#394,#395,#396,#397,#398,#399,#400,#401,#402,#403,#404));
#1045=EDGE_LOOP('',(#405,#406,#407));
#1046=EDGE_LOOP('',(#408,#409,#410,#411,#412,#413,#414,#415,#416,#417,#418));
#1047=EDGE_LOOP('',(#419,#420,#421,#422));
#1048=EDGE_LOOP('',(#423,#424,#425,#426));
#1049=FACE_BOUND('',#987,.T.);
#1050=FACE_BOUND('',#988,.T.);
#1051=FACE_BOUND('',#989,.T.);
#1052=FACE_BOUND('',#990,.T.);
#1053=FACE_BOUND('',#991,.T.);
#1054=FACE_BOUND('',#992,.T.);
#1055=FACE_BOUND('',#993,.T.);
#1056=FACE_BOUND('',#994,.T.);
#1057=FACE_BOUND('',#995,.T.);
#1058=FACE_BOUND('',#996,.T.);
#1059=FACE_BOUND('',#997,.T.);
#1060=FACE_BOUND('',#998,.T.);
#1061=FACE_BOUND('',#999,.T.);
#1062=FACE_BOUND('',#1000,.T.);
#1063=FACE_BOUND('',#1001,.T.);
#1064=FACE_BOUND('',#1002,.T.);
#1065=FACE_BOUND('',#1003,.T.);
#1066=FACE_BOUND('',#1004,.T.);
#1067=FACE_BOUND('',#1005,.T.);
#1068=FACE_BOUND('',#1006,.T.);
#1069=FACE_BOUND('',#1007,.T.);
#1070=FACE_BOUND('',#1008,.T.);
#1071=FACE_BOUND('',#1009,.T.);
#1072=FACE_BOUND('',#1010,.T.);
#1073=FACE_BOUND('',#1011,.T.);
#1074=FACE_BOUND('',#1012,.T.);
#1075=FACE_BOUND('',#1013,.T.);
#1076=FACE_BOUND('',#1014,.T.);
#1077=FACE_BOUND('',#1015,.T.);
#1078=FACE_BOUND('',#1016,.T.);
#1079=FACE_BOUND('',#1017,.T.);
#1080=FACE_BOUND('',#1018,.T.);
#1081=FACE_BOUND('',#1019,.T.);
#1082=FACE_BOUND('',#1020,.T.);
#1083=FACE_BOUND('',#1021,.T.);
#1084=FACE_BOUND('',#1022,.T.);
#1085=FACE_BOUND('',#1023,.T.);
#1086=FACE_BOUND('',#1024,.T.);
#1087=FACE_BOUND('',#1025,.T.);
#1088=FACE_BOUND('',#1026,.T.);
#1089=FACE_BOUND('',#1027,.T.);
#1090=FACE_BOUND('',#1028,.T.);
#1091=FACE_BOUND('',#1029,.T.);
#1092=FACE_BOUND('',#1030,.T.);
#1093=FACE_BOUND('',#1031,.T.);
#1094=FACE_BOUND('',#1032,.T.);
#1095=FACE_BOUND('',#1033,.T.);
#1096=FACE_BOUND('',#1034,.T.);
#1097=FACE_BOUND('',#1035,.T.);
#1098=FACE_BOUND('',#1036,.T.);
#1099=FACE_BOUND('',#1037,.T.);
#1100=FACE_BOUND('',#1038,.T.);
#1101=FACE_BOUND('',#1039,.T.);
#1102=FACE_BOUND('',#1040,.T.);
#1103=FACE_BOUND('',#1041,.T.);
#1104=FACE_BOUND('',#1042,.T.);
#1105=FACE_BOUND('',#1043,.T.);
#1106=FACE_BOUND('',#1044,.T.);
#1107=FACE_BOUND('',#1045,.T.);
#1108=FACE_BOUND('',#1046,.T.);
#1109=FACE_BOUND('',#1047,.T.);
#1110=FACE_BOUND('',#1048,.T.);
#1111=PLANE('',#1227);
#1112=PLANE('',#1233);
#1113=PLANE('',#1239);
#1114=PLANE('',#1240);
#1115=PLANE('',#1245);
#1116=PLANE('',#1250);
#1117=PLANE('',#1251);
#1118=PLANE('',#1252);
#1119=PLANE('',#1253);
#1120=PLANE('',#1254);
#1121=PLANE('',#1276);
#1122=PLANE('',#1279);
#1123=PLANE('',#1282);
#1124=PLANE('',#1283);
#1125=PLANE('',#1284);
#1126=PLANE('',#1285);
#1127=PLANE('',#1286);
#1128=PLANE('',#1287);
#1129=PLANE('',#1288);
#1130=PLANE('',#1289);
#1131=PLANE('',#1290);
#1132=PLANE('',#1291);
#1133=PLANE('',#1292);
#1134=PLANE('',#1293);
#1135=PLANE('',#1294);
#1136=PLANE('',#1299);
#1137=PLANE('',#1312);
#1138=PLANE('',#1313);
#1139=PLANE('',#1314);
#1140=PLANE('',#1315);
#1141=PLANE('',#1320);
#1142=PLANE('',#1321);
#1143=PLANE('',#1322);
#1144=PLANE('',#1323);
#1145=PLANE('',#1324);
#1146=PLANE('',#1325);
#1147=PLANE('',#1326);
#1148=PLANE('',#1327);
#1149=PLANE('',#1328);
#1150=PLANE('',#1329);
#1151=PLANE('',#1330);
#1152=ADVANCED_FACE('',(#1049),#1111,.T.);
#1153=ADVANCED_FACE('',(#1050),#12,.T.);
#1154=ADVANCED_FACE('',(#1051),#1112,.T.);
#1155=ADVANCED_FACE('',(#1052),#13,.T.);
#1156=ADVANCED_FACE('',(#1053),#1113,.T.);
#1157=ADVANCED_FACE('',(#1054),#1114,.T.);
#1158=ADVANCED_FACE('',(#1055),#1115,.F.);
#1159=ADVANCED_FACE('',(#1056),#1116,.F.);
#1160=ADVANCED_FACE('',(#1057),#1117,.F.);
#1161=ADVANCED_FACE('',(#1058),#1118,.F.);
#1162=ADVANCED_FACE('',(#1059),#1119,.T.);
#1163=ADVANCED_FACE('',(#1060),#1120,.T.);
#1164=ADVANCED_FACE('',(#1061),#14,.F.);
#1165=ADVANCED_FACE('',(#1062),#15,.F.);
#1166=ADVANCED_FACE('',(#1063),#16,.T.);
#1167=ADVANCED_FACE('',(#1064),#17,.T.);
#1168=ADVANCED_FACE('',(#1065),#18,.F.);
#1169=ADVANCED_FACE('',(#1066),#19,.F.);
#1170=ADVANCED_FACE('',(#1067),#20,.F.);
#1171=ADVANCED_FACE('',(#1068),#1121,.F.);
#1172=ADVANCED_FACE('',(#1069),#1122,.F.);
#1173=ADVANCED_FACE('',(#1070),#1123,.T.);
#1174=ADVANCED_FACE('',(#1071),#1124,.F.);
#1175=ADVANCED_FACE('',(#1072),#1125,.T.);
#1176=ADVANCED_FACE('',(#1073),#1126,.F.);
#1177=ADVANCED_FACE('',(#1074),#1127,.F.);
#1178=ADVANCED_FACE('',(#1075),#1128,.F.);
#1179=ADVANCED_FACE('',(#1076),#1129,.F.);
#1180=ADVANCED_FACE('',(#1077),#1130,.F.);
#1181=ADVANCED_FACE('',(#1078),#1131,.T.);
#1182=ADVANCED_FACE('',(#1079),#1132,.T.);
#1183=ADVANCED_FACE('',(#1080),#1133,.T.);
#1184=ADVANCED_FACE('',(#1081),#1134,.T.);
#1185=ADVANCED_FACE('',(#1082),#1135,.T.);
#1186=ADVANCED_FACE('',(#1083),#1136,.F.);
#1187=ADVANCED_FACE('',(#1084),#21,.T.);
#1188=ADVANCED_FACE('',(#1085),#22,.T.);
#1189=ADVANCED_FACE('',(#1086),#23,.F.);
#1190=ADVANCED_FACE('',(#1087),#24,.F.);
#1191=ADVANCED_FACE('',(#1088),#25,.F.);
#1192=ADVANCED_FACE('',(#1089),#26,.F.);
#1193=ADVANCED_FACE('',(#1090),#27,.T.);
#1194=ADVANCED_FACE('',(#1091),#28,.T.);
#1195=ADVANCED_FACE('',(#1092),#1137,.F.);
#1196=ADVANCED_FACE('',(#1093),#1138,.F.);
#1197=ADVANCED_FACE('',(#1094),#1139,.T.);
#1198=ADVANCED_FACE('',(#1095),#1140,.F.);
#1199=ADVANCED_FACE('',(#1096),#29,.T.);
#1200=ADVANCED_FACE('',(#1097),#30,.T.);
#1201=ADVANCED_FACE('',(#1098),#31,.T.);
#1202=ADVANCED_FACE('',(#1099),#32,.T.);
#1203=ADVANCED_FACE('',(#1100),#1141,.T.);
#1204=ADVANCED_FACE('',(#1101),#1142,.F.);
#1205=ADVANCED_FACE('',(#1102),#1143,.T.);
#1206=ADVANCED_FACE('',(#1103),#1144,.T.);
#1207=ADVANCED_FACE('',(#1104),#1145,.F.);
#1208=ADVANCED_FACE('',(#1105),#1146,.T.);
#1209=ADVANCED_FACE('',(#1106),#1147,.F.);
#1210=ADVANCED_FACE('',(#1107),#1148,.F.);
#1211=ADVANCED_FACE('',(#1108),#1149,.T.);
#1212=ADVANCED_FACE('',(#1109),#1150,.T.);
#1213=ADVANCED_FACE('',(#1110),#1151,.F.);
#1214=CLOSED_SHELL('',(#1152,#1153,#1154,#1155,#1156,#1157,#1158,#1159,
#1160,#1161,#1162,#1163,#1164,#1165,#1166,#1167,#1168,#1169,#1170,#1171,
#1172,#1173,#1174,#1175,#1176,#1177,#1178,#1179,#1180,#1181,#1182,#1183,
#1184,#1185,#1186,#1187,#1188,#1189,#1190,#1191,#1192,#1193,#1194,#1195,
#1196,#1197,#1198,#1199,#1200,#1201,#1202,#1203,#1204,#1205,#1206,#1207,
#1208,#1209,#1210,#1211,#1212,#1213));
#1215=STYLED_ITEM('',(#1216),#1223);
#1216=PRESENTATION_STYLE_ASSIGNMENT((#1217));
#1217=SURFACE_STYLE_USAGE(.BOTH.,#1218);
#1218=SURFACE_SIDE_STYLE('',(#1219));
#1219=SURFACE_STYLE_FILL_AREA(#1220);
#1220=FILL_AREA_STYLE('',(#1221));
#1221=FILL_AREA_STYLE_COLOUR('',#1222);
#1222=COLOUR_RGB('',0.784313725490196,0.784313725490196,0.784313725490196);
#1223=MANIFOLD_SOLID_BREP('7106DG',#1214);
#1224=SHAPE_DEFINITION_REPRESENTATION(#2036,#1225);
#1225=SHAPE_REPRESENTATION('7106DG',(#1226),#2031);
#1226=AXIS2_PLACEMENT_3D('',#1675,#1331,#1332);
#1227=AXIS2_PLACEMENT_3D('',#1676,#1333,#1334);
#1228=AXIS2_PLACEMENT_3D('',#1684,#1338,#1339);
#1229=AXIS2_PLACEMENT_3D('',#1688,#1341,#1342);
#1230=AXIS2_PLACEMENT_3D('',#1693,#1345,#1346);
#1231=AXIS2_PLACEMENT_3D('',#1697,#1348,#1349);
#1232=AXIS2_PLACEMENT_3D('',#1701,#1351,#1352);
#1233=AXIS2_PLACEMENT_3D('',#1702,#1353,#1354);
#1234=AXIS2_PLACEMENT_3D('',#1710,#1358,#1359);
#1235=AXIS2_PLACEMENT_3D('',#1714,#1361,#1362);
#1236=AXIS2_PLACEMENT_3D('',#1725,#1368,#1369);
#1237=AXIS2_PLACEMENT_3D('',#1729,#1371,#1372);
#1238=AXIS2_PLACEMENT_3D('',#1733,#1374,#1375);
#1239=AXIS2_PLACEMENT_3D('',#1734,#1376,#1377);
#1240=AXIS2_PLACEMENT_3D('',#1759,#1390,#1391);
#1241=AXIS2_PLACEMENT_3D('',#1762,#1393,#1394);
#1242=AXIS2_PLACEMENT_3D('',#1766,#1396,#1397);
#1243=AXIS2_PLACEMENT_3D('',#1774,#1401,#1402);
#1244=AXIS2_PLACEMENT_3D('',#1778,#1404,#1405);
#1245=AXIS2_PLACEMENT_3D('',#1783,#1408,#1409);
#1246=AXIS2_PLACEMENT_3D('',#1790,#1413,#1414);
#1247=AXIS2_PLACEMENT_3D('',#1794,#1416,#1417);
#1248=AXIS2_PLACEMENT_3D('',#1802,#1421,#1422);
#1249=AXIS2_PLACEMENT_3D('',#1806,#1424,#1425);
#1250=AXIS2_PLACEMENT_3D('',#1807,#1426,#1427);
#1251=AXIS2_PLACEMENT_3D('',#1826,#1438,#1439);
#1252=AXIS2_PLACEMENT_3D('',#1832,#1443,#1444);
#1253=AXIS2_PLACEMENT_3D('',#1838,#1448,#1449);
#1254=AXIS2_PLACEMENT_3D('',#1847,#1454,#1455);
#1255=AXIS2_PLACEMENT_3D('',#1856,#1460,#1461);
#1256=AXIS2_PLACEMENT_3D('',#1857,#1462,#1463);
#1257=AXIS2_PLACEMENT_3D('',#1858,#1464,#1465);
#1258=AXIS2_PLACEMENT_3D('',#1859,#1466,#1467);
#1259=AXIS2_PLACEMENT_3D('',#1860,#1468,#1469);
#1260=AXIS2_PLACEMENT_3D('',#1861,#1470,#1471);
#1261=AXIS2_PLACEMENT_3D('',#1862,#1472,#1473);
#1262=AXIS2_PLACEMENT_3D('',#1863,#1474,#1475);
#1263=AXIS2_PLACEMENT_3D('',#1864,#1476,#1477);
#1264=AXIS2_PLACEMENT_3D('',#1865,#1478,#1479);
#1265=AXIS2_PLACEMENT_3D('',#1866,#1480,#1481);
#1266=AXIS2_PLACEMENT_3D('',#1867,#1482,#1483);
#1267=AXIS2_PLACEMENT_3D('',#1868,#1484,#1485);
#1268=AXIS2_PLACEMENT_3D('',#1869,#1486,#1487);
#1269=AXIS2_PLACEMENT_3D('',#1870,#1488,#1489);
#1270=AXIS2_PLACEMENT_3D('',#1871,#1490,#1491);
#1271=AXIS2_PLACEMENT_3D('',#1875,#1493,#1494);
#1272=AXIS2_PLACEMENT_3D('',#1876,#1495,#1496);
#1273=AXIS2_PLACEMENT_3D('',#1877,#1497,#1498);
#1274=AXIS2_PLACEMENT_3D('',#1878,#1499,#1500);
#1275=AXIS2_PLACEMENT_3D('',#1879,#1501,#1502);
#1276=AXIS2_PLACEMENT_3D('',#1880,#1503,#1504);
#1277=AXIS2_PLACEMENT_3D('',#1891,#1510,#1511);
#1278=AXIS2_PLACEMENT_3D('',#1895,#1513,#1514);
#1279=AXIS2_PLACEMENT_3D('',#1898,#1516,#1517);
#1280=AXIS2_PLACEMENT_3D('',#1907,#1522,#1523);
#1281=AXIS2_PLACEMENT_3D('',#1911,#1525,#1526);
#1282=AXIS2_PLACEMENT_3D('',#1914,#1528,#1529);
#1283=AXIS2_PLACEMENT_3D('',#1917,#1532,#1533);
#1284=AXIS2_PLACEMENT_3D('',#1920,#1536,#1537);
#1285=AXIS2_PLACEMENT_3D('',#1923,#1540,#1541);
#1286=AXIS2_PLACEMENT_3D('',#1925,#1543,#1544);
#1287=AXIS2_PLACEMENT_3D('',#1928,#1547,#1548);
#1288=AXIS2_PLACEMENT_3D('',#1937,#1553,#1554);
#1289=AXIS2_PLACEMENT_3D('',#1946,#1559,#1560);
#1290=AXIS2_PLACEMENT_3D('',#1952,#1564,#1565);
#1291=AXIS2_PLACEMENT_3D('',#1958,#1569,#1570);
#1292=AXIS2_PLACEMENT_3D('',#1967,#1575,#1576);
#1293=AXIS2_PLACEMENT_3D('',#1970,#1579,#1580);
#1294=AXIS2_PLACEMENT_3D('',#1972,#1582,#1583);
#1295=AXIS2_PLACEMENT_3D('',#1976,#1586,#1587);
#1296=AXIS2_PLACEMENT_3D('',#1977,#1588,#1589);
#1297=AXIS2_PLACEMENT_3D('',#1978,#1590,#1591);
#1298=AXIS2_PLACEMENT_3D('',#1979,#1592,#1593);
#1299=AXIS2_PLACEMENT_3D('',#1980,#1594,#1595);
#1300=AXIS2_PLACEMENT_3D('',#1983,#1597,#1598);
#1301=AXIS2_PLACEMENT_3D('',#1984,#1599,#1600);
#1302=AXIS2_PLACEMENT_3D('',#1985,#1601,#1602);
#1303=AXIS2_PLACEMENT_3D('',#1986,#1603,#1604);
#1304=AXIS2_PLACEMENT_3D('',#1988,#1606,#1607);
#1305=AXIS2_PLACEMENT_3D('',#1989,#1608,#1609);
#1306=AXIS2_PLACEMENT_3D('',#1990,#1610,#1611);
#1307=AXIS2_PLACEMENT_3D('',#1991,#1612,#1613);
#1308=AXIS2_PLACEMENT_3D('',#1992,#1614,#1615);
#1309=AXIS2_PLACEMENT_3D('',#1993,#1616,#1617);
#1310=AXIS2_PLACEMENT_3D('',#1994,#1618,#1619);
#1311=AXIS2_PLACEMENT_3D('',#1996,#1621,#1622);
#1312=AXIS2_PLACEMENT_3D('',#1998,#1624,#1625);
#1313=AXIS2_PLACEMENT_3D('',#2001,#1628,#1629);
#1314=AXIS2_PLACEMENT_3D('',#2004,#1632,#1633);
#1315=AXIS2_PLACEMENT_3D('',#2007,#1636,#1637);
#1316=AXIS2_PLACEMENT_3D('',#2010,#1640,#1641);
#1317=AXIS2_PLACEMENT_3D('',#2011,#1642,#1643);
#1318=AXIS2_PLACEMENT_3D('',#2012,#1644,#1645);
#1319=AXIS2_PLACEMENT_3D('',#2013,#1646,#1647);
#1320=AXIS2_PLACEMENT_3D('',#2014,#1648,#1649);
#1321=AXIS2_PLACEMENT_3D('',#2016,#1651,#1652);
#1322=AXIS2_PLACEMENT_3D('',#2018,#1654,#1655);
#1323=AXIS2_PLACEMENT_3D('',#2021,#1658,#1659);
#1324=AXIS2_PLACEMENT_3D('',#2023,#1661,#1662);
#1325=AXIS2_PLACEMENT_3D('',#2024,#1663,#1664);
#1326=AXIS2_PLACEMENT_3D('',#2025,#1665,#1666);
#1327=AXIS2_PLACEMENT_3D('',#2026,#1667,#1668);
#1328=AXIS2_PLACEMENT_3D('',#2027,#1669,#1670);
#1329=AXIS2_PLACEMENT_3D('',#2028,#1671,#1672);
#1330=AXIS2_PLACEMENT_3D('',#2029,#1673,#1674);
#1331=DIRECTION('',(0.,0.,1.));
#1332=DIRECTION('',(1.,0.,0.));
#1333=DIRECTION('',(0.,0.,-1.));
#1334=DIRECTION('',(-1.,0.,0.));
#1335=DIRECTION('',(-1.,0.,0.));
#1336=DIRECTION('',(-1.,0.,0.));
#1337=DIRECTION('',(0.,-1.,0.));
#1338=DIRECTION('',(0.,0.,-1.));
#1339=DIRECTION('',(-1.,0.,0.));
#1340=DIRECTION('',(-1.,0.,0.));
#1341=DIRECTION('',(0.,0.,-1.));
#1342=DIRECTION('',(-1.,0.,0.));
#1343=DIRECTION('',(0.,-1.,0.));
#1344=DIRECTION('',(-1.,0.,0.));
#1345=DIRECTION('',(-1.,0.,0.));
#1346=DIRECTION('',(0.,0.,1.));
#1347=DIRECTION('',(-1.,0.,0.));
#1348=DIRECTION('',(1.,-1.99852935020369E-16,0.));
#1349=DIRECTION('',(1.99852935020369E-16,1.,0.));
#1350=DIRECTION('',(-1.,0.,0.));
#1351=DIRECTION('',(1.,-1.99852935020369E-16,0.));
#1352=DIRECTION('',(1.99852935020369E-16,1.,0.));
#1353=DIRECTION('',(0.,0.,-1.));
#1354=DIRECTION('',(-1.,0.,0.));
#1355=DIRECTION('',(-1.,0.,0.));
#1356=DIRECTION('',(-1.,0.,0.));
#1357=DIRECTION('',(0.,-1.,0.));
#1358=DIRECTION('',(0.,0.,-1.));
#1359=DIRECTION('',(-1.,0.,0.));
#1360=DIRECTION('',(-1.,0.,0.));
#1361=DIRECTION('',(0.,0.,-1.));
#1362=DIRECTION('',(-1.,0.,0.));
#1363=DIRECTION('',(0.,-1.,0.));
#1364=DIRECTION('',(-1.,0.,0.));
#1365=DIRECTION('',(0.,-1.,0.));
#1366=DIRECTION('',(-1.,0.,0.));
#1367=DIRECTION('',(1.99852935020369E-16,1.,0.));
#1368=DIRECTION('',(-1.,0.,0.));
#1369=DIRECTION('',(0.,0.,1.));
#1370=DIRECTION('',(-1.,0.,0.));
#1371=DIRECTION('',(1.,-1.99852935020369E-16,0.));
#1372=DIRECTION('',(1.99852935020369E-16,1.,0.));
#1373=DIRECTION('',(-1.,0.,0.));
#1374=DIRECTION('',(1.,-1.99852935020369E-16,0.));
#1375=DIRECTION('',(1.99852935020369E-16,1.,0.));
#1376=DIRECTION('',(0.,0.,1.));
#1377=DIRECTION('',(1.,0.,0.));
#1378=DIRECTION('',(0.,-1.,0.));
#1379=DIRECTION('',(1.,0.,0.));
#1380=DIRECTION('',(1.99852935020369E-16,1.,0.));
#1381=DIRECTION('',(-1.,0.,0.));
#1382=DIRECTION('',(1.99852935020369E-16,1.,0.));
#1383=DIRECTION('',(-1.,0.,0.));
#1384=DIRECTION('',(0.,-1.,0.));
#1385=DIRECTION('',(-1.,0.,0.));
#1386=DIRECTION('',(1.99852935020369E-16,1.,0.));
#1387=DIRECTION('',(-1.,0.,0.));
#1388=DIRECTION('',(1.99852935020369E-16,1.,0.));
#1389=DIRECTION('',(1.,0.,0.));
#1390=DIRECTION('',(0.,-1.,0.));
#1391=DIRECTION('',(1.,0.,0.));
#1392=DIRECTION('',(0.,0.,-1.));
#1393=DIRECTION('',(0.,-1.,0.));
#1394=DIRECTION('',(0.,0.,-1.));
#1395=DIRECTION('',(-1.62732033393696E-16,0.,1.));
#1396=DIRECTION('',(0.,-1.,0.));
#1397=DIRECTION('',(0.,0.,-1.));
#1398=DIRECTION('',(1.,0.,0.));
#1399=DIRECTION('',(0.,0.,1.));
#1400=DIRECTION('',(1.,0.,0.));
#1401=DIRECTION('',(0.,-1.,0.));
#1402=DIRECTION('',(0.,0.,-1.));
#1403=DIRECTION('',(-1.62732033393696E-16,0.,1.));
#1404=DIRECTION('',(0.,-1.,0.));
#1405=DIRECTION('',(0.,0.,-1.));
#1406=DIRECTION('',(1.,0.,0.));
#1407=DIRECTION('',(0.,0.,-1.));
#1408=DIRECTION('',(0.,-1.,0.));
#1409=DIRECTION('',(1.,0.,0.));
#1410=DIRECTION('',(0.,0.,-1.));
#1411=DIRECTION('',(0.,0.,-1.));
#1412=DIRECTION('',(1.,0.,0.));
#1413=DIRECTION('',(0.,-1.,0.));
#1414=DIRECTION('',(0.,0.,-1.));
#1415=DIRECTION('',(-1.62732033393696E-16,0.,1.));
#1416=DIRECTION('',(0.,-1.,0.));
#1417=DIRECTION('',(0.,0.,-1.));
#1418=DIRECTION('',(1.,0.,0.));
#1419=DIRECTION('',(0.,0.,1.));
#1420=DIRECTION('',(1.,0.,0.));
#1421=DIRECTION('',(0.,-1.,0.));
#1422=DIRECTION('',(0.,0.,-1.));
#1423=DIRECTION('',(-1.62732033393696E-16,0.,1.));
#1424=DIRECTION('',(0.,-1.,0.));
#1425=DIRECTION('',(0.,0.,-1.));
#1426=DIRECTION('',(0.,0.,1.));
#1427=DIRECTION('',(1.,0.,0.));
#1428=DIRECTION('',(-1.,0.,0.));
#1429=DIRECTION('',(0.,1.,0.));
#1430=DIRECTION('',(-1.,0.,0.));
#1431=DIRECTION('',(-1.99852935020369E-16,-1.,0.));
#1432=DIRECTION('',(-1.,0.,0.));
#1433=DIRECTION('',(-1.99852935020369E-16,-1.,0.));
#1434=DIRECTION('',(0.,1.,0.));
#1435=DIRECTION('',(-1.99852935020369E-16,-1.,0.));
#1436=DIRECTION('',(-1.,0.,0.));
#1437=DIRECTION('',(-1.99852935020369E-16,-1.,0.));
#1438=DIRECTION('',(0.,1.,2.28855339838629E-16));
#1439=DIRECTION('',(0.,-2.28855339838629E-16,1.));
#1440=DIRECTION('',(4.57374113618341E-32,2.28855339838629E-16,-1.));
#1441=DIRECTION('',(4.57374113618341E-32,2.28855339838629E-16,-1.));
#1442=DIRECTION('',(-1.,0.,0.));
#1443=DIRECTION('',(0.,-1.,0.));
#1444=DIRECTION('',(0.,0.,-1.));
#1445=DIRECTION('',(0.,0.,1.));
#1446=DIRECTION('',(-1.,0.,0.));
#1447=DIRECTION('',(0.,0.,1.));
#1448=DIRECTION('',(0.,-1.,0.));
#1449=DIRECTION('',(0.,0.,-1.));
#1450=DIRECTION('',(-1.,0.,0.));
#1451=DIRECTION('',(0.,0.,1.));
#1452=DIRECTION('',(-1.,0.,0.));
#1453=DIRECTION('',(0.,0.,1.));
#1454=DIRECTION('',(0.,1.,2.28855339838629E-16));
#1455=DIRECTION('',(0.,-2.28855339838629E-16,1.));
#1456=DIRECTION('',(-1.,0.,0.));
#1457=DIRECTION('',(4.57374113618341E-32,2.28855339838629E-16,-1.));
#1458=DIRECTION('',(-1.,0.,0.));
#1459=DIRECTION('',(4.57374113618341E-32,2.28855339838629E-16,-1.));
#1460=DIRECTION('',(-1.,0.,0.));
#1461=DIRECTION('',(0.,0.,1.));
#1462=DIRECTION('',(1.,-1.99852935020369E-16,0.));
#1463=DIRECTION('',(1.99852935020369E-16,1.,0.));
#1464=DIRECTION('',(1.,-1.99852935020369E-16,0.));
#1465=DIRECTION('',(1.99852935020369E-16,1.,0.));
#1466=DIRECTION('',(-1.,0.,0.));
#1467=DIRECTION('',(0.,0.,1.));
#1468=DIRECTION('',(1.,-1.99852935020369E-16,0.));
#1469=DIRECTION('',(1.99852935020369E-16,1.,0.));
#1470=DIRECTION('',(1.,-1.99852935020369E-16,0.));
#1471=DIRECTION('',(1.99852935020369E-16,1.,0.));
#1472=DIRECTION('',(1.,0.,0.));
#1473=DIRECTION('',(0.,0.,-1.));
#1474=DIRECTION('',(1.,-1.99852935020369E-16,0.));
#1475=DIRECTION('',(1.99852935020369E-16,1.,0.));
#1476=DIRECTION('',(1.,-1.99852935020369E-16,0.));
#1477=DIRECTION('',(1.99852935020369E-16,1.,0.));
#1478=DIRECTION('',(1.,0.,0.));
#1479=DIRECTION('',(0.,0.,-1.));
#1480=DIRECTION('',(1.,-1.99852935020369E-16,0.));
#1481=DIRECTION('',(1.99852935020369E-16,1.,0.));
#1482=DIRECTION('',(1.,-1.99852935020369E-16,0.));
#1483=DIRECTION('',(1.99852935020369E-16,1.,0.));
#1484=DIRECTION('',(1.,0.,0.));
#1485=DIRECTION('',(0.,0.,-1.));
#1486=DIRECTION('',(1.,-1.99852935020369E-16,0.));
#1487=DIRECTION('',(1.99852935020369E-16,1.,0.));
#1488=DIRECTION('',(1.,-1.99852935020369E-16,0.));
#1489=DIRECTION('',(1.99852935020369E-16,1.,0.));
#1490=DIRECTION('',(1.,0.,0.));
#1491=DIRECTION('',(0.,0.,-1.));
#1492=DIRECTION('',(1.,0.,0.));
#1493=DIRECTION('',(-1.,0.,0.));
#1494=DIRECTION('',(0.,0.,1.));
#1495=DIRECTION('',(1.,0.,0.));
#1496=DIRECTION('',(0.,0.,-1.));
#1497=DIRECTION('',(1.,0.,0.));
#1498=DIRECTION('',(0.,0.,-1.));
#1499=DIRECTION('',(1.,-1.99852935020369E-16,0.));
#1500=DIRECTION('',(1.99852935020369E-16,1.,0.));
#1501=DIRECTION('',(1.,-1.99852935020369E-16,0.));
#1502=DIRECTION('',(1.99852935020369E-16,1.,0.));
#1503=DIRECTION('',(0.,0.,-1.));
#1504=DIRECTION('',(-1.,0.,0.));
#1505=DIRECTION('',(1.,0.,0.));
#1506=DIRECTION('',(-1.99852935020369E-16,-1.,0.));
#1507=DIRECTION('',(1.99852935020369E-16,1.,0.));
#1508=DIRECTION('',(-1.,0.,0.));
#1509=DIRECTION('',(0.,-1.,0.));
#1510=DIRECTION('',(0.,0.,-1.));
#1511=DIRECTION('',(-1.,0.,0.));
#1512=DIRECTION('',(-1.,0.,0.));
#1513=DIRECTION('',(0.,0.,-1.));
#1514=DIRECTION('',(-1.,0.,0.));
#1515=DIRECTION('',(0.,-1.,0.));
#1516=DIRECTION('',(0.,0.,-1.));
#1517=DIRECTION('',(-1.,0.,0.));
#1518=DIRECTION('',(-1.,0.,0.));
#1519=DIRECTION('',(1.99852935020369E-16,1.,0.));
#1520=DIRECTION('',(-1.,0.,0.));
#1521=DIRECTION('',(0.,-1.,0.));
#1522=DIRECTION('',(0.,0.,-1.));
#1523=DIRECTION('',(-1.,0.,0.));
#1524=DIRECTION('',(-1.,0.,0.));
#1525=DIRECTION('',(0.,0.,-1.));
#1526=DIRECTION('',(-1.,0.,0.));
#1527=DIRECTION('',(0.,-1.,0.));
#1528=DIRECTION('',(1.,0.,0.));
#1529=DIRECTION('',(0.,1.,0.));
#1530=DIRECTION('',(0.,0.,1.));
#1531=DIRECTION('',(0.,0.,-1.));
#1532=DIRECTION('',(1.,0.,0.));
#1533=DIRECTION('',(0.,1.,0.));
#1534=DIRECTION('',(0.,0.,1.));
#1535=DIRECTION('',(0.,0.,-1.));
#1536=DIRECTION('',(-1.,0.,0.));
#1537=DIRECTION('',(0.,0.,1.));
#1538=DIRECTION('',(0.,1.,0.));
#1539=DIRECTION('',(0.,1.,0.));
#1540=DIRECTION('',(0.,0.,1.));
#1541=DIRECTION('',(1.,0.,0.));
#1542=DIRECTION('',(0.,1.,0.));
#1543=DIRECTION('',(-1.,0.,-1.62732033393696E-16));
#1544=DIRECTION('',(-1.62732033393696E-16,0.,1.));
#1545=DIRECTION('',(0.,1.,0.));
#1546=DIRECTION('',(0.,1.,0.));
#1547=DIRECTION('',(1.,0.,-1.62732033393696E-16));
#1548=DIRECTION('',(-1.62732033393696E-16,0.,-1.));
#1549=DIRECTION('',(-1.62732033393696E-16,0.,-1.));
#1550=DIRECTION('',(0.,1.,0.));
#1551=DIRECTION('',(-1.62732033393696E-16,0.,-1.));
#1552=DIRECTION('',(0.,1.,0.));
#1553=DIRECTION('',(0.,0.,1.));
#1554=DIRECTION('',(1.,0.,0.));
#1555=DIRECTION('',(1.,0.,0.));
#1556=DIRECTION('',(0.,1.,0.));
#1557=DIRECTION('',(1.,0.,0.));
#1558=DIRECTION('',(0.,1.,0.));
#1559=DIRECTION('',(-1.,0.,0.));
#1560=DIRECTION('',(0.,0.,1.));
#1561=DIRECTION('',(0.,0.,1.));
#1562=DIRECTION('',(0.,1.,0.));
#1563=DIRECTION('',(0.,0.,1.));
#1564=DIRECTION('',(0.,0.,1.));
#1565=DIRECTION('',(1.,0.,0.));
#1566=DIRECTION('',(1.,0.,0.));
#1567=DIRECTION('',(0.,1.,0.));
#1568=DIRECTION('',(1.,0.,0.));
#1569=DIRECTION('',(1.,0.,-1.62732033393696E-16));
#1570=DIRECTION('',(-1.62732033393696E-16,0.,-1.));
#1571=DIRECTION('',(-1.62732033393696E-16,0.,-1.));
#1572=DIRECTION('',(0.,1.,0.));
#1573=DIRECTION('',(-1.62732033393696E-16,0.,-1.));
#1574=DIRECTION('',(0.,1.,0.));
#1575=DIRECTION('',(-1.,0.,-1.62732033393696E-16));
#1576=DIRECTION('',(-1.62732033393696E-16,0.,1.));
#1577=DIRECTION('',(0.,1.,0.));
#1578=DIRECTION('',(0.,1.,0.));
#1579=DIRECTION('',(0.,0.,1.));
#1580=DIRECTION('',(1.,0.,0.));
#1581=DIRECTION('',(0.,1.,0.));
#1582=DIRECTION('',(0.,-1.,0.));
#1583=DIRECTION('',(1.,0.,0.));
#1584=DIRECTION('',(0.,0.,-1.));
#1585=DIRECTION('',(0.,0.,-1.));
#1586=DIRECTION('',(0.,-1.,0.));
#1587=DIRECTION('',(0.,0.,-1.));
#1588=DIRECTION('',(0.,-1.,0.));
#1589=DIRECTION('',(0.,0.,-1.));
#1590=DIRECTION('',(0.,-1.,0.));
#1591=DIRECTION('',(0.,0.,-1.));
#1592=DIRECTION('',(0.,-1.,0.));
#1593=DIRECTION('',(0.,0.,-1.));
#1594=DIRECTION('',(0.,-1.,0.));
#1595=DIRECTION('',(1.,0.,0.));
#1596=DIRECTION('',(0.,0.,-1.));
#1597=DIRECTION('',(0.,-1.,0.));
#1598=DIRECTION('',(0.,0.,-1.));
#1599=DIRECTION('',(0.,-1.,0.));
#1600=DIRECTION('',(0.,0.,-1.));
#1601=DIRECTION('',(0.,-1.,0.));
#1602=DIRECTION('',(0.,0.,-1.));
#1603=DIRECTION('',(0.,-1.,0.));
#1604=DIRECTION('',(0.,0.,-1.));
#1605=DIRECTION('',(0.,0.,-1.));
#1606=DIRECTION('',(0.,1.,0.));
#1607=DIRECTION('',(0.,0.,1.));
#1608=DIRECTION('',(0.,1.,0.));
#1609=DIRECTION('',(0.,0.,1.));
#1610=DIRECTION('',(0.,-1.,0.));
#1611=DIRECTION('',(0.,0.,-1.));
#1612=DIRECTION('',(0.,-1.,0.));
#1613=DIRECTION('',(0.,0.,-1.));
#1614=DIRECTION('',(0.,-1.,0.));
#1615=DIRECTION('',(0.,0.,-1.));
#1616=DIRECTION('',(0.,-1.,0.));
#1617=DIRECTION('',(0.,0.,-1.));
#1618=DIRECTION('',(0.,1.,0.));
#1619=DIRECTION('',(0.,0.,1.));
#1620=DIRECTION('',(0.,1.,0.));
#1621=DIRECTION('',(0.,1.,0.));
#1622=DIRECTION('',(0.,0.,1.));
#1623=DIRECTION('',(0.,1.,0.));
#1624=DIRECTION('',(0.,-1.,0.));
#1625=DIRECTION('',(0.,0.,-1.));
#1626=DIRECTION('',(0.,0.,1.));
#1627=DIRECTION('',(0.,0.,1.));
#1628=DIRECTION('',(0.,1.,0.));
#1629=DIRECTION('',(0.,0.,1.));
#1630=DIRECTION('',(0.,0.,-1.));
#1631=DIRECTION('',(0.,0.,-1.));
#1632=DIRECTION('',(1.,0.,0.));
#1633=DIRECTION('',(0.,1.,0.));
#1634=DIRECTION('',(0.,0.,1.));
#1635=DIRECTION('',(0.,0.,1.));
#1636=DIRECTION('',(1.,0.,0.));
#1637=DIRECTION('',(0.,1.,0.));
#1638=DIRECTION('',(0.,0.,1.));
#1639=DIRECTION('',(0.,0.,1.));
#1640=DIRECTION('',(0.,0.,1.));
#1641=DIRECTION('',(1.,0.,0.));
#1642=DIRECTION('',(0.,0.,-1.));
#1643=DIRECTION('',(-1.,0.,0.));
#1644=DIRECTION('',(0.,0.,1.));
#1645=DIRECTION('',(1.,0.,0.));
#1646=DIRECTION('',(0.,0.,-1.));
#1647=DIRECTION('',(-1.,0.,0.));
#1648=DIRECTION('',(0.,1.,0.));
#1649=DIRECTION('',(0.,0.,1.));
#1650=DIRECTION('',(0.,0.,-1.));
#1651=DIRECTION('',(0.,1.,0.));
#1652=DIRECTION('',(0.,0.,1.));
#1653=DIRECTION('',(0.,0.,-1.));
#1654=DIRECTION('',(0.,1.,0.));
#1655=DIRECTION('',(0.,0.,1.));
#1656=DIRECTION('',(0.,0.,1.));
#1657=DIRECTION('',(0.,0.,1.));
#1658=DIRECTION('',(0.,-1.,0.));
#1659=DIRECTION('',(0.,0.,-1.));
#1660=DIRECTION('',(0.,0.,1.));
#1661=DIRECTION('',(1.,-1.99852935020369E-16,0.));
#1662=DIRECTION('',(1.99852935020369E-16,1.,0.));
#1663=DIRECTION('',(1.,-1.99852935020369E-16,0.));
#1664=DIRECTION('',(1.99852935020369E-16,1.,0.));
#1665=DIRECTION('',(1.,-1.99852935020369E-16,0.));
#1666=DIRECTION('',(1.99852935020369E-16,1.,0.));
#1667=DIRECTION('',(-1.,0.,0.));
#1668=DIRECTION('',(0.,0.,1.));
#1669=DIRECTION('',(1.,-1.99852935020369E-16,0.));
#1670=DIRECTION('',(1.99852935020369E-16,1.,0.));
#1671=DIRECTION('',(-1.,0.,0.));
#1672=DIRECTION('',(0.,0.,1.));
#1673=DIRECTION('',(-1.,0.,0.));
#1674=DIRECTION('',(0.,0.,1.));
#1675=CARTESIAN_POINT('',(0.,0.,0.));
#1676=CARTESIAN_POINT('',(0.007495,0.0092175,0.00912));
#1677=CARTESIAN_POINT('',(-0.007495,0.00598,0.00912));
#1678=CARTESIAN_POINT('',(0.00386,0.00598,0.00912));
#1679=CARTESIAN_POINT('',(-0.00386,0.00598,0.00912));
#1680=CARTESIAN_POINT('',(-0.007495,0.00598,0.00912));
#1681=CARTESIAN_POINT('',(-0.007495,0.00598,0.00912));
#1682=CARTESIAN_POINT('',(-0.007495,0.0092175,0.00912));
#1683=CARTESIAN_POINT('',(-0.007495,0.011955,0.00912));
#1684=CARTESIAN_POINT('',(-0.006495,0.011955,0.00912));
#1685=CARTESIAN_POINT('',(-0.006495,0.012955,0.00912));
#1686=CARTESIAN_POINT('',(0.007495,0.012955,0.00912));
#1687=CARTESIAN_POINT('',(0.006495,0.012955,0.00912));
#1688=CARTESIAN_POINT('',(0.006495,0.011955,0.00912));
#1689=CARTESIAN_POINT('',(0.007495,0.011955,0.00912));
#1690=CARTESIAN_POINT('',(0.007495,0.0092175,0.00912));
#1691=CARTESIAN_POINT('',(0.007495,0.00598,0.00912));
#1692=CARTESIAN_POINT('',(-0.007495,0.00598,0.00912));
#1693=CARTESIAN_POINT('',(0.007495,0.00583,0.00877));
#1694=CARTESIAN_POINT('',(0.007495,0.00583,0.00952));
#1695=CARTESIAN_POINT('',(-0.00386,0.00583,0.00952));
#1696=CARTESIAN_POINT('',(0.00386,0.00583,0.00952));
#1697=CARTESIAN_POINT('',(-0.00386,0.00583,0.00877));
#1698=CARTESIAN_POINT('',(-0.00386,0.00508,0.00877));
#1699=CARTESIAN_POINT('',(0.007495,0.00508,0.00877));
#1700=CARTESIAN_POINT('',(0.00386,0.00508,0.00877));
#1701=CARTESIAN_POINT('',(0.00386,0.00583,0.00877));
#1702=CARTESIAN_POINT('',(0.007495,-0.0092175,0.00912));
#1703=CARTESIAN_POINT('',(0.007495,-0.00598,0.00912));
#1704=CARTESIAN_POINT('',(-0.00386,-0.00598,0.00912));
#1705=CARTESIAN_POINT('',(0.00386,-0.00598,0.00912));
#1706=CARTESIAN_POINT('',(0.007495,-0.00598,0.00912));
#1707=CARTESIAN_POINT('',(0.007495,-0.00598,0.00912));
#1708=CARTESIAN_POINT('',(0.007495,-0.0092175,0.00912));
#1709=CARTESIAN_POINT('',(0.007495,-0.011955,0.00912));
#1710=CARTESIAN_POINT('',(0.006495,-0.011955,0.00912));
#1711=CARTESIAN_POINT('',(0.006495,-0.012955,0.00912));
#1712=CARTESIAN_POINT('',(0.007495,-0.012955,0.00912));
#1713=CARTESIAN_POINT('',(-0.006495,-0.012955,0.00912));
#1714=CARTESIAN_POINT('',(-0.006495,-0.011955,0.00912));
#1715=CARTESIAN_POINT('',(-0.007495,-0.011955,0.00912));
#1716=CARTESIAN_POINT('',(-0.007495,-0.0092175,0.00912));
#1717=CARTESIAN_POINT('',(-0.007495,-0.00598,0.00912));
#1718=CARTESIAN_POINT('',(0.007495,-0.00598,0.00912));
#1719=CARTESIAN_POINT('',(-0.00586,-0.00598,0.00912));
#1720=CARTESIAN_POINT('',(-0.00586,0.,0.00912));
#1721=CARTESIAN_POINT('',(-0.00586,-0.00583,0.00912));
#1722=CARTESIAN_POINT('',(-0.003858,-0.00583,0.00912));
#1723=CARTESIAN_POINT('',(-0.00386,-0.00583,0.00912));
#1724=CARTESIAN_POINT('',(-0.00386,-0.004895,0.00912));
#1725=CARTESIAN_POINT('',(0.007495,-0.00583,0.00877));
#1726=CARTESIAN_POINT('',(0.007495,-0.00583,0.00952));
#1727=CARTESIAN_POINT('',(0.00386,-0.00583,0.00952));
#1728=CARTESIAN_POINT('',(-0.00386,-0.00583,0.00952));
#1729=CARTESIAN_POINT('',(0.00386,-0.00583,0.00877));
#1730=CARTESIAN_POINT('',(0.00386,-0.00508,0.00877));
#1731=CARTESIAN_POINT('',(0.007495,-0.00508,0.00877));
#1732=CARTESIAN_POINT('',(-0.00386,-0.00508,0.00877));
#1733=CARTESIAN_POINT('',(-0.00386,-0.00583,0.00877));
#1734=CARTESIAN_POINT('',(0.,-0.00381,0.00573));
#1735=CARTESIAN_POINT('',(0.005772,-0.00381,0.00573));
#1736=CARTESIAN_POINT('',(0.005772,0.00381,0.00573));
#1737=CARTESIAN_POINT('',(0.005772,-0.00381,0.00573));
#1738=CARTESIAN_POINT('',(0.,0.00381,0.00573));
#1739=CARTESIAN_POINT('',(0.00386,0.00381,0.00573));
#1740=CARTESIAN_POINT('',(0.00386,-0.00381,0.00573));
#1741=CARTESIAN_POINT('',(0.00386,0.00458,0.00573));
#1742=CARTESIAN_POINT('',(0.,0.00458,0.00573));
#1743=CARTESIAN_POINT('',(-0.00386,0.00458,0.00573));
#1744=CARTESIAN_POINT('',(-0.00386,-0.00381,0.00573));
#1745=CARTESIAN_POINT('',(-0.00386,0.00381,0.00573));
#1746=CARTESIAN_POINT('',(0.,0.00381,0.00573));
#1747=CARTESIAN_POINT('',(-0.005772,0.00381,0.00573));
#1748=CARTESIAN_POINT('',(-0.005772,-0.00381,0.00573));
#1749=CARTESIAN_POINT('',(-0.005772,-0.00381,0.00573));
#1750=CARTESIAN_POINT('',(0.,-0.00381,0.00573));
#1751=CARTESIAN_POINT('',(-0.00386,-0.00381,0.00573));
#1752=CARTESIAN_POINT('',(-0.00386,-0.00381,0.00573));
#1753=CARTESIAN_POINT('',(-0.00386,-0.00458,0.00573));
#1754=CARTESIAN_POINT('',(0.,-0.00458,0.00573));
#1755=CARTESIAN_POINT('',(0.00386,-0.00458,0.00573));
#1756=CARTESIAN_POINT('',(0.00386,-0.00381,0.00573));
#1757=CARTESIAN_POINT('',(0.00386,-0.00381,0.00573));
#1758=CARTESIAN_POINT('',(0.,-0.00381,0.00573));
#1759=CARTESIAN_POINT('',(0.,-0.00381,0.002865));
#1760=CARTESIAN_POINT('',(-0.005772,-0.00381,0.009122));
#1761=CARTESIAN_POINT('',(-0.00577266247903554,-0.00381,0.00533));
#1762=CARTESIAN_POINT('',(-0.00511,-0.00381,0.00498));
#1763=CARTESIAN_POINT('',(-0.00586,-0.00381,0.00498));
#1764=CARTESIAN_POINT('',(-0.00586,-0.00381,0.003065));
#1765=CARTESIAN_POINT('',(-0.00586,-0.00381,0.0006));
#1766=CARTESIAN_POINT('',(-0.00606,-0.00381,0.0006));
#1767=CARTESIAN_POINT('',(-0.00606,-0.00381,0.0004));
#1768=CARTESIAN_POINT('',(-0.0066775,-0.00381,0.0004));
#1769=CARTESIAN_POINT('',(-0.007495,-0.00381,0.0004));
#1770=CARTESIAN_POINT('',(-0.007495,-0.00381,0.0001));
#1771=CARTESIAN_POINT('',(-0.007495,-0.00381,0.));
#1772=CARTESIAN_POINT('',(-0.0064775,-0.00381,0.));
#1773=CARTESIAN_POINT('',(-0.00596,-0.00381,0.));
#1774=CARTESIAN_POINT('',(-0.00596,-0.00381,0.0005));
#1775=CARTESIAN_POINT('',(-0.00546,-0.00381,0.0005));
#1776=CARTESIAN_POINT('',(-0.00546,-0.00381,0.002665));
#1777=CARTESIAN_POINT('',(-0.00546,-0.00381,0.00483));
#1778=CARTESIAN_POINT('',(-0.00496,-0.00381,0.00483));
#1779=CARTESIAN_POINT('',(-0.00496,-0.00381,0.00533));
#1780=CARTESIAN_POINT('',(-0.00486,-0.00381,0.00533));
#1781=CARTESIAN_POINT('',(-0.00386,-0.00381,0.00533));
#1782=CARTESIAN_POINT('',(-0.00386,-0.00381,0.009122));
#1783=CARTESIAN_POINT('',(0.,0.00381,0.002865));
#1784=CARTESIAN_POINT('',(-0.005772,0.00381,0.009122));
#1785=CARTESIAN_POINT('',(-0.00577266247903554,0.00381,0.00533));
#1786=CARTESIAN_POINT('',(-0.00386,0.00381,0.009122));
#1787=CARTESIAN_POINT('',(-0.00386,0.00381,0.00533));
#1788=CARTESIAN_POINT('',(-0.00486,0.00381,0.00533));
#1789=CARTESIAN_POINT('',(-0.00496,0.00381,0.00533));
#1790=CARTESIAN_POINT('',(-0.00496,0.00381,0.00483));
#1791=CARTESIAN_POINT('',(-0.00546,0.00381,0.00483));
#1792=CARTESIAN_POINT('',(-0.00546,0.00381,0.002665));
#1793=CARTESIAN_POINT('',(-0.00546,0.00381,0.0005));
#1794=CARTESIAN_POINT('',(-0.00596,0.00381,0.0005));
#1795=CARTESIAN_POINT('',(-0.00596,0.00381,0.));
#1796=CARTESIAN_POINT('',(-0.0064775,0.00381,0.));
#1797=CARTESIAN_POINT('',(-0.007495,0.00381,0.));
#1798=CARTESIAN_POINT('',(-0.007495,0.00381,0.0001));
#1799=CARTESIAN_POINT('',(-0.007495,0.00381,0.0004));
#1800=CARTESIAN_POINT('',(-0.0066775,0.00381,0.0004));
#1801=CARTESIAN_POINT('',(-0.00606,0.00381,0.0004));
#1802=CARTESIAN_POINT('',(-0.00606,0.00381,0.0006));
#1803=CARTESIAN_POINT('',(-0.00586,0.00381,0.0006));
#1804=CARTESIAN_POINT('',(-0.00586,0.00381,0.003065));
#1805=CARTESIAN_POINT('',(-0.00586,0.00381,0.00498));
#1806=CARTESIAN_POINT('',(-0.00511,0.00381,0.00498));
#1807=CARTESIAN_POINT('',(0.,-0.00381,0.00533));
#1808=CARTESIAN_POINT('',(0.00486,0.00381,0.00533));
#1809=CARTESIAN_POINT('',(0.00496,0.00381,0.00533));
#1810=CARTESIAN_POINT('',(0.00386,0.00381,0.00533));
#1811=CARTESIAN_POINT('',(0.00496,-0.00381,0.00533));
#1812=CARTESIAN_POINT('',(0.00496,-0.00381,0.00533));
#1813=CARTESIAN_POINT('',(0.00486,-0.00381,0.00533));
#1814=CARTESIAN_POINT('',(0.00386,-0.00381,0.00533));
#1815=CARTESIAN_POINT('',(0.00386,-0.004895,0.00533));
#1816=CARTESIAN_POINT('',(0.00386,-0.00473,0.00533));
#1817=CARTESIAN_POINT('',(-0.007495,-0.00473,0.00533));
#1818=CARTESIAN_POINT('',(-0.00386,-0.00473,0.00533));
#1819=CARTESIAN_POINT('',(-0.00386,-0.004895,0.00533));
#1820=CARTESIAN_POINT('',(-0.00496,0.00381,0.00533));
#1821=CARTESIAN_POINT('',(-0.00386,0.004895,0.00533));
#1822=CARTESIAN_POINT('',(-0.00386,0.00473,0.00533));
#1823=CARTESIAN_POINT('',(0.007495,0.00473,0.00533));
#1824=CARTESIAN_POINT('',(0.00386,0.00473,0.00533));
#1825=CARTESIAN_POINT('',(0.00386,0.004895,0.00533));
#1826=CARTESIAN_POINT('',(0.007495,0.00508,0.007625));
#1827=CARTESIAN_POINT('',(0.00386,0.00508,0.007625));
#1828=CARTESIAN_POINT('',(0.00386,0.00508,0.00623));
#1829=CARTESIAN_POINT('',(-0.00386,0.00508,0.007625));
#1830=CARTESIAN_POINT('',(-0.00386,0.00508,0.00623));
#1831=CARTESIAN_POINT('',(0.007495,0.00508,0.00623));
#1832=CARTESIAN_POINT('',(0.007495,-0.00508,0.007625));
#1833=CARTESIAN_POINT('',(0.00386,-0.00508,0.007625));
#1834=CARTESIAN_POINT('',(0.00386,-0.00508,0.00623));
#1835=CARTESIAN_POINT('',(0.007495,-0.00508,0.00623));
#1836=CARTESIAN_POINT('',(-0.00386,-0.00508,0.00623));
#1837=CARTESIAN_POINT('',(-0.00386,-0.00508,0.007625));
#1838=CARTESIAN_POINT('',(0.007495,-0.00548,0.007225));
#1839=CARTESIAN_POINT('',(0.007495,-0.00548,0.00608));
#1840=CARTESIAN_POINT('',(-0.00386,-0.00548,0.00608));
#1841=CARTESIAN_POINT('',(0.00386,-0.00548,0.00608));
#1842=CARTESIAN_POINT('',(0.00386,-0.00548,0.007225));
#1843=CARTESIAN_POINT('',(0.00386,-0.00548,0.00862));
#1844=CARTESIAN_POINT('',(-0.007495,-0.00548,0.00862));
#1845=CARTESIAN_POINT('',(-0.00386,-0.00548,0.00862));
#1846=CARTESIAN_POINT('',(-0.00386,-0.00548,0.007225));
#1847=CARTESIAN_POINT('',(0.007495,0.00548,0.007225));
#1848=CARTESIAN_POINT('',(0.007495,0.00548,0.00862));
#1849=CARTESIAN_POINT('',(-0.00386,0.00548,0.00862));
#1850=CARTESIAN_POINT('',(0.00386,0.00548,0.00862));
#1851=CARTESIAN_POINT('',(0.00386,0.00548,0.007225));
#1852=CARTESIAN_POINT('',(0.00386,0.00548,0.00608));
#1853=CARTESIAN_POINT('',(-0.007495,0.00548,0.00608));
#1854=CARTESIAN_POINT('',(-0.00386,0.00548,0.00608));
#1855=CARTESIAN_POINT('',(-0.00386,0.00548,0.007225));
#1856=CARTESIAN_POINT('',(0.,0.00458,0.00623));
#1857=CARTESIAN_POINT('',(0.00386,0.00458,0.00623));
#1858=CARTESIAN_POINT('',(-0.00386,0.00458,0.00623));
#1859=CARTESIAN_POINT('',(0.007495,-0.00458,0.00623));
#1860=CARTESIAN_POINT('',(0.00386,-0.00458,0.00623));
#1861=CARTESIAN_POINT('',(-0.00386,-0.00458,0.00623));
#1862=CARTESIAN_POINT('',(0.007495,0.00473,0.00608));
#1863=CARTESIAN_POINT('',(0.00386,0.00473,0.00608));
#1864=CARTESIAN_POINT('',(-0.00386,0.00473,0.00608));
#1865=CARTESIAN_POINT('',(0.,-0.00473,0.00608));
#1866=CARTESIAN_POINT('',(0.00386,-0.00473,0.00608));
#1867=CARTESIAN_POINT('',(-0.00386,-0.00473,0.00608));
#1868=CARTESIAN_POINT('',(0.007495,-0.00598,0.00862));
#1869=CARTESIAN_POINT('',(0.00386,-0.00598,0.00862));
#1870=CARTESIAN_POINT('',(-0.00386,-0.00598,0.00862));
#1871=CARTESIAN_POINT('',(0.007495,-0.00598,0.00862));
#1872=CARTESIAN_POINT('',(0.007495,-0.00583,0.00909696960070847));
#1873=CARTESIAN_POINT('',(-0.00586,-0.00583,0.00909696960070847));
#1874=CARTESIAN_POINT('',(-0.007495,-0.00583,0.00909696960070847));
#1875=CARTESIAN_POINT('',(-0.00586,-0.00598,0.00862));
#1876=CARTESIAN_POINT('',(-0.007495,-0.00598,0.00862));
#1877=CARTESIAN_POINT('',(0.007495,0.00598,0.00862));
#1878=CARTESIAN_POINT('',(0.00386,0.00598,0.00862));
#1879=CARTESIAN_POINT('',(-0.00386,0.00598,0.00862));
#1880=CARTESIAN_POINT('',(0.007495,0.0090175,0.00952));
#1881=CARTESIAN_POINT('',(-0.0066775,0.00598,0.00952));
#1882=CARTESIAN_POINT('',(-0.007495,0.00598,0.00952));
#1883=CARTESIAN_POINT('',(-0.00386,0.00598,0.00952));
#1884=CARTESIAN_POINT('',(-0.00386,3.99705870040902E-22,0.00952));
#1885=CARTESIAN_POINT('',(0.00386,-8.67761443858444E-19,0.00952));
#1886=CARTESIAN_POINT('',(0.00386,0.00598,0.00952));
#1887=CARTESIAN_POINT('',(0.0066775,0.00598,0.00952));
#1888=CARTESIAN_POINT('',(0.007495,0.00598,0.00952));
#1889=CARTESIAN_POINT('',(0.007495,0.0090175,0.00952));
#1890=CARTESIAN_POINT('',(0.007495,0.011955,0.00952));
#1891=CARTESIAN_POINT('',(0.006495,0.011955,0.00952));
#1892=CARTESIAN_POINT('',(0.006495,0.012955,0.00952));
#1893=CARTESIAN_POINT('',(0.007495,0.012955,0.00952));
#1894=CARTESIAN_POINT('',(-0.006495,0.012955,0.00952));
#1895=CARTESIAN_POINT('',(-0.006495,0.011955,0.00952));
#1896=CARTESIAN_POINT('',(-0.007495,0.011955,0.00952));
#1897=CARTESIAN_POINT('',(-0.007495,0.0090175,0.00952));
#1898=CARTESIAN_POINT('',(0.007495,-0.0090175,0.00952));
#1899=CARTESIAN_POINT('',(0.0066775,-0.00598,0.00952));
#1900=CARTESIAN_POINT('',(0.007495,-0.00598,0.00952));
#1901=CARTESIAN_POINT('',(0.00386,-0.00598,0.00952));
#1902=CARTESIAN_POINT('',(0.00386,-8.67761443858444E-19,0.00952));
#1903=CARTESIAN_POINT('',(0.007495,-0.00583,0.00952));
#1904=CARTESIAN_POINT('',(-0.007495,-0.00583,0.00952));
#1905=CARTESIAN_POINT('',(-0.007495,-0.0090175,0.00952));
#1906=CARTESIAN_POINT('',(-0.007495,-0.011955,0.00952));
#1907=CARTESIAN_POINT('',(-0.006495,-0.011955,0.00952));
#1908=CARTESIAN_POINT('',(-0.006495,-0.012955,0.00952));
#1909=CARTESIAN_POINT('',(0.007495,-0.012955,0.00952));
#1910=CARTESIAN_POINT('',(0.006495,-0.012955,0.00952));
#1911=CARTESIAN_POINT('',(0.006495,-0.011955,0.00952));
#1912=CARTESIAN_POINT('',(0.007495,-0.011955,0.00952));
#1913=CARTESIAN_POINT('',(0.007495,-0.0090175,0.00952));
#1914=CARTESIAN_POINT('',(0.007495,3.46944695195361E-18,0.007425));
#1915=CARTESIAN_POINT('',(0.007495,-0.00598,0.005328));
#1916=CARTESIAN_POINT('',(0.007495,-0.011955,0.00912));
#1917=CARTESIAN_POINT('',(-0.007495,3.46944695195361E-18,0.007425));
#1918=CARTESIAN_POINT('',(-0.007495,-0.00583,0.005328));
#1919=CARTESIAN_POINT('',(-0.007495,-0.011955,0.007425));
#1920=CARTESIAN_POINT('',(-0.007495,-0.00381,0.0001));
#1921=CARTESIAN_POINT('',(-0.007495,-0.00381,0.));
#1922=CARTESIAN_POINT('',(-0.007495,-0.00381,0.0004));
#1923=CARTESIAN_POINT('',(-0.0064775,-0.00381,0.));
#1924=CARTESIAN_POINT('',(-0.00596,-0.00381,0.));
#1925=CARTESIAN_POINT('',(-0.00546,-0.00381,0.002665));
#1926=CARTESIAN_POINT('',(-0.00546,-0.00381,0.00483));
#1927=CARTESIAN_POINT('',(-0.00546,-0.00381,0.0005));
#1928=CARTESIAN_POINT('',(0.00546,-0.00381,0.002665));
#1929=CARTESIAN_POINT('',(0.00546,-0.00381,0.002665));
#1930=CARTESIAN_POINT('',(0.00546,-0.00381,0.00483));
#1931=CARTESIAN_POINT('',(0.00546,-0.00381,0.0005));
#1932=CARTESIAN_POINT('',(0.00546,0.00381,0.00483));
#1933=CARTESIAN_POINT('',(0.00546,0.00381,0.00483));
#1934=CARTESIAN_POINT('',(0.00546,0.00381,0.002665));
#1935=CARTESIAN_POINT('',(0.00546,0.00381,0.0005));
#1936=CARTESIAN_POINT('',(0.00546,-0.00381,0.0005));
#1937=CARTESIAN_POINT('',(0.0064775,-0.00381,0.));
#1938=CARTESIAN_POINT('',(0.0064775,-0.00381,0.));
#1939=CARTESIAN_POINT('',(0.00596,-0.00381,0.));
#1940=CARTESIAN_POINT('',(0.007495,-0.00381,0.));
#1941=CARTESIAN_POINT('',(0.00596,-0.00381,0.));
#1942=CARTESIAN_POINT('',(0.00596,0.00381,0.));
#1943=CARTESIAN_POINT('',(0.0064775,0.00381,0.));
#1944=CARTESIAN_POINT('',(0.007495,0.00381,0.));
#1945=CARTESIAN_POINT('',(0.007495,-0.00381,0.));
#1946=CARTESIAN_POINT('',(0.007495,-0.00381,0.0001));
#1947=CARTESIAN_POINT('',(0.007495,0.00381,0.0001));
#1948=CARTESIAN_POINT('',(0.007495,0.00381,0.0004));
#1949=CARTESIAN_POINT('',(0.007495,-0.00381,0.0004));
#1950=CARTESIAN_POINT('',(0.007495,-0.00381,0.0004));
#1951=CARTESIAN_POINT('',(0.007495,-0.00381,0.0001));
#1952=CARTESIAN_POINT('',(0.0066775,-0.00381,0.0004));
#1953=CARTESIAN_POINT('',(0.0066775,0.00381,0.0004));
#1954=CARTESIAN_POINT('',(0.00606,0.00381,0.0004));
#1955=CARTESIAN_POINT('',(0.00606,-0.00381,0.0004));
#1956=CARTESIAN_POINT('',(0.00606,-0.00381,0.0004));
#1957=CARTESIAN_POINT('',(0.0066775,-0.00381,0.0004));
#1958=CARTESIAN_POINT('',(0.00586,-0.00381,0.003065));
#1959=CARTESIAN_POINT('',(0.00586,0.00381,0.003065));
#1960=CARTESIAN_POINT('',(0.00586,0.00381,0.00498));
#1961=CARTESIAN_POINT('',(0.00586,0.00381,0.0006));
#1962=CARTESIAN_POINT('',(0.00586,-0.00381,0.00498));
#1963=CARTESIAN_POINT('',(0.00586,-0.00381,0.00498));
#1964=CARTESIAN_POINT('',(0.00586,-0.00381,0.003065));
#1965=CARTESIAN_POINT('',(0.00586,-0.00381,0.0006));
#1966=CARTESIAN_POINT('',(0.00586,0.00381,0.0006));
#1967=CARTESIAN_POINT('',(-0.00586,-0.00381,0.003065));
#1968=CARTESIAN_POINT('',(-0.00586,-0.00381,0.00498));
#1969=CARTESIAN_POINT('',(-0.00586,-0.00381,0.0006));
#1970=CARTESIAN_POINT('',(-0.0066775,-0.00381,0.0004));
#1971=CARTESIAN_POINT('',(-0.00606,0.00381,0.0004));
#1972=CARTESIAN_POINT('',(0.,-0.00381,0.002865));
#1973=CARTESIAN_POINT('',(0.005772,-0.00381,0.009122));
#1974=CARTESIAN_POINT('',(0.00577266247903555,-0.00381,0.00533));
#1975=CARTESIAN_POINT('',(0.00386,-0.00381,0.009122));
#1976=CARTESIAN_POINT('',(0.00496,-0.00381,0.00483));
#1977=CARTESIAN_POINT('',(0.00596,-0.00381,0.0005));
#1978=CARTESIAN_POINT('',(0.00606,-0.00381,0.0006));
#1979=CARTESIAN_POINT('',(0.00511,-0.00381,0.00498));
#1980=CARTESIAN_POINT('',(0.,0.00381,0.002865));
#1981=CARTESIAN_POINT('',(0.005772,0.00381,0.009122));
#1982=CARTESIAN_POINT('',(0.00577266247903555,0.00381,0.00533));
#1983=CARTESIAN_POINT('',(0.00511,0.00381,0.00498));
#1984=CARTESIAN_POINT('',(0.00606,0.00381,0.0006));
#1985=CARTESIAN_POINT('',(0.00596,0.00381,0.0005));
#1986=CARTESIAN_POINT('',(0.00496,0.00381,0.00483));
#1987=CARTESIAN_POINT('',(0.00386,0.00381,0.009122));
#1988=CARTESIAN_POINT('',(0.00596,-0.00381,0.0005));
#1989=CARTESIAN_POINT('',(-0.00596,-0.00381,0.0005));
#1990=CARTESIAN_POINT('',(0.00606,-0.00381,0.0006));
#1991=CARTESIAN_POINT('',(-0.00606,-0.00381,0.0006));
#1992=CARTESIAN_POINT('',(0.00496,-0.00381,0.00483));
#1993=CARTESIAN_POINT('',(-0.00496,-0.00381,0.00483));
#1994=CARTESIAN_POINT('',(0.00511,-0.00381,0.00498));
#1995=CARTESIAN_POINT('',(0.00577332495807108,-0.00381,0.00533));
#1996=CARTESIAN_POINT('',(-0.00511,-0.00381,0.00498));
#1997=CARTESIAN_POINT('',(-0.00577332495807108,-0.00381,0.00533));
#1998=CARTESIAN_POINT('',(0.007495,0.012955,0.00922));
#1999=CARTESIAN_POINT('',(-0.006495,0.012955,0.00922));
#2000=CARTESIAN_POINT('',(0.006495,0.012955,0.00912));
#2001=CARTESIAN_POINT('',(0.007495,-0.012955,0.00942));
#2002=CARTESIAN_POINT('',(0.006495,-0.012955,0.00952));
#2003=CARTESIAN_POINT('',(-0.006495,-0.012955,0.00942));
#2004=CARTESIAN_POINT('',(0.007495,3.46944695195361E-18,0.007425));
#2005=CARTESIAN_POINT('',(0.007495,0.00598,0.005328));
#2006=CARTESIAN_POINT('',(0.007495,0.011955,0.00952));
#2007=CARTESIAN_POINT('',(-0.007495,3.46944695195361E-18,0.007425));
#2008=CARTESIAN_POINT('',(-0.007495,0.00598,0.005328));
#2009=CARTESIAN_POINT('',(-0.007495,0.011955,0.007425));
#2010=CARTESIAN_POINT('',(-0.006495,0.011955,0.00922));
#2011=CARTESIAN_POINT('',(0.006495,0.011955,0.007425));
#2012=CARTESIAN_POINT('',(0.006495,-0.011955,0.007425));
#2013=CARTESIAN_POINT('',(-0.006495,-0.011955,0.00942));
#2014=CARTESIAN_POINT('',(0.0066775,-0.00598,0.005328));
#2015=CARTESIAN_POINT('',(0.00386,-0.00598,0.005328));
#2016=CARTESIAN_POINT('',(0.0066775,0.00598,0.005328));
#2017=CARTESIAN_POINT('',(0.00386,0.00598,0.005328));
#2018=CARTESIAN_POINT('',(0.007495,-0.00583,0.005328));
#2019=CARTESIAN_POINT('',(-0.00386,-0.00583,0.005328));
#2020=CARTESIAN_POINT('',(-0.00586,-0.00583,0.005328));
#2021=CARTESIAN_POINT('',(-0.0066775,0.00598,0.005328));
#2022=CARTESIAN_POINT('',(-0.00386,0.00598,0.005328));
#2023=CARTESIAN_POINT('',(-0.00386,0.004895,0.009122));
#2024=CARTESIAN_POINT('',(0.00386,0.004895,0.009122));
#2025=CARTESIAN_POINT('',(-0.00386,-0.004895,0.009122));
#2026=CARTESIAN_POINT('',(-0.00586,0.,0.009122));
#2027=CARTESIAN_POINT('',(0.00386,-0.004895,0.009122));
#2028=CARTESIAN_POINT('',(-0.005772,0.,0.005328));
#2029=CARTESIAN_POINT('',(0.005772,-8.67361737988404E-19,0.005328));
#2030=MECHANICAL_DESIGN_GEOMETRIC_PRESENTATION_REPRESENTATION('',(#1215),
#2031);
#2031=(
GEOMETRIC_REPRESENTATION_CONTEXT(3)
GLOBAL_UNCERTAINTY_ASSIGNED_CONTEXT((#2032))
GLOBAL_UNIT_ASSIGNED_CONTEXT((#2035,#2034,#2033))
REPRESENTATION_CONTEXT('7106DG','TOP_LEVEL_ASSEMBLY_PART')
);
#2032=UNCERTAINTY_MEASURE_WITH_UNIT(LENGTH_MEASURE(2.13249580710796E-5),
#2035,'DISTANCE_ACCURACY_VALUE','Maximum Tolerance applied to model');
#2033=(
NAMED_UNIT(*)
SI_UNIT($,.STERADIAN.)
SOLID_ANGLE_UNIT()
);
#2034=(
NAMED_UNIT(*)
PLANE_ANGLE_UNIT()
SI_UNIT($,.RADIAN.)
);
#2035=(
LENGTH_UNIT()
NAMED_UNIT(*)
SI_UNIT($,.METRE.)
);
#2036=PRODUCT_DEFINITION_SHAPE('','',#2037);
#2037=PRODUCT_DEFINITION('','',#2039,#2038);
#2038=PRODUCT_DEFINITION_CONTEXT('',#2045,'design');
#2039=PRODUCT_DEFINITION_FORMATION_WITH_SPECIFIED_SOURCE('','',#2041,
 .NOT_KNOWN.);
#2040=PRODUCT_RELATED_PRODUCT_CATEGORY('','',(#2041));
#2041=PRODUCT('7106DG','7106DG','7106DG',(#2043));
#2042=PRODUCT_CATEGORY('','');
#2043=PRODUCT_CONTEXT('',#2045,'mechanical');
#2044=APPLICATION_PROTOCOL_DEFINITION('international standard',
'ap242_managed_model_based_3d_engineering',2011,#2045);
#2045=APPLICATION_CONTEXT('managed model based 3d engineering');
ENDSEC;
END-ISO-10303-21;
