ISO-10303-21;
HEADER;
/* Generated by software containing ST-Developer
 * from STEP Tools, Inc. (www.steptools.com) 
 */
/* OPTION: using custom renumber hook */

FILE_DESCRIPTION(
/* description */ ('STEP AP242',
'CAx-IF Rec.Pracs.---Representation and Presentation of Product Manufa
cturing Information (PMI)---4.0---2014-10-13',
'CAx-IF Rec.Pracs.---3D Tessellated Geometry---0.4---2014-09-14','2;1'),

/* implementation_level */ '2;1');

FILE_NAME(
/* name */ '67e229834bf1a64fc2c86239',
/* time_stamp */ '2025-03-25T03:56:51Z',
/* author */ (''),
/* organization */ (''),
/* preprocessor_version */ 'ST-DEVELOPER v20',
/* originating_system */ 'ONSHAPE BY PTC INC, 1.195',
/* authorisation */ '  ');

FILE_SCHEMA (('AP242_MANAGED_MODEL_BASED_3D_ENGINEERING_MIM_LF { 1 0 10303 442 1 1 4 }'));
ENDSEC;

DATA;
#10=SHAPE_REPRESENTATION_RELATIONSHIP('','',#1243,#11);
#11=ADVANCED_BREP_SHAPE_REPRESENTATION('',(#1241),#1965);
#12=CYLINDRICAL_SURFACE('',#1270,0.002);
#13=CYLINDRICAL_SURFACE('',#1272,0.00125);
#14=CYLINDRICAL_SURFACE('',#1275,0.002);
#15=CYLINDRICAL_SURFACE('',#1278,0.00125);
#16=CIRCLE('',#1264,0.002);
#17=CIRCLE('',#1265,0.002);
#18=CIRCLE('',#1266,0.00125);
#19=CIRCLE('',#1267,0.00125);
#20=CIRCLE('',#1271,0.002);
#21=CIRCLE('',#1273,0.00125);
#22=CIRCLE('',#1276,0.002);
#23=CIRCLE('',#1279,0.00125);
#24=ORIENTED_EDGE('',*,*,#368,.F.);
#25=ORIENTED_EDGE('',*,*,#369,.T.);
#26=ORIENTED_EDGE('',*,*,#370,.T.);
#27=ORIENTED_EDGE('',*,*,#371,.F.);
#28=ORIENTED_EDGE('',*,*,#372,.F.);
#29=ORIENTED_EDGE('',*,*,#373,.T.);
#30=ORIENTED_EDGE('',*,*,#374,.T.);
#31=ORIENTED_EDGE('',*,*,#375,.F.);
#32=ORIENTED_EDGE('',*,*,#376,.F.);
#33=ORIENTED_EDGE('',*,*,#377,.T.);
#34=ORIENTED_EDGE('',*,*,#378,.T.);
#35=ORIENTED_EDGE('',*,*,#379,.F.);
#36=ORIENTED_EDGE('',*,*,#380,.F.);
#37=ORIENTED_EDGE('',*,*,#381,.T.);
#38=ORIENTED_EDGE('',*,*,#382,.T.);
#39=ORIENTED_EDGE('',*,*,#383,.F.);
#40=ORIENTED_EDGE('',*,*,#384,.F.);
#41=ORIENTED_EDGE('',*,*,#385,.T.);
#42=ORIENTED_EDGE('',*,*,#386,.T.);
#43=ORIENTED_EDGE('',*,*,#387,.F.);
#44=ORIENTED_EDGE('',*,*,#388,.F.);
#45=ORIENTED_EDGE('',*,*,#389,.T.);
#46=ORIENTED_EDGE('',*,*,#390,.T.);
#47=ORIENTED_EDGE('',*,*,#391,.F.);
#48=ORIENTED_EDGE('',*,*,#392,.F.);
#49=ORIENTED_EDGE('',*,*,#393,.T.);
#50=ORIENTED_EDGE('',*,*,#394,.T.);
#51=ORIENTED_EDGE('',*,*,#395,.F.);
#52=ORIENTED_EDGE('',*,*,#396,.F.);
#53=ORIENTED_EDGE('',*,*,#397,.T.);
#54=ORIENTED_EDGE('',*,*,#398,.T.);
#55=ORIENTED_EDGE('',*,*,#399,.F.);
#56=ORIENTED_EDGE('',*,*,#400,.F.);
#57=ORIENTED_EDGE('',*,*,#401,.T.);
#58=ORIENTED_EDGE('',*,*,#402,.T.);
#59=ORIENTED_EDGE('',*,*,#403,.F.);
#60=ORIENTED_EDGE('',*,*,#404,.F.);
#61=ORIENTED_EDGE('',*,*,#405,.T.);
#62=ORIENTED_EDGE('',*,*,#406,.T.);
#63=ORIENTED_EDGE('',*,*,#407,.F.);
#64=ORIENTED_EDGE('',*,*,#408,.F.);
#65=ORIENTED_EDGE('',*,*,#409,.T.);
#66=ORIENTED_EDGE('',*,*,#410,.T.);
#67=ORIENTED_EDGE('',*,*,#411,.F.);
#68=ORIENTED_EDGE('',*,*,#412,.F.);
#69=ORIENTED_EDGE('',*,*,#390,.F.);
#70=ORIENTED_EDGE('',*,*,#413,.T.);
#71=ORIENTED_EDGE('',*,*,#414,.T.);
#72=ORIENTED_EDGE('',*,*,#415,.F.);
#73=ORIENTED_EDGE('',*,*,#386,.F.);
#74=ORIENTED_EDGE('',*,*,#416,.T.);
#75=ORIENTED_EDGE('',*,*,#417,.T.);
#76=ORIENTED_EDGE('',*,*,#418,.F.);
#77=ORIENTED_EDGE('',*,*,#382,.F.);
#78=ORIENTED_EDGE('',*,*,#419,.T.);
#79=ORIENTED_EDGE('',*,*,#420,.T.);
#80=ORIENTED_EDGE('',*,*,#421,.F.);
#81=ORIENTED_EDGE('',*,*,#378,.F.);
#82=ORIENTED_EDGE('',*,*,#422,.T.);
#83=ORIENTED_EDGE('',*,*,#423,.T.);
#84=ORIENTED_EDGE('',*,*,#424,.F.);
#85=ORIENTED_EDGE('',*,*,#374,.F.);
#86=ORIENTED_EDGE('',*,*,#425,.T.);
#87=ORIENTED_EDGE('',*,*,#426,.T.);
#88=ORIENTED_EDGE('',*,*,#427,.F.);
#89=ORIENTED_EDGE('',*,*,#370,.F.);
#90=ORIENTED_EDGE('',*,*,#428,.T.);
#91=ORIENTED_EDGE('',*,*,#429,.T.);
#92=ORIENTED_EDGE('',*,*,#430,.F.);
#93=ORIENTED_EDGE('',*,*,#431,.F.);
#94=ORIENTED_EDGE('',*,*,#432,.T.);
#95=ORIENTED_EDGE('',*,*,#433,.T.);
#96=ORIENTED_EDGE('',*,*,#434,.F.);
#97=ORIENTED_EDGE('',*,*,#435,.F.);
#98=ORIENTED_EDGE('',*,*,#436,.F.);
#99=ORIENTED_EDGE('',*,*,#406,.F.);
#100=ORIENTED_EDGE('',*,*,#437,.T.);
#101=ORIENTED_EDGE('',*,*,#438,.T.);
#102=ORIENTED_EDGE('',*,*,#439,.F.);
#103=ORIENTED_EDGE('',*,*,#402,.F.);
#104=ORIENTED_EDGE('',*,*,#440,.T.);
#105=ORIENTED_EDGE('',*,*,#441,.T.);
#106=ORIENTED_EDGE('',*,*,#442,.F.);
#107=ORIENTED_EDGE('',*,*,#398,.F.);
#108=ORIENTED_EDGE('',*,*,#443,.T.);
#109=ORIENTED_EDGE('',*,*,#444,.T.);
#110=ORIENTED_EDGE('',*,*,#445,.F.);
#111=ORIENTED_EDGE('',*,*,#394,.F.);
#112=ORIENTED_EDGE('',*,*,#446,.T.);
#113=ORIENTED_EDGE('',*,*,#447,.T.);
#114=ORIENTED_EDGE('',*,*,#448,.T.);
#115=ORIENTED_EDGE('',*,*,#449,.T.);
#116=ORIENTED_EDGE('',*,*,#450,.T.);
#117=ORIENTED_EDGE('',*,*,#451,.F.);
#118=ORIENTED_EDGE('',*,*,#452,.F.);
#119=ORIENTED_EDGE('',*,*,#368,.T.);
#120=ORIENTED_EDGE('',*,*,#453,.T.);
#121=ORIENTED_EDGE('',*,*,#454,.F.);
#122=ORIENTED_EDGE('',*,*,#455,.F.);
#123=ORIENTED_EDGE('',*,*,#372,.T.);
#124=ORIENTED_EDGE('',*,*,#456,.T.);
#125=ORIENTED_EDGE('',*,*,#457,.F.);
#126=ORIENTED_EDGE('',*,*,#458,.F.);
#127=ORIENTED_EDGE('',*,*,#376,.T.);
#128=ORIENTED_EDGE('',*,*,#459,.T.);
#129=ORIENTED_EDGE('',*,*,#460,.F.);
#130=ORIENTED_EDGE('',*,*,#461,.F.);
#131=ORIENTED_EDGE('',*,*,#380,.T.);
#132=ORIENTED_EDGE('',*,*,#462,.T.);
#133=ORIENTED_EDGE('',*,*,#463,.F.);
#134=ORIENTED_EDGE('',*,*,#464,.F.);
#135=ORIENTED_EDGE('',*,*,#384,.T.);
#136=ORIENTED_EDGE('',*,*,#465,.T.);
#137=ORIENTED_EDGE('',*,*,#466,.F.);
#138=ORIENTED_EDGE('',*,*,#467,.F.);
#139=ORIENTED_EDGE('',*,*,#388,.T.);
#140=ORIENTED_EDGE('',*,*,#468,.T.);
#141=ORIENTED_EDGE('',*,*,#469,.F.);
#142=ORIENTED_EDGE('',*,*,#470,.F.);
#143=ORIENTED_EDGE('',*,*,#392,.T.);
#144=ORIENTED_EDGE('',*,*,#471,.T.);
#145=ORIENTED_EDGE('',*,*,#472,.F.);
#146=ORIENTED_EDGE('',*,*,#473,.F.);
#147=ORIENTED_EDGE('',*,*,#396,.T.);
#148=ORIENTED_EDGE('',*,*,#474,.T.);
#149=ORIENTED_EDGE('',*,*,#475,.F.);
#150=ORIENTED_EDGE('',*,*,#476,.F.);
#151=ORIENTED_EDGE('',*,*,#400,.T.);
#152=ORIENTED_EDGE('',*,*,#477,.T.);
#153=ORIENTED_EDGE('',*,*,#478,.F.);
#154=ORIENTED_EDGE('',*,*,#479,.F.);
#155=ORIENTED_EDGE('',*,*,#404,.T.);
#156=ORIENTED_EDGE('',*,*,#480,.T.);
#157=ORIENTED_EDGE('',*,*,#481,.F.);
#158=ORIENTED_EDGE('',*,*,#482,.F.);
#159=ORIENTED_EDGE('',*,*,#408,.T.);
#160=ORIENTED_EDGE('',*,*,#483,.T.);
#161=ORIENTED_EDGE('',*,*,#484,.F.);
#162=ORIENTED_EDGE('',*,*,#485,.F.);
#163=ORIENTED_EDGE('',*,*,#486,.T.);
#164=ORIENTED_EDGE('',*,*,#410,.F.);
#165=ORIENTED_EDGE('',*,*,#487,.T.);
#166=ORIENTED_EDGE('',*,*,#488,.F.);
#167=ORIENTED_EDGE('',*,*,#489,.F.);
#168=ORIENTED_EDGE('',*,*,#490,.F.);
#169=ORIENTED_EDGE('',*,*,#491,.T.);
#170=ORIENTED_EDGE('',*,*,#492,.F.);
#171=ORIENTED_EDGE('',*,*,#483,.F.);
#172=ORIENTED_EDGE('',*,*,#411,.T.);
#173=ORIENTED_EDGE('',*,*,#489,.T.);
#174=ORIENTED_EDGE('',*,*,#493,.T.);
#175=ORIENTED_EDGE('',*,*,#494,.T.);
#176=ORIENTED_EDGE('',*,*,#495,.T.);
#177=ORIENTED_EDGE('',*,*,#432,.F.);
#178=ORIENTED_EDGE('',*,*,#496,.F.);
#179=ORIENTED_EDGE('',*,*,#451,.T.);
#180=ORIENTED_EDGE('',*,*,#497,.F.);
#181=ORIENTED_EDGE('',*,*,#448,.F.);
#182=ORIENTED_EDGE('',*,*,#496,.T.);
#183=ORIENTED_EDGE('',*,*,#431,.T.);
#184=ORIENTED_EDGE('',*,*,#498,.T.);
#185=ORIENTED_EDGE('',*,*,#484,.T.);
#186=ORIENTED_EDGE('',*,*,#492,.T.);
#187=ORIENTED_EDGE('',*,*,#499,.F.);
#188=ORIENTED_EDGE('',*,*,#500,.F.);
#189=ORIENTED_EDGE('',*,*,#501,.T.);
#190=ORIENTED_EDGE('',*,*,#433,.F.);
#191=ORIENTED_EDGE('',*,*,#495,.F.);
#192=ORIENTED_EDGE('',*,*,#502,.F.);
#193=ORIENTED_EDGE('',*,*,#503,.F.);
#194=ORIENTED_EDGE('',*,*,#504,.T.);
#195=ORIENTED_EDGE('',*,*,#505,.T.);
#196=ORIENTED_EDGE('',*,*,#499,.T.);
#197=ORIENTED_EDGE('',*,*,#491,.F.);
#198=ORIENTED_EDGE('',*,*,#506,.F.);
#199=ORIENTED_EDGE('',*,*,#507,.T.);
#200=ORIENTED_EDGE('',*,*,#501,.F.);
#201=ORIENTED_EDGE('',*,*,#508,.F.);
#202=ORIENTED_EDGE('',*,*,#509,.T.);
#203=ORIENTED_EDGE('',*,*,#434,.T.);
#204=ORIENTED_EDGE('',*,*,#500,.T.);
#205=ORIENTED_EDGE('',*,*,#507,.F.);
#206=ORIENTED_EDGE('',*,*,#510,.F.);
#207=ORIENTED_EDGE('',*,*,#508,.T.);
#208=ORIENTED_EDGE('',*,*,#511,.T.);
#209=ORIENTED_EDGE('',*,*,#504,.F.);
#210=ORIENTED_EDGE('',*,*,#506,.T.);
#211=ORIENTED_EDGE('',*,*,#490,.T.);
#212=ORIENTED_EDGE('',*,*,#488,.T.);
#213=ORIENTED_EDGE('',*,*,#512,.F.);
#214=ORIENTED_EDGE('',*,*,#481,.T.);
#215=ORIENTED_EDGE('',*,*,#513,.T.);
#216=ORIENTED_EDGE('',*,*,#435,.T.);
#217=ORIENTED_EDGE('',*,*,#509,.F.);
#218=ORIENTED_EDGE('',*,*,#510,.T.);
#219=ORIENTED_EDGE('',*,*,#511,.F.);
#220=ORIENTED_EDGE('',*,*,#503,.T.);
#221=ORIENTED_EDGE('',*,*,#514,.F.);
#222=ORIENTED_EDGE('',*,*,#515,.F.);
#223=ORIENTED_EDGE('',*,*,#516,.T.);
#224=ORIENTED_EDGE('',*,*,#502,.T.);
#225=ORIENTED_EDGE('',*,*,#494,.F.);
#226=ORIENTED_EDGE('',*,*,#517,.F.);
#227=ORIENTED_EDGE('',*,*,#514,.T.);
#228=ORIENTED_EDGE('',*,*,#518,.T.);
#229=ORIENTED_EDGE('',*,*,#505,.F.);
#230=ORIENTED_EDGE('',*,*,#498,.F.);
#231=ORIENTED_EDGE('',*,*,#516,.F.);
#232=ORIENTED_EDGE('',*,*,#519,.T.);
#233=ORIENTED_EDGE('',*,*,#485,.T.);
#234=ORIENTED_EDGE('',*,*,#518,.F.);
#235=ORIENTED_EDGE('',*,*,#515,.T.);
#236=ORIENTED_EDGE('',*,*,#517,.T.);
#237=ORIENTED_EDGE('',*,*,#493,.F.);
#238=ORIENTED_EDGE('',*,*,#450,.F.);
#239=ORIENTED_EDGE('',*,*,#520,.T.);
#240=ORIENTED_EDGE('',*,*,#429,.F.);
#241=ORIENTED_EDGE('',*,*,#521,.F.);
#242=ORIENTED_EDGE('',*,*,#486,.F.);
#243=ORIENTED_EDGE('',*,*,#519,.F.);
#244=ORIENTED_EDGE('',*,*,#407,.T.);
#245=ORIENTED_EDGE('',*,*,#436,.T.);
#246=ORIENTED_EDGE('',*,*,#513,.F.);
#247=ORIENTED_EDGE('',*,*,#480,.F.);
#248=ORIENTED_EDGE('',*,*,#482,.T.);
#249=ORIENTED_EDGE('',*,*,#512,.T.);
#250=ORIENTED_EDGE('',*,*,#487,.F.);
#251=ORIENTED_EDGE('',*,*,#409,.F.);
#252=ORIENTED_EDGE('',*,*,#403,.T.);
#253=ORIENTED_EDGE('',*,*,#439,.T.);
#254=ORIENTED_EDGE('',*,*,#522,.F.);
#255=ORIENTED_EDGE('',*,*,#477,.F.);
#256=ORIENTED_EDGE('',*,*,#478,.T.);
#257=ORIENTED_EDGE('',*,*,#522,.T.);
#258=ORIENTED_EDGE('',*,*,#438,.F.);
#259=ORIENTED_EDGE('',*,*,#523,.F.);
#260=ORIENTED_EDGE('',*,*,#479,.T.);
#261=ORIENTED_EDGE('',*,*,#523,.T.);
#262=ORIENTED_EDGE('',*,*,#437,.F.);
#263=ORIENTED_EDGE('',*,*,#405,.F.);
#264=ORIENTED_EDGE('',*,*,#399,.T.);
#265=ORIENTED_EDGE('',*,*,#442,.T.);
#266=ORIENTED_EDGE('',*,*,#524,.F.);
#267=ORIENTED_EDGE('',*,*,#474,.F.);
#268=ORIENTED_EDGE('',*,*,#475,.T.);
#269=ORIENTED_EDGE('',*,*,#524,.T.);
#270=ORIENTED_EDGE('',*,*,#441,.F.);
#271=ORIENTED_EDGE('',*,*,#525,.F.);
#272=ORIENTED_EDGE('',*,*,#476,.T.);
#273=ORIENTED_EDGE('',*,*,#525,.T.);
#274=ORIENTED_EDGE('',*,*,#440,.F.);
#275=ORIENTED_EDGE('',*,*,#401,.F.);
#276=ORIENTED_EDGE('',*,*,#395,.T.);
#277=ORIENTED_EDGE('',*,*,#445,.T.);
#278=ORIENTED_EDGE('',*,*,#526,.F.);
#279=ORIENTED_EDGE('',*,*,#471,.F.);
#280=ORIENTED_EDGE('',*,*,#472,.T.);
#281=ORIENTED_EDGE('',*,*,#526,.T.);
#282=ORIENTED_EDGE('',*,*,#444,.F.);
#283=ORIENTED_EDGE('',*,*,#527,.F.);
#284=ORIENTED_EDGE('',*,*,#473,.T.);
#285=ORIENTED_EDGE('',*,*,#527,.T.);
#286=ORIENTED_EDGE('',*,*,#443,.F.);
#287=ORIENTED_EDGE('',*,*,#397,.F.);
#288=ORIENTED_EDGE('',*,*,#391,.T.);
#289=ORIENTED_EDGE('',*,*,#412,.T.);
#290=ORIENTED_EDGE('',*,*,#528,.F.);
#291=ORIENTED_EDGE('',*,*,#468,.F.);
#292=ORIENTED_EDGE('',*,*,#469,.T.);
#293=ORIENTED_EDGE('',*,*,#528,.T.);
#294=ORIENTED_EDGE('',*,*,#447,.F.);
#295=ORIENTED_EDGE('',*,*,#529,.F.);
#296=ORIENTED_EDGE('',*,*,#470,.T.);
#297=ORIENTED_EDGE('',*,*,#529,.T.);
#298=ORIENTED_EDGE('',*,*,#446,.F.);
#299=ORIENTED_EDGE('',*,*,#393,.F.);
#300=ORIENTED_EDGE('',*,*,#467,.T.);
#301=ORIENTED_EDGE('',*,*,#530,.T.);
#302=ORIENTED_EDGE('',*,*,#413,.F.);
#303=ORIENTED_EDGE('',*,*,#389,.F.);
#304=ORIENTED_EDGE('',*,*,#387,.T.);
#305=ORIENTED_EDGE('',*,*,#415,.T.);
#306=ORIENTED_EDGE('',*,*,#531,.F.);
#307=ORIENTED_EDGE('',*,*,#465,.F.);
#308=ORIENTED_EDGE('',*,*,#466,.T.);
#309=ORIENTED_EDGE('',*,*,#531,.T.);
#310=ORIENTED_EDGE('',*,*,#414,.F.);
#311=ORIENTED_EDGE('',*,*,#530,.F.);
#312=ORIENTED_EDGE('',*,*,#464,.T.);
#313=ORIENTED_EDGE('',*,*,#532,.T.);
#314=ORIENTED_EDGE('',*,*,#416,.F.);
#315=ORIENTED_EDGE('',*,*,#385,.F.);
#316=ORIENTED_EDGE('',*,*,#383,.T.);
#317=ORIENTED_EDGE('',*,*,#418,.T.);
#318=ORIENTED_EDGE('',*,*,#533,.F.);
#319=ORIENTED_EDGE('',*,*,#462,.F.);
#320=ORIENTED_EDGE('',*,*,#463,.T.);
#321=ORIENTED_EDGE('',*,*,#533,.T.);
#322=ORIENTED_EDGE('',*,*,#417,.F.);
#323=ORIENTED_EDGE('',*,*,#532,.F.);
#324=ORIENTED_EDGE('',*,*,#461,.T.);
#325=ORIENTED_EDGE('',*,*,#534,.T.);
#326=ORIENTED_EDGE('',*,*,#419,.F.);
#327=ORIENTED_EDGE('',*,*,#381,.F.);
#328=ORIENTED_EDGE('',*,*,#379,.T.);
#329=ORIENTED_EDGE('',*,*,#421,.T.);
#330=ORIENTED_EDGE('',*,*,#535,.F.);
#331=ORIENTED_EDGE('',*,*,#459,.F.);
#332=ORIENTED_EDGE('',*,*,#460,.T.);
#333=ORIENTED_EDGE('',*,*,#535,.T.);
#334=ORIENTED_EDGE('',*,*,#420,.F.);
#335=ORIENTED_EDGE('',*,*,#534,.F.);
#336=ORIENTED_EDGE('',*,*,#458,.T.);
#337=ORIENTED_EDGE('',*,*,#536,.T.);
#338=ORIENTED_EDGE('',*,*,#422,.F.);
#339=ORIENTED_EDGE('',*,*,#377,.F.);
#340=ORIENTED_EDGE('',*,*,#375,.T.);
#341=ORIENTED_EDGE('',*,*,#424,.T.);
#342=ORIENTED_EDGE('',*,*,#537,.F.);
#343=ORIENTED_EDGE('',*,*,#456,.F.);
#344=ORIENTED_EDGE('',*,*,#457,.T.);
#345=ORIENTED_EDGE('',*,*,#537,.T.);
#346=ORIENTED_EDGE('',*,*,#423,.F.);
#347=ORIENTED_EDGE('',*,*,#536,.F.);
#348=ORIENTED_EDGE('',*,*,#455,.T.);
#349=ORIENTED_EDGE('',*,*,#538,.T.);
#350=ORIENTED_EDGE('',*,*,#425,.F.);
#351=ORIENTED_EDGE('',*,*,#373,.F.);
#352=ORIENTED_EDGE('',*,*,#371,.T.);
#353=ORIENTED_EDGE('',*,*,#427,.T.);
#354=ORIENTED_EDGE('',*,*,#539,.F.);
#355=ORIENTED_EDGE('',*,*,#453,.F.);
#356=ORIENTED_EDGE('',*,*,#454,.T.);
#357=ORIENTED_EDGE('',*,*,#539,.T.);
#358=ORIENTED_EDGE('',*,*,#426,.F.);
#359=ORIENTED_EDGE('',*,*,#538,.F.);
#360=ORIENTED_EDGE('',*,*,#452,.T.);
#361=ORIENTED_EDGE('',*,*,#521,.T.);
#362=ORIENTED_EDGE('',*,*,#428,.F.);
#363=ORIENTED_EDGE('',*,*,#369,.F.);
#364=ORIENTED_EDGE('',*,*,#497,.T.);
#365=ORIENTED_EDGE('',*,*,#430,.T.);
#366=ORIENTED_EDGE('',*,*,#520,.F.);
#367=ORIENTED_EDGE('',*,*,#449,.F.);
#368=EDGE_CURVE('',#540,#541,#656,.T.);
#369=EDGE_CURVE('',#540,#542,#657,.T.);
#370=EDGE_CURVE('',#542,#543,#658,.T.);
#371=EDGE_CURVE('',#541,#543,#659,.T.);
#372=EDGE_CURVE('',#544,#545,#660,.T.);
#373=EDGE_CURVE('',#544,#546,#661,.T.);
#374=EDGE_CURVE('',#546,#547,#662,.T.);
#375=EDGE_CURVE('',#545,#547,#663,.T.);
#376=EDGE_CURVE('',#548,#549,#664,.T.);
#377=EDGE_CURVE('',#548,#550,#665,.T.);
#378=EDGE_CURVE('',#550,#551,#666,.T.);
#379=EDGE_CURVE('',#549,#551,#667,.T.);
#380=EDGE_CURVE('',#552,#553,#668,.T.);
#381=EDGE_CURVE('',#552,#554,#669,.T.);
#382=EDGE_CURVE('',#554,#555,#670,.T.);
#383=EDGE_CURVE('',#553,#555,#671,.T.);
#384=EDGE_CURVE('',#556,#557,#672,.T.);
#385=EDGE_CURVE('',#556,#558,#673,.T.);
#386=EDGE_CURVE('',#558,#559,#674,.T.);
#387=EDGE_CURVE('',#557,#559,#675,.T.);
#388=EDGE_CURVE('',#560,#561,#676,.T.);
#389=EDGE_CURVE('',#560,#562,#677,.T.);
#390=EDGE_CURVE('',#562,#563,#678,.T.);
#391=EDGE_CURVE('',#561,#563,#679,.T.);
#392=EDGE_CURVE('',#564,#565,#680,.T.);
#393=EDGE_CURVE('',#564,#566,#681,.T.);
#394=EDGE_CURVE('',#566,#567,#682,.T.);
#395=EDGE_CURVE('',#565,#567,#683,.T.);
#396=EDGE_CURVE('',#568,#569,#684,.T.);
#397=EDGE_CURVE('',#568,#570,#685,.T.);
#398=EDGE_CURVE('',#570,#571,#686,.T.);
#399=EDGE_CURVE('',#569,#571,#687,.T.);
#400=EDGE_CURVE('',#572,#573,#688,.T.);
#401=EDGE_CURVE('',#572,#574,#689,.T.);
#402=EDGE_CURVE('',#574,#575,#690,.T.);
#403=EDGE_CURVE('',#573,#575,#691,.T.);
#404=EDGE_CURVE('',#576,#577,#692,.T.);
#405=EDGE_CURVE('',#576,#578,#693,.T.);
#406=EDGE_CURVE('',#578,#579,#694,.T.);
#407=EDGE_CURVE('',#577,#579,#695,.T.);
#408=EDGE_CURVE('',#580,#581,#696,.T.);
#409=EDGE_CURVE('',#580,#582,#697,.T.);
#410=EDGE_CURVE('',#582,#583,#698,.T.);
#411=EDGE_CURVE('',#581,#583,#699,.T.);
#412=EDGE_CURVE('',#563,#584,#700,.T.);
#413=EDGE_CURVE('',#562,#585,#701,.T.);
#414=EDGE_CURVE('',#585,#586,#702,.T.);
#415=EDGE_CURVE('',#559,#586,#703,.T.);
#416=EDGE_CURVE('',#558,#587,#704,.T.);
#417=EDGE_CURVE('',#587,#588,#705,.T.);
#418=EDGE_CURVE('',#555,#588,#706,.T.);
#419=EDGE_CURVE('',#554,#589,#707,.T.);
#420=EDGE_CURVE('',#589,#590,#708,.T.);
#421=EDGE_CURVE('',#551,#590,#709,.T.);
#422=EDGE_CURVE('',#550,#591,#710,.T.);
#423=EDGE_CURVE('',#591,#592,#711,.T.);
#424=EDGE_CURVE('',#547,#592,#712,.T.);
#425=EDGE_CURVE('',#546,#593,#713,.T.);
#426=EDGE_CURVE('',#593,#594,#714,.T.);
#427=EDGE_CURVE('',#543,#594,#715,.T.);
#428=EDGE_CURVE('',#542,#595,#716,.T.);
#429=EDGE_CURVE('',#595,#596,#717,.T.);
#430=EDGE_CURVE('',#597,#596,#718,.T.);
#431=EDGE_CURVE('',#598,#597,#719,.T.);
#432=EDGE_CURVE('',#598,#599,#720,.T.);
#433=EDGE_CURVE('',#599,#600,#721,.T.);
#434=EDGE_CURVE('',#601,#600,#722,.T.);
#435=EDGE_CURVE('',#602,#601,#723,.T.);
#436=EDGE_CURVE('',#579,#602,#724,.T.);
#437=EDGE_CURVE('',#578,#603,#725,.T.);
#438=EDGE_CURVE('',#603,#604,#726,.T.);
#439=EDGE_CURVE('',#575,#604,#727,.T.);
#440=EDGE_CURVE('',#574,#605,#728,.T.);
#441=EDGE_CURVE('',#605,#606,#729,.T.);
#442=EDGE_CURVE('',#571,#606,#730,.T.);
#443=EDGE_CURVE('',#570,#607,#731,.T.);
#444=EDGE_CURVE('',#607,#608,#732,.T.);
#445=EDGE_CURVE('',#567,#608,#733,.T.);
#446=EDGE_CURVE('',#566,#609,#734,.T.);
#447=EDGE_CURVE('',#609,#584,#735,.T.);
#448=EDGE_CURVE('',#610,#611,#736,.T.);
#449=EDGE_CURVE('',#611,#612,#737,.T.);
#450=EDGE_CURVE('',#612,#613,#738,.T.);
#451=EDGE_CURVE('',#610,#613,#739,.T.);
#452=EDGE_CURVE('',#540,#614,#740,.T.);
#453=EDGE_CURVE('',#541,#615,#741,.T.);
#454=EDGE_CURVE('',#616,#615,#742,.T.);
#455=EDGE_CURVE('',#544,#616,#743,.T.);
#456=EDGE_CURVE('',#545,#617,#744,.T.);
#457=EDGE_CURVE('',#618,#617,#745,.T.);
#458=EDGE_CURVE('',#548,#618,#746,.T.);
#459=EDGE_CURVE('',#549,#619,#747,.T.);
#460=EDGE_CURVE('',#620,#619,#748,.T.);
#461=EDGE_CURVE('',#552,#620,#749,.T.);
#462=EDGE_CURVE('',#553,#621,#750,.T.);
#463=EDGE_CURVE('',#622,#621,#751,.T.);
#464=EDGE_CURVE('',#556,#622,#752,.T.);
#465=EDGE_CURVE('',#557,#623,#753,.T.);
#466=EDGE_CURVE('',#624,#623,#754,.T.);
#467=EDGE_CURVE('',#560,#624,#755,.T.);
#468=EDGE_CURVE('',#561,#625,#756,.T.);
#469=EDGE_CURVE('',#626,#625,#757,.T.);
#470=EDGE_CURVE('',#564,#626,#758,.T.);
#471=EDGE_CURVE('',#565,#627,#759,.T.);
#472=EDGE_CURVE('',#628,#627,#760,.T.);
#473=EDGE_CURVE('',#568,#628,#761,.T.);
#474=EDGE_CURVE('',#569,#629,#762,.T.);
#475=EDGE_CURVE('',#630,#629,#763,.T.);
#476=EDGE_CURVE('',#572,#630,#764,.T.);
#477=EDGE_CURVE('',#573,#631,#765,.T.);
#478=EDGE_CURVE('',#632,#631,#766,.T.);
#479=EDGE_CURVE('',#576,#632,#767,.T.);
#480=EDGE_CURVE('',#577,#633,#768,.T.);
#481=EDGE_CURVE('',#634,#633,#769,.T.);
#482=EDGE_CURVE('',#580,#634,#770,.T.);
#483=EDGE_CURVE('',#581,#635,#771,.T.);
#484=EDGE_CURVE('',#636,#635,#772,.T.);
#485=EDGE_CURVE('',#637,#636,#773,.T.);
#486=EDGE_CURVE('',#637,#614,#774,.T.);
#487=EDGE_CURVE('',#582,#638,#775,.T.);
#488=EDGE_CURVE('',#639,#638,#776,.T.);
#489=EDGE_CURVE('',#583,#639,#777,.T.);
#490=EDGE_CURVE('',#640,#639,#778,.T.);
#491=EDGE_CURVE('',#640,#641,#779,.T.);
#492=EDGE_CURVE('',#635,#641,#780,.T.);
#493=EDGE_CURVE('',#613,#642,#781,.T.);
#494=EDGE_CURVE('',#642,#643,#782,.T.);
#495=EDGE_CURVE('',#643,#599,#783,.T.);
#496=EDGE_CURVE('',#610,#598,#784,.T.);
#497=EDGE_CURVE('',#611,#597,#785,.T.);
#498=EDGE_CURVE('',#644,#636,#786,.T.);
#499=EDGE_CURVE('',#645,#641,#787,.T.);
#500=EDGE_CURVE('',#646,#645,#16,.T.);
#501=EDGE_CURVE('',#646,#600,#788,.T.);
#502=EDGE_CURVE('',#647,#643,#789,.T.);
#503=EDGE_CURVE('',#644,#647,#17,.T.);
#504=EDGE_CURVE('',#648,#648,#18,.T.);
#505=EDGE_CURVE('',#649,#649,#19,.T.);
#506=EDGE_CURVE('',#650,#640,#790,.T.);
#507=EDGE_CURVE('',#650,#645,#791,.T.);
#508=EDGE_CURVE('',#651,#646,#792,.T.);
#509=EDGE_CURVE('',#651,#601,#793,.T.);
#510=EDGE_CURVE('',#651,#650,#20,.T.);
#511=EDGE_CURVE('',#652,#652,#21,.T.);
#512=EDGE_CURVE('',#634,#638,#794,.T.);
#513=EDGE_CURVE('',#633,#602,#795,.T.);
#514=EDGE_CURVE('',#653,#647,#796,.T.);
#515=EDGE_CURVE('',#654,#653,#22,.T.);
#516=EDGE_CURVE('',#654,#644,#797,.T.);
#517=EDGE_CURVE('',#653,#642,#798,.T.);
#518=EDGE_CURVE('',#655,#655,#23,.T.);
#519=EDGE_CURVE('',#654,#637,#799,.T.);
#520=EDGE_CURVE('',#612,#596,#800,.T.);
#521=EDGE_CURVE('',#614,#595,#801,.T.);
#522=EDGE_CURVE('',#631,#604,#802,.T.);
#523=EDGE_CURVE('',#632,#603,#803,.T.);
#524=EDGE_CURVE('',#629,#606,#804,.T.);
#525=EDGE_CURVE('',#630,#605,#805,.T.);
#526=EDGE_CURVE('',#627,#608,#806,.T.);
#527=EDGE_CURVE('',#628,#607,#807,.T.);
#528=EDGE_CURVE('',#625,#584,#808,.T.);
#529=EDGE_CURVE('',#626,#609,#809,.T.);
#530=EDGE_CURVE('',#624,#585,#810,.T.);
#531=EDGE_CURVE('',#623,#586,#811,.T.);
#532=EDGE_CURVE('',#622,#587,#812,.T.);
#533=EDGE_CURVE('',#621,#588,#813,.T.);
#534=EDGE_CURVE('',#620,#589,#814,.T.);
#535=EDGE_CURVE('',#619,#590,#815,.T.);
#536=EDGE_CURVE('',#618,#591,#816,.T.);
#537=EDGE_CURVE('',#617,#592,#817,.T.);
#538=EDGE_CURVE('',#616,#593,#818,.T.);
#539=EDGE_CURVE('',#615,#594,#819,.T.);
#540=VERTEX_POINT('',#1618);
#541=VERTEX_POINT('',#1619);
#542=VERTEX_POINT('',#1621);
#543=VERTEX_POINT('',#1623);
#544=VERTEX_POINT('',#1627);
#545=VERTEX_POINT('',#1628);
#546=VERTEX_POINT('',#1630);
#547=VERTEX_POINT('',#1632);
#548=VERTEX_POINT('',#1636);
#549=VERTEX_POINT('',#1637);
#550=VERTEX_POINT('',#1639);
#551=VERTEX_POINT('',#1641);
#552=VERTEX_POINT('',#1645);
#553=VERTEX_POINT('',#1646);
#554=VERTEX_POINT('',#1648);
#555=VERTEX_POINT('',#1650);
#556=VERTEX_POINT('',#1654);
#557=VERTEX_POINT('',#1655);
#558=VERTEX_POINT('',#1657);
#559=VERTEX_POINT('',#1659);
#560=VERTEX_POINT('',#1663);
#561=VERTEX_POINT('',#1664);
#562=VERTEX_POINT('',#1666);
#563=VERTEX_POINT('',#1668);
#564=VERTEX_POINT('',#1672);
#565=VERTEX_POINT('',#1673);
#566=VERTEX_POINT('',#1675);
#567=VERTEX_POINT('',#1677);
#568=VERTEX_POINT('',#1681);
#569=VERTEX_POINT('',#1682);
#570=VERTEX_POINT('',#1684);
#571=VERTEX_POINT('',#1686);
#572=VERTEX_POINT('',#1690);
#573=VERTEX_POINT('',#1691);
#574=VERTEX_POINT('',#1693);
#575=VERTEX_POINT('',#1695);
#576=VERTEX_POINT('',#1699);
#577=VERTEX_POINT('',#1700);
#578=VERTEX_POINT('',#1702);
#579=VERTEX_POINT('',#1704);
#580=VERTEX_POINT('',#1708);
#581=VERTEX_POINT('',#1709);
#582=VERTEX_POINT('',#1711);
#583=VERTEX_POINT('',#1713);
#584=VERTEX_POINT('',#1717);
#585=VERTEX_POINT('',#1719);
#586=VERTEX_POINT('',#1721);
#587=VERTEX_POINT('',#1724);
#588=VERTEX_POINT('',#1726);
#589=VERTEX_POINT('',#1729);
#590=VERTEX_POINT('',#1731);
#591=VERTEX_POINT('',#1734);
#592=VERTEX_POINT('',#1736);
#593=VERTEX_POINT('',#1739);
#594=VERTEX_POINT('',#1741);
#595=VERTEX_POINT('',#1744);
#596=VERTEX_POINT('',#1746);
#597=VERTEX_POINT('',#1748);
#598=VERTEX_POINT('',#1750);
#599=VERTEX_POINT('',#1752);
#600=VERTEX_POINT('',#1754);
#601=VERTEX_POINT('',#1756);
#602=VERTEX_POINT('',#1758);
#603=VERTEX_POINT('',#1761);
#604=VERTEX_POINT('',#1763);
#605=VERTEX_POINT('',#1766);
#606=VERTEX_POINT('',#1768);
#607=VERTEX_POINT('',#1771);
#608=VERTEX_POINT('',#1773);
#609=VERTEX_POINT('',#1776);
#610=VERTEX_POINT('',#1780);
#611=VERTEX_POINT('',#1781);
#612=VERTEX_POINT('',#1783);
#613=VERTEX_POINT('',#1785);
#614=VERTEX_POINT('',#1789);
#615=VERTEX_POINT('',#1791);
#616=VERTEX_POINT('',#1793);
#617=VERTEX_POINT('',#1796);
#618=VERTEX_POINT('',#1798);
#619=VERTEX_POINT('',#1801);
#620=VERTEX_POINT('',#1803);
#621=VERTEX_POINT('',#1806);
#622=VERTEX_POINT('',#1808);
#623=VERTEX_POINT('',#1811);
#624=VERTEX_POINT('',#1813);
#625=VERTEX_POINT('',#1816);
#626=VERTEX_POINT('',#1818);
#627=VERTEX_POINT('',#1821);
#628=VERTEX_POINT('',#1823);
#629=VERTEX_POINT('',#1826);
#630=VERTEX_POINT('',#1828);
#631=VERTEX_POINT('',#1831);
#632=VERTEX_POINT('',#1833);
#633=VERTEX_POINT('',#1836);
#634=VERTEX_POINT('',#1838);
#635=VERTEX_POINT('',#1841);
#636=VERTEX_POINT('',#1843);
#637=VERTEX_POINT('',#1845);
#638=VERTEX_POINT('',#1849);
#639=VERTEX_POINT('',#1851);
#640=VERTEX_POINT('',#1855);
#641=VERTEX_POINT('',#1857);
#642=VERTEX_POINT('',#1861);
#643=VERTEX_POINT('',#1863);
#644=VERTEX_POINT('',#1870);
#645=VERTEX_POINT('',#1872);
#646=VERTEX_POINT('',#1874);
#647=VERTEX_POINT('',#1877);
#648=VERTEX_POINT('',#1880);
#649=VERTEX_POINT('',#1882);
#650=VERTEX_POINT('',#1885);
#651=VERTEX_POINT('',#1889);
#652=VERTEX_POINT('',#1895);
#653=VERTEX_POINT('',#1901);
#654=VERTEX_POINT('',#1903);
#655=VERTEX_POINT('',#1909);
#656=LINE('',#1617,#820);
#657=LINE('',#1620,#821);
#658=LINE('',#1622,#822);
#659=LINE('',#1624,#823);
#660=LINE('',#1626,#824);
#661=LINE('',#1629,#825);
#662=LINE('',#1631,#826);
#663=LINE('',#1633,#827);
#664=LINE('',#1635,#828);
#665=LINE('',#1638,#829);
#666=LINE('',#1640,#830);
#667=LINE('',#1642,#831);
#668=LINE('',#1644,#832);
#669=LINE('',#1647,#833);
#670=LINE('',#1649,#834);
#671=LINE('',#1651,#835);
#672=LINE('',#1653,#836);
#673=LINE('',#1656,#837);
#674=LINE('',#1658,#838);
#675=LINE('',#1660,#839);
#676=LINE('',#1662,#840);
#677=LINE('',#1665,#841);
#678=LINE('',#1667,#842);
#679=LINE('',#1669,#843);
#680=LINE('',#1671,#844);
#681=LINE('',#1674,#845);
#682=LINE('',#1676,#846);
#683=LINE('',#1678,#847);
#684=LINE('',#1680,#848);
#685=LINE('',#1683,#849);
#686=LINE('',#1685,#850);
#687=LINE('',#1687,#851);
#688=LINE('',#1689,#852);
#689=LINE('',#1692,#853);
#690=LINE('',#1694,#854);
#691=LINE('',#1696,#855);
#692=LINE('',#1698,#856);
#693=LINE('',#1701,#857);
#694=LINE('',#1703,#858);
#695=LINE('',#1705,#859);
#696=LINE('',#1707,#860);
#697=LINE('',#1710,#861);
#698=LINE('',#1712,#862);
#699=LINE('',#1714,#863);
#700=LINE('',#1716,#864);
#701=LINE('',#1718,#865);
#702=LINE('',#1720,#866);
#703=LINE('',#1722,#867);
#704=LINE('',#1723,#868);
#705=LINE('',#1725,#869);
#706=LINE('',#1727,#870);
#707=LINE('',#1728,#871);
#708=LINE('',#1730,#872);
#709=LINE('',#1732,#873);
#710=LINE('',#1733,#874);
#711=LINE('',#1735,#875);
#712=LINE('',#1737,#876);
#713=LINE('',#1738,#877);
#714=LINE('',#1740,#878);
#715=LINE('',#1742,#879);
#716=LINE('',#1743,#880);
#717=LINE('',#1745,#881);
#718=LINE('',#1747,#882);
#719=LINE('',#1749,#883);
#720=LINE('',#1751,#884);
#721=LINE('',#1753,#885);
#722=LINE('',#1755,#886);
#723=LINE('',#1757,#887);
#724=LINE('',#1759,#888);
#725=LINE('',#1760,#889);
#726=LINE('',#1762,#890);
#727=LINE('',#1764,#891);
#728=LINE('',#1765,#892);
#729=LINE('',#1767,#893);
#730=LINE('',#1769,#894);
#731=LINE('',#1770,#895);
#732=LINE('',#1772,#896);
#733=LINE('',#1774,#897);
#734=LINE('',#1775,#898);
#735=LINE('',#1777,#899);
#736=LINE('',#1779,#900);
#737=LINE('',#1782,#901);
#738=LINE('',#1784,#902);
#739=LINE('',#1786,#903);
#740=LINE('',#1788,#904);
#741=LINE('',#1790,#905);
#742=LINE('',#1792,#906);
#743=LINE('',#1794,#907);
#744=LINE('',#1795,#908);
#745=LINE('',#1797,#909);
#746=LINE('',#1799,#910);
#747=LINE('',#1800,#911);
#748=LINE('',#1802,#912);
#749=LINE('',#1804,#913);
#750=LINE('',#1805,#914);
#751=LINE('',#1807,#915);
#752=LINE('',#1809,#916);
#753=LINE('',#1810,#917);
#754=LINE('',#1812,#918);
#755=LINE('',#1814,#919);
#756=LINE('',#1815,#920);
#757=LINE('',#1817,#921);
#758=LINE('',#1819,#922);
#759=LINE('',#1820,#923);
#760=LINE('',#1822,#924);
#761=LINE('',#1824,#925);
#762=LINE('',#1825,#926);
#763=LINE('',#1827,#927);
#764=LINE('',#1829,#928);
#765=LINE('',#1830,#929);
#766=LINE('',#1832,#930);
#767=LINE('',#1834,#931);
#768=LINE('',#1835,#932);
#769=LINE('',#1837,#933);
#770=LINE('',#1839,#934);
#771=LINE('',#1840,#935);
#772=LINE('',#1842,#936);
#773=LINE('',#1844,#937);
#774=LINE('',#1846,#938);
#775=LINE('',#1848,#939);
#776=LINE('',#1850,#940);
#777=LINE('',#1852,#941);
#778=LINE('',#1854,#942);
#779=LINE('',#1856,#943);
#780=LINE('',#1858,#944);
#781=LINE('',#1860,#945);
#782=LINE('',#1862,#946);
#783=LINE('',#1864,#947);
#784=LINE('',#1865,#948);
#785=LINE('',#1867,#949);
#786=LINE('',#1869,#950);
#787=LINE('',#1871,#951);
#788=LINE('',#1875,#952);
#789=LINE('',#1876,#953);
#790=LINE('',#1884,#954);
#791=LINE('',#1886,#955);
#792=LINE('',#1888,#956);
#793=LINE('',#1890,#957);
#794=LINE('',#1897,#958);
#795=LINE('',#1898,#959);
#796=LINE('',#1900,#960);
#797=LINE('',#1904,#961);
#798=LINE('',#1906,#962);
#799=LINE('',#1911,#963);
#800=LINE('',#1913,#964);
#801=LINE('',#1914,#965);
#802=LINE('',#1918,#966);
#803=LINE('',#1920,#967);
#804=LINE('',#1923,#968);
#805=LINE('',#1925,#969);
#806=LINE('',#1928,#970);
#807=LINE('',#1930,#971);
#808=LINE('',#1933,#972);
#809=LINE('',#1935,#973);
#810=LINE('',#1938,#974);
#811=LINE('',#1940,#975);
#812=LINE('',#1943,#976);
#813=LINE('',#1945,#977);
#814=LINE('',#1948,#978);
#815=LINE('',#1950,#979);
#816=LINE('',#1953,#980);
#817=LINE('',#1955,#981);
#818=LINE('',#1958,#982);
#819=LINE('',#1960,#983);
#820=VECTOR('',#1317,1.);
#821=VECTOR('',#1318,1.);
#822=VECTOR('',#1319,1.);
#823=VECTOR('',#1320,1.);
#824=VECTOR('',#1323,1.);
#825=VECTOR('',#1324,1.);
#826=VECTOR('',#1325,1.);
#827=VECTOR('',#1326,1.);
#828=VECTOR('',#1329,1.);
#829=VECTOR('',#1330,1.);
#830=VECTOR('',#1331,1.);
#831=VECTOR('',#1332,1.);
#832=VECTOR('',#1335,1.);
#833=VECTOR('',#1336,1.);
#834=VECTOR('',#1337,1.);
#835=VECTOR('',#1338,1.);
#836=VECTOR('',#1341,1.);
#837=VECTOR('',#1342,1.);
#838=VECTOR('',#1343,1.);
#839=VECTOR('',#1344,1.);
#840=VECTOR('',#1347,1.);
#841=VECTOR('',#1348,1.);
#842=VECTOR('',#1349,1.);
#843=VECTOR('',#1350,1.);
#844=VECTOR('',#1353,1.);
#845=VECTOR('',#1354,1.);
#846=VECTOR('',#1355,1.);
#847=VECTOR('',#1356,1.);
#848=VECTOR('',#1359,1.);
#849=VECTOR('',#1360,1.);
#850=VECTOR('',#1361,1.);
#851=VECTOR('',#1362,1.);
#852=VECTOR('',#1365,1.);
#853=VECTOR('',#1366,1.);
#854=VECTOR('',#1367,1.);
#855=VECTOR('',#1368,1.);
#856=VECTOR('',#1371,1.);
#857=VECTOR('',#1372,1.);
#858=VECTOR('',#1373,1.);
#859=VECTOR('',#1374,1.);
#860=VECTOR('',#1377,1.);
#861=VECTOR('',#1378,1.);
#862=VECTOR('',#1379,1.);
#863=VECTOR('',#1380,1.);
#864=VECTOR('',#1383,1.);
#865=VECTOR('',#1384,1.);
#866=VECTOR('',#1385,1.);
#867=VECTOR('',#1386,1.);
#868=VECTOR('',#1387,1.);
#869=VECTOR('',#1388,1.);
#870=VECTOR('',#1389,1.);
#871=VECTOR('',#1390,1.);
#872=VECTOR('',#1391,1.);
#873=VECTOR('',#1392,1.);
#874=VECTOR('',#1393,1.);
#875=VECTOR('',#1394,1.);
#876=VECTOR('',#1395,1.);
#877=VECTOR('',#1396,1.);
#878=VECTOR('',#1397,1.);
#879=VECTOR('',#1398,1.);
#880=VECTOR('',#1399,1.);
#881=VECTOR('',#1400,1.);
#882=VECTOR('',#1401,1.);
#883=VECTOR('',#1402,1.);
#884=VECTOR('',#1403,1.);
#885=VECTOR('',#1404,1.);
#886=VECTOR('',#1405,1.);
#887=VECTOR('',#1406,1.);
#888=VECTOR('',#1407,1.);
#889=VECTOR('',#1408,1.);
#890=VECTOR('',#1409,1.);
#891=VECTOR('',#1410,1.);
#892=VECTOR('',#1411,1.);
#893=VECTOR('',#1412,1.);
#894=VECTOR('',#1413,1.);
#895=VECTOR('',#1414,1.);
#896=VECTOR('',#1415,1.);
#897=VECTOR('',#1416,1.);
#898=VECTOR('',#1417,1.);
#899=VECTOR('',#1418,1.);
#900=VECTOR('',#1421,1.);
#901=VECTOR('',#1422,1.);
#902=VECTOR('',#1423,1.);
#903=VECTOR('',#1424,1.);
#904=VECTOR('',#1427,1.);
#905=VECTOR('',#1428,1.);
#906=VECTOR('',#1429,1.);
#907=VECTOR('',#1430,1.);
#908=VECTOR('',#1431,1.);
#909=VECTOR('',#1432,1.);
#910=VECTOR('',#1433,1.);
#911=VECTOR('',#1434,1.);
#912=VECTOR('',#1435,1.);
#913=VECTOR('',#1436,1.);
#914=VECTOR('',#1437,1.);
#915=VECTOR('',#1438,1.);
#916=VECTOR('',#1439,1.);
#917=VECTOR('',#1440,1.);
#918=VECTOR('',#1441,1.);
#919=VECTOR('',#1442,1.);
#920=VECTOR('',#1443,1.);
#921=VECTOR('',#1444,1.);
#922=VECTOR('',#1445,1.);
#923=VECTOR('',#1446,1.);
#924=VECTOR('',#1447,1.);
#925=VECTOR('',#1448,1.);
#926=VECTOR('',#1449,1.);
#927=VECTOR('',#1450,1.);
#928=VECTOR('',#1451,1.);
#929=VECTOR('',#1452,1.);
#930=VECTOR('',#1453,1.);
#931=VECTOR('',#1454,1.);
#932=VECTOR('',#1455,1.);
#933=VECTOR('',#1456,1.);
#934=VECTOR('',#1457,1.);
#935=VECTOR('',#1458,1.);
#936=VECTOR('',#1459,1.);
#937=VECTOR('',#1460,1.);
#938=VECTOR('',#1461,1.);
#939=VECTOR('',#1464,1.);
#940=VECTOR('',#1465,1.);
#941=VECTOR('',#1466,1.);
#942=VECTOR('',#1469,1.);
#943=VECTOR('',#1470,1.);
#944=VECTOR('',#1471,1.);
#945=VECTOR('',#1474,1.);
#946=VECTOR('',#1475,1.);
#947=VECTOR('',#1476,1.);
#948=VECTOR('',#1477,1.);
#949=VECTOR('',#1480,1.);
#950=VECTOR('',#1483,1.);
#951=VECTOR('',#1484,1.);
#952=VECTOR('',#1487,1.);
#953=VECTOR('',#1488,1.);
#954=VECTOR('',#1497,1.);
#955=VECTOR('',#1498,1.);
#956=VECTOR('',#1501,1.);
#957=VECTOR('',#1502,1.);
#958=VECTOR('',#1513,1.);
#959=VECTOR('',#1514,1.);
#960=VECTOR('',#1517,1.);
#961=VECTOR('',#1520,1.);
#962=VECTOR('',#1523,1.);
#963=VECTOR('',#1530,1.);
#964=VECTOR('',#1533,1.);
#965=VECTOR('',#1534,1.);
#966=VECTOR('',#1541,1.);
#967=VECTOR('',#1544,1.);
#968=VECTOR('',#1549,1.);
#969=VECTOR('',#1552,1.);
#970=VECTOR('',#1557,1.);
#971=VECTOR('',#1560,1.);
#972=VECTOR('',#1565,1.);
#973=VECTOR('',#1568,1.);
#974=VECTOR('',#1573,1.);
#975=VECTOR('',#1576,1.);
#976=VECTOR('',#1581,1.);
#977=VECTOR('',#1584,1.);
#978=VECTOR('',#1589,1.);
#979=VECTOR('',#1592,1.);
#980=VECTOR('',#1597,1.);
#981=VECTOR('',#1600,1.);
#982=VECTOR('',#1605,1.);
#983=VECTOR('',#1608,1.);
#984=EDGE_LOOP('',(#24,#25,#26,#27));
#985=EDGE_LOOP('',(#28,#29,#30,#31));
#986=EDGE_LOOP('',(#32,#33,#34,#35));
#987=EDGE_LOOP('',(#36,#37,#38,#39));
#988=EDGE_LOOP('',(#40,#41,#42,#43));
#989=EDGE_LOOP('',(#44,#45,#46,#47));
#990=EDGE_LOOP('',(#48,#49,#50,#51));
#991=EDGE_LOOP('',(#52,#53,#54,#55));
#992=EDGE_LOOP('',(#56,#57,#58,#59));
#993=EDGE_LOOP('',(#60,#61,#62,#63));
#994=EDGE_LOOP('',(#64,#65,#66,#67));
#995=EDGE_LOOP('',(#68,#69,#70,#71,#72,#73,#74,#75,#76,#77,#78,#79,#80,
#81,#82,#83,#84,#85,#86,#87,#88,#89,#90,#91,#92,#93,#94,#95,#96,#97,#98,
#99,#100,#101,#102,#103,#104,#105,#106,#107,#108,#109,#110,#111,#112,#113));
#996=EDGE_LOOP('',(#114,#115,#116,#117));
#997=EDGE_LOOP('',(#118,#119,#120,#121,#122,#123,#124,#125,#126,#127,#128,
#129,#130,#131,#132,#133,#134,#135,#136,#137,#138,#139,#140,#141,#142,#143,
#144,#145,#146,#147,#148,#149,#150,#151,#152,#153,#154,#155,#156,#157,#158,
#159,#160,#161,#162,#163));
#998=EDGE_LOOP('',(#164,#165,#166,#167));
#999=EDGE_LOOP('',(#168,#169,#170,#171,#172,#173));
#1000=EDGE_LOOP('',(#174,#175,#176,#177,#178,#179));
#1001=EDGE_LOOP('',(#180,#181,#182,#183));
#1002=EDGE_LOOP('',(#184,#185,#186,#187,#188,#189,#190,#191,#192,#193));
#1003=EDGE_LOOP('',(#194));
#1004=EDGE_LOOP('',(#195));
#1005=EDGE_LOOP('',(#196,#197,#198,#199));
#1006=EDGE_LOOP('',(#200,#201,#202,#203));
#1007=EDGE_LOOP('',(#204,#205,#206,#207));
#1008=EDGE_LOOP('',(#208));
#1009=EDGE_LOOP('',(#209));
#1010=EDGE_LOOP('',(#210,#211,#212,#213,#214,#215,#216,#217,#218));
#1011=EDGE_LOOP('',(#219));
#1012=EDGE_LOOP('',(#220,#221,#222,#223));
#1013=EDGE_LOOP('',(#224,#225,#226,#227));
#1014=EDGE_LOOP('',(#228));
#1015=EDGE_LOOP('',(#229));
#1016=EDGE_LOOP('',(#230,#231,#232,#233));
#1017=EDGE_LOOP('',(#234));
#1018=EDGE_LOOP('',(#235,#236,#237,#238,#239,#240,#241,#242,#243));
#1019=EDGE_LOOP('',(#244,#245,#246,#247));
#1020=EDGE_LOOP('',(#248,#249,#250,#251));
#1021=EDGE_LOOP('',(#252,#253,#254,#255));
#1022=EDGE_LOOP('',(#256,#257,#258,#259));
#1023=EDGE_LOOP('',(#260,#261,#262,#263));
#1024=EDGE_LOOP('',(#264,#265,#266,#267));
#1025=EDGE_LOOP('',(#268,#269,#270,#271));
#1026=EDGE_LOOP('',(#272,#273,#274,#275));
#1027=EDGE_LOOP('',(#276,#277,#278,#279));
#1028=EDGE_LOOP('',(#280,#281,#282,#283));
#1029=EDGE_LOOP('',(#284,#285,#286,#287));
#1030=EDGE_LOOP('',(#288,#289,#290,#291));
#1031=EDGE_LOOP('',(#292,#293,#294,#295));
#1032=EDGE_LOOP('',(#296,#297,#298,#299));
#1033=EDGE_LOOP('',(#300,#301,#302,#303));
#1034=EDGE_LOOP('',(#304,#305,#306,#307));
#1035=EDGE_LOOP('',(#308,#309,#310,#311));
#1036=EDGE_LOOP('',(#312,#313,#314,#315));
#1037=EDGE_LOOP('',(#316,#317,#318,#319));
#1038=EDGE_LOOP('',(#320,#321,#322,#323));
#1039=EDGE_LOOP('',(#324,#325,#326,#327));
#1040=EDGE_LOOP('',(#328,#329,#330,#331));
#1041=EDGE_LOOP('',(#332,#333,#334,#335));
#1042=EDGE_LOOP('',(#336,#337,#338,#339));
#1043=EDGE_LOOP('',(#340,#341,#342,#343));
#1044=EDGE_LOOP('',(#344,#345,#346,#347));
#1045=EDGE_LOOP('',(#348,#349,#350,#351));
#1046=EDGE_LOOP('',(#352,#353,#354,#355));
#1047=EDGE_LOOP('',(#356,#357,#358,#359));
#1048=EDGE_LOOP('',(#360,#361,#362,#363));
#1049=EDGE_LOOP('',(#364,#365,#366,#367));
#1050=FACE_BOUND('',#984,.T.);
#1051=FACE_BOUND('',#985,.T.);
#1052=FACE_BOUND('',#986,.T.);
#1053=FACE_BOUND('',#987,.T.);
#1054=FACE_BOUND('',#988,.T.);
#1055=FACE_BOUND('',#989,.T.);
#1056=FACE_BOUND('',#990,.T.);
#1057=FACE_BOUND('',#991,.T.);
#1058=FACE_BOUND('',#992,.T.);
#1059=FACE_BOUND('',#993,.T.);
#1060=FACE_BOUND('',#994,.T.);
#1061=FACE_BOUND('',#995,.T.);
#1062=FACE_BOUND('',#996,.T.);
#1063=FACE_BOUND('',#997,.T.);
#1064=FACE_BOUND('',#998,.T.);
#1065=FACE_BOUND('',#999,.T.);
#1066=FACE_BOUND('',#1000,.T.);
#1067=FACE_BOUND('',#1001,.T.);
#1068=FACE_BOUND('',#1002,.T.);
#1069=FACE_BOUND('',#1003,.T.);
#1070=FACE_BOUND('',#1004,.T.);
#1071=FACE_BOUND('',#1005,.T.);
#1072=FACE_BOUND('',#1006,.T.);
#1073=FACE_BOUND('',#1007,.T.);
#1074=FACE_BOUND('',#1008,.T.);
#1075=FACE_BOUND('',#1009,.T.);
#1076=FACE_BOUND('',#1010,.T.);
#1077=FACE_BOUND('',#1011,.T.);
#1078=FACE_BOUND('',#1012,.T.);
#1079=FACE_BOUND('',#1013,.T.);
#1080=FACE_BOUND('',#1014,.T.);
#1081=FACE_BOUND('',#1015,.T.);
#1082=FACE_BOUND('',#1016,.T.);
#1083=FACE_BOUND('',#1017,.T.);
#1084=FACE_BOUND('',#1018,.T.);
#1085=FACE_BOUND('',#1019,.T.);
#1086=FACE_BOUND('',#1020,.T.);
#1087=FACE_BOUND('',#1021,.T.);
#1088=FACE_BOUND('',#1022,.T.);
#1089=FACE_BOUND('',#1023,.T.);
#1090=FACE_BOUND('',#1024,.T.);
#1091=FACE_BOUND('',#1025,.T.);
#1092=FACE_BOUND('',#1026,.T.);
#1093=FACE_BOUND('',#1027,.T.);
#1094=FACE_BOUND('',#1028,.T.);
#1095=FACE_BOUND('',#1029,.T.);
#1096=FACE_BOUND('',#1030,.T.);
#1097=FACE_BOUND('',#1031,.T.);
#1098=FACE_BOUND('',#1032,.T.);
#1099=FACE_BOUND('',#1033,.T.);
#1100=FACE_BOUND('',#1034,.T.);
#1101=FACE_BOUND('',#1035,.T.);
#1102=FACE_BOUND('',#1036,.T.);
#1103=FACE_BOUND('',#1037,.T.);
#1104=FACE_BOUND('',#1038,.T.);
#1105=FACE_BOUND('',#1039,.T.);
#1106=FACE_BOUND('',#1040,.T.);
#1107=FACE_BOUND('',#1041,.T.);
#1108=FACE_BOUND('',#1042,.T.);
#1109=FACE_BOUND('',#1043,.T.);
#1110=FACE_BOUND('',#1044,.T.);
#1111=FACE_BOUND('',#1045,.T.);
#1112=FACE_BOUND('',#1046,.T.);
#1113=FACE_BOUND('',#1047,.T.);
#1114=FACE_BOUND('',#1048,.T.);
#1115=FACE_BOUND('',#1049,.T.);
#1116=PLANE('',#1245);
#1117=PLANE('',#1246);
#1118=PLANE('',#1247);
#1119=PLANE('',#1248);
#1120=PLANE('',#1249);
#1121=PLANE('',#1250);
#1122=PLANE('',#1251);
#1123=PLANE('',#1252);
#1124=PLANE('',#1253);
#1125=PLANE('',#1254);
#1126=PLANE('',#1255);
#1127=PLANE('',#1256);
#1128=PLANE('',#1257);
#1129=PLANE('',#1258);
#1130=PLANE('',#1259);
#1131=PLANE('',#1260);
#1132=PLANE('',#1261);
#1133=PLANE('',#1262);
#1134=PLANE('',#1263);
#1135=PLANE('',#1268);
#1136=PLANE('',#1269);
#1137=PLANE('',#1274);
#1138=PLANE('',#1277);
#1139=PLANE('',#1280);
#1140=PLANE('',#1281);
#1141=PLANE('',#1282);
#1142=PLANE('',#1283);
#1143=PLANE('',#1284);
#1144=PLANE('',#1285);
#1145=PLANE('',#1286);
#1146=PLANE('',#1287);
#1147=PLANE('',#1288);
#1148=PLANE('',#1289);
#1149=PLANE('',#1290);
#1150=PLANE('',#1291);
#1151=PLANE('',#1292);
#1152=PLANE('',#1293);
#1153=PLANE('',#1294);
#1154=PLANE('',#1295);
#1155=PLANE('',#1296);
#1156=PLANE('',#1297);
#1157=PLANE('',#1298);
#1158=PLANE('',#1299);
#1159=PLANE('',#1300);
#1160=PLANE('',#1301);
#1161=PLANE('',#1302);
#1162=PLANE('',#1303);
#1163=PLANE('',#1304);
#1164=PLANE('',#1305);
#1165=PLANE('',#1306);
#1166=PLANE('',#1307);
#1167=PLANE('',#1308);
#1168=PLANE('',#1309);
#1169=PLANE('',#1310);
#1170=PLANE('',#1311);
#1171=PLANE('',#1312);
#1172=ADVANCED_FACE('',(#1050),#1116,.T.);
#1173=ADVANCED_FACE('',(#1051),#1117,.T.);
#1174=ADVANCED_FACE('',(#1052),#1118,.T.);
#1175=ADVANCED_FACE('',(#1053),#1119,.T.);
#1176=ADVANCED_FACE('',(#1054),#1120,.T.);
#1177=ADVANCED_FACE('',(#1055),#1121,.T.);
#1178=ADVANCED_FACE('',(#1056),#1122,.T.);
#1179=ADVANCED_FACE('',(#1057),#1123,.T.);
#1180=ADVANCED_FACE('',(#1058),#1124,.T.);
#1181=ADVANCED_FACE('',(#1059),#1125,.T.);
#1182=ADVANCED_FACE('',(#1060),#1126,.T.);
#1183=ADVANCED_FACE('',(#1061),#1127,.F.);
#1184=ADVANCED_FACE('',(#1062),#1128,.T.);
#1185=ADVANCED_FACE('',(#1063),#1129,.T.);
#1186=ADVANCED_FACE('',(#1064),#1130,.F.);
#1187=ADVANCED_FACE('',(#1065),#1131,.T.);
#1188=ADVANCED_FACE('',(#1066),#1132,.F.);
#1189=ADVANCED_FACE('',(#1067),#1133,.T.);
#1190=ADVANCED_FACE('',(#1068,#1069,#1070),#1134,.F.);
#1191=ADVANCED_FACE('',(#1071),#1135,.F.);
#1192=ADVANCED_FACE('',(#1072),#1136,.T.);
#1193=ADVANCED_FACE('',(#1073),#12,.T.);
#1194=ADVANCED_FACE('',(#1074,#1075),#13,.F.);
#1195=ADVANCED_FACE('',(#1076,#1077),#1137,.T.);
#1196=ADVANCED_FACE('',(#1078),#14,.T.);
#1197=ADVANCED_FACE('',(#1079),#1138,.F.);
#1198=ADVANCED_FACE('',(#1080,#1081),#15,.F.);
#1199=ADVANCED_FACE('',(#1082),#1139,.T.);
#1200=ADVANCED_FACE('',(#1083,#1084),#1140,.T.);
#1201=ADVANCED_FACE('',(#1085),#1141,.F.);
#1202=ADVANCED_FACE('',(#1086),#1142,.T.);
#1203=ADVANCED_FACE('',(#1087),#1143,.F.);
#1204=ADVANCED_FACE('',(#1088),#1144,.T.);
#1205=ADVANCED_FACE('',(#1089),#1145,.T.);
#1206=ADVANCED_FACE('',(#1090),#1146,.F.);
#1207=ADVANCED_FACE('',(#1091),#1147,.T.);
#1208=ADVANCED_FACE('',(#1092),#1148,.T.);
#1209=ADVANCED_FACE('',(#1093),#1149,.F.);
#1210=ADVANCED_FACE('',(#1094),#1150,.T.);
#1211=ADVANCED_FACE('',(#1095),#1151,.T.);
#1212=ADVANCED_FACE('',(#1096),#1152,.F.);
#1213=ADVANCED_FACE('',(#1097),#1153,.T.);
#1214=ADVANCED_FACE('',(#1098),#1154,.T.);
#1215=ADVANCED_FACE('',(#1099),#1155,.T.);
#1216=ADVANCED_FACE('',(#1100),#1156,.F.);
#1217=ADVANCED_FACE('',(#1101),#1157,.T.);
#1218=ADVANCED_FACE('',(#1102),#1158,.T.);
#1219=ADVANCED_FACE('',(#1103),#1159,.F.);
#1220=ADVANCED_FACE('',(#1104),#1160,.T.);
#1221=ADVANCED_FACE('',(#1105),#1161,.T.);
#1222=ADVANCED_FACE('',(#1106),#1162,.F.);
#1223=ADVANCED_FACE('',(#1107),#1163,.T.);
#1224=ADVANCED_FACE('',(#1108),#1164,.T.);
#1225=ADVANCED_FACE('',(#1109),#1165,.F.);
#1226=ADVANCED_FACE('',(#1110),#1166,.T.);
#1227=ADVANCED_FACE('',(#1111),#1167,.T.);
#1228=ADVANCED_FACE('',(#1112),#1168,.F.);
#1229=ADVANCED_FACE('',(#1113),#1169,.T.);
#1230=ADVANCED_FACE('',(#1114),#1170,.T.);
#1231=ADVANCED_FACE('',(#1115),#1171,.F.);
#1232=CLOSED_SHELL('',(#1172,#1173,#1174,#1175,#1176,#1177,#1178,#1179,
#1180,#1181,#1182,#1183,#1184,#1185,#1186,#1187,#1188,#1189,#1190,#1191,
#1192,#1193,#1194,#1195,#1196,#1197,#1198,#1199,#1200,#1201,#1202,#1203,
#1204,#1205,#1206,#1207,#1208,#1209,#1210,#1211,#1212,#1213,#1214,#1215,
#1216,#1217,#1218,#1219,#1220,#1221,#1222,#1223,#1224,#1225,#1226,#1227,
#1228,#1229,#1230,#1231));
#1233=STYLED_ITEM('',(#1234),#1241);
#1234=PRESENTATION_STYLE_ASSIGNMENT((#1235));
#1235=SURFACE_STYLE_USAGE(.BOTH.,#1236);
#1236=SURFACE_SIDE_STYLE('',(#1237));
#1237=SURFACE_STYLE_FILL_AREA(#1238);
#1238=FILL_AREA_STYLE('',(#1239));
#1239=FILL_AREA_STYLE_COLOUR('',#1240);
#1240=COLOUR_RGB('',0.313725490196078,0.647058823529412,0.792156862745098);
#1241=MANIFOLD_SOLID_BREP('ATS-CPX025025015-138-C2-R0',#1232);
#1242=SHAPE_DEFINITION_REPRESENTATION(#1970,#1243);
#1243=SHAPE_REPRESENTATION('ATS-CPX025025015-138-C2-R0',(#1244),#1965);
#1244=AXIS2_PLACEMENT_3D('',#1615,#1313,#1314);
#1245=AXIS2_PLACEMENT_3D('',#1616,#1315,#1316);
#1246=AXIS2_PLACEMENT_3D('',#1625,#1321,#1322);
#1247=AXIS2_PLACEMENT_3D('',#1634,#1327,#1328);
#1248=AXIS2_PLACEMENT_3D('',#1643,#1333,#1334);
#1249=AXIS2_PLACEMENT_3D('',#1652,#1339,#1340);
#1250=AXIS2_PLACEMENT_3D('',#1661,#1345,#1346);
#1251=AXIS2_PLACEMENT_3D('',#1670,#1351,#1352);
#1252=AXIS2_PLACEMENT_3D('',#1679,#1357,#1358);
#1253=AXIS2_PLACEMENT_3D('',#1688,#1363,#1364);
#1254=AXIS2_PLACEMENT_3D('',#1697,#1369,#1370);
#1255=AXIS2_PLACEMENT_3D('',#1706,#1375,#1376);
#1256=AXIS2_PLACEMENT_3D('',#1715,#1381,#1382);
#1257=AXIS2_PLACEMENT_3D('',#1778,#1419,#1420);
#1258=AXIS2_PLACEMENT_3D('',#1787,#1425,#1426);
#1259=AXIS2_PLACEMENT_3D('',#1847,#1462,#1463);
#1260=AXIS2_PLACEMENT_3D('',#1853,#1467,#1468);
#1261=AXIS2_PLACEMENT_3D('',#1859,#1472,#1473);
#1262=AXIS2_PLACEMENT_3D('',#1866,#1478,#1479);
#1263=AXIS2_PLACEMENT_3D('',#1868,#1481,#1482);
#1264=AXIS2_PLACEMENT_3D('',#1873,#1485,#1486);
#1265=AXIS2_PLACEMENT_3D('',#1878,#1489,#1490);
#1266=AXIS2_PLACEMENT_3D('',#1879,#1491,#1492);
#1267=AXIS2_PLACEMENT_3D('',#1881,#1493,#1494);
#1268=AXIS2_PLACEMENT_3D('',#1883,#1495,#1496);
#1269=AXIS2_PLACEMENT_3D('',#1887,#1499,#1500);
#1270=AXIS2_PLACEMENT_3D('',#1891,#1503,#1504);
#1271=AXIS2_PLACEMENT_3D('',#1892,#1505,#1506);
#1272=AXIS2_PLACEMENT_3D('',#1893,#1507,#1508);
#1273=AXIS2_PLACEMENT_3D('',#1894,#1509,#1510);
#1274=AXIS2_PLACEMENT_3D('',#1896,#1511,#1512);
#1275=AXIS2_PLACEMENT_3D('',#1899,#1515,#1516);
#1276=AXIS2_PLACEMENT_3D('',#1902,#1518,#1519);
#1277=AXIS2_PLACEMENT_3D('',#1905,#1521,#1522);
#1278=AXIS2_PLACEMENT_3D('',#1907,#1524,#1525);
#1279=AXIS2_PLACEMENT_3D('',#1908,#1526,#1527);
#1280=AXIS2_PLACEMENT_3D('',#1910,#1528,#1529);
#1281=AXIS2_PLACEMENT_3D('',#1912,#1531,#1532);
#1282=AXIS2_PLACEMENT_3D('',#1915,#1535,#1536);
#1283=AXIS2_PLACEMENT_3D('',#1916,#1537,#1538);
#1284=AXIS2_PLACEMENT_3D('',#1917,#1539,#1540);
#1285=AXIS2_PLACEMENT_3D('',#1919,#1542,#1543);
#1286=AXIS2_PLACEMENT_3D('',#1921,#1545,#1546);
#1287=AXIS2_PLACEMENT_3D('',#1922,#1547,#1548);
#1288=AXIS2_PLACEMENT_3D('',#1924,#1550,#1551);
#1289=AXIS2_PLACEMENT_3D('',#1926,#1553,#1554);
#1290=AXIS2_PLACEMENT_3D('',#1927,#1555,#1556);
#1291=AXIS2_PLACEMENT_3D('',#1929,#1558,#1559);
#1292=AXIS2_PLACEMENT_3D('',#1931,#1561,#1562);
#1293=AXIS2_PLACEMENT_3D('',#1932,#1563,#1564);
#1294=AXIS2_PLACEMENT_3D('',#1934,#1566,#1567);
#1295=AXIS2_PLACEMENT_3D('',#1936,#1569,#1570);
#1296=AXIS2_PLACEMENT_3D('',#1937,#1571,#1572);
#1297=AXIS2_PLACEMENT_3D('',#1939,#1574,#1575);
#1298=AXIS2_PLACEMENT_3D('',#1941,#1577,#1578);
#1299=AXIS2_PLACEMENT_3D('',#1942,#1579,#1580);
#1300=AXIS2_PLACEMENT_3D('',#1944,#1582,#1583);
#1301=AXIS2_PLACEMENT_3D('',#1946,#1585,#1586);
#1302=AXIS2_PLACEMENT_3D('',#1947,#1587,#1588);
#1303=AXIS2_PLACEMENT_3D('',#1949,#1590,#1591);
#1304=AXIS2_PLACEMENT_3D('',#1951,#1593,#1594);
#1305=AXIS2_PLACEMENT_3D('',#1952,#1595,#1596);
#1306=AXIS2_PLACEMENT_3D('',#1954,#1598,#1599);
#1307=AXIS2_PLACEMENT_3D('',#1956,#1601,#1602);
#1308=AXIS2_PLACEMENT_3D('',#1957,#1603,#1604);
#1309=AXIS2_PLACEMENT_3D('',#1959,#1606,#1607);
#1310=AXIS2_PLACEMENT_3D('',#1961,#1609,#1610);
#1311=AXIS2_PLACEMENT_3D('',#1962,#1611,#1612);
#1312=AXIS2_PLACEMENT_3D('',#1963,#1613,#1614);
#1313=DIRECTION('',(0.,0.,1.));
#1314=DIRECTION('',(1.,0.,0.));
#1315=DIRECTION('',(0.,0.,1.));
#1316=DIRECTION('',(1.,0.,0.));
#1317=DIRECTION('',(1.,0.,0.));
#1318=DIRECTION('',(0.,-1.,0.));
#1319=DIRECTION('',(1.,0.,0.));
#1320=DIRECTION('',(0.,-1.,0.));
#1321=DIRECTION('',(0.,0.,1.));
#1322=DIRECTION('',(1.,0.,0.));
#1323=DIRECTION('',(1.,0.,0.));
#1324=DIRECTION('',(0.,-1.,0.));
#1325=DIRECTION('',(1.,0.,0.));
#1326=DIRECTION('',(0.,-1.,0.));
#1327=DIRECTION('',(0.,0.,1.));
#1328=DIRECTION('',(1.,0.,0.));
#1329=DIRECTION('',(1.,0.,0.));
#1330=DIRECTION('',(0.,-1.,0.));
#1331=DIRECTION('',(1.,0.,0.));
#1332=DIRECTION('',(0.,-1.,0.));
#1333=DIRECTION('',(0.,0.,1.));
#1334=DIRECTION('',(1.,0.,0.));
#1335=DIRECTION('',(1.,0.,0.));
#1336=DIRECTION('',(0.,-1.,0.));
#1337=DIRECTION('',(1.,0.,0.));
#1338=DIRECTION('',(0.,-1.,0.));
#1339=DIRECTION('',(0.,0.,1.));
#1340=DIRECTION('',(1.,0.,0.));
#1341=DIRECTION('',(1.,0.,0.));
#1342=DIRECTION('',(0.,-1.,0.));
#1343=DIRECTION('',(1.,0.,0.));
#1344=DIRECTION('',(0.,-1.,0.));
#1345=DIRECTION('',(0.,0.,1.));
#1346=DIRECTION('',(1.,0.,0.));
#1347=DIRECTION('',(1.,0.,0.));
#1348=DIRECTION('',(0.,-1.,0.));
#1349=DIRECTION('',(1.,0.,0.));
#1350=DIRECTION('',(0.,-1.,0.));
#1351=DIRECTION('',(0.,0.,1.));
#1352=DIRECTION('',(1.,0.,0.));
#1353=DIRECTION('',(1.,0.,0.));
#1354=DIRECTION('',(0.,-1.,0.));
#1355=DIRECTION('',(1.,0.,0.));
#1356=DIRECTION('',(0.,-1.,0.));
#1357=DIRECTION('',(0.,0.,1.));
#1358=DIRECTION('',(1.,0.,0.));
#1359=DIRECTION('',(1.,0.,0.));
#1360=DIRECTION('',(0.,-1.,0.));
#1361=DIRECTION('',(1.,0.,0.));
#1362=DIRECTION('',(0.,-1.,0.));
#1363=DIRECTION('',(0.,0.,1.));
#1364=DIRECTION('',(1.,0.,0.));
#1365=DIRECTION('',(1.,0.,0.));
#1366=DIRECTION('',(0.,-1.,0.));
#1367=DIRECTION('',(1.,0.,0.));
#1368=DIRECTION('',(0.,-1.,0.));
#1369=DIRECTION('',(0.,0.,1.));
#1370=DIRECTION('',(1.,0.,0.));
#1371=DIRECTION('',(1.,0.,0.));
#1372=DIRECTION('',(0.,-1.,0.));
#1373=DIRECTION('',(1.,0.,0.));
#1374=DIRECTION('',(0.,-1.,0.));
#1375=DIRECTION('',(0.,0.,1.));
#1376=DIRECTION('',(1.,0.,0.));
#1377=DIRECTION('',(1.,0.,0.));
#1378=DIRECTION('',(0.,-1.,0.));
#1379=DIRECTION('',(1.,0.,0.));
#1380=DIRECTION('',(-1.38777878078145E-16,-1.,0.));
#1381=DIRECTION('',(0.,1.,0.));
#1382=DIRECTION('',(0.,0.,1.));
#1383=DIRECTION('',(3.0024060161137E-16,0.,-1.));
#1384=DIRECTION('',(3.08580618322798E-16,0.,-1.));
#1385=DIRECTION('',(-1.,0.,0.));
#1386=DIRECTION('',(3.08580618322798E-16,0.,-1.));
#1387=DIRECTION('',(3.0024060161137E-16,0.,-1.));
#1388=DIRECTION('',(-1.,0.,0.));
#1389=DIRECTION('',(3.0024060161137E-16,0.,-1.));
#1390=DIRECTION('',(3.0024060161137E-16,0.,-1.));
#1391=DIRECTION('',(-1.,0.,-2.89120579329468E-16));
#1392=DIRECTION('',(3.33600668457079E-16,0.,-1.));
#1393=DIRECTION('',(3.33600668457079E-16,0.,-1.));
#1394=DIRECTION('',(-1.,0.,0.));
#1395=DIRECTION('',(3.33600668457079E-16,0.,-1.));
#1396=DIRECTION('',(2.66880534765662E-16,0.,-1.));
#1397=DIRECTION('',(-1.,0.,0.));
#1398=DIRECTION('',(2.66880534765662E-16,0.,-1.));
#1399=DIRECTION('',(2.66880534765662E-16,0.,-1.));
#1400=DIRECTION('',(-1.,0.,-2.89120579329468E-16));
#1401=DIRECTION('',(2.66880534765662E-16,0.,-1.));
#1402=DIRECTION('',(1.,0.,0.));
#1403=DIRECTION('',(0.,0.,-1.));
#1404=DIRECTION('',(1.,0.,0.));
#1405=DIRECTION('',(0.,0.,-1.));
#1406=DIRECTION('',(-1.,0.,0.));
#1407=DIRECTION('',(2.66880534765662E-16,0.,-1.));
#1408=DIRECTION('',(2.66880534765662E-16,0.,-1.));
#1409=DIRECTION('',(-1.,0.,0.));
#1410=DIRECTION('',(2.66880534765662E-16,0.,-1.));
#1411=DIRECTION('',(3.33600668457079E-16,0.,-1.));
#1412=DIRECTION('',(-1.,0.,0.));
#1413=DIRECTION('',(3.33600668457079E-16,0.,-1.));
#1414=DIRECTION('',(3.33600668457079E-16,0.,-1.));
#1415=DIRECTION('',(-1.,0.,0.));
#1416=DIRECTION('',(3.0024060161137E-16,0.,-1.));
#1417=DIRECTION('',(3.0024060161137E-16,0.,-1.));
#1418=DIRECTION('',(-1.,0.,0.));
#1419=DIRECTION('',(0.,1.,0.));
#1420=DIRECTION('',(0.,0.,1.));
#1421=DIRECTION('',(1.,0.,0.));
#1422=DIRECTION('',(2.66880534765662E-16,0.,-1.));
#1423=DIRECTION('',(-1.,6.13317366673349E-16,0.));
#1424=DIRECTION('',(0.,0.,-1.));
#1425=DIRECTION('',(0.,1.,0.));
#1426=DIRECTION('',(0.,0.,1.));
#1427=DIRECTION('',(2.66880534765662E-16,0.,-1.));
#1428=DIRECTION('',(2.66880534765662E-16,0.,-1.));
#1429=DIRECTION('',(-1.,0.,0.));
#1430=DIRECTION('',(2.66880534765662E-16,0.,-1.));
#1431=DIRECTION('',(3.33600668457079E-16,0.,-1.));
#1432=DIRECTION('',(-1.,0.,0.));
#1433=DIRECTION('',(3.33600668457079E-16,0.,-1.));
#1434=DIRECTION('',(3.33600668457079E-16,0.,-1.));
#1435=DIRECTION('',(-1.,0.,-2.89120579329468E-16));
#1436=DIRECTION('',(3.0024060161137E-16,0.,-1.));
#1437=DIRECTION('',(3.0024060161137E-16,0.,-1.));
#1438=DIRECTION('',(-1.,0.,0.));
#1439=DIRECTION('',(3.0024060161137E-16,0.,-1.));
#1440=DIRECTION('',(3.08580618322798E-16,0.,-1.));
#1441=DIRECTION('',(-1.,0.,0.));
#1442=DIRECTION('',(3.08580618322798E-16,0.,-1.));
#1443=DIRECTION('',(3.0024060161137E-16,0.,-1.));
#1444=DIRECTION('',(-1.,0.,0.));
#1445=DIRECTION('',(3.0024060161137E-16,0.,-1.));
#1446=DIRECTION('',(3.0024060161137E-16,0.,-1.));
#1447=DIRECTION('',(-1.,0.,0.));
#1448=DIRECTION('',(3.33600668457079E-16,0.,-1.));
#1449=DIRECTION('',(3.33600668457079E-16,0.,-1.));
#1450=DIRECTION('',(-1.,0.,0.));
#1451=DIRECTION('',(3.33600668457079E-16,0.,-1.));
#1452=DIRECTION('',(2.66880534765662E-16,0.,-1.));
#1453=DIRECTION('',(-1.,0.,0.));
#1454=DIRECTION('',(2.66880534765662E-16,0.,-1.));
#1455=DIRECTION('',(2.66880534765662E-16,0.,-1.));
#1456=DIRECTION('',(-1.,0.,0.));
#1457=DIRECTION('',(2.66880534765662E-16,0.,-1.));
#1458=DIRECTION('',(0.,0.,-1.));
#1459=DIRECTION('',(1.,0.,0.));
#1460=DIRECTION('',(0.,0.,-1.));
#1461=DIRECTION('',(-1.,6.13317366673349E-16,0.));
#1462=DIRECTION('',(0.,1.,0.));
#1463=DIRECTION('',(0.,0.,1.));
#1464=DIRECTION('',(2.66880534765662E-16,0.,-1.));
#1465=DIRECTION('',(-1.,0.,0.));
#1466=DIRECTION('',(0.,0.,-1.));
#1467=DIRECTION('',(1.,-1.38777878078145E-16,0.));
#1468=DIRECTION('',(1.38777878078145E-16,1.,0.));
#1469=DIRECTION('',(0.,-1.,0.));
#1470=DIRECTION('',(0.,0.,-1.));
#1471=DIRECTION('',(-1.38777878078145E-16,-1.,0.));
#1472=DIRECTION('',(1.,-1.38777878078145E-16,0.));
#1473=DIRECTION('',(1.38777878078145E-16,1.,0.));
#1474=DIRECTION('',(0.,-1.,0.));
#1475=DIRECTION('',(0.,0.,-1.));
#1476=DIRECTION('',(-1.38777878078145E-16,-1.,0.));
#1477=DIRECTION('',(-1.38777878078145E-16,-1.,0.));
#1478=DIRECTION('',(0.,0.,1.));
#1479=DIRECTION('',(1.,0.,0.));
#1480=DIRECTION('',(0.,-1.,0.));
#1481=DIRECTION('',(0.,0.,1.));
#1482=DIRECTION('',(1.,0.,0.));
#1483=DIRECTION('',(0.707106781186548,-0.707106781186547,0.));
#1484=DIRECTION('',(-0.707106781186548,0.707106781186547,0.));
#1485=DIRECTION('',(0.,0.,1.));
#1486=DIRECTION('',(1.,0.,0.));
#1487=DIRECTION('',(-0.707106781186548,0.707106781186547,0.));
#1488=DIRECTION('',(0.707106781186548,-0.707106781186548,0.));
#1489=DIRECTION('',(0.,0.,1.));
#1490=DIRECTION('',(1.,0.,0.));
#1491=DIRECTION('',(0.,0.,1.));
#1492=DIRECTION('',(1.,0.,0.));
#1493=DIRECTION('',(0.,0.,1.));
#1494=DIRECTION('',(1.,0.,0.));
#1495=DIRECTION('',(-0.707106781186547,-0.707106781186548,0.));
#1496=DIRECTION('',(0.707106781186548,-0.707106781186547,0.));
#1497=DIRECTION('',(-0.707106781186548,0.707106781186547,0.));
#1498=DIRECTION('',(0.,0.,-1.));
#1499=DIRECTION('',(-0.707106781186547,-0.707106781186548,0.));
#1500=DIRECTION('',(0.707106781186548,-0.707106781186547,0.));
#1501=DIRECTION('',(0.,0.,-1.));
#1502=DIRECTION('',(-0.707106781186548,0.707106781186547,0.));
#1503=DIRECTION('',(0.,0.,-1.));
#1504=DIRECTION('',(-1.,0.,0.));
#1505=DIRECTION('',(0.,0.,1.));
#1506=DIRECTION('',(1.,0.,0.));
#1507=DIRECTION('',(0.,0.,-1.));
#1508=DIRECTION('',(-1.,0.,0.));
#1509=DIRECTION('',(0.,0.,1.));
#1510=DIRECTION('',(1.,0.,0.));
#1511=DIRECTION('',(0.,0.,1.));
#1512=DIRECTION('',(1.,0.,0.));
#1513=DIRECTION('',(0.,-1.,0.));
#1514=DIRECTION('',(0.,-1.,0.));
#1515=DIRECTION('',(0.,0.,-1.));
#1516=DIRECTION('',(-1.,0.,0.));
#1517=DIRECTION('',(0.,0.,-1.));
#1518=DIRECTION('',(0.,0.,1.));
#1519=DIRECTION('',(1.,0.,0.));
#1520=DIRECTION('',(0.,0.,-1.));
#1521=DIRECTION('',(0.707106781186548,0.707106781186548,0.));
#1522=DIRECTION('',(-0.707106781186548,0.707106781186548,0.));
#1523=DIRECTION('',(0.707106781186548,-0.707106781186548,0.));
#1524=DIRECTION('',(0.,0.,-1.));
#1525=DIRECTION('',(-1.,0.,0.));
#1526=DIRECTION('',(0.,0.,1.));
#1527=DIRECTION('',(1.,0.,0.));
#1528=DIRECTION('',(0.707106781186547,0.707106781186548,0.));
#1529=DIRECTION('',(-0.707106781186548,0.707106781186547,0.));
#1530=DIRECTION('',(0.707106781186548,-0.707106781186547,0.));
#1531=DIRECTION('',(0.,0.,1.));
#1532=DIRECTION('',(1.,0.,0.));
#1533=DIRECTION('',(0.,-1.,0.));
#1534=DIRECTION('',(0.,-1.,0.));
#1535=DIRECTION('',(-1.,0.,-2.66880534765662E-16));
#1536=DIRECTION('',(-2.66880534765662E-16,0.,1.));
#1537=DIRECTION('',(-1.,0.,-2.66880534765662E-16));
#1538=DIRECTION('',(-2.66880534765662E-16,0.,1.));
#1539=DIRECTION('',(-1.,0.,-2.66880534765662E-16));
#1540=DIRECTION('',(-2.66880534765662E-16,0.,1.));
#1541=DIRECTION('',(0.,-1.,0.));
#1542=DIRECTION('',(0.,0.,1.));
#1543=DIRECTION('',(1.,0.,0.));
#1544=DIRECTION('',(0.,-1.,0.));
#1545=DIRECTION('',(-1.,0.,-2.66880534765662E-16));
#1546=DIRECTION('',(-2.66880534765662E-16,0.,1.));
#1547=DIRECTION('',(-1.,0.,-3.33600668457079E-16));
#1548=DIRECTION('',(-3.33600668457079E-16,0.,1.));
#1549=DIRECTION('',(0.,-1.,0.));
#1550=DIRECTION('',(0.,0.,1.));
#1551=DIRECTION('',(1.,0.,0.));
#1552=DIRECTION('',(0.,-1.,0.));
#1553=DIRECTION('',(-1.,0.,-3.33600668457079E-16));
#1554=DIRECTION('',(-3.33600668457079E-16,0.,1.));
#1555=DIRECTION('',(-1.,0.,-3.0024060161137E-16));
#1556=DIRECTION('',(-3.0024060161137E-16,0.,1.));
#1557=DIRECTION('',(0.,-1.,0.));
#1558=DIRECTION('',(0.,0.,1.));
#1559=DIRECTION('',(1.,0.,0.));
#1560=DIRECTION('',(0.,-1.,0.));
#1561=DIRECTION('',(-1.,0.,-3.33600668457079E-16));
#1562=DIRECTION('',(-3.33600668457079E-16,0.,1.));
#1563=DIRECTION('',(-1.,0.,-3.0024060161137E-16));
#1564=DIRECTION('',(-3.0024060161137E-16,0.,1.));
#1565=DIRECTION('',(0.,-1.,0.));
#1566=DIRECTION('',(0.,0.,1.));
#1567=DIRECTION('',(1.,0.,0.));
#1568=DIRECTION('',(0.,-1.,0.));
#1569=DIRECTION('',(-1.,0.,-3.0024060161137E-16));
#1570=DIRECTION('',(-3.0024060161137E-16,0.,1.));
#1571=DIRECTION('',(-1.,0.,-3.08580618322798E-16));
#1572=DIRECTION('',(-3.08580618322798E-16,0.,1.));
#1573=DIRECTION('',(0.,-1.,0.));
#1574=DIRECTION('',(-1.,0.,-3.08580618322798E-16));
#1575=DIRECTION('',(-3.08580618322798E-16,0.,1.));
#1576=DIRECTION('',(0.,-1.,0.));
#1577=DIRECTION('',(0.,0.,1.));
#1578=DIRECTION('',(1.,0.,0.));
#1579=DIRECTION('',(-1.,0.,-3.0024060161137E-16));
#1580=DIRECTION('',(-3.0024060161137E-16,0.,1.));
#1581=DIRECTION('',(0.,-1.,0.));
#1582=DIRECTION('',(-1.,0.,-3.0024060161137E-16));
#1583=DIRECTION('',(-3.0024060161137E-16,0.,1.));
#1584=DIRECTION('',(0.,-1.,0.));
#1585=DIRECTION('',(0.,0.,1.));
#1586=DIRECTION('',(1.,0.,0.));
#1587=DIRECTION('',(-1.,0.,-3.0024060161137E-16));
#1588=DIRECTION('',(-3.0024060161137E-16,0.,1.));
#1589=DIRECTION('',(0.,-1.,0.));
#1590=DIRECTION('',(-1.,0.,-3.33600668457079E-16));
#1591=DIRECTION('',(-3.33600668457079E-16,0.,1.));
#1592=DIRECTION('',(0.,-1.,0.));
#1593=DIRECTION('',(-2.89120579329468E-16,0.,1.));
#1594=DIRECTION('',(1.,0.,2.89120579329468E-16));
#1595=DIRECTION('',(-1.,0.,-3.33600668457079E-16));
#1596=DIRECTION('',(-3.33600668457079E-16,0.,1.));
#1597=DIRECTION('',(0.,-1.,0.));
#1598=DIRECTION('',(-1.,0.,-3.33600668457079E-16));
#1599=DIRECTION('',(-3.33600668457079E-16,0.,1.));
#1600=DIRECTION('',(0.,-1.,0.));
#1601=DIRECTION('',(0.,0.,1.));
#1602=DIRECTION('',(1.,0.,0.));
#1603=DIRECTION('',(-1.,0.,-2.66880534765662E-16));
#1604=DIRECTION('',(-2.66880534765662E-16,0.,1.));
#1605=DIRECTION('',(0.,-1.,0.));
#1606=DIRECTION('',(-1.,0.,-2.66880534765662E-16));
#1607=DIRECTION('',(-2.66880534765662E-16,0.,1.));
#1608=DIRECTION('',(0.,-1.,0.));
#1609=DIRECTION('',(0.,0.,1.));
#1610=DIRECTION('',(1.,0.,0.));
#1611=DIRECTION('',(-1.,0.,-2.66880534765662E-16));
#1612=DIRECTION('',(-2.66880534765662E-16,0.,1.));
#1613=DIRECTION('',(-1.,0.,-2.66880534765662E-16));
#1614=DIRECTION('',(-2.66880534765662E-16,0.,1.));
#1615=CARTESIAN_POINT('',(0.,0.,0.));
#1616=CARTESIAN_POINT('',(0.,-1.7347234759768E-18,0.015));
#1617=CARTESIAN_POINT('',(1.7347234759768E-18,0.0125,0.015));
#1618=CARTESIAN_POINT('',(-0.01025,0.0125,0.015));
#1619=CARTESIAN_POINT('',(-0.00955,0.0125,0.015));
#1620=CARTESIAN_POINT('',(-0.01025,0.012502,0.015));
#1621=CARTESIAN_POINT('',(-0.01025,-0.0125,0.015));
#1622=CARTESIAN_POINT('',(-1.7347234759768E-18,-0.0125,0.015));
#1623=CARTESIAN_POINT('',(-0.00955,-0.0125,0.015));
#1624=CARTESIAN_POINT('',(-0.00955,0.012502,0.015));
#1625=CARTESIAN_POINT('',(0.,-1.7347234759768E-18,0.015));
#1626=CARTESIAN_POINT('',(1.7347234759768E-18,0.0125,0.015));
#1627=CARTESIAN_POINT('',(-0.00805,0.0125,0.015));
#1628=CARTESIAN_POINT('',(-0.00735,0.0125,0.015));
#1629=CARTESIAN_POINT('',(-0.00805,0.012502,0.015));
#1630=CARTESIAN_POINT('',(-0.00805,-0.0125,0.015));
#1631=CARTESIAN_POINT('',(-1.7347234759768E-18,-0.0125,0.015));
#1632=CARTESIAN_POINT('',(-0.00735,-0.0125,0.015));
#1633=CARTESIAN_POINT('',(-0.00735,0.012502,0.015));
#1634=CARTESIAN_POINT('',(0.,-1.7347234759768E-18,0.015));
#1635=CARTESIAN_POINT('',(1.7347234759768E-18,0.0125,0.015));
#1636=CARTESIAN_POINT('',(-0.00585,0.0125,0.015));
#1637=CARTESIAN_POINT('',(-0.00515,0.0125,0.015));
#1638=CARTESIAN_POINT('',(-0.00585,0.012502,0.015));
#1639=CARTESIAN_POINT('',(-0.00585,-0.0125,0.015));
#1640=CARTESIAN_POINT('',(-1.7347234759768E-18,-0.0125,0.015));
#1641=CARTESIAN_POINT('',(-0.00515,-0.0125,0.015));
#1642=CARTESIAN_POINT('',(-0.00515,0.012502,0.015));
#1643=CARTESIAN_POINT('',(0.,-1.7347234759768E-18,0.015));
#1644=CARTESIAN_POINT('',(1.7347234759768E-18,0.0125,0.015));
#1645=CARTESIAN_POINT('',(-0.00365,0.0125,0.015));
#1646=CARTESIAN_POINT('',(-0.00295,0.0125,0.015));
#1647=CARTESIAN_POINT('',(-0.00365,0.012502,0.015));
#1648=CARTESIAN_POINT('',(-0.00365,-0.0125,0.015));
#1649=CARTESIAN_POINT('',(-1.7347234759768E-18,-0.0125,0.015));
#1650=CARTESIAN_POINT('',(-0.00295,-0.0125,0.015));
#1651=CARTESIAN_POINT('',(-0.00295,0.012502,0.015));
#1652=CARTESIAN_POINT('',(0.,-1.7347234759768E-18,0.015));
#1653=CARTESIAN_POINT('',(1.7347234759768E-18,0.0125,0.015));
#1654=CARTESIAN_POINT('',(-0.00145,0.0125,0.015));
#1655=CARTESIAN_POINT('',(-0.00075,0.0125,0.015));
#1656=CARTESIAN_POINT('',(-0.00145,0.012502,0.015));
#1657=CARTESIAN_POINT('',(-0.00145,-0.0125,0.015));
#1658=CARTESIAN_POINT('',(-1.7347234759768E-18,-0.0125,0.015));
#1659=CARTESIAN_POINT('',(-0.00075,-0.0125,0.015));
#1660=CARTESIAN_POINT('',(-0.00075,0.012502,0.015));
#1661=CARTESIAN_POINT('',(0.,-1.7347234759768E-18,0.015));
#1662=CARTESIAN_POINT('',(1.7347234759768E-18,0.0125,0.015));
#1663=CARTESIAN_POINT('',(0.00075,0.0125,0.015));
#1664=CARTESIAN_POINT('',(0.00145,0.0125,0.015));
#1665=CARTESIAN_POINT('',(0.00075,0.012502,0.015));
#1666=CARTESIAN_POINT('',(0.00075,-0.0125,0.015));
#1667=CARTESIAN_POINT('',(-1.7347234759768E-18,-0.0125,0.015));
#1668=CARTESIAN_POINT('',(0.00145,-0.0125,0.015));
#1669=CARTESIAN_POINT('',(0.00145,0.012502,0.015));
#1670=CARTESIAN_POINT('',(0.,-1.7347234759768E-18,0.015));
#1671=CARTESIAN_POINT('',(1.7347234759768E-18,0.0125,0.015));
#1672=CARTESIAN_POINT('',(0.00295,0.0125,0.015));
#1673=CARTESIAN_POINT('',(0.00365,0.0125,0.015));
#1674=CARTESIAN_POINT('',(0.00295,0.012502,0.015));
#1675=CARTESIAN_POINT('',(0.00295,-0.0125,0.015));
#1676=CARTESIAN_POINT('',(-1.7347234759768E-18,-0.0125,0.015));
#1677=CARTESIAN_POINT('',(0.00365,-0.0125,0.015));
#1678=CARTESIAN_POINT('',(0.00365,0.012502,0.015));
#1679=CARTESIAN_POINT('',(0.,-1.7347234759768E-18,0.015));
#1680=CARTESIAN_POINT('',(1.7347234759768E-18,0.0125,0.015));
#1681=CARTESIAN_POINT('',(0.00515,0.0125,0.015));
#1682=CARTESIAN_POINT('',(0.00585,0.0125,0.015));
#1683=CARTESIAN_POINT('',(0.00515,0.012502,0.015));
#1684=CARTESIAN_POINT('',(0.00515,-0.0125,0.015));
#1685=CARTESIAN_POINT('',(-1.7347234759768E-18,-0.0125,0.015));
#1686=CARTESIAN_POINT('',(0.00585,-0.0125,0.015));
#1687=CARTESIAN_POINT('',(0.00585,0.012502,0.015));
#1688=CARTESIAN_POINT('',(0.,-1.7347234759768E-18,0.015));
#1689=CARTESIAN_POINT('',(1.7347234759768E-18,0.0125,0.015));
#1690=CARTESIAN_POINT('',(0.00735,0.0125,0.015));
#1691=CARTESIAN_POINT('',(0.00805,0.0125,0.015));
#1692=CARTESIAN_POINT('',(0.00735,0.012502,0.015));
#1693=CARTESIAN_POINT('',(0.00735,-0.0125,0.015));
#1694=CARTESIAN_POINT('',(-1.7347234759768E-18,-0.0125,0.015));
#1695=CARTESIAN_POINT('',(0.00805,-0.0125,0.015));
#1696=CARTESIAN_POINT('',(0.00805,0.012502,0.015));
#1697=CARTESIAN_POINT('',(0.,-1.7347234759768E-18,0.015));
#1698=CARTESIAN_POINT('',(1.7347234759768E-18,0.0125,0.015));
#1699=CARTESIAN_POINT('',(0.00955,0.0125,0.015));
#1700=CARTESIAN_POINT('',(0.01025,0.0125,0.015));
#1701=CARTESIAN_POINT('',(0.00955,0.012502,0.015));
#1702=CARTESIAN_POINT('',(0.00955,-0.0125,0.015));
#1703=CARTESIAN_POINT('',(-1.7347234759768E-18,-0.0125,0.015));
#1704=CARTESIAN_POINT('',(0.01025,-0.0125,0.015));
#1705=CARTESIAN_POINT('',(0.01025,0.012502,0.015));
#1706=CARTESIAN_POINT('',(0.,-1.7347234759768E-18,0.015));
#1707=CARTESIAN_POINT('',(1.7347234759768E-18,0.0125,0.015));
#1708=CARTESIAN_POINT('',(0.01175,0.0125,0.015));
#1709=CARTESIAN_POINT('',(0.0125,0.0125,0.015));
#1710=CARTESIAN_POINT('',(0.01175,0.012502,0.015));
#1711=CARTESIAN_POINT('',(0.01175,-0.0125,0.015));
#1712=CARTESIAN_POINT('',(-1.7347234759768E-18,-0.0125,0.015));
#1713=CARTESIAN_POINT('',(0.0125,-0.0125,0.015));
#1714=CARTESIAN_POINT('',(0.0125,-1.7347234759768E-18,0.015));
#1715=CARTESIAN_POINT('',(-1.7347234759768E-18,-0.0125,0.015));
#1716=CARTESIAN_POINT('',(0.00145,-0.0125,0.0085));
#1717=CARTESIAN_POINT('',(0.00145,-0.0125,0.002));
#1718=CARTESIAN_POINT('',(0.00075,-0.0125,0.0085));
#1719=CARTESIAN_POINT('',(0.00075,-0.0125,0.002));
#1720=CARTESIAN_POINT('',(7.80625564189563E-18,-0.0125,0.002));
#1721=CARTESIAN_POINT('',(-0.000749999999999992,-0.0125,0.002));
#1722=CARTESIAN_POINT('',(-0.00075,-0.0125,0.0085));
#1723=CARTESIAN_POINT('',(-0.00145,-0.0125,0.0085));
#1724=CARTESIAN_POINT('',(-0.00145,-0.0125,0.002));
#1725=CARTESIAN_POINT('',(-0.0022,-0.0125,0.002));
#1726=CARTESIAN_POINT('',(-0.00295,-0.0125,0.002));
#1727=CARTESIAN_POINT('',(-0.00295,-0.0125,0.0085));
#1728=CARTESIAN_POINT('',(-0.00365,-0.0125,0.0085));
#1729=CARTESIAN_POINT('',(-0.00365,-0.0125,0.002));
#1730=CARTESIAN_POINT('',(-0.0044,-0.0125,0.002));
#1731=CARTESIAN_POINT('',(-0.00515,-0.0125,0.002));
#1732=CARTESIAN_POINT('',(-0.00515,-0.0125,0.0085));
#1733=CARTESIAN_POINT('',(-0.00585,-0.0125,0.0085));
#1734=CARTESIAN_POINT('',(-0.00585,-0.0125,0.002));
#1735=CARTESIAN_POINT('',(-0.0066,-0.0125,0.002));
#1736=CARTESIAN_POINT('',(-0.00735,-0.0125,0.002));
#1737=CARTESIAN_POINT('',(-0.00735,-0.0125,0.0085));
#1738=CARTESIAN_POINT('',(-0.00805,-0.0125,0.0085));
#1739=CARTESIAN_POINT('',(-0.00805,-0.0125,0.002));
#1740=CARTESIAN_POINT('',(-0.0088,-0.0125,0.002));
#1741=CARTESIAN_POINT('',(-0.00955,-0.0125,0.002));
#1742=CARTESIAN_POINT('',(-0.00955,-0.0125,0.0085));
#1743=CARTESIAN_POINT('',(-0.01025,-0.0125,0.0085));
#1744=CARTESIAN_POINT('',(-0.01025,-0.0125,0.002));
#1745=CARTESIAN_POINT('',(-0.011,-0.0125,0.002));
#1746=CARTESIAN_POINT('',(-0.01175,-0.0125,0.002));
#1747=CARTESIAN_POINT('',(-0.01175,-0.0125,0.0085));
#1748=CARTESIAN_POINT('',(-0.01175,-0.0125,0.015));
#1749=CARTESIAN_POINT('',(-1.7347234759768E-18,-0.0125,0.015));
#1750=CARTESIAN_POINT('',(-0.0125,-0.0125,0.015));
#1751=CARTESIAN_POINT('',(-0.0125,-0.0125,0.015));
#1752=CARTESIAN_POINT('',(-0.0125,-0.0125,0.));
#1753=CARTESIAN_POINT('',(-1.7347234759768E-18,-0.0125,0.));
#1754=CARTESIAN_POINT('',(0.0096715728752538,-0.0125,0.));
#1755=CARTESIAN_POINT('',(0.0096715728752538,-0.0125,0.002));
#1756=CARTESIAN_POINT('',(0.0096715728752538,-0.0125,0.002));
#1757=CARTESIAN_POINT('',(0.0110857864376269,-0.0125,0.002));
#1758=CARTESIAN_POINT('',(0.01025,-0.0125,0.002));
#1759=CARTESIAN_POINT('',(0.01025,-0.0125,0.0085));
#1760=CARTESIAN_POINT('',(0.00955,-0.0125,0.0085));
#1761=CARTESIAN_POINT('',(0.00955,-0.0125,0.002));
#1762=CARTESIAN_POINT('',(0.0088,-0.0125,0.002));
#1763=CARTESIAN_POINT('',(0.00805,-0.0125,0.002));
#1764=CARTESIAN_POINT('',(0.00805,-0.0125,0.0085));
#1765=CARTESIAN_POINT('',(0.00735,-0.0125,0.0085));
#1766=CARTESIAN_POINT('',(0.00735,-0.0125,0.002));
#1767=CARTESIAN_POINT('',(0.0066,-0.0125,0.002));
#1768=CARTESIAN_POINT('',(0.00585,-0.0125,0.002));
#1769=CARTESIAN_POINT('',(0.00585,-0.0125,0.0085));
#1770=CARTESIAN_POINT('',(0.00515,-0.0125,0.0085));
#1771=CARTESIAN_POINT('',(0.00515,-0.0125,0.002));
#1772=CARTESIAN_POINT('',(0.0044,-0.0125,0.002));
#1773=CARTESIAN_POINT('',(0.00365,-0.0125,0.002));
#1774=CARTESIAN_POINT('',(0.00365,-0.0125,0.0085));
#1775=CARTESIAN_POINT('',(0.00295,-0.0125,0.0085));
#1776=CARTESIAN_POINT('',(0.00295,-0.0125,0.002));
#1777=CARTESIAN_POINT('',(0.0022,-0.0125,0.002));
#1778=CARTESIAN_POINT('',(1.7347234759768E-18,0.0125,0.015));
#1779=CARTESIAN_POINT('',(1.7347234759768E-18,0.0125,0.015));
#1780=CARTESIAN_POINT('',(-0.0125,0.0125,0.015));
#1781=CARTESIAN_POINT('',(-0.01175,0.0125,0.015));
#1782=CARTESIAN_POINT('',(-0.01175,0.0125,0.0085));
#1783=CARTESIAN_POINT('',(-0.01175,0.0125,0.002));
#1784=CARTESIAN_POINT('',(-0.0110857864376269,0.0125,0.002));
#1785=CARTESIAN_POINT('',(-0.0125,0.0125,0.002));
#1786=CARTESIAN_POINT('',(-0.0125,0.0125,0.015));
#1787=CARTESIAN_POINT('',(1.7347234759768E-18,0.0125,0.015));
#1788=CARTESIAN_POINT('',(-0.01025,0.0125,0.0085));
#1789=CARTESIAN_POINT('',(-0.01025,0.0125,0.002));
#1790=CARTESIAN_POINT('',(-0.00955,0.0125,0.0085));
#1791=CARTESIAN_POINT('',(-0.00955,0.0125,0.002));
#1792=CARTESIAN_POINT('',(-0.0088,0.0125,0.002));
#1793=CARTESIAN_POINT('',(-0.00805,0.0125,0.002));
#1794=CARTESIAN_POINT('',(-0.00805,0.0125,0.0085));
#1795=CARTESIAN_POINT('',(-0.00735,0.0125,0.0085));
#1796=CARTESIAN_POINT('',(-0.00735,0.0125,0.002));
#1797=CARTESIAN_POINT('',(-0.0066,0.0125,0.002));
#1798=CARTESIAN_POINT('',(-0.00585,0.0125,0.002));
#1799=CARTESIAN_POINT('',(-0.00585,0.0125,0.0085));
#1800=CARTESIAN_POINT('',(-0.00515,0.0125,0.0085));
#1801=CARTESIAN_POINT('',(-0.00515,0.0125,0.002));
#1802=CARTESIAN_POINT('',(-0.0044,0.0125,0.002));
#1803=CARTESIAN_POINT('',(-0.00365,0.0125,0.002));
#1804=CARTESIAN_POINT('',(-0.00365,0.0125,0.0085));
#1805=CARTESIAN_POINT('',(-0.00295,0.0125,0.0085));
#1806=CARTESIAN_POINT('',(-0.00295,0.0125,0.002));
#1807=CARTESIAN_POINT('',(-0.0022,0.0125,0.002));
#1808=CARTESIAN_POINT('',(-0.00145,0.0125,0.002));
#1809=CARTESIAN_POINT('',(-0.00145,0.0125,0.0085));
#1810=CARTESIAN_POINT('',(-0.00075,0.0125,0.0085));
#1811=CARTESIAN_POINT('',(-0.000749999999999992,0.0125,0.002));
#1812=CARTESIAN_POINT('',(7.80625564189563E-18,0.0125,0.002));
#1813=CARTESIAN_POINT('',(0.00075,0.0125,0.002));
#1814=CARTESIAN_POINT('',(0.00075,0.0125,0.0085));
#1815=CARTESIAN_POINT('',(0.00145,0.0125,0.0085));
#1816=CARTESIAN_POINT('',(0.00145,0.0125,0.002));
#1817=CARTESIAN_POINT('',(0.0022,0.0125,0.002));
#1818=CARTESIAN_POINT('',(0.00295,0.0125,0.002));
#1819=CARTESIAN_POINT('',(0.00295,0.0125,0.0085));
#1820=CARTESIAN_POINT('',(0.00365,0.0125,0.0085));
#1821=CARTESIAN_POINT('',(0.00365,0.0125,0.002));
#1822=CARTESIAN_POINT('',(0.0044,0.0125,0.002));
#1823=CARTESIAN_POINT('',(0.00515,0.0125,0.002));
#1824=CARTESIAN_POINT('',(0.00515,0.0125,0.0085));
#1825=CARTESIAN_POINT('',(0.00585,0.0125,0.0085));
#1826=CARTESIAN_POINT('',(0.00585,0.0125,0.002));
#1827=CARTESIAN_POINT('',(0.0066,0.0125,0.002));
#1828=CARTESIAN_POINT('',(0.00735,0.0125,0.002));
#1829=CARTESIAN_POINT('',(0.00735,0.0125,0.0085));
#1830=CARTESIAN_POINT('',(0.00805,0.0125,0.0085));
#1831=CARTESIAN_POINT('',(0.00805,0.0125,0.002));
#1832=CARTESIAN_POINT('',(0.0088,0.0125,0.002));
#1833=CARTESIAN_POINT('',(0.00955,0.0125,0.002));
#1834=CARTESIAN_POINT('',(0.00955,0.0125,0.0085));
#1835=CARTESIAN_POINT('',(0.01025,0.0125,0.0085));
#1836=CARTESIAN_POINT('',(0.01025,0.0125,0.002));
#1837=CARTESIAN_POINT('',(0.0110857864376269,0.0125,0.002));
#1838=CARTESIAN_POINT('',(0.01175,0.0125,0.002));
#1839=CARTESIAN_POINT('',(0.01175,0.0125,0.0085));
#1840=CARTESIAN_POINT('',(0.0125,0.0125,0.015));
#1841=CARTESIAN_POINT('',(0.0125,0.0125,0.));
#1842=CARTESIAN_POINT('',(1.7347234759768E-18,0.0125,0.));
#1843=CARTESIAN_POINT('',(-0.0096715728752538,0.0125,0.));
#1844=CARTESIAN_POINT('',(-0.0096715728752538,0.0125,0.002));
#1845=CARTESIAN_POINT('',(-0.0096715728752538,0.0125,0.002));
#1846=CARTESIAN_POINT('',(-0.0110857864376269,0.0125,0.002));
#1847=CARTESIAN_POINT('',(-1.7347234759768E-18,-0.0125,0.015));
#1848=CARTESIAN_POINT('',(0.01175,-0.0125,0.0085));
#1849=CARTESIAN_POINT('',(0.01175,-0.0125,0.002));
#1850=CARTESIAN_POINT('',(0.0110857864376269,-0.0125,0.002));
#1851=CARTESIAN_POINT('',(0.0125,-0.0125,0.002));
#1852=CARTESIAN_POINT('',(0.0125,-0.0125,0.015));
#1853=CARTESIAN_POINT('',(0.0125,-1.7347234759768E-18,0.015));
#1854=CARTESIAN_POINT('',(0.0125,-0.0110857864376269,0.002));
#1855=CARTESIAN_POINT('',(0.0125,-0.00967157287525381,0.002));
#1856=CARTESIAN_POINT('',(0.0125,-0.00967157287525381,0.002));
#1857=CARTESIAN_POINT('',(0.0125,-0.00967157287525381,0.));
#1858=CARTESIAN_POINT('',(0.0125,-1.7347234759768E-18,0.));
#1859=CARTESIAN_POINT('',(-0.0125,0.,0.015));
#1860=CARTESIAN_POINT('',(-0.0125,0.0110857864376269,0.002));
#1861=CARTESIAN_POINT('',(-0.0125,0.00967157287525381,0.002));
#1862=CARTESIAN_POINT('',(-0.0125,0.00967157287525381,0.002));
#1863=CARTESIAN_POINT('',(-0.0125,0.00967157287525381,0.));
#1864=CARTESIAN_POINT('',(-0.0125,0.,0.));
#1865=CARTESIAN_POINT('',(-0.0125,0.,0.015));
#1866=CARTESIAN_POINT('',(0.,-1.7347234759768E-18,0.015));
#1867=CARTESIAN_POINT('',(-0.01175,0.012502,0.015));
#1868=CARTESIAN_POINT('',(0.,-1.7347234759768E-18,0.));
#1869=CARTESIAN_POINT('',(-0.0116286796564403,0.0144571067811865,0.));
#1870=CARTESIAN_POINT('',(-0.0135857864376269,0.0164142135623731,0.));
#1871=CARTESIAN_POINT('',(0.0144571067811865,-0.0116286796564404,0.));
#1872=CARTESIAN_POINT('',(0.0164142135623731,-0.0135857864376269,0.));
#1873=CARTESIAN_POINT('',(0.015,-0.015,0.));
#1874=CARTESIAN_POINT('',(0.0135857864376269,-0.0164142135623731,0.));
#1875=CARTESIAN_POINT('',(0.0116286796564403,-0.0144571067811865,0.));
#1876=CARTESIAN_POINT('',(-0.0144571067811865,0.0116286796564404,0.));
#1877=CARTESIAN_POINT('',(-0.0164142135623731,0.0135857864376269,0.));
#1878=CARTESIAN_POINT('',(-0.015,0.015,0.));
#1879=CARTESIAN_POINT('',(0.015,-0.015,0.));
#1880=CARTESIAN_POINT('',(0.01625,-0.015,0.));
#1881=CARTESIAN_POINT('',(-0.015,0.015,0.));
#1882=CARTESIAN_POINT('',(-0.01375,0.015,0.));
#1883=CARTESIAN_POINT('',(0.0144571067811865,-0.0116286796564404,0.002));
#1884=CARTESIAN_POINT('',(0.0144571067811865,-0.0116286796564404,0.002));
#1885=CARTESIAN_POINT('',(0.0164142135623731,-0.0135857864376269,0.002));
#1886=CARTESIAN_POINT('',(0.0164142135623731,-0.0135857864376269,0.002));
#1887=CARTESIAN_POINT('',(0.0116286796564403,-0.0144571067811865,0.002));
#1888=CARTESIAN_POINT('',(0.0135857864376269,-0.0164142135623731,0.002));
#1889=CARTESIAN_POINT('',(0.0135857864376269,-0.0164142135623731,0.002));
#1890=CARTESIAN_POINT('',(0.0116286796564403,-0.0144571067811865,0.002));
#1891=CARTESIAN_POINT('',(0.015,-0.015,0.002));
#1892=CARTESIAN_POINT('',(0.015,-0.015,0.002));
#1893=CARTESIAN_POINT('',(0.015,-0.015,0.002));
#1894=CARTESIAN_POINT('',(0.015,-0.015,0.002));
#1895=CARTESIAN_POINT('',(0.01625,-0.015,0.002));
#1896=CARTESIAN_POINT('',(0.,0.,0.002));
#1897=CARTESIAN_POINT('',(0.01175,0.012502,0.002));
#1898=CARTESIAN_POINT('',(0.01025,0.012502,0.002));
#1899=CARTESIAN_POINT('',(-0.015,0.015,0.002));
#1900=CARTESIAN_POINT('',(-0.0164142135623731,0.0135857864376269,0.002));
#1901=CARTESIAN_POINT('',(-0.0164142135623731,0.0135857864376269,0.002));
#1902=CARTESIAN_POINT('',(-0.015,0.015,0.002));
#1903=CARTESIAN_POINT('',(-0.0135857864376269,0.0164142135623731,0.002));
#1904=CARTESIAN_POINT('',(-0.0135857864376269,0.0164142135623731,0.002));
#1905=CARTESIAN_POINT('',(-0.0144571067811865,0.0116286796564404,0.002));
#1906=CARTESIAN_POINT('',(-0.0144571067811865,0.0116286796564404,0.002));
#1907=CARTESIAN_POINT('',(-0.015,0.015,0.002));
#1908=CARTESIAN_POINT('',(-0.015,0.015,0.002));
#1909=CARTESIAN_POINT('',(-0.01375,0.015,0.002));
#1910=CARTESIAN_POINT('',(-0.0116286796564403,0.0144571067811865,0.002));
#1911=CARTESIAN_POINT('',(-0.0116286796564403,0.0144571067811865,0.002));
#1912=CARTESIAN_POINT('',(0.,0.,0.002));
#1913=CARTESIAN_POINT('',(-0.01175,0.012502,0.002));
#1914=CARTESIAN_POINT('',(-0.01025,0.012502,0.002));
#1915=CARTESIAN_POINT('',(0.01025,0.012502,0.0085));
#1916=CARTESIAN_POINT('',(0.01175,0.012502,0.0085));
#1917=CARTESIAN_POINT('',(0.00805,0.012502,0.0085));
#1918=CARTESIAN_POINT('',(0.00805,0.012502,0.002));
#1919=CARTESIAN_POINT('',(0.0088,0.012502,0.002));
#1920=CARTESIAN_POINT('',(0.00955,0.012502,0.002));
#1921=CARTESIAN_POINT('',(0.00955,0.012502,0.0085));
#1922=CARTESIAN_POINT('',(0.00585,0.012502,0.0085));
#1923=CARTESIAN_POINT('',(0.00585,0.012502,0.002));
#1924=CARTESIAN_POINT('',(0.0066,0.012502,0.002));
#1925=CARTESIAN_POINT('',(0.00735,0.012502,0.002));
#1926=CARTESIAN_POINT('',(0.00735,0.012502,0.0085));
#1927=CARTESIAN_POINT('',(0.00365,0.012502,0.0085));
#1928=CARTESIAN_POINT('',(0.00365,0.012502,0.002));
#1929=CARTESIAN_POINT('',(0.0044,0.012502,0.002));
#1930=CARTESIAN_POINT('',(0.00515,0.012502,0.002));
#1931=CARTESIAN_POINT('',(0.00515,0.012502,0.0085));
#1932=CARTESIAN_POINT('',(0.00145,0.012502,0.0085));
#1933=CARTESIAN_POINT('',(0.00145,0.012502,0.002));
#1934=CARTESIAN_POINT('',(0.0022,0.012502,0.002));
#1935=CARTESIAN_POINT('',(0.00295,0.012502,0.002));
#1936=CARTESIAN_POINT('',(0.00295,0.012502,0.0085));
#1937=CARTESIAN_POINT('',(0.00075,0.012502,0.0085));
#1938=CARTESIAN_POINT('',(0.00075,0.012502,0.002));
#1939=CARTESIAN_POINT('',(-0.00075,0.012502,0.0085));
#1940=CARTESIAN_POINT('',(-0.000749999999999992,0.012502,0.002));
#1941=CARTESIAN_POINT('',(7.80625564189563E-18,0.012502,0.002));
#1942=CARTESIAN_POINT('',(-0.00145,0.012502,0.0085));
#1943=CARTESIAN_POINT('',(-0.00145,0.012502,0.002));
#1944=CARTESIAN_POINT('',(-0.00295,0.012502,0.0085));
#1945=CARTESIAN_POINT('',(-0.00295,0.012502,0.002));
#1946=CARTESIAN_POINT('',(-0.0022,0.012502,0.002));
#1947=CARTESIAN_POINT('',(-0.00365,0.012502,0.0085));
#1948=CARTESIAN_POINT('',(-0.00365,0.012502,0.002));
#1949=CARTESIAN_POINT('',(-0.00515,0.012502,0.0085));
#1950=CARTESIAN_POINT('',(-0.00515,0.012502,0.002));
#1951=CARTESIAN_POINT('',(-0.0044,0.012502,0.002));
#1952=CARTESIAN_POINT('',(-0.00585,0.012502,0.0085));
#1953=CARTESIAN_POINT('',(-0.00585,0.012502,0.002));
#1954=CARTESIAN_POINT('',(-0.00735,0.012502,0.0085));
#1955=CARTESIAN_POINT('',(-0.00735,0.012502,0.002));
#1956=CARTESIAN_POINT('',(-0.0066,0.012502,0.002));
#1957=CARTESIAN_POINT('',(-0.00805,0.012502,0.0085));
#1958=CARTESIAN_POINT('',(-0.00805,0.012502,0.002));
#1959=CARTESIAN_POINT('',(-0.00955,0.012502,0.0085));
#1960=CARTESIAN_POINT('',(-0.00955,0.012502,0.002));
#1961=CARTESIAN_POINT('',(-0.0088,0.012502,0.002));
#1962=CARTESIAN_POINT('',(-0.01025,0.012502,0.0085));
#1963=CARTESIAN_POINT('',(-0.01175,0.012502,0.0085));
#1964=MECHANICAL_DESIGN_GEOMETRIC_PRESENTATION_REPRESENTATION('',(#1233),
#1965);
#1965=(
GEOMETRIC_REPRESENTATION_CONTEXT(3)
GLOBAL_UNCERTAINTY_ASSIGNED_CONTEXT((#1966))
GLOBAL_UNIT_ASSIGNED_CONTEXT((#1969,#1968,#1967))
REPRESENTATION_CONTEXT('ATS-CPX025025015-138-C2-R0',
'TOP_LEVEL_ASSEMBLY_PART')
);
#1966=UNCERTAINTY_MEASURE_WITH_UNIT(LENGTH_MEASURE(1.E-8),#1969,
'DISTANCE_ACCURACY_VALUE','Maximum Tolerance applied to model');
#1967=(
NAMED_UNIT(*)
SI_UNIT($,.STERADIAN.)
SOLID_ANGLE_UNIT()
);
#1968=(
NAMED_UNIT(*)
PLANE_ANGLE_UNIT()
SI_UNIT($,.RADIAN.)
);
#1969=(
LENGTH_UNIT()
NAMED_UNIT(*)
SI_UNIT($,.METRE.)
);
#1970=PRODUCT_DEFINITION_SHAPE('','',#1971);
#1971=PRODUCT_DEFINITION('','',#1973,#1972);
#1972=PRODUCT_DEFINITION_CONTEXT('',#1979,'design');
#1973=PRODUCT_DEFINITION_FORMATION_WITH_SPECIFIED_SOURCE('','',#1975,
 .NOT_KNOWN.);
#1974=PRODUCT_RELATED_PRODUCT_CATEGORY('','',(#1975));
#1975=PRODUCT('ATS-CPX025025015-138-C2-R0','ATS-CPX025025015-138-C2-R0',
'ATS-CPX025025015-138-C2-R0',(#1977));
#1976=PRODUCT_CATEGORY('','');
#1977=PRODUCT_CONTEXT('',#1979,'mechanical');
#1978=APPLICATION_PROTOCOL_DEFINITION('international standard',
'ap242_managed_model_based_3d_engineering',2011,#1979);
#1979=APPLICATION_CONTEXT('managed model based 3d engineering');
ENDSEC;
END-ISO-10303-21;
