ISO-10303-21;
HEADER;
/* Generated by software containing ST-Developer
 * from STEP Tools, Inc. (www.steptools.com) 
 */
/* OPTION: using custom renumber hook */

FILE_DESCRIPTION(
/* description */ ('STEP AP242',
'CAx-IF Rec.Pracs.---Representation and Presentation of Product Manufa
cturing Information (PMI)---4.0---2014-10-13',
'CAx-IF Rec.Pracs.---3D Tessellated Geometry---0.4---2014-09-14','2;1'),

/* implementation_level */ '2;1');

FILE_NAME(
/* name */ '67ccfbf375f3db0bee07e1cd',
/* time_stamp */ '2025-03-09T02:24:52Z',
/* author */ (''),
/* organization */ (''),
/* preprocessor_version */ 'ST-DEVELOPER v20',
/* originating_system */ 'ONSHAPE BY PTC INC, 1.194',
/* authorisation */ '  ');

FILE_SCHEMA (('AP242_MANAGED_MODEL_BASED_3D_ENGINEERING_MIM_LF { 1 0 10303 442 1 1 4 }'));
ENDSEC;

DATA;
#10=SHAPE_REPRESENTATION_RELATIONSHIP('','',#232,#11);
#11=ADVANCED_BREP_SHAPE_REPRESENTATION('',(#230),#401);
#12=CONICAL_SURFACE('',#265,0.00208694408980078,0.785398163397448);
#13=CYLINDRICAL_SURFACE('',#238,0.00545);
#14=CYLINDRICAL_SURFACE('',#243,0.00375);
#15=CYLINDRICAL_SURFACE('',#246,0.00375);
#16=CYLINDRICAL_SURFACE('',#250,0.001285);
#17=CYLINDRICAL_SURFACE('',#254,0.000636415222955405);
#18=CYLINDRICAL_SURFACE('',#256,0.00106600912385112);
#19=CYLINDRICAL_SURFACE('',#261,0.00208694408980078);
#20=LINE('',#347,#28);
#21=LINE('',#351,#29);
#22=LINE('',#359,#30);
#23=LINE('',#361,#31);
#24=LINE('',#363,#32);
#25=LINE('',#365,#33);
#26=LINE('',#369,#34);
#27=LINE('',#371,#35);
#28=VECTOR('',#274,1.);
#29=VECTOR('',#277,1.);
#30=VECTOR('',#288,1.);
#31=VECTOR('',#289,1.);
#32=VECTOR('',#290,1.);
#33=VECTOR('',#293,1.);
#34=VECTOR('',#298,1.);
#35=VECTOR('',#299,1.);
#36=ORIENTED_EDGE('',*,*,#82,.F.);
#37=ORIENTED_EDGE('',*,*,#83,.F.);
#38=ORIENTED_EDGE('',*,*,#84,.T.);
#39=ORIENTED_EDGE('',*,*,#85,.F.);
#40=ORIENTED_EDGE('',*,*,#86,.F.);
#41=ORIENTED_EDGE('',*,*,#87,.F.);
#42=ORIENTED_EDGE('',*,*,#82,.T.);
#43=ORIENTED_EDGE('',*,*,#88,.T.);
#44=ORIENTED_EDGE('',*,*,#87,.T.);
#45=ORIENTED_EDGE('',*,*,#84,.F.);
#46=ORIENTED_EDGE('',*,*,#89,.F.);
#47=ORIENTED_EDGE('',*,*,#90,.T.);
#48=ORIENTED_EDGE('',*,*,#91,.T.);
#49=ORIENTED_EDGE('',*,*,#83,.T.);
#50=ORIENTED_EDGE('',*,*,#92,.F.);
#51=ORIENTED_EDGE('',*,*,#93,.F.);
#52=ORIENTED_EDGE('',*,*,#89,.T.);
#53=ORIENTED_EDGE('',*,*,#86,.T.);
#54=ORIENTED_EDGE('',*,*,#94,.F.);
#55=ORIENTED_EDGE('',*,*,#95,.F.);
#56=ORIENTED_EDGE('',*,*,#92,.T.);
#57=ORIENTED_EDGE('',*,*,#85,.T.);
#58=ORIENTED_EDGE('',*,*,#91,.F.);
#59=ORIENTED_EDGE('',*,*,#96,.F.);
#60=ORIENTED_EDGE('',*,*,#94,.T.);
#61=ORIENTED_EDGE('',*,*,#97,.F.);
#62=ORIENTED_EDGE('',*,*,#90,.F.);
#63=ORIENTED_EDGE('',*,*,#93,.T.);
#64=ORIENTED_EDGE('',*,*,#95,.T.);
#65=ORIENTED_EDGE('',*,*,#96,.T.);
#66=ORIENTED_EDGE('',*,*,#98,.F.);
#67=ORIENTED_EDGE('',*,*,#97,.T.);
#68=ORIENTED_EDGE('',*,*,#99,.F.);
#69=ORIENTED_EDGE('',*,*,#98,.T.);
#70=ORIENTED_EDGE('',*,*,#100,.F.);
#71=ORIENTED_EDGE('',*,*,#99,.T.);
#72=ORIENTED_EDGE('',*,*,#101,.F.);
#73=ORIENTED_EDGE('',*,*,#102,.T.);
#74=ORIENTED_EDGE('',*,*,#101,.T.);
#75=ORIENTED_EDGE('',*,*,#100,.T.);
#76=ORIENTED_EDGE('',*,*,#102,.F.);
#77=ORIENTED_EDGE('',*,*,#103,.T.);
#78=ORIENTED_EDGE('',*,*,#104,.F.);
#79=ORIENTED_EDGE('',*,*,#104,.T.);
#80=ORIENTED_EDGE('',*,*,#88,.F.);
#81=ORIENTED_EDGE('',*,*,#103,.F.);
#82=EDGE_CURVE('',#105,#105,#124,.T.);
#83=EDGE_CURVE('',#106,#107,#125,.T.);
#84=EDGE_CURVE('',#106,#108,#20,.T.);
#85=EDGE_CURVE('',#109,#108,#126,.T.);
#86=EDGE_CURVE('',#107,#109,#21,.T.);
#87=EDGE_CURVE('',#110,#110,#127,.T.);
#88=EDGE_CURVE('',#111,#111,#128,.F.);
#89=EDGE_CURVE('',#112,#106,#22,.T.);
#90=EDGE_CURVE('',#112,#113,#23,.T.);
#91=EDGE_CURVE('',#113,#108,#24,.T.);
#92=EDGE_CURVE('',#114,#107,#25,.T.);
#93=EDGE_CURVE('',#112,#114,#129,.T.);
#94=EDGE_CURVE('',#115,#109,#26,.T.);
#95=EDGE_CURVE('',#114,#115,#27,.T.);
#96=EDGE_CURVE('',#115,#113,#130,.T.);
#97=EDGE_CURVE('',#116,#116,#131,.T.);
#98=EDGE_CURVE('',#117,#117,#132,.T.);
#99=EDGE_CURVE('',#118,#118,#133,.T.);
#100=EDGE_CURVE('',#119,#119,#134,.T.);
#101=EDGE_CURVE('',#120,#120,#135,.T.);
#102=EDGE_CURVE('',#121,#121,#136,.T.);
#103=EDGE_CURVE('',#122,#122,#137,.T.);
#104=EDGE_CURVE('',#123,#123,#138,.T.);
#105=VERTEX_POINT('',#343);
#106=VERTEX_POINT('',#345);
#107=VERTEX_POINT('',#346);
#108=VERTEX_POINT('',#348);
#109=VERTEX_POINT('',#350);
#110=VERTEX_POINT('',#354);
#111=VERTEX_POINT('',#357);
#112=VERTEX_POINT('',#360);
#113=VERTEX_POINT('',#362);
#114=VERTEX_POINT('',#366);
#115=VERTEX_POINT('',#370);
#116=VERTEX_POINT('',#376);
#117=VERTEX_POINT('',#379);
#118=VERTEX_POINT('',#382);
#119=VERTEX_POINT('',#385);
#120=VERTEX_POINT('',#388);
#121=VERTEX_POINT('',#390);
#122=VERTEX_POINT('',#395);
#123=VERTEX_POINT('',#397);
#124=CIRCLE('',#235,0.00545);
#125=CIRCLE('',#236,0.00375);
#126=CIRCLE('',#237,0.00375);
#127=CIRCLE('',#239,0.00545);
#128=CIRCLE('',#241,0.00408694408980078);
#129=CIRCLE('',#244,0.00375);
#130=CIRCLE('',#247,0.00375);
#131=CIRCLE('',#249,0.001285);
#132=CIRCLE('',#251,0.001285);
#133=CIRCLE('',#253,0.000636415222955405);
#134=CIRCLE('',#255,0.000636415222955405);
#135=CIRCLE('',#257,0.00106600912385112);
#136=CIRCLE('',#258,0.00106600912385112);
#137=CIRCLE('',#262,0.00208694408980078);
#138=CIRCLE('',#263,0.00208694408980078);
#139=EDGE_LOOP('',(#36));
#140=EDGE_LOOP('',(#37,#38,#39,#40));
#141=EDGE_LOOP('',(#41));
#142=EDGE_LOOP('',(#42));
#143=EDGE_LOOP('',(#43));
#144=EDGE_LOOP('',(#44));
#145=EDGE_LOOP('',(#45,#46,#47,#48));
#146=EDGE_LOOP('',(#49,#50,#51,#52));
#147=EDGE_LOOP('',(#53,#54,#55,#56));
#148=EDGE_LOOP('',(#57,#58,#59,#60));
#149=EDGE_LOOP('',(#61));
#150=EDGE_LOOP('',(#62,#63,#64,#65));
#151=EDGE_LOOP('',(#66));
#152=EDGE_LOOP('',(#67));
#153=EDGE_LOOP('',(#68));
#154=EDGE_LOOP('',(#69));
#155=EDGE_LOOP('',(#70));
#156=EDGE_LOOP('',(#71));
#157=EDGE_LOOP('',(#72));
#158=EDGE_LOOP('',(#73));
#159=EDGE_LOOP('',(#74));
#160=EDGE_LOOP('',(#75));
#161=EDGE_LOOP('',(#76));
#162=EDGE_LOOP('',(#77));
#163=EDGE_LOOP('',(#78));
#164=EDGE_LOOP('',(#79));
#165=EDGE_LOOP('',(#80));
#166=EDGE_LOOP('',(#81));
#167=FACE_BOUND('',#139,.T.);
#168=FACE_BOUND('',#140,.T.);
#169=FACE_BOUND('',#141,.T.);
#170=FACE_BOUND('',#142,.T.);
#171=FACE_BOUND('',#143,.T.);
#172=FACE_BOUND('',#144,.T.);
#173=FACE_BOUND('',#145,.T.);
#174=FACE_BOUND('',#146,.T.);
#175=FACE_BOUND('',#147,.T.);
#176=FACE_BOUND('',#148,.T.);
#177=FACE_BOUND('',#149,.T.);
#178=FACE_BOUND('',#150,.T.);
#179=FACE_BOUND('',#151,.T.);
#180=FACE_BOUND('',#152,.T.);
#181=FACE_BOUND('',#153,.T.);
#182=FACE_BOUND('',#154,.T.);
#183=FACE_BOUND('',#155,.T.);
#184=FACE_BOUND('',#156,.T.);
#185=FACE_BOUND('',#157,.T.);
#186=FACE_BOUND('',#158,.T.);
#187=FACE_BOUND('',#159,.T.);
#188=FACE_BOUND('',#160,.T.);
#189=FACE_BOUND('',#161,.T.);
#190=FACE_BOUND('',#162,.T.);
#191=FACE_BOUND('',#163,.T.);
#192=FACE_BOUND('',#164,.T.);
#193=FACE_BOUND('',#165,.T.);
#194=FACE_BOUND('',#166,.T.);
#195=PLANE('',#234);
#196=PLANE('',#240);
#197=PLANE('',#242);
#198=PLANE('',#245);
#199=PLANE('',#248);
#200=PLANE('',#252);
#201=PLANE('',#259);
#202=PLANE('',#260);
#203=PLANE('',#264);
#204=ADVANCED_FACE('',(#167,#168),#195,.F.);
#205=ADVANCED_FACE('',(#169,#170),#13,.T.);
#206=ADVANCED_FACE('',(#171,#172),#196,.T.);
#207=ADVANCED_FACE('',(#173),#197,.T.);
#208=ADVANCED_FACE('',(#174),#14,.T.);
#209=ADVANCED_FACE('',(#175),#198,.F.);
#210=ADVANCED_FACE('',(#176),#15,.T.);
#211=ADVANCED_FACE('',(#177,#178),#199,.T.);
#212=ADVANCED_FACE('',(#179,#180),#16,.T.);
#213=ADVANCED_FACE('',(#181,#182),#200,.T.);
#214=ADVANCED_FACE('',(#183,#184),#17,.T.);
#215=ADVANCED_FACE('',(#185,#186),#18,.T.);
#216=ADVANCED_FACE('',(#187),#201,.T.);
#217=ADVANCED_FACE('',(#188,#189),#202,.F.);
#218=ADVANCED_FACE('',(#190,#191),#19,.F.);
#219=ADVANCED_FACE('',(#192),#203,.T.);
#220=ADVANCED_FACE('',(#193,#194),#12,.F.);
#221=CLOSED_SHELL('',(#204,#205,#206,#207,#208,#209,#210,#211,#212,#213,
#214,#215,#216,#217,#218,#219,#220));
#222=STYLED_ITEM('',(#223),#230);
#223=PRESENTATION_STYLE_ASSIGNMENT((#224));
#224=SURFACE_STYLE_USAGE(.BOTH.,#225);
#225=SURFACE_SIDE_STYLE('',(#226));
#226=SURFACE_STYLE_FILL_AREA(#227);
#227=FILL_AREA_STYLE('',(#228));
#228=FILL_AREA_STYLE_COLOUR('',#229);
#229=COLOUR_RGB('',0.615686274509804,0.811764705882353,0.929411764705882);
#230=MANIFOLD_SOLID_BREP('PRT-09739',#221);
#231=SHAPE_DEFINITION_REPRESENTATION(#406,#232);
#232=SHAPE_REPRESENTATION('PRT-09739',(#233),#401);
#233=AXIS2_PLACEMENT_3D('',#340,#266,#267);
#234=AXIS2_PLACEMENT_3D('',#341,#268,#269);
#235=AXIS2_PLACEMENT_3D('',#342,#270,#271);
#236=AXIS2_PLACEMENT_3D('',#344,#272,#273);
#237=AXIS2_PLACEMENT_3D('',#349,#275,#276);
#238=AXIS2_PLACEMENT_3D('',#352,#278,#279);
#239=AXIS2_PLACEMENT_3D('',#353,#280,#281);
#240=AXIS2_PLACEMENT_3D('',#355,#282,#283);
#241=AXIS2_PLACEMENT_3D('',#356,#284,#285);
#242=AXIS2_PLACEMENT_3D('',#358,#286,#287);
#243=AXIS2_PLACEMENT_3D('',#364,#291,#292);
#244=AXIS2_PLACEMENT_3D('',#367,#294,#295);
#245=AXIS2_PLACEMENT_3D('',#368,#296,#297);
#246=AXIS2_PLACEMENT_3D('',#372,#300,#301);
#247=AXIS2_PLACEMENT_3D('',#373,#302,#303);
#248=AXIS2_PLACEMENT_3D('',#374,#304,#305);
#249=AXIS2_PLACEMENT_3D('',#375,#306,#307);
#250=AXIS2_PLACEMENT_3D('',#377,#308,#309);
#251=AXIS2_PLACEMENT_3D('',#378,#310,#311);
#252=AXIS2_PLACEMENT_3D('',#380,#312,#313);
#253=AXIS2_PLACEMENT_3D('',#381,#314,#315);
#254=AXIS2_PLACEMENT_3D('',#383,#316,#317);
#255=AXIS2_PLACEMENT_3D('',#384,#318,#319);
#256=AXIS2_PLACEMENT_3D('',#386,#320,#321);
#257=AXIS2_PLACEMENT_3D('',#387,#322,#323);
#258=AXIS2_PLACEMENT_3D('',#389,#324,#325);
#259=AXIS2_PLACEMENT_3D('',#391,#326,#327);
#260=AXIS2_PLACEMENT_3D('',#392,#328,#329);
#261=AXIS2_PLACEMENT_3D('',#393,#330,#331);
#262=AXIS2_PLACEMENT_3D('',#394,#332,#333);
#263=AXIS2_PLACEMENT_3D('',#396,#334,#335);
#264=AXIS2_PLACEMENT_3D('',#398,#336,#337);
#265=AXIS2_PLACEMENT_3D('',#399,#338,#339);
#266=DIRECTION('',(0.,0.,1.));
#267=DIRECTION('',(1.,0.,0.));
#268=DIRECTION('',(0.,0.,1.));
#269=DIRECTION('',(1.,0.,0.));
#270=DIRECTION('',(0.,0.,1.));
#271=DIRECTION('',(1.,0.,0.));
#272=DIRECTION('',(0.,0.,-1.));
#273=DIRECTION('',(-1.,0.,0.));
#274=DIRECTION('',(1.,0.,0.));
#275=DIRECTION('',(0.,0.,-1.));
#276=DIRECTION('',(-1.,0.,0.));
#277=DIRECTION('',(1.,0.,0.));
#278=DIRECTION('',(0.,0.,-1.));
#279=DIRECTION('',(-1.,0.,0.));
#280=DIRECTION('',(0.,0.,1.));
#281=DIRECTION('',(1.,0.,0.));
#282=DIRECTION('',(0.,0.,1.));
#283=DIRECTION('',(1.,0.,0.));
#284=DIRECTION('',(0.,0.,1.));
#285=DIRECTION('',(1.,0.,0.));
#286=DIRECTION('',(0.,-1.,0.));
#287=DIRECTION('',(0.,0.,-1.));
#288=DIRECTION('',(0.,0.,1.));
#289=DIRECTION('',(1.,0.,0.));
#290=DIRECTION('',(0.,0.,1.));
#291=DIRECTION('',(0.,0.,1.));
#292=DIRECTION('',(1.,0.,0.));
#293=DIRECTION('',(0.,0.,1.));
#294=DIRECTION('',(0.,0.,-1.));
#295=DIRECTION('',(-1.,0.,0.));
#296=DIRECTION('',(0.,-1.,0.));
#297=DIRECTION('',(0.,0.,-1.));
#298=DIRECTION('',(0.,0.,1.));
#299=DIRECTION('',(1.,0.,0.));
#300=DIRECTION('',(0.,0.,1.));
#301=DIRECTION('',(1.,0.,0.));
#302=DIRECTION('',(0.,0.,-1.));
#303=DIRECTION('',(-1.,0.,0.));
#304=DIRECTION('',(0.,0.,-1.));
#305=DIRECTION('',(1.,0.,0.));
#306=DIRECTION('',(0.,0.,-1.));
#307=DIRECTION('',(-1.,0.,0.));
#308=DIRECTION('',(0.,0.,1.));
#309=DIRECTION('',(1.,0.,0.));
#310=DIRECTION('',(0.,0.,-1.));
#311=DIRECTION('',(-1.,0.,0.));
#312=DIRECTION('',(0.,0.,-1.));
#313=DIRECTION('',(1.,0.,0.));
#314=DIRECTION('',(0.,0.,-1.));
#315=DIRECTION('',(-1.,0.,0.));
#316=DIRECTION('',(0.,0.,1.));
#317=DIRECTION('',(1.,0.,0.));
#318=DIRECTION('',(0.,0.,-1.));
#319=DIRECTION('',(-1.,0.,0.));
#320=DIRECTION('',(0.,0.,1.));
#321=DIRECTION('',(1.,0.,0.));
#322=DIRECTION('',(0.,0.,-1.));
#323=DIRECTION('',(-1.,0.,0.));
#324=DIRECTION('',(0.,0.,-1.));
#325=DIRECTION('',(-1.,0.,0.));
#326=DIRECTION('',(0.,0.,-1.));
#327=DIRECTION('',(1.,0.,0.));
#328=DIRECTION('',(0.,0.,-1.));
#329=DIRECTION('',(1.,0.,0.));
#330=DIRECTION('',(0.,0.,1.));
#331=DIRECTION('',(1.,0.,0.));
#332=DIRECTION('',(0.,0.,1.));
#333=DIRECTION('',(1.,0.,0.));
#334=DIRECTION('',(0.,0.,1.));
#335=DIRECTION('',(1.,0.,0.));
#336=DIRECTION('',(0.,0.,1.));
#337=DIRECTION('',(1.,0.,0.));
#338=DIRECTION('',(0.,0.,1.));
#339=DIRECTION('',(1.,0.,0.));
#340=CARTESIAN_POINT('',(0.,0.,0.));
#341=CARTESIAN_POINT('',(0.,0.,0.));
#342=CARTESIAN_POINT('',(0.,3.33716252767653E-19,0.));
#343=CARTESIAN_POINT('',(0.00545,3.33716252767653E-19,0.));
#344=CARTESIAN_POINT('',(-3.25260651745652E-19,-2.16840434497101E-19,0.));
#345=CARTESIAN_POINT('',(-0.00187082869338697,-0.00325,0.));
#346=CARTESIAN_POINT('',(-0.00187082869338697,0.00325,0.));
#347=CARTESIAN_POINT('',(0.,-0.00325,0.));
#348=CARTESIAN_POINT('',(0.00187082869338697,-0.00325,0.));
#349=CARTESIAN_POINT('',(2.16840434497101E-19,-1.0842021724855E-18,0.));
#350=CARTESIAN_POINT('',(0.00187082869338697,0.00325,0.));
#351=CARTESIAN_POINT('',(0.,0.00325,0.));
#352=CARTESIAN_POINT('',(0.,3.33716252767653E-19,0.02275));
#353=CARTESIAN_POINT('',(0.,3.33716252767653E-19,0.02275));
#354=CARTESIAN_POINT('',(0.00545,3.33716252767653E-19,0.02275));
#355=CARTESIAN_POINT('',(0.,0.,0.02275));
#356=CARTESIAN_POINT('',(0.,4.61504722746354E-19,0.02275));
#357=CARTESIAN_POINT('',(0.00408694408980078,4.61504722746354E-19,0.02275));
#358=CARTESIAN_POINT('',(0.,-0.00325,-0.012));
#359=CARTESIAN_POINT('',(-0.00187082869338697,-0.00325,-0.012));
#360=CARTESIAN_POINT('',(-0.00187082869338697,-0.00325,-0.012));
#361=CARTESIAN_POINT('',(0.,-0.00325,-0.012));
#362=CARTESIAN_POINT('',(0.00187082869338697,-0.00325,-0.012));
#363=CARTESIAN_POINT('',(0.00187082869338697,-0.00325,-0.012));
#364=CARTESIAN_POINT('',(-3.25260651745652E-19,-2.16840434497101E-19,-0.012));
#365=CARTESIAN_POINT('',(-0.00187082869338697,0.00325,-0.012));
#366=CARTESIAN_POINT('',(-0.00187082869338697,0.00325,-0.012));
#367=CARTESIAN_POINT('',(-3.25260651745652E-19,-2.16840434497101E-19,-0.012));
#368=CARTESIAN_POINT('',(0.,0.00325,-0.012));
#369=CARTESIAN_POINT('',(0.00187082869338697,0.00325,-0.012));
#370=CARTESIAN_POINT('',(0.00187082869338697,0.00325,-0.012));
#371=CARTESIAN_POINT('',(0.,0.00325,-0.012));
#372=CARTESIAN_POINT('',(2.16840434497101E-19,-1.0842021724855E-18,-0.012));
#373=CARTESIAN_POINT('',(2.16840434497101E-19,-1.0842021724855E-18,-0.012));
#374=CARTESIAN_POINT('',(0.,0.,-0.012));
#375=CARTESIAN_POINT('',(-2.16840434497101E-19,-2.95523991342319E-19,-0.012));
#376=CARTESIAN_POINT('',(-0.001285,-2.95523991342319E-19,-0.012));
#377=CARTESIAN_POINT('',(-2.16840434497101E-19,-2.95523991342319E-19,-0.0194));
#378=CARTESIAN_POINT('',(-2.16840434497101E-19,-2.95523991342319E-19,-0.0194));
#379=CARTESIAN_POINT('',(-0.001285,-2.95523991342319E-19,-0.0194));
#380=CARTESIAN_POINT('',(0.,0.,-0.0194));
#381=CARTESIAN_POINT('',(-2.16840434497101E-19,-3.34493184628367E-19,-0.0194));
#382=CARTESIAN_POINT('',(-0.000636415222955405,-3.34493184628367E-19,-0.0194));
#383=CARTESIAN_POINT('',(-2.16840434497101E-19,-3.34493184628367E-19,-0.0209));
#384=CARTESIAN_POINT('',(-2.16840434497101E-19,-3.34493184628367E-19,-0.0209));
#385=CARTESIAN_POINT('',(-0.000636415222955405,-3.34493184628367E-19,-0.0209));
#386=CARTESIAN_POINT('',(-2.16840434497101E-19,-3.99767417697675E-19,-0.02168));
#387=CARTESIAN_POINT('',(-2.16840434497101E-19,-3.99767417697675E-19,-0.02168));
#388=CARTESIAN_POINT('',(-0.00106600912385112,-3.99767417697675E-19,-0.02168));
#389=CARTESIAN_POINT('',(-2.16840434497101E-19,-3.99767417697675E-19,-0.0209));
#390=CARTESIAN_POINT('',(-0.00106600912385112,-3.99767417697675E-19,-0.0209));
#391=CARTESIAN_POINT('',(0.,0.,-0.02168));
#392=CARTESIAN_POINT('',(0.,0.,-0.0209));
#393=CARTESIAN_POINT('',(0.,4.61504722746354E-19,0.00475));
#394=CARTESIAN_POINT('',(0.,4.61504722746354E-19,0.02075));
#395=CARTESIAN_POINT('',(0.00208694408980078,4.61504722746354E-19,0.02075));
#396=CARTESIAN_POINT('',(0.,4.61504722746354E-19,0.00475));
#397=CARTESIAN_POINT('',(0.00208694408980078,4.61504722746354E-19,0.00475));
#398=CARTESIAN_POINT('',(0.,0.,0.00475));
#399=CARTESIAN_POINT('',(0.,4.61504722746354E-19,0.02075));
#400=MECHANICAL_DESIGN_GEOMETRIC_PRESENTATION_REPRESENTATION('',(#222),
#401);
#401=(
GEOMETRIC_REPRESENTATION_CONTEXT(3)
GLOBAL_UNCERTAINTY_ASSIGNED_CONTEXT((#402))
GLOBAL_UNIT_ASSIGNED_CONTEXT((#405,#404,#403))
REPRESENTATION_CONTEXT('PRT-09739','TOP_LEVEL_ASSEMBLY_PART')
);
#402=UNCERTAINTY_MEASURE_WITH_UNIT(LENGTH_MEASURE(1.E-8),#405,
'DISTANCE_ACCURACY_VALUE','Maximum Tolerance applied to model');
#403=(
NAMED_UNIT(*)
SI_UNIT($,.STERADIAN.)
SOLID_ANGLE_UNIT()
);
#404=(
NAMED_UNIT(*)
PLANE_ANGLE_UNIT()
SI_UNIT($,.RADIAN.)
);
#405=(
LENGTH_UNIT()
NAMED_UNIT(*)
SI_UNIT($,.METRE.)
);
#406=PRODUCT_DEFINITION_SHAPE('','',#407);
#407=PRODUCT_DEFINITION('','',#409,#408);
#408=PRODUCT_DEFINITION_CONTEXT('',#415,'design');
#409=PRODUCT_DEFINITION_FORMATION_WITH_SPECIFIED_SOURCE('','',#411,
 .NOT_KNOWN.);
#410=PRODUCT_RELATED_PRODUCT_CATEGORY('','',(#411));
#411=PRODUCT('PRT-09739','PRT-09739','PRT-09739',(#413));
#412=PRODUCT_CATEGORY('','');
#413=PRODUCT_CONTEXT('',#415,'mechanical');
#414=APPLICATION_PROTOCOL_DEFINITION('international standard',
'ap242_managed_model_based_3d_engineering',2011,#415);
#415=APPLICATION_CONTEXT('managed model based 3d engineering');
ENDSEC;
END-ISO-10303-21;
